<svg width="1363" height="163" viewBox="0 0 1363 163" fill="none" xmlns="http://www.w3.org/2000/svg">
<path d="M0 15C0 6.71573 6.71573 0 15 0H37V163H15C6.71573 163 0 156.284 0 148V15Z" fill="#1F7A8C"/>
<rect width="1097" height="163" transform="translate(37)" fill="#F0F0F0"/>
<path d="M101.906 53.9219L94.3945 51.2383V48.0859L104.602 52.375V54.6367L101.906 53.9219ZM94.3945 56.1719L101.918 53.4297L104.602 52.7852V55.0352L94.3945 59.3242V56.1719ZM119.543 54.918H115.195V52.1758H119.543C120.215 52.1758 120.762 52.0664 121.184 51.8477C121.605 51.6211 121.914 51.3086 122.109 50.9102C122.305 50.5117 122.402 50.0625 122.402 49.5625C122.402 49.0547 122.305 48.582 122.109 48.1445C121.914 47.707 121.605 47.3555 121.184 47.0898C120.762 46.8242 120.215 46.6914 119.543 46.6914H116.414V61H112.898V43.9375H119.543C120.879 43.9375 122.023 44.1797 122.977 44.6641C123.938 45.1406 124.672 45.8008 125.18 46.6445C125.688 47.4883 125.941 48.4531 125.941 49.5391C125.941 50.6406 125.688 51.5938 125.18 52.3984C124.672 53.2031 123.938 53.8242 122.977 54.2617C122.023 54.6992 120.879 54.918 119.543 54.918ZM131.531 51.0859V61H128.156V48.3203H131.332L131.531 51.0859ZM135.352 48.2383L135.293 51.3672C135.129 51.3438 134.93 51.3242 134.695 51.3086C134.469 51.2852 134.262 51.2734 134.074 51.2734C133.598 51.2734 133.184 51.3359 132.832 51.4609C132.488 51.5781 132.199 51.7539 131.965 51.9883C131.738 52.2227 131.566 52.5078 131.449 52.8438C131.34 53.1797 131.277 53.5625 131.262 53.9922L130.582 53.7812C130.582 52.9609 130.664 52.207 130.828 51.5195C130.992 50.8242 131.23 50.2188 131.543 49.7031C131.863 49.1875 132.254 48.7891 132.715 48.5078C133.176 48.2266 133.703 48.0859 134.297 48.0859C134.484 48.0859 134.676 48.1016 134.871 48.1328C135.066 48.1562 135.227 48.1914 135.352 48.2383ZM136.055 54.7891V54.543C136.055 53.6133 136.188 52.7578 136.453 51.9766C136.719 51.1875 137.105 50.5039 137.613 49.9258C138.121 49.3477 138.746 48.8984 139.488 48.5781C140.23 48.25 141.082 48.0859 142.043 48.0859C143.004 48.0859 143.859 48.25 144.609 48.5781C145.359 48.8984 145.988 49.3477 146.496 49.9258C147.012 50.5039 147.402 51.1875 147.668 51.9766C147.934 52.7578 148.066 53.6133 148.066 54.543V54.7891C148.066 55.7109 147.934 56.5664 147.668 57.3555C147.402 58.1367 147.012 58.8203 146.496 59.4062C145.988 59.9844 145.363 60.4336 144.621 60.7539C143.879 61.0742 143.027 61.2344 142.066 61.2344C141.105 61.2344 140.25 61.0742 139.5 60.7539C138.758 60.4336 138.129 59.9844 137.613 59.4062C137.105 58.8203 136.719 58.1367 136.453 57.3555C136.188 56.5664 136.055 55.7109 136.055 54.7891ZM139.43 54.543V54.7891C139.43 55.3203 139.477 55.8164 139.57 56.2773C139.664 56.7383 139.812 57.1445 140.016 57.4961C140.227 57.8398 140.5 58.1094 140.836 58.3047C141.172 58.5 141.582 58.5977 142.066 58.5977C142.535 58.5977 142.938 58.5 143.273 58.3047C143.609 58.1094 143.879 57.8398 144.082 57.4961C144.285 57.1445 144.434 56.7383 144.527 56.2773C144.629 55.8164 144.68 55.3203 144.68 54.7891V54.543C144.68 54.0273 144.629 53.543 144.527 53.0898C144.434 52.6289 144.281 52.2227 144.07 51.8711C143.867 51.5117 143.598 51.2305 143.262 51.0273C142.926 50.8242 142.52 50.7227 142.043 50.7227C141.566 50.7227 141.16 50.8242 140.824 51.0273C140.496 51.2305 140.227 51.5117 140.016 51.8711C139.812 52.2227 139.664 52.6289 139.57 53.0898C139.477 53.543 139.43 54.0273 139.43 54.543ZM150.328 48.3203H153.715V61.7617C153.715 62.6992 153.543 63.4922 153.199 64.1406C152.855 64.7891 152.359 65.2812 151.711 65.6172C151.062 65.9531 150.277 66.1211 149.355 66.1211C149.066 66.1211 148.785 66.1055 148.512 66.0742C148.23 66.043 147.941 65.9922 147.645 65.9219L147.656 63.332C147.844 63.3633 148.027 63.3867 148.207 63.4023C148.379 63.4258 148.555 63.4375 148.734 63.4375C149.086 63.4375 149.379 63.3789 149.613 63.2617C149.848 63.1445 150.023 62.9609 150.141 62.7109C150.266 62.4688 150.328 62.1523 150.328 61.7617V48.3203ZM150.059 45.0156C150.059 44.5234 150.23 44.1172 150.574 43.7969C150.926 43.4766 151.387 43.3164 151.957 43.3164C152.535 43.3164 152.996 43.4766 153.34 43.7969C153.684 44.1172 153.855 44.5234 153.855 45.0156C153.855 45.5078 153.684 45.9141 153.34 46.2344C152.996 46.5547 152.535 46.7148 151.957 46.7148C151.387 46.7148 150.926 46.5547 150.574 46.2344C150.23 45.9141 150.059 45.5078 150.059 45.0156ZM162.234 61.2344C161.25 61.2344 160.367 61.0781 159.586 60.7656C158.805 60.4453 158.141 60.0039 157.594 59.4414C157.055 58.8789 156.641 58.2266 156.352 57.4844C156.062 56.7344 155.918 55.9375 155.918 55.0938V54.625C155.918 53.6641 156.055 52.7852 156.328 51.9883C156.602 51.1914 156.992 50.5 157.5 49.9141C158.016 49.3281 158.641 48.8789 159.375 48.5664C160.109 48.2461 160.938 48.0859 161.859 48.0859C162.758 48.0859 163.555 48.2344 164.25 48.5312C164.945 48.8281 165.527 49.25 165.996 49.7969C166.473 50.3438 166.832 51 167.074 51.7656C167.316 52.5234 167.438 53.3672 167.438 54.2969V55.7031H157.359V53.4531H164.121V53.1953C164.121 52.7266 164.035 52.3086 163.863 51.9414C163.699 51.5664 163.449 51.2695 163.113 51.0508C162.777 50.832 162.348 50.7227 161.824 50.7227C161.379 50.7227 160.996 50.8203 160.676 51.0156C160.355 51.2109 160.094 51.4844 159.891 51.8359C159.695 52.1875 159.547 52.6016 159.445 53.0781C159.352 53.5469 159.305 54.0625 159.305 54.625V55.0938C159.305 55.6016 159.375 56.0703 159.516 56.5C159.664 56.9297 159.871 57.3008 160.137 57.6133C160.41 57.9258 160.738 58.168 161.121 58.3398C161.512 58.5117 161.953 58.5977 162.445 58.5977C163.055 58.5977 163.621 58.4805 164.145 58.2461C164.676 58.0039 165.133 57.6406 165.516 57.1562L167.156 58.9375C166.891 59.3203 166.527 59.6875 166.066 60.0391C165.613 60.3906 165.066 60.6797 164.426 60.9062C163.785 61.125 163.055 61.2344 162.234 61.2344ZM174.598 58.5977C175.012 58.5977 175.379 58.5195 175.699 58.3633C176.02 58.1992 176.27 57.9727 176.449 57.6836C176.637 57.3867 176.734 57.0391 176.742 56.6406H179.918C179.91 57.5312 179.672 58.3242 179.203 59.0195C178.734 59.707 178.105 60.25 177.316 60.6484C176.527 61.0391 175.645 61.2344 174.668 61.2344C173.684 61.2344 172.824 61.0703 172.09 60.7422C171.363 60.4141 170.758 59.9609 170.273 59.3828C169.789 58.7969 169.426 58.1172 169.184 57.3438C168.941 56.5625 168.82 55.7266 168.82 54.8359V54.4961C168.82 53.5977 168.941 52.7617 169.184 51.9883C169.426 51.207 169.789 50.5273 170.273 49.9492C170.758 49.3633 171.363 48.9062 172.09 48.5781C172.816 48.25 173.668 48.0859 174.645 48.0859C175.684 48.0859 176.594 48.2852 177.375 48.6836C178.164 49.082 178.781 49.6523 179.227 50.3945C179.68 51.1289 179.91 52 179.918 53.0078H176.742C176.734 52.5859 176.645 52.2031 176.473 51.8594C176.309 51.5156 176.066 51.2422 175.746 51.0391C175.434 50.8281 175.047 50.7227 174.586 50.7227C174.094 50.7227 173.691 50.8281 173.379 51.0391C173.066 51.2422 172.824 51.5234 172.652 51.8828C172.48 52.2344 172.359 52.6367 172.289 53.0898C172.227 53.5352 172.195 54.0039 172.195 54.4961V54.8359C172.195 55.3281 172.227 55.8008 172.289 56.2539C172.352 56.707 172.469 57.1094 172.641 57.4609C172.82 57.8125 173.066 58.0898 173.379 58.293C173.691 58.4961 174.098 58.5977 174.598 58.5977ZM188.086 48.3203V50.7109H180.703V48.3203H188.086ZM182.531 45.1914H185.906V57.1797C185.906 57.5469 185.953 57.8281 186.047 58.0234C186.148 58.2188 186.297 58.3555 186.492 58.4336C186.688 58.5039 186.934 58.5391 187.23 58.5391C187.441 58.5391 187.629 58.5312 187.793 58.5156C187.965 58.4922 188.109 58.4688 188.227 58.4453L188.238 60.9297C187.949 61.0234 187.637 61.0977 187.301 61.1523C186.965 61.207 186.594 61.2344 186.188 61.2344C185.445 61.2344 184.797 61.1133 184.242 60.8711C183.695 60.6211 183.273 60.2227 182.977 59.6758C182.68 59.1289 182.531 58.4102 182.531 57.5195V45.1914ZM203.191 43.9375V61H199.688V43.9375H203.191ZM208.441 43.9375V46.6914H194.52V43.9375H208.441ZM213.797 48.3203V61H210.41V48.3203H213.797ZM210.199 45.0156C210.199 44.5234 210.371 44.1172 210.715 43.7969C211.059 43.4766 211.52 43.3164 212.098 43.3164C212.668 43.3164 213.125 43.4766 213.469 43.7969C213.82 44.1172 213.996 44.5234 213.996 45.0156C213.996 45.5078 213.82 45.9141 213.469 46.2344C213.125 46.5547 212.668 46.7148 212.098 46.7148C211.52 46.7148 211.059 46.5547 210.715 46.2344C210.371 45.9141 210.199 45.5078 210.199 45.0156ZM222.797 48.3203V50.7109H215.414V48.3203H222.797ZM217.242 45.1914H220.617V57.1797C220.617 57.5469 220.664 57.8281 220.758 58.0234C220.859 58.2188 221.008 58.3555 221.203 58.4336C221.398 58.5039 221.645 58.5391 221.941 58.5391C222.152 58.5391 222.34 58.5312 222.504 58.5156C222.676 58.4922 222.82 58.4688 222.938 58.4453L222.949 60.9297C222.66 61.0234 222.348 61.0977 222.012 61.1523C221.676 61.207 221.305 61.2344 220.898 61.2344C220.156 61.2344 219.508 61.1133 218.953 60.8711C218.406 60.6211 217.984 60.2227 217.688 59.6758C217.391 59.1289 217.242 58.4102 217.242 57.5195V45.1914ZM228.281 43V61H224.895V43H228.281ZM236.906 61.2344C235.922 61.2344 235.039 61.0781 234.258 60.7656C233.477 60.4453 232.812 60.0039 232.266 59.4414C231.727 58.8789 231.312 58.2266 231.023 57.4844C230.734 56.7344 230.59 55.9375 230.59 55.0938V54.625C230.59 53.6641 230.727 52.7852 231 51.9883C231.273 51.1914 231.664 50.5 232.172 49.9141C232.688 49.3281 233.312 48.8789 234.047 48.5664C234.781 48.2461 235.609 48.0859 236.531 48.0859C237.43 48.0859 238.227 48.2344 238.922 48.5312C239.617 48.8281 240.199 49.25 240.668 49.7969C241.145 50.3438 241.504 51 241.746 51.7656C241.988 52.5234 242.109 53.3672 242.109 54.2969V55.7031H232.031V53.4531H238.793V53.1953C238.793 52.7266 238.707 52.3086 238.535 51.9414C238.371 51.5664 238.121 51.2695 237.785 51.0508C237.449 50.832 237.02 50.7227 236.496 50.7227C236.051 50.7227 235.668 50.8203 235.348 51.0156C235.027 51.2109 234.766 51.4844 234.562 51.8359C234.367 52.1875 234.219 52.6016 234.117 53.0781C234.023 53.5469 233.977 54.0625 233.977 54.625V55.0938C233.977 55.6016 234.047 56.0703 234.188 56.5C234.336 56.9297 234.543 57.3008 234.809 57.6133C235.082 57.9258 235.41 58.168 235.793 58.3398C236.184 58.5117 236.625 58.5977 237.117 58.5977C237.727 58.5977 238.293 58.4805 238.816 58.2461C239.348 58.0039 239.805 57.6406 240.188 57.1562L241.828 58.9375C241.562 59.3203 241.199 59.6875 240.738 60.0391C240.285 60.3906 239.738 60.6797 239.098 60.9062C238.457 61.125 237.727 61.2344 236.906 61.2344Z" fill="#888888"/>
<path d="M124.477 101.258V102.641C124.477 105.25 124.109 107.594 123.375 109.672C122.656 111.734 121.633 113.5 120.305 114.969C118.977 116.422 117.406 117.539 115.594 118.32C113.781 119.086 111.781 119.469 109.594 119.469C107.391 119.469 105.375 119.086 103.547 118.32C101.734 117.539 100.156 116.422 98.8125 114.969C97.4844 113.5 96.4531 111.734 95.7188 109.672C95 107.594 94.6406 105.25 94.6406 102.641V101.258C94.6406 98.6484 95 96.3047 95.7188 94.2266C96.4531 92.1484 97.4766 90.3828 98.7891 88.9297C100.117 87.4609 101.688 86.3438 103.5 85.5781C105.328 84.7969 107.344 84.4062 109.547 84.4062C111.734 84.4062 113.734 84.7969 115.547 85.5781C117.375 86.3438 118.953 87.4609 120.281 88.9297C121.609 90.3828 122.641 92.1484 123.375 94.2266C124.109 96.3047 124.477 98.6484 124.477 101.258ZM116.133 102.641V101.211C116.133 99.5234 115.984 98.0391 115.688 96.7578C115.406 95.4609 114.984 94.375 114.422 93.5C113.859 92.625 113.164 91.9688 112.336 91.5312C111.523 91.0781 110.594 90.8516 109.547 90.8516C108.453 90.8516 107.5 91.0781 106.688 91.5312C105.875 91.9688 105.195 92.625 104.648 93.5C104.102 94.375 103.688 95.4609 103.406 96.7578C103.141 98.0391 103.008 99.5234 103.008 101.211V102.641C103.008 104.312 103.141 105.797 103.406 107.094C103.688 108.375 104.102 109.461 104.648 110.352C105.211 111.242 105.898 111.914 106.711 112.367C107.539 112.82 108.5 113.047 109.594 113.047C110.641 113.047 111.57 112.82 112.383 112.367C113.195 111.914 113.875 111.242 114.422 110.352C114.984 109.461 115.406 108.375 115.688 107.094C115.984 105.797 116.133 104.312 116.133 102.641ZM136.336 98.5156V128.75H128.438V93.6406H135.797L136.336 98.5156ZM151.898 106.016V106.508C151.898 108.352 151.688 110.062 151.266 111.641C150.844 113.219 150.219 114.594 149.391 115.766C148.562 116.938 147.531 117.852 146.297 118.508C145.078 119.148 143.664 119.469 142.055 119.469C140.539 119.469 139.234 119.133 138.141 118.461C137.047 117.789 136.133 116.859 135.398 115.672C134.664 114.484 134.07 113.125 133.617 111.594C133.164 110.062 132.805 108.445 132.539 106.742V106.109C132.805 104.281 133.164 102.586 133.617 101.023C134.07 99.4453 134.664 98.0703 135.398 96.8984C136.133 95.7266 137.039 94.8125 138.117 94.1562C139.211 93.5 140.516 93.1719 142.031 93.1719C143.641 93.1719 145.055 93.4766 146.273 94.0859C147.508 94.6953 148.539 95.5703 149.367 96.7109C150.211 97.8359 150.844 99.1875 151.266 100.766C151.688 102.344 151.898 104.094 151.898 106.016ZM144 106.508V106.016C144 105.031 143.93 104.133 143.789 103.32C143.648 102.492 143.422 101.773 143.109 101.164C142.812 100.555 142.414 100.086 141.914 99.7578C141.414 99.4297 140.797 99.2656 140.062 99.2656C139.219 99.2656 138.508 99.3984 137.93 99.6641C137.367 99.9141 136.914 100.305 136.57 100.836C136.242 101.352 136.008 102 135.867 102.781C135.742 103.547 135.688 104.445 135.703 105.477V107.398C135.672 108.586 135.789 109.633 136.055 110.539C136.32 111.43 136.781 112.125 137.438 112.625C138.094 113.125 138.984 113.375 140.109 113.375C140.859 113.375 141.484 113.203 141.984 112.859C142.484 112.5 142.883 112.008 143.18 111.383C143.477 110.742 143.688 110.008 143.812 109.18C143.938 108.352 144 107.461 144 106.508ZM167.695 119.469C165.633 119.469 163.789 119.148 162.164 118.508C160.539 117.852 159.164 116.953 158.039 115.812C156.93 114.672 156.078 113.359 155.484 111.875C154.906 110.391 154.617 108.82 154.617 107.164V106.273C154.617 104.414 154.875 102.695 155.391 101.117C155.906 99.5234 156.672 98.1328 157.688 96.9453C158.703 95.7578 159.977 94.8359 161.508 94.1797C163.039 93.5078 164.82 93.1719 166.852 93.1719C168.648 93.1719 170.258 93.4609 171.68 94.0391C173.102 94.6172 174.305 95.4453 175.289 96.5234C176.289 97.6016 177.047 98.9062 177.562 100.438C178.094 101.969 178.359 103.688 178.359 105.594V108.805H157.641V103.859H170.648V103.25C170.664 102.406 170.516 101.688 170.203 101.094C169.906 100.5 169.469 100.047 168.891 99.7344C168.312 99.4219 167.609 99.2656 166.781 99.2656C165.922 99.2656 165.211 99.4531 164.648 99.8281C164.102 100.203 163.672 100.719 163.359 101.375C163.062 102.016 162.852 102.758 162.727 103.602C162.602 104.445 162.539 105.336 162.539 106.273V107.164C162.539 108.102 162.664 108.953 162.914 109.719C163.18 110.484 163.555 111.141 164.039 111.688C164.539 112.219 165.133 112.633 165.82 112.93C166.523 113.227 167.32 113.375 168.211 113.375C169.289 113.375 170.352 113.172 171.398 112.766C172.445 112.359 173.344 111.688 174.094 110.75L177.68 115.016C177.164 115.75 176.43 116.461 175.477 117.148C174.539 117.836 173.414 118.398 172.102 118.836C170.789 119.258 169.32 119.469 167.695 119.469ZM189.328 99.0547V119H181.43V93.6406H188.836L189.328 99.0547ZM188.391 105.453L186.539 105.5C186.539 103.562 186.773 101.836 187.242 100.32C187.711 98.7891 188.375 97.4922 189.234 96.4297C190.094 95.3672 191.117 94.5625 192.305 94.0156C193.508 93.4531 194.844 93.1719 196.312 93.1719C197.484 93.1719 198.555 93.3438 199.523 93.6875C200.508 94.0312 201.352 94.5859 202.055 95.3516C202.773 96.1172 203.32 97.1328 203.695 98.3984C204.086 99.6484 204.281 101.195 204.281 103.039V119H196.336V103.016C196.336 102 196.195 101.227 195.914 100.695C195.633 100.148 195.227 99.7734 194.695 99.5703C194.164 99.3672 193.516 99.2656 192.75 99.2656C191.938 99.2656 191.25 99.4219 190.688 99.7344C190.125 100.047 189.672 100.484 189.328 101.047C189 101.594 188.758 102.242 188.602 102.992C188.461 103.742 188.391 104.562 188.391 105.453ZM223.5 92.0469L215.18 119H206.344L218.883 84.875H224.484L223.5 92.0469ZM230.391 119L222.047 92.0469L220.969 84.875H226.641L239.25 119H230.391ZM230.062 106.273V112.625H212.555V106.273H230.062ZM250.5 84.875V119H242.297V84.875H250.5ZM282.258 84.875L270.586 121.93H264.961L276.633 84.875H282.258ZM324.984 100.766V114.781C324.406 115.422 323.516 116.109 322.312 116.844C321.125 117.562 319.625 118.18 317.812 118.695C316 119.211 313.867 119.469 311.414 119.469C309.148 119.469 307.094 119.109 305.25 118.391C303.406 117.656 301.82 116.586 300.492 115.18C299.18 113.758 298.164 112.023 297.445 109.977C296.742 107.914 296.391 105.555 296.391 102.898V101C296.391 98.3438 296.75 95.9844 297.469 93.9219C298.188 91.8594 299.195 90.125 300.492 88.7188C301.805 87.2969 303.344 86.2188 305.109 85.4844C306.891 84.75 308.844 84.3828 310.969 84.3828C314.109 84.3828 316.664 84.8828 318.633 85.8828C320.602 86.8672 322.094 88.2344 323.109 89.9844C324.125 91.7188 324.742 93.7266 324.961 96.0078H317.062C316.906 94.8828 316.609 93.9297 316.172 93.1484C315.75 92.3516 315.141 91.75 314.344 91.3438C313.547 90.9219 312.516 90.7109 311.25 90.7109C310.266 90.7109 309.367 90.9219 308.555 91.3438C307.758 91.7656 307.078 92.4062 306.516 93.2656C305.953 94.1094 305.516 95.1719 305.203 96.4531C304.906 97.7344 304.758 99.2344 304.758 100.953V102.898C304.758 104.602 304.898 106.094 305.18 107.375C305.477 108.656 305.914 109.727 306.492 110.586C307.086 111.43 307.836 112.07 308.742 112.508C309.664 112.93 310.75 113.141 312 113.141C312.875 113.141 313.625 113.07 314.25 112.93C314.875 112.773 315.391 112.586 315.797 112.367C316.219 112.133 316.539 111.914 316.758 111.711V106.414H311.039V100.766H324.984ZM341.695 119.469C339.633 119.469 337.789 119.148 336.164 118.508C334.539 117.852 333.164 116.953 332.039 115.812C330.93 114.672 330.078 113.359 329.484 111.875C328.906 110.391 328.617 108.82 328.617 107.164V106.273C328.617 104.414 328.875 102.695 329.391 101.117C329.906 99.5234 330.672 98.1328 331.688 96.9453C332.703 95.7578 333.977 94.8359 335.508 94.1797C337.039 93.5078 338.82 93.1719 340.852 93.1719C342.648 93.1719 344.258 93.4609 345.68 94.0391C347.102 94.6172 348.305 95.4453 349.289 96.5234C350.289 97.6016 351.047 98.9062 351.562 100.438C352.094 101.969 352.359 103.688 352.359 105.594V108.805H331.641V103.859H344.648V103.25C344.664 102.406 344.516 101.688 344.203 101.094C343.906 100.5 343.469 100.047 342.891 99.7344C342.312 99.4219 341.609 99.2656 340.781 99.2656C339.922 99.2656 339.211 99.4531 338.648 99.8281C338.102 100.203 337.672 100.719 337.359 101.375C337.062 102.016 336.852 102.758 336.727 103.602C336.602 104.445 336.539 105.336 336.539 106.273V107.164C336.539 108.102 336.664 108.953 336.914 109.719C337.18 110.484 337.555 111.141 338.039 111.688C338.539 112.219 339.133 112.633 339.82 112.93C340.523 113.227 341.32 113.375 342.211 113.375C343.289 113.375 344.352 113.172 345.398 112.766C346.445 112.359 347.344 111.688 348.094 110.75L351.68 115.016C351.164 115.75 350.43 116.461 349.477 117.148C348.539 117.836 347.414 118.398 346.102 118.836C344.789 119.258 343.32 119.469 341.695 119.469ZM363.539 99.0078V119H355.641V93.6406H363.047L363.539 99.0078ZM362.578 105.453L360.773 105.5C360.773 103.719 360.984 102.078 361.406 100.578C361.828 99.0781 362.453 97.7734 363.281 96.6641C364.109 95.5547 365.125 94.6953 366.328 94.0859C367.547 93.4766 368.953 93.1719 370.547 93.1719C371.656 93.1719 372.664 93.3438 373.57 93.6875C374.477 94.0156 375.258 94.5391 375.914 95.2578C376.57 95.9609 377.07 96.8828 377.414 98.0234C377.773 99.1484 377.953 100.5 377.953 102.078V119H370.055V103.086C370.055 102.008 369.93 101.195 369.68 100.648C369.445 100.102 369.102 99.7344 368.648 99.5469C368.195 99.3594 367.641 99.2656 366.984 99.2656C366.297 99.2656 365.68 99.4219 365.133 99.7344C364.586 100.047 364.117 100.484 363.727 101.047C363.352 101.594 363.062 102.242 362.859 102.992C362.672 103.742 362.578 104.562 362.578 105.453ZM377.062 105.453L374.859 105.5C374.859 103.719 375.055 102.078 375.445 100.578C375.852 99.0781 376.453 97.7734 377.25 96.6641C378.062 95.5547 379.07 94.6953 380.273 94.0859C381.477 93.4766 382.875 93.1719 384.469 93.1719C385.625 93.1719 386.688 93.3438 387.656 93.6875C388.625 94.0312 389.461 94.5859 390.164 95.3516C390.867 96.1172 391.414 97.1328 391.805 98.3984C392.195 99.6484 392.391 101.195 392.391 103.039V119H384.469V103.039C384.469 101.992 384.344 101.203 384.094 100.672C383.859 100.125 383.516 99.7578 383.062 99.5703C382.609 99.3672 382.07 99.2656 381.445 99.2656C380.695 99.2656 380.047 99.4219 379.5 99.7344C378.953 100.047 378.492 100.484 378.117 101.047C377.758 101.594 377.492 102.242 377.32 102.992C377.148 103.742 377.062 104.562 377.062 105.453ZM405.258 93.6406V119H397.336V93.6406H405.258ZM396.867 87.1016C396.867 85.9766 397.273 85.0547 398.086 84.3359C398.898 83.6172 399.953 83.2578 401.25 83.2578C402.547 83.2578 403.602 83.6172 404.414 84.3359C405.227 85.0547 405.633 85.9766 405.633 87.1016C405.633 88.2266 405.227 89.1484 404.414 89.8672C403.602 90.5859 402.547 90.9453 401.25 90.9453C399.953 90.9453 398.898 90.5859 398.086 89.8672C397.273 89.1484 396.867 88.2266 396.867 87.1016ZM417.891 99.0547V119H409.992V93.6406H417.398L417.891 99.0547ZM416.953 105.453L415.102 105.5C415.102 103.562 415.336 101.836 415.805 100.32C416.273 98.7891 416.938 97.4922 417.797 96.4297C418.656 95.3672 419.68 94.5625 420.867 94.0156C422.07 93.4531 423.406 93.1719 424.875 93.1719C426.047 93.1719 427.117 93.3438 428.086 93.6875C429.07 94.0312 429.914 94.5859 430.617 95.3516C431.336 96.1172 431.883 97.1328 432.258 98.3984C432.648 99.6484 432.844 101.195 432.844 103.039V119H424.898V103.016C424.898 102 424.758 101.227 424.477 100.695C424.195 100.148 423.789 99.7734 423.258 99.5703C422.727 99.3672 422.078 99.2656 421.312 99.2656C420.5 99.2656 419.812 99.4219 419.25 99.7344C418.688 100.047 418.234 100.484 417.891 101.047C417.562 101.594 417.32 102.242 417.164 102.992C417.023 103.742 416.953 104.562 416.953 105.453ZM445.57 93.6406V119H437.648V93.6406H445.57ZM437.18 87.1016C437.18 85.9766 437.586 85.0547 438.398 84.3359C439.211 83.6172 440.266 83.2578 441.562 83.2578C442.859 83.2578 443.914 83.6172 444.727 84.3359C445.539 85.0547 445.945 85.9766 445.945 87.1016C445.945 88.2266 445.539 89.1484 444.727 89.8672C443.914 90.5859 442.859 90.9453 441.562 90.9453C440.266 90.9453 439.211 90.5859 438.398 89.8672C437.586 89.1484 437.18 88.2266 437.18 87.1016ZM477.234 92.0469L468.914 119H460.078L472.617 84.875H478.219L477.234 92.0469ZM484.125 119L475.781 92.0469L474.703 84.875H480.375L492.984 119H484.125ZM483.797 106.273V112.625H466.289V106.273H483.797ZM509.109 107.422H500.625V101.07H509.109C510.266 101.07 511.203 100.875 511.922 100.484C512.641 100.094 513.164 99.5547 513.492 98.8672C513.836 98.1641 514.008 97.375 514.008 96.5C514.008 95.5625 513.836 94.6953 513.492 93.8984C513.164 93.1016 512.641 92.4609 511.922 91.9766C511.203 91.4766 510.266 91.2266 509.109 91.2266H503.719V119H495.492V84.875H509.109C511.844 84.875 514.195 85.375 516.164 86.375C518.148 87.375 519.672 88.75 520.734 90.5C521.797 92.2344 522.328 94.2188 522.328 96.4531C522.328 98.6562 521.797 100.578 520.734 102.219C519.672 103.859 518.148 105.141 516.164 106.062C514.195 106.969 511.844 107.422 509.109 107.422ZM535.5 84.875V119H527.297V84.875H535.5ZM541.43 115.297C541.43 114.172 541.836 113.234 542.648 112.484C543.461 111.719 544.508 111.336 545.789 111.336C547.086 111.336 548.133 111.719 548.93 112.484C549.742 113.234 550.148 114.172 550.148 115.297C550.148 116.422 549.742 117.367 548.93 118.133C548.133 118.883 547.086 119.258 545.789 119.258C544.508 119.258 543.461 118.883 542.648 118.133C541.836 117.367 541.43 116.422 541.43 115.297Z" fill="black"/>
<path d="M1134 0H1348C1356.28 0 1363 6.71573 1363 15V148C1363 156.284 1356.28 163 1348 163H1134V0Z" fill="#BFDBF7"/>
<path d="M1212.5 117.5L1212.5 45.5L1284.5 45.5L1284.5 117.5L1212.5 117.5Z" fill="white" fill-opacity="0.01"/>
<path d="M1221.5 81.5125L1221.5 108.5L1275.5 108.5L1275.5 81.5" stroke="white" stroke-width="7.24" stroke-linecap="round" stroke-linejoin="round"/>
<path d="M1262 68L1248.5 54.5L1235 68" stroke="white" stroke-width="7.24" stroke-linecap="round" stroke-linejoin="round"/>
<path d="M1248.49 93.5L1248.49 54.5" stroke="white" stroke-width="7.24" stroke-linecap="round" stroke-linejoin="round"/>
</svg>
