<svg width="1363" height="235" viewBox="0 0 1363 235" fill="none" xmlns="http://www.w3.org/2000/svg">
<path d="M0 15C0 6.71573 6.71573 0 15 0H37V235H15C6.71573 235 0 228.284 0 220V15Z" fill="#1F7A8C"/>
<rect width="1097" height="235" transform="translate(37)" fill="#F0F0F0"/>
<path d="M101.906 53.9219L94.3945 51.2383V48.0859L104.602 52.375V54.6367L101.906 53.9219ZM94.3945 56.1719L101.918 53.4297L104.602 52.7852V55.0352L94.3945 59.3242V56.1719ZM119.543 54.918H115.195V52.1758H119.543C120.215 52.1758 120.762 52.0664 121.184 51.8477C121.605 51.6211 121.914 51.3086 122.109 50.9102C122.305 50.5117 122.402 50.0625 122.402 49.5625C122.402 49.0547 122.305 48.582 122.109 48.1445C121.914 47.707 121.605 47.3555 121.184 47.0898C120.762 46.8242 120.215 46.6914 119.543 46.6914H116.414V61H112.898V43.9375H119.543C120.879 43.9375 122.023 44.1797 122.977 44.6641C123.938 45.1406 124.672 45.8008 125.18 46.6445C125.688 47.4883 125.941 48.4531 125.941 49.5391C125.941 50.6406 125.688 51.5938 125.18 52.3984C124.672 53.2031 123.938 53.8242 122.977 54.2617C122.023 54.6992 120.879 54.918 119.543 54.918ZM131.531 51.0859V61H128.156V48.3203H131.332L131.531 51.0859ZM135.352 48.2383L135.293 51.3672C135.129 51.3438 134.93 51.3242 134.695 51.3086C134.469 51.2852 134.262 51.2734 134.074 51.2734C133.598 51.2734 133.184 51.3359 132.832 51.4609C132.488 51.5781 132.199 51.7539 131.965 51.9883C131.738 52.2227 131.566 52.5078 131.449 52.8438C131.34 53.1797 131.277 53.5625 131.262 53.9922L130.582 53.7812C130.582 52.9609 130.664 52.207 130.828 51.5195C130.992 50.8242 131.23 50.2188 131.543 49.7031C131.863 49.1875 132.254 48.7891 132.715 48.5078C133.176 48.2266 133.703 48.0859 134.297 48.0859C134.484 48.0859 134.676 48.1016 134.871 48.1328C135.066 48.1562 135.227 48.1914 135.352 48.2383ZM136.055 54.7891V54.543C136.055 53.6133 136.188 52.7578 136.453 51.9766C136.719 51.1875 137.105 50.5039 137.613 49.9258C138.121 49.3477 138.746 48.8984 139.488 48.5781C140.23 48.25 141.082 48.0859 142.043 48.0859C143.004 48.0859 143.859 48.25 144.609 48.5781C145.359 48.8984 145.988 49.3477 146.496 49.9258C147.012 50.5039 147.402 51.1875 147.668 51.9766C147.934 52.7578 148.066 53.6133 148.066 54.543V54.7891C148.066 55.7109 147.934 56.5664 147.668 57.3555C147.402 58.1367 147.012 58.8203 146.496 59.4062C145.988 59.9844 145.363 60.4336 144.621 60.7539C143.879 61.0742 143.027 61.2344 142.066 61.2344C141.105 61.2344 140.25 61.0742 139.5 60.7539C138.758 60.4336 138.129 59.9844 137.613 59.4062C137.105 58.8203 136.719 58.1367 136.453 57.3555C136.188 56.5664 136.055 55.7109 136.055 54.7891ZM139.43 54.543V54.7891C139.43 55.3203 139.477 55.8164 139.57 56.2773C139.664 56.7383 139.812 57.1445 140.016 57.4961C140.227 57.8398 140.5 58.1094 140.836 58.3047C141.172 58.5 141.582 58.5977 142.066 58.5977C142.535 58.5977 142.938 58.5 143.273 58.3047C143.609 58.1094 143.879 57.8398 144.082 57.4961C144.285 57.1445 144.434 56.7383 144.527 56.2773C144.629 55.8164 144.68 55.3203 144.68 54.7891V54.543C144.68 54.0273 144.629 53.543 144.527 53.0898C144.434 52.6289 144.281 52.2227 144.07 51.8711C143.867 51.5117 143.598 51.2305 143.262 51.0273C142.926 50.8242 142.52 50.7227 142.043 50.7227C141.566 50.7227 141.16 50.8242 140.824 51.0273C140.496 51.2305 140.227 51.5117 140.016 51.8711C139.812 52.2227 139.664 52.6289 139.57 53.0898C139.477 53.543 139.43 54.0273 139.43 54.543ZM150.328 48.3203H153.715V61.7617C153.715 62.6992 153.543 63.4922 153.199 64.1406C152.855 64.7891 152.359 65.2812 151.711 65.6172C151.062 65.9531 150.277 66.1211 149.355 66.1211C149.066 66.1211 148.785 66.1055 148.512 66.0742C148.23 66.043 147.941 65.9922 147.645 65.9219L147.656 63.332C147.844 63.3633 148.027 63.3867 148.207 63.4023C148.379 63.4258 148.555 63.4375 148.734 63.4375C149.086 63.4375 149.379 63.3789 149.613 63.2617C149.848 63.1445 150.023 62.9609 150.141 62.7109C150.266 62.4688 150.328 62.1523 150.328 61.7617V48.3203ZM150.059 45.0156C150.059 44.5234 150.23 44.1172 150.574 43.7969C150.926 43.4766 151.387 43.3164 151.957 43.3164C152.535 43.3164 152.996 43.4766 153.34 43.7969C153.684 44.1172 153.855 44.5234 153.855 45.0156C153.855 45.5078 153.684 45.9141 153.34 46.2344C152.996 46.5547 152.535 46.7148 151.957 46.7148C151.387 46.7148 150.926 46.5547 150.574 46.2344C150.23 45.9141 150.059 45.5078 150.059 45.0156ZM162.234 61.2344C161.25 61.2344 160.367 61.0781 159.586 60.7656C158.805 60.4453 158.141 60.0039 157.594 59.4414C157.055 58.8789 156.641 58.2266 156.352 57.4844C156.062 56.7344 155.918 55.9375 155.918 55.0938V54.625C155.918 53.6641 156.055 52.7852 156.328 51.9883C156.602 51.1914 156.992 50.5 157.5 49.9141C158.016 49.3281 158.641 48.8789 159.375 48.5664C160.109 48.2461 160.938 48.0859 161.859 48.0859C162.758 48.0859 163.555 48.2344 164.25 48.5312C164.945 48.8281 165.527 49.25 165.996 49.7969C166.473 50.3438 166.832 51 167.074 51.7656C167.316 52.5234 167.438 53.3672 167.438 54.2969V55.7031H157.359V53.4531H164.121V53.1953C164.121 52.7266 164.035 52.3086 163.863 51.9414C163.699 51.5664 163.449 51.2695 163.113 51.0508C162.777 50.832 162.348 50.7227 161.824 50.7227C161.379 50.7227 160.996 50.8203 160.676 51.0156C160.355 51.2109 160.094 51.4844 159.891 51.8359C159.695 52.1875 159.547 52.6016 159.445 53.0781C159.352 53.5469 159.305 54.0625 159.305 54.625V55.0938C159.305 55.6016 159.375 56.0703 159.516 56.5C159.664 56.9297 159.871 57.3008 160.137 57.6133C160.41 57.9258 160.738 58.168 161.121 58.3398C161.512 58.5117 161.953 58.5977 162.445 58.5977C163.055 58.5977 163.621 58.4805 164.145 58.2461C164.676 58.0039 165.133 57.6406 165.516 57.1562L167.156 58.9375C166.891 59.3203 166.527 59.6875 166.066 60.0391C165.613 60.3906 165.066 60.6797 164.426 60.9062C163.785 61.125 163.055 61.2344 162.234 61.2344ZM174.598 58.5977C175.012 58.5977 175.379 58.5195 175.699 58.3633C176.02 58.1992 176.27 57.9727 176.449 57.6836C176.637 57.3867 176.734 57.0391 176.742 56.6406H179.918C179.91 57.5312 179.672 58.3242 179.203 59.0195C178.734 59.707 178.105 60.25 177.316 60.6484C176.527 61.0391 175.645 61.2344 174.668 61.2344C173.684 61.2344 172.824 61.0703 172.09 60.7422C171.363 60.4141 170.758 59.9609 170.273 59.3828C169.789 58.7969 169.426 58.1172 169.184 57.3438C168.941 56.5625 168.82 55.7266 168.82 54.8359V54.4961C168.82 53.5977 168.941 52.7617 169.184 51.9883C169.426 51.207 169.789 50.5273 170.273 49.9492C170.758 49.3633 171.363 48.9062 172.09 48.5781C172.816 48.25 173.668 48.0859 174.645 48.0859C175.684 48.0859 176.594 48.2852 177.375 48.6836C178.164 49.082 178.781 49.6523 179.227 50.3945C179.68 51.1289 179.91 52 179.918 53.0078H176.742C176.734 52.5859 176.645 52.2031 176.473 51.8594C176.309 51.5156 176.066 51.2422 175.746 51.0391C175.434 50.8281 175.047 50.7227 174.586 50.7227C174.094 50.7227 173.691 50.8281 173.379 51.0391C173.066 51.2422 172.824 51.5234 172.652 51.8828C172.48 52.2344 172.359 52.6367 172.289 53.0898C172.227 53.5352 172.195 54.0039 172.195 54.4961V54.8359C172.195 55.3281 172.227 55.8008 172.289 56.2539C172.352 56.707 172.469 57.1094 172.641 57.4609C172.82 57.8125 173.066 58.0898 173.379 58.293C173.691 58.4961 174.098 58.5977 174.598 58.5977ZM188.086 48.3203V50.7109H180.703V48.3203H188.086ZM182.531 45.1914H185.906V57.1797C185.906 57.5469 185.953 57.8281 186.047 58.0234C186.148 58.2188 186.297 58.3555 186.492 58.4336C186.688 58.5039 186.934 58.5391 187.23 58.5391C187.441 58.5391 187.629 58.5312 187.793 58.5156C187.965 58.4922 188.109 58.4688 188.227 58.4453L188.238 60.9297C187.949 61.0234 187.637 61.0977 187.301 61.1523C186.965 61.207 186.594 61.2344 186.188 61.2344C185.445 61.2344 184.797 61.1133 184.242 60.8711C183.695 60.6211 183.273 60.2227 182.977 59.6758C182.68 59.1289 182.531 58.4102 182.531 57.5195V45.1914ZM203.191 43.9375V61H199.688V43.9375H203.191ZM208.441 43.9375V46.6914H194.52V43.9375H208.441ZM213.797 48.3203V61H210.41V48.3203H213.797ZM210.199 45.0156C210.199 44.5234 210.371 44.1172 210.715 43.7969C211.059 43.4766 211.52 43.3164 212.098 43.3164C212.668 43.3164 213.125 43.4766 213.469 43.7969C213.82 44.1172 213.996 44.5234 213.996 45.0156C213.996 45.5078 213.82 45.9141 213.469 46.2344C213.125 46.5547 212.668 46.7148 212.098 46.7148C211.52 46.7148 211.059 46.5547 210.715 46.2344C210.371 45.9141 210.199 45.5078 210.199 45.0156ZM222.797 48.3203V50.7109H215.414V48.3203H222.797ZM217.242 45.1914H220.617V57.1797C220.617 57.5469 220.664 57.8281 220.758 58.0234C220.859 58.2188 221.008 58.3555 221.203 58.4336C221.398 58.5039 221.645 58.5391 221.941 58.5391C222.152 58.5391 222.34 58.5312 222.504 58.5156C222.676 58.4922 222.82 58.4688 222.938 58.4453L222.949 60.9297C222.66 61.0234 222.348 61.0977 222.012 61.1523C221.676 61.207 221.305 61.2344 220.898 61.2344C220.156 61.2344 219.508 61.1133 218.953 60.8711C218.406 60.6211 217.984 60.2227 217.688 59.6758C217.391 59.1289 217.242 58.4102 217.242 57.5195V45.1914ZM228.281 43V61H224.895V43H228.281ZM236.906 61.2344C235.922 61.2344 235.039 61.0781 234.258 60.7656C233.477 60.4453 232.812 60.0039 232.266 59.4414C231.727 58.8789 231.312 58.2266 231.023 57.4844C230.734 56.7344 230.59 55.9375 230.59 55.0938V54.625C230.59 53.6641 230.727 52.7852 231 51.9883C231.273 51.1914 231.664 50.5 232.172 49.9141C232.688 49.3281 233.312 48.8789 234.047 48.5664C234.781 48.2461 235.609 48.0859 236.531 48.0859C237.43 48.0859 238.227 48.2344 238.922 48.5312C239.617 48.8281 240.199 49.25 240.668 49.7969C241.145 50.3438 241.504 51 241.746 51.7656C241.988 52.5234 242.109 53.3672 242.109 54.2969V55.7031H232.031V53.4531H238.793V53.1953C238.793 52.7266 238.707 52.3086 238.535 51.9414C238.371 51.5664 238.121 51.2695 237.785 51.0508C237.449 50.832 237.02 50.7227 236.496 50.7227C236.051 50.7227 235.668 50.8203 235.348 51.0156C235.027 51.2109 234.766 51.4844 234.562 51.8359C234.367 52.1875 234.219 52.6016 234.117 53.0781C234.023 53.5469 233.977 54.0625 233.977 54.625V55.0938C233.977 55.6016 234.047 56.0703 234.188 56.5C234.336 56.9297 234.543 57.3008 234.809 57.6133C235.082 57.9258 235.41 58.168 235.793 58.3398C236.184 58.5117 236.625 58.5977 237.117 58.5977C237.727 58.5977 238.293 58.4805 238.816 58.2461C239.348 58.0039 239.805 57.6406 240.188 57.1562L241.828 58.9375C241.562 59.3203 241.199 59.6875 240.738 60.0391C240.285 60.3906 239.738 60.6797 239.098 60.9062C238.457 61.125 237.727 61.2344 236.906 61.2344Z" fill="#888888"/>
<path d="M125.867 111.492H115.969V104.082H125.867C127.216 104.082 128.31 103.854 129.148 103.398C129.987 102.943 130.598 102.314 130.98 101.512C131.382 100.691 131.582 99.7708 131.582 98.75C131.582 97.6562 131.382 96.6445 130.98 95.7148C130.598 94.7852 129.987 94.0378 129.148 93.4727C128.31 92.8893 127.216 92.5977 125.867 92.5977H119.578V125H109.98V85.1875H125.867C129.057 85.1875 131.801 85.7708 134.098 86.9375C136.413 88.1042 138.19 89.7083 139.43 91.75C140.669 93.7734 141.289 96.0885 141.289 98.6953C141.289 101.266 140.669 103.508 139.43 105.422C138.19 107.336 136.413 108.831 134.098 109.906C131.801 110.964 129.057 111.492 125.867 111.492ZM155.754 95.4141V125H146.512V95.4141H155.754ZM145.965 87.7852C145.965 86.4727 146.439 85.3971 147.387 84.5586C148.335 83.7201 149.565 83.3008 151.078 83.3008C152.591 83.3008 153.822 83.7201 154.77 84.5586C155.717 85.3971 156.191 86.4727 156.191 87.7852C156.191 89.0977 155.717 90.1732 154.77 91.0117C153.822 91.8503 152.591 92.2695 151.078 92.2695C149.565 92.2695 148.335 91.8503 147.387 91.0117C146.439 90.1732 145.965 89.0977 145.965 87.7852ZM173.938 118.438C174.794 118.438 175.523 118.283 176.125 117.973C176.745 117.645 177.21 117.189 177.52 116.605C177.848 116.004 178.003 115.284 177.984 114.445H186.652C186.671 116.669 186.124 118.62 185.012 120.297C183.918 121.956 182.423 123.25 180.527 124.18C178.65 125.091 176.526 125.547 174.156 125.547C171.841 125.547 169.818 125.173 168.086 124.426C166.354 123.66 164.905 122.603 163.738 121.254C162.59 119.887 161.724 118.292 161.141 116.469C160.576 114.646 160.293 112.668 160.293 110.535V109.906C160.293 107.773 160.576 105.796 161.141 103.973C161.724 102.132 162.59 100.536 163.738 99.1875C164.905 97.8203 166.345 96.763 168.059 96.0156C169.79 95.25 171.805 94.8672 174.102 94.8672C176.562 94.8672 178.732 95.332 180.609 96.2617C182.505 97.1914 183.991 98.5404 185.066 100.309C186.142 102.077 186.671 104.219 186.652 106.734H177.984C178.003 105.841 177.866 105.039 177.574 104.328C177.283 103.617 176.827 103.052 176.207 102.633C175.605 102.195 174.831 101.977 173.883 101.977C172.935 101.977 172.169 102.186 171.586 102.605C171.003 103.025 170.556 103.608 170.246 104.355C169.954 105.085 169.754 105.923 169.645 106.871C169.553 107.819 169.508 108.831 169.508 109.906V110.535C169.508 111.629 169.553 112.659 169.645 113.625C169.754 114.573 169.964 115.411 170.273 116.141C170.583 116.852 171.03 117.417 171.613 117.836C172.197 118.237 172.971 118.438 173.938 118.438ZM206.176 95.4141V101.812H188.348V95.4141H206.176ZM192.094 88.0586H201.309V115.348C201.309 116.132 201.4 116.742 201.582 117.18C201.764 117.599 202.074 117.9 202.512 118.082C202.967 118.246 203.569 118.328 204.316 118.328C204.845 118.328 205.283 118.319 205.629 118.301C205.975 118.264 206.303 118.219 206.613 118.164V124.754C205.829 125.009 205.009 125.201 204.152 125.328C203.296 125.474 202.384 125.547 201.418 125.547C199.449 125.547 197.763 125.237 196.359 124.617C194.974 123.997 193.917 123.022 193.188 121.691C192.458 120.361 192.094 118.629 192.094 116.496V88.0586ZM227.121 117.809V95.4141H236.363V125H227.723L227.121 117.809ZM227.996 111.793L230.402 111.738C230.402 113.725 230.165 115.566 229.691 117.262C229.217 118.939 228.516 120.397 227.586 121.637C226.674 122.876 225.544 123.842 224.195 124.535C222.865 125.21 221.324 125.547 219.574 125.547C218.116 125.547 216.776 125.346 215.555 124.945C214.352 124.526 213.312 123.879 212.438 123.004C211.562 122.111 210.879 120.971 210.387 119.586C209.913 118.182 209.676 116.505 209.676 114.555V95.4141H218.891V114.609C218.891 115.266 218.973 115.831 219.137 116.305C219.301 116.779 219.538 117.18 219.848 117.508C220.158 117.818 220.54 118.055 220.996 118.219C221.47 118.365 222.008 118.438 222.609 118.438C223.995 118.438 225.079 118.146 225.863 117.562C226.647 116.979 227.194 116.186 227.504 115.184C227.832 114.181 227.996 113.051 227.996 111.793ZM250.746 102.742V125H241.531V95.4141H250.145L250.746 102.742ZM259.496 95.1953L259.332 103.754C258.967 103.717 258.475 103.672 257.855 103.617C257.236 103.562 256.716 103.535 256.297 103.535C255.221 103.535 254.292 103.663 253.508 103.918C252.742 104.155 252.104 104.52 251.594 105.012C251.102 105.486 250.737 106.087 250.5 106.816C250.281 107.546 250.181 108.393 250.199 109.359L248.531 108.266C248.531 106.279 248.723 104.474 249.105 102.852C249.507 101.211 250.072 99.7982 250.801 98.6133C251.53 97.4102 252.414 96.4896 253.453 95.8516C254.492 95.1953 255.659 94.8672 256.953 94.8672C257.409 94.8672 257.855 94.8945 258.293 94.9492C258.749 95.0039 259.15 95.0859 259.496 95.1953ZM276.449 125.547C274.043 125.547 271.892 125.173 269.996 124.426C268.1 123.66 266.496 122.612 265.184 121.281C263.889 119.951 262.896 118.419 262.203 116.688C261.529 114.956 261.191 113.124 261.191 111.191V110.152C261.191 107.983 261.492 105.978 262.094 104.137C262.695 102.277 263.589 100.655 264.773 99.2695C265.958 97.8841 267.444 96.8086 269.23 96.043C271.017 95.2591 273.095 94.8672 275.465 94.8672C277.561 94.8672 279.439 95.2044 281.098 95.8789C282.757 96.5534 284.16 97.5195 285.309 98.7773C286.475 100.035 287.359 101.557 287.961 103.344C288.581 105.13 288.891 107.135 288.891 109.359V113.105H264.719V107.336H279.895V106.625C279.913 105.641 279.74 104.802 279.375 104.109C279.029 103.417 278.518 102.888 277.844 102.523C277.169 102.159 276.349 101.977 275.383 101.977C274.38 101.977 273.551 102.195 272.895 102.633C272.257 103.07 271.755 103.672 271.391 104.438C271.044 105.185 270.798 106.051 270.652 107.035C270.507 108.02 270.434 109.059 270.434 110.152V111.191C270.434 112.285 270.579 113.279 270.871 114.172C271.181 115.065 271.618 115.831 272.184 116.469C272.767 117.089 273.46 117.572 274.262 117.918C275.082 118.264 276.012 118.438 277.051 118.438C278.309 118.438 279.548 118.201 280.77 117.727C281.991 117.253 283.039 116.469 283.914 115.375L288.098 120.352C287.496 121.208 286.639 122.038 285.527 122.84C284.434 123.642 283.121 124.298 281.59 124.809C280.059 125.301 278.345 125.547 276.449 125.547ZM309.945 93.5547L300.238 125H289.93L304.559 85.1875H311.094L309.945 93.5547ZM317.984 125L308.25 93.5547L306.992 85.1875H313.609L328.32 125H317.984ZM317.602 110.152V117.562H297.176V110.152H317.602ZM338.793 101.102V136.375H329.578V95.4141H338.164L338.793 101.102ZM356.949 109.852V110.426C356.949 112.577 356.703 114.573 356.211 116.414C355.719 118.255 354.99 119.859 354.023 121.227C353.057 122.594 351.854 123.66 350.414 124.426C348.992 125.173 347.342 125.547 345.465 125.547C343.697 125.547 342.174 125.155 340.898 124.371C339.622 123.587 338.556 122.503 337.699 121.117C336.842 119.732 336.15 118.146 335.621 116.359C335.092 114.573 334.673 112.686 334.363 110.699V109.961C334.673 107.828 335.092 105.85 335.621 104.027C336.15 102.186 336.842 100.582 337.699 99.2148C338.556 97.8477 339.613 96.7812 340.871 96.0156C342.147 95.25 343.669 94.8672 345.438 94.8672C347.315 94.8672 348.965 95.2227 350.387 95.9336C351.827 96.6445 353.03 97.6654 353.996 98.9961C354.98 100.309 355.719 101.885 356.211 103.727C356.703 105.568 356.949 107.609 356.949 109.852ZM347.734 110.426V109.852C347.734 108.703 347.652 107.655 347.488 106.707C347.324 105.741 347.06 104.902 346.695 104.191C346.349 103.48 345.884 102.934 345.301 102.551C344.717 102.168 343.997 101.977 343.141 101.977C342.156 101.977 341.327 102.132 340.652 102.441C339.996 102.733 339.467 103.189 339.066 103.809C338.684 104.41 338.41 105.167 338.246 106.078C338.1 106.971 338.036 108.02 338.055 109.223V111.465C338.018 112.85 338.155 114.072 338.465 115.129C338.775 116.168 339.312 116.979 340.078 117.562C340.844 118.146 341.883 118.438 343.195 118.438C344.07 118.438 344.799 118.237 345.383 117.836C345.966 117.417 346.431 116.842 346.777 116.113C347.124 115.366 347.37 114.509 347.516 113.543C347.661 112.577 347.734 111.538 347.734 110.426ZM370.348 101.102V136.375H361.133V95.4141H369.719L370.348 101.102ZM388.504 109.852V110.426C388.504 112.577 388.258 114.573 387.766 116.414C387.273 118.255 386.544 119.859 385.578 121.227C384.612 122.594 383.409 123.66 381.969 124.426C380.547 125.173 378.897 125.547 377.02 125.547C375.251 125.547 373.729 125.155 372.453 124.371C371.177 123.587 370.111 122.503 369.254 121.117C368.397 119.732 367.704 118.146 367.176 116.359C366.647 114.573 366.228 112.686 365.918 110.699V109.961C366.228 107.828 366.647 105.85 367.176 104.027C367.704 102.186 368.397 100.582 369.254 99.2148C370.111 97.8477 371.168 96.7812 372.426 96.0156C373.702 95.25 375.224 94.8672 376.992 94.8672C378.87 94.8672 380.52 95.2227 381.941 95.9336C383.382 96.6445 384.585 97.6654 385.551 98.9961C386.535 100.309 387.273 101.885 387.766 103.727C388.258 105.568 388.504 107.609 388.504 109.852ZM379.289 110.426V109.852C379.289 108.703 379.207 107.655 379.043 106.707C378.879 105.741 378.615 104.902 378.25 104.191C377.904 103.48 377.439 102.934 376.855 102.551C376.272 102.168 375.552 101.977 374.695 101.977C373.711 101.977 372.882 102.132 372.207 102.441C371.551 102.733 371.022 103.189 370.621 103.809C370.238 104.41 369.965 105.167 369.801 106.078C369.655 106.971 369.591 108.02 369.609 109.223V111.465C369.573 112.85 369.71 114.072 370.02 115.129C370.329 116.168 370.867 116.979 371.633 117.562C372.398 118.146 373.438 118.438 374.75 118.438C375.625 118.438 376.354 118.237 376.938 117.836C377.521 117.417 377.986 116.842 378.332 116.113C378.678 115.366 378.924 114.509 379.07 113.543C379.216 112.577 379.289 111.538 379.289 110.426ZM424.543 104.273V111.41H408.109V104.273H424.543ZM472.449 117.617V125H452.324V117.617H472.449ZM455.742 85.1875V125H446.145V85.1875H455.742ZM474.91 110.508V109.934C474.91 107.764 475.22 105.768 475.84 103.945C476.46 102.104 477.371 100.509 478.574 99.1602C479.777 97.8112 481.263 96.763 483.031 96.0156C484.799 95.25 486.841 94.8672 489.156 94.8672C491.49 94.8672 493.54 95.25 495.309 96.0156C497.095 96.763 498.59 97.8112 499.793 99.1602C500.996 100.509 501.908 102.104 502.527 103.945C503.147 105.768 503.457 107.764 503.457 109.934V110.508C503.457 112.659 503.147 114.655 502.527 116.496C501.908 118.319 500.996 119.914 499.793 121.281C498.59 122.63 497.104 123.678 495.336 124.426C493.568 125.173 491.526 125.547 489.211 125.547C486.896 125.547 484.845 125.173 483.059 124.426C481.272 123.678 479.777 122.63 478.574 121.281C477.371 119.914 476.46 118.319 475.84 116.496C475.22 114.655 474.91 112.659 474.91 110.508ZM484.125 109.934V110.508C484.125 111.62 484.207 112.659 484.371 113.625C484.535 114.591 484.809 115.439 485.191 116.168C485.574 116.879 486.094 117.435 486.75 117.836C487.406 118.237 488.227 118.438 489.211 118.438C490.177 118.438 490.979 118.237 491.617 117.836C492.273 117.435 492.793 116.879 493.176 116.168C493.559 115.439 493.832 114.591 493.996 113.625C494.16 112.659 494.242 111.62 494.242 110.508V109.934C494.242 108.858 494.16 107.846 493.996 106.898C493.832 105.932 493.559 105.085 493.176 104.355C492.793 103.608 492.273 103.025 491.617 102.605C490.961 102.186 490.141 101.977 489.156 101.977C488.19 101.977 487.379 102.186 486.723 102.605C486.085 103.025 485.574 103.608 485.191 104.355C484.809 105.085 484.535 105.932 484.371 106.898C484.207 107.846 484.125 108.858 484.125 109.934ZM520.055 118.438C520.911 118.438 521.641 118.283 522.242 117.973C522.862 117.645 523.327 117.189 523.637 116.605C523.965 116.004 524.12 115.284 524.102 114.445H532.77C532.788 116.669 532.241 118.62 531.129 120.297C530.035 121.956 528.54 123.25 526.645 124.18C524.767 125.091 522.643 125.547 520.273 125.547C517.958 125.547 515.935 125.173 514.203 124.426C512.471 123.66 511.022 122.603 509.855 121.254C508.707 119.887 507.841 118.292 507.258 116.469C506.693 114.646 506.41 112.668 506.41 110.535V109.906C506.41 107.773 506.693 105.796 507.258 103.973C507.841 102.132 508.707 100.536 509.855 99.1875C511.022 97.8203 512.462 96.763 514.176 96.0156C515.908 95.25 517.922 94.8672 520.219 94.8672C522.68 94.8672 524.849 95.332 526.727 96.2617C528.622 97.1914 530.108 98.5404 531.184 100.309C532.259 102.077 532.788 104.219 532.77 106.734H524.102C524.12 105.841 523.983 105.039 523.691 104.328C523.4 103.617 522.944 103.052 522.324 102.633C521.723 102.195 520.948 101.977 520 101.977C519.052 101.977 518.286 102.186 517.703 102.605C517.12 103.025 516.673 103.608 516.363 104.355C516.072 105.085 515.871 105.923 515.762 106.871C515.671 107.819 515.625 108.831 515.625 109.906V110.535C515.625 111.629 515.671 112.659 515.762 113.625C515.871 114.573 516.081 115.411 516.391 116.141C516.701 116.852 517.147 117.417 517.73 117.836C518.314 118.237 519.089 118.438 520.055 118.438ZM552.074 117.562V105.367C552.074 104.529 551.956 103.809 551.719 103.207C551.482 102.605 551.108 102.141 550.598 101.812C550.087 101.466 549.404 101.293 548.547 101.293C547.854 101.293 547.262 101.411 546.77 101.648C546.277 101.885 545.904 102.241 545.648 102.715C545.393 103.189 545.266 103.79 545.266 104.52H536.051C536.051 103.152 536.352 101.885 536.953 100.719C537.573 99.5339 538.448 98.5039 539.578 97.6289C540.727 96.7539 542.094 96.0794 543.68 95.6055C545.284 95.1133 547.07 94.8672 549.039 94.8672C551.391 94.8672 553.487 95.2591 555.328 96.043C557.188 96.8268 558.655 98.0026 559.73 99.5703C560.806 101.12 561.344 103.07 561.344 105.422V117.535C561.344 119.467 561.453 120.935 561.672 121.938C561.891 122.922 562.201 123.788 562.602 124.535V125H553.359C552.922 124.089 552.594 122.977 552.375 121.664C552.174 120.333 552.074 118.966 552.074 117.562ZM553.195 106.926L553.25 111.848H549.176C548.319 111.848 547.59 111.966 546.988 112.203C546.405 112.44 545.931 112.768 545.566 113.188C545.22 113.589 544.965 114.044 544.801 114.555C544.655 115.065 544.582 115.603 544.582 116.168C544.582 116.715 544.71 117.207 544.965 117.645C545.238 118.064 545.603 118.392 546.059 118.629C546.514 118.866 547.025 118.984 547.59 118.984C548.611 118.984 549.477 118.793 550.188 118.41C550.917 118.009 551.473 117.526 551.855 116.961C552.238 116.396 552.43 115.867 552.43 115.375L554.453 119.148C554.089 119.878 553.669 120.616 553.195 121.363C552.74 122.111 552.165 122.803 551.473 123.441C550.798 124.061 549.969 124.572 548.984 124.973C548 125.355 546.806 125.547 545.402 125.547C543.579 125.547 541.902 125.173 540.371 124.426C538.858 123.678 537.646 122.639 536.734 121.309C535.823 119.96 535.367 118.41 535.367 116.66C535.367 115.129 535.641 113.762 536.188 112.559C536.753 111.355 537.6 110.335 538.73 109.496C539.861 108.658 541.301 108.02 543.051 107.582C544.801 107.145 546.861 106.926 549.23 106.926H553.195ZM576.191 83V125H566.949V83H576.191ZM606.461 85.1875V125H596.891V85.1875H606.461ZM622.074 101.676V125H612.859V95.4141H621.5L622.074 101.676ZM620.953 109.195L618.848 109.25C618.848 107.172 619.094 105.258 619.586 103.508C620.078 101.758 620.807 100.236 621.773 98.9414C622.74 97.6471 623.924 96.6445 625.328 95.9336C626.75 95.2227 628.391 94.8672 630.25 94.8672C631.544 94.8672 632.72 95.0677 633.777 95.4688C634.835 95.8516 635.746 96.4622 636.512 97.3008C637.277 98.1211 637.861 99.1966 638.262 100.527C638.681 101.84 638.891 103.417 638.891 105.258V125H629.676V106.434C629.676 105.176 629.53 104.228 629.238 103.59C628.965 102.952 628.564 102.523 628.035 102.305C627.507 102.086 626.859 101.977 626.094 101.977C625.292 101.977 624.572 102.159 623.934 102.523C623.296 102.888 622.749 103.398 622.293 104.055C621.855 104.693 621.518 105.449 621.281 106.324C621.062 107.199 620.953 108.156 620.953 109.195ZM637.852 109.195L635.281 109.25C635.281 107.172 635.509 105.258 635.965 103.508C636.439 101.758 637.141 100.236 638.07 98.9414C639.018 97.6471 640.194 96.6445 641.598 95.9336C643.001 95.2227 644.633 94.8672 646.492 94.8672C647.841 94.8672 649.081 95.0677 650.211 95.4688C651.341 95.8698 652.316 96.5169 653.137 97.4102C653.957 98.3034 654.595 99.4883 655.051 100.965C655.507 102.423 655.734 104.228 655.734 106.379V125H646.492V106.379C646.492 105.158 646.346 104.237 646.055 103.617C645.781 102.979 645.38 102.551 644.852 102.332C644.323 102.095 643.694 101.977 642.965 101.977C642.09 101.977 641.333 102.159 640.695 102.523C640.057 102.888 639.52 103.398 639.082 104.055C638.663 104.693 638.353 105.449 638.152 106.324C637.952 107.199 637.852 108.156 637.852 109.195ZM676.379 117.562V105.367C676.379 104.529 676.26 103.809 676.023 103.207C675.786 102.605 675.413 102.141 674.902 101.812C674.392 101.466 673.708 101.293 672.852 101.293C672.159 101.293 671.566 101.411 671.074 101.648C670.582 101.885 670.208 102.241 669.953 102.715C669.698 103.189 669.57 103.79 669.57 104.52H660.355C660.355 103.152 660.656 101.885 661.258 100.719C661.878 99.5339 662.753 98.5039 663.883 97.6289C665.031 96.7539 666.398 96.0794 667.984 95.6055C669.589 95.1133 671.375 94.8672 673.344 94.8672C675.695 94.8672 677.792 95.2591 679.633 96.043C681.492 96.8268 682.96 98.0026 684.035 99.5703C685.111 101.12 685.648 103.07 685.648 105.422V117.535C685.648 119.467 685.758 120.935 685.977 121.938C686.195 122.922 686.505 123.788 686.906 124.535V125H677.664C677.227 124.089 676.898 122.977 676.68 121.664C676.479 120.333 676.379 118.966 676.379 117.562ZM677.5 106.926L677.555 111.848H673.48C672.624 111.848 671.895 111.966 671.293 112.203C670.71 112.44 670.236 112.768 669.871 113.188C669.525 113.589 669.27 114.044 669.105 114.555C668.96 115.065 668.887 115.603 668.887 116.168C668.887 116.715 669.014 117.207 669.27 117.645C669.543 118.064 669.908 118.392 670.363 118.629C670.819 118.866 671.329 118.984 671.895 118.984C672.915 118.984 673.781 118.793 674.492 118.41C675.221 118.009 675.777 117.526 676.16 116.961C676.543 116.396 676.734 115.867 676.734 115.375L678.758 119.148C678.393 119.878 677.974 120.616 677.5 121.363C677.044 122.111 676.47 122.803 675.777 123.441C675.103 124.061 674.273 124.572 673.289 124.973C672.305 125.355 671.111 125.547 669.707 125.547C667.884 125.547 666.207 125.173 664.676 124.426C663.163 123.678 661.951 122.639 661.039 121.309C660.128 119.96 659.672 118.41 659.672 116.66C659.672 115.129 659.945 113.762 660.492 112.559C661.057 111.355 661.905 110.335 663.035 109.496C664.165 108.658 665.605 108.02 667.355 107.582C669.105 107.145 671.165 106.926 673.535 106.926H677.5ZM709.355 95.4141H717.723V123.852C717.723 126.586 717.094 128.901 715.836 130.797C714.578 132.711 712.819 134.16 710.559 135.145C708.316 136.147 705.691 136.648 702.684 136.648C701.353 136.648 699.995 136.475 698.609 136.129C697.224 135.801 695.93 135.309 694.727 134.652C693.523 133.996 692.512 133.185 691.691 132.219L695.547 126.805C696.294 127.643 697.233 128.354 698.363 128.938C699.493 129.539 700.824 129.84 702.355 129.84C703.686 129.84 704.798 129.603 705.691 129.129C706.603 128.655 707.296 127.962 707.77 127.051C708.243 126.158 708.48 125.073 708.48 123.797V102.414L709.355 95.4141ZM689.695 110.562V109.988C689.695 107.746 689.969 105.704 690.516 103.863C691.081 102.004 691.883 100.409 692.922 99.0781C693.979 97.7292 695.255 96.6901 696.75 95.9609C698.245 95.2318 699.931 94.8672 701.809 94.8672C703.832 94.8672 705.491 95.2591 706.785 96.043C708.098 96.8086 709.146 97.8841 709.93 99.2695C710.732 100.655 711.352 102.277 711.789 104.137C712.245 105.978 712.628 107.965 712.938 110.098V110.781C712.628 112.786 712.199 114.682 711.652 116.469C711.124 118.237 710.431 119.805 709.574 121.172C708.717 122.539 707.642 123.615 706.348 124.398C705.072 125.164 703.54 125.547 701.754 125.547C699.895 125.547 698.217 125.173 696.723 124.426C695.246 123.678 693.979 122.63 692.922 121.281C691.883 119.932 691.081 118.346 690.516 116.523C689.969 114.701 689.695 112.714 689.695 110.562ZM698.91 109.988V110.562C698.91 111.674 699.01 112.704 699.211 113.652C699.43 114.6 699.758 115.439 700.195 116.168C700.633 116.879 701.171 117.435 701.809 117.836C702.465 118.237 703.23 118.438 704.105 118.438C705.436 118.438 706.512 118.155 707.332 117.59C708.152 117.025 708.745 116.223 709.109 115.184C709.474 114.145 709.629 112.923 709.574 111.52V109.359C709.611 108.156 709.529 107.099 709.328 106.188C709.128 105.258 708.809 104.483 708.371 103.863C707.952 103.243 707.387 102.779 706.676 102.469C705.983 102.141 705.145 101.977 704.16 101.977C703.303 101.977 702.547 102.177 701.891 102.578C701.234 102.979 700.688 103.544 700.25 104.273C699.812 104.984 699.475 105.832 699.238 106.816C699.02 107.783 698.91 108.84 698.91 109.988ZM737.355 125.547C734.949 125.547 732.798 125.173 730.902 124.426C729.007 123.66 727.402 122.612 726.09 121.281C724.796 119.951 723.802 118.419 723.109 116.688C722.435 114.956 722.098 113.124 722.098 111.191V110.152C722.098 107.983 722.398 105.978 723 104.137C723.602 102.277 724.495 100.655 725.68 99.2695C726.865 97.8841 728.35 96.8086 730.137 96.043C731.923 95.2591 734.001 94.8672 736.371 94.8672C738.467 94.8672 740.345 95.2044 742.004 95.8789C743.663 96.5534 745.066 97.5195 746.215 98.7773C747.382 100.035 748.266 101.557 748.867 103.344C749.487 105.13 749.797 107.135 749.797 109.359V113.105H725.625V107.336H740.801V106.625C740.819 105.641 740.646 104.802 740.281 104.109C739.935 103.417 739.424 102.888 738.75 102.523C738.076 102.159 737.255 101.977 736.289 101.977C735.286 101.977 734.457 102.195 733.801 102.633C733.163 103.07 732.661 103.672 732.297 104.438C731.951 105.185 731.704 106.051 731.559 107.035C731.413 108.02 731.34 109.059 731.34 110.152V111.191C731.34 112.285 731.486 113.279 731.777 114.172C732.087 115.065 732.525 115.831 733.09 116.469C733.673 117.089 734.366 117.572 735.168 117.918C735.988 118.264 736.918 118.438 737.957 118.438C739.215 118.438 740.454 118.201 741.676 117.727C742.897 117.253 743.945 116.469 744.82 115.375L749.004 120.352C748.402 121.208 747.546 122.038 746.434 122.84C745.34 123.642 744.027 124.298 742.496 124.809C740.965 125.301 739.251 125.547 737.355 125.547ZM795.324 117.617V125H774.105V117.617H795.324ZM777.523 85.1875V125H767.926V85.1875H777.523ZM792.59 100.992V108.129H774.105V100.992H792.59ZM795.406 85.1875V92.5977H774.105V85.1875H795.406ZM815.285 118.219V83H824.555V125H816.242L815.285 118.219ZM797.129 110.562V109.988C797.129 107.746 797.375 105.704 797.867 103.863C798.359 102.004 799.089 100.409 800.055 99.0781C801.021 97.7292 802.224 96.6901 803.664 95.9609C805.104 95.2318 806.763 94.8672 808.641 94.8672C810.318 94.8672 811.785 95.2591 813.043 96.043C814.301 96.8086 815.376 97.8841 816.27 99.2695C817.163 100.655 817.892 102.277 818.457 104.137C819.022 105.978 819.451 107.965 819.742 110.098V110.781C819.451 112.786 819.022 114.682 818.457 116.469C817.892 118.237 817.163 119.805 816.27 121.172C815.376 122.539 814.292 123.615 813.016 124.398C811.758 125.164 810.281 125.547 808.586 125.547C806.708 125.547 805.049 125.173 803.609 124.426C802.188 123.678 800.993 122.63 800.027 121.281C799.079 119.932 798.359 118.346 797.867 116.523C797.375 114.701 797.129 112.714 797.129 110.562ZM806.344 109.988V110.562C806.344 111.674 806.417 112.704 806.562 113.652C806.708 114.6 806.954 115.439 807.301 116.168C807.665 116.879 808.139 117.435 808.723 117.836C809.324 118.237 810.062 118.438 810.938 118.438C812.122 118.438 813.098 118.155 813.863 117.59C814.647 117.025 815.221 116.223 815.586 115.184C815.969 114.145 816.133 112.923 816.078 111.52V109.359C816.115 108.156 816.033 107.099 815.832 106.188C815.632 105.258 815.312 104.483 814.875 103.863C814.456 103.243 813.918 102.779 813.262 102.469C812.624 102.141 811.867 101.977 810.992 101.977C810.135 101.977 809.406 102.177 808.805 102.578C808.221 102.979 807.747 103.544 807.383 104.273C807.018 104.984 806.754 105.832 806.59 106.816C806.426 107.783 806.344 108.84 806.344 109.988ZM839.512 95.4141V125H830.27V95.4141H839.512ZM829.723 87.7852C829.723 86.4727 830.197 85.3971 831.145 84.5586C832.092 83.7201 833.323 83.3008 834.836 83.3008C836.349 83.3008 837.579 83.7201 838.527 84.5586C839.475 85.3971 839.949 86.4727 839.949 87.7852C839.949 89.0977 839.475 90.1732 838.527 91.0117C837.579 91.8503 836.349 92.2695 834.836 92.2695C833.323 92.2695 832.092 91.8503 831.145 91.0117C830.197 90.1732 829.723 89.0977 829.723 87.7852ZM860.785 95.4141V101.812H842.957V95.4141H860.785ZM846.703 88.0586H855.918V115.348C855.918 116.132 856.009 116.742 856.191 117.18C856.374 117.599 856.684 117.9 857.121 118.082C857.577 118.246 858.178 118.328 858.926 118.328C859.454 118.328 859.892 118.319 860.238 118.301C860.585 118.264 860.913 118.219 861.223 118.164V124.754C860.439 125.009 859.618 125.201 858.762 125.328C857.905 125.474 856.993 125.547 856.027 125.547C854.059 125.547 852.372 125.237 850.969 124.617C849.583 123.997 848.526 123.022 847.797 121.691C847.068 120.361 846.703 118.629 846.703 116.496V88.0586ZM874.184 95.4141V125H864.941V95.4141H874.184ZM864.395 87.7852C864.395 86.4727 864.868 85.3971 865.816 84.5586C866.764 83.7201 867.995 83.3008 869.508 83.3008C871.021 83.3008 872.251 83.7201 873.199 84.5586C874.147 85.3971 874.621 86.4727 874.621 87.7852C874.621 89.0977 874.147 90.1732 873.199 91.0117C872.251 91.8503 871.021 92.2695 869.508 92.2695C867.995 92.2695 866.764 91.8503 865.816 91.0117C864.868 90.1732 864.395 89.0977 864.395 87.7852ZM888.922 101.73V125H879.707V95.4141H888.348L888.922 101.73ZM887.828 109.195L885.668 109.25C885.668 106.99 885.941 104.975 886.488 103.207C887.035 101.421 887.81 99.9076 888.812 98.668C889.815 97.4284 891.009 96.4896 892.395 95.8516C893.798 95.1953 895.357 94.8672 897.07 94.8672C898.438 94.8672 899.686 95.0677 900.816 95.4688C901.965 95.8698 902.949 96.5169 903.77 97.4102C904.608 98.3034 905.246 99.4883 905.684 100.965C906.139 102.423 906.367 104.228 906.367 106.379V125H897.098V106.352C897.098 105.167 896.934 104.264 896.605 103.645C896.277 103.007 895.803 102.569 895.184 102.332C894.564 102.095 893.807 101.977 892.914 101.977C891.966 101.977 891.164 102.159 890.508 102.523C889.852 102.888 889.323 103.398 888.922 104.055C888.539 104.693 888.257 105.449 888.074 106.324C887.91 107.199 887.828 108.156 887.828 109.195ZM930.074 95.4141H938.441V123.852C938.441 126.586 937.812 128.901 936.555 130.797C935.297 132.711 933.538 134.16 931.277 135.145C929.035 136.147 926.41 136.648 923.402 136.648C922.072 136.648 920.714 136.475 919.328 136.129C917.943 135.801 916.648 135.309 915.445 134.652C914.242 133.996 913.23 133.185 912.41 132.219L916.266 126.805C917.013 127.643 917.952 128.354 919.082 128.938C920.212 129.539 921.543 129.84 923.074 129.84C924.405 129.84 925.517 129.603 926.41 129.129C927.322 128.655 928.014 127.962 928.488 127.051C928.962 126.158 929.199 125.073 929.199 123.797V102.414L930.074 95.4141ZM910.414 110.562V109.988C910.414 107.746 910.688 105.704 911.234 103.863C911.799 102.004 912.602 100.409 913.641 99.0781C914.698 97.7292 915.974 96.6901 917.469 95.9609C918.964 95.2318 920.65 94.8672 922.527 94.8672C924.551 94.8672 926.21 95.2591 927.504 96.043C928.816 96.8086 929.865 97.8841 930.648 99.2695C931.451 100.655 932.07 102.277 932.508 104.137C932.964 105.978 933.346 107.965 933.656 110.098V110.781C933.346 112.786 932.918 114.682 932.371 116.469C931.842 118.237 931.15 119.805 930.293 121.172C929.436 122.539 928.361 123.615 927.066 124.398C925.79 125.164 924.259 125.547 922.473 125.547C920.613 125.547 918.936 125.173 917.441 124.426C915.965 123.678 914.698 122.63 913.641 121.281C912.602 119.932 911.799 118.346 911.234 116.523C910.688 114.701 910.414 112.714 910.414 110.562ZM919.629 109.988V110.562C919.629 111.674 919.729 112.704 919.93 113.652C920.148 114.6 920.477 115.439 920.914 116.168C921.352 116.879 921.889 117.435 922.527 117.836C923.184 118.237 923.949 118.438 924.824 118.438C926.155 118.438 927.23 118.155 928.051 117.59C928.871 117.025 929.464 116.223 929.828 115.184C930.193 114.145 930.348 112.923 930.293 111.52V109.359C930.329 108.156 930.247 107.099 930.047 106.188C929.846 105.258 929.527 104.483 929.09 103.863C928.671 103.243 928.105 102.779 927.395 102.469C926.702 102.141 925.863 101.977 924.879 101.977C924.022 101.977 923.266 102.177 922.609 102.578C921.953 102.979 921.406 103.544 920.969 104.273C920.531 104.984 920.194 105.832 919.957 106.816C919.738 107.783 919.629 108.84 919.629 109.988ZM973.059 117.562V105.367C973.059 104.529 972.94 103.809 972.703 103.207C972.466 102.605 972.092 102.141 971.582 101.812C971.072 101.466 970.388 101.293 969.531 101.293C968.839 101.293 968.246 101.411 967.754 101.648C967.262 101.885 966.888 102.241 966.633 102.715C966.378 103.189 966.25 103.79 966.25 104.52H957.035C957.035 103.152 957.336 101.885 957.938 100.719C958.557 99.5339 959.432 98.5039 960.562 97.6289C961.711 96.7539 963.078 96.0794 964.664 95.6055C966.268 95.1133 968.055 94.8672 970.023 94.8672C972.375 94.8672 974.471 95.2591 976.312 96.043C978.172 96.8268 979.639 98.0026 980.715 99.5703C981.79 101.12 982.328 103.07 982.328 105.422V117.535C982.328 119.467 982.438 120.935 982.656 121.938C982.875 122.922 983.185 123.788 983.586 124.535V125H974.344C973.906 124.089 973.578 122.977 973.359 121.664C973.159 120.333 973.059 118.966 973.059 117.562ZM974.18 106.926L974.234 111.848H970.16C969.303 111.848 968.574 111.966 967.973 112.203C967.389 112.44 966.915 112.768 966.551 113.188C966.204 113.589 965.949 114.044 965.785 114.555C965.639 115.065 965.566 115.603 965.566 116.168C965.566 116.715 965.694 117.207 965.949 117.645C966.223 118.064 966.587 118.392 967.043 118.629C967.499 118.866 968.009 118.984 968.574 118.984C969.595 118.984 970.461 118.793 971.172 118.41C971.901 118.009 972.457 117.526 972.84 116.961C973.223 116.396 973.414 115.867 973.414 115.375L975.438 119.148C975.073 119.878 974.654 120.616 974.18 121.363C973.724 122.111 973.15 122.803 972.457 123.441C971.783 124.061 970.953 124.572 969.969 124.973C968.984 125.355 967.79 125.547 966.387 125.547C964.564 125.547 962.887 125.173 961.355 124.426C959.842 123.678 958.63 122.639 957.719 121.309C956.807 119.96 956.352 118.41 956.352 116.66C956.352 115.129 956.625 113.762 957.172 112.559C957.737 111.355 958.585 110.335 959.715 109.496C960.845 108.658 962.285 108.02 964.035 107.582C965.785 107.145 967.845 106.926 970.215 106.926H974.18ZM996.492 101.73V125H987.277V95.4141H995.918L996.492 101.73ZM995.398 109.195L993.238 109.25C993.238 106.99 993.512 104.975 994.059 103.207C994.605 101.421 995.38 99.9076 996.383 98.668C997.385 97.4284 998.579 96.4896 999.965 95.8516C1001.37 95.1953 1002.93 94.8672 1004.64 94.8672C1006.01 94.8672 1007.26 95.0677 1008.39 95.4688C1009.54 95.8698 1010.52 96.5169 1011.34 97.4102C1012.18 98.3034 1012.82 99.4883 1013.25 100.965C1013.71 102.423 1013.94 104.228 1013.94 106.379V125H1004.67V106.352C1004.67 105.167 1004.5 104.264 1004.18 103.645C1003.85 103.007 1003.37 102.569 1002.75 102.332C1002.13 102.095 1001.38 101.977 1000.48 101.977C999.536 101.977 998.734 102.159 998.078 102.523C997.422 102.888 996.893 103.398 996.492 104.055C996.109 104.693 995.827 105.449 995.645 106.324C995.48 107.199 995.398 108.156 995.398 109.195ZM1036.06 118.219V83H1045.33V125H1037.02L1036.06 118.219ZM1017.9 110.562V109.988C1017.9 107.746 1018.15 105.704 1018.64 103.863C1019.13 102.004 1019.86 100.409 1020.83 99.0781C1021.79 97.7292 1023 96.6901 1024.44 95.9609C1025.88 95.2318 1027.54 94.8672 1029.41 94.8672C1031.09 94.8672 1032.56 95.2591 1033.82 96.043C1035.07 96.8086 1036.15 97.8841 1037.04 99.2695C1037.94 100.655 1038.67 102.277 1039.23 104.137C1039.8 105.978 1040.22 107.965 1040.52 110.098V110.781C1040.22 112.786 1039.8 114.682 1039.23 116.469C1038.67 118.237 1037.94 119.805 1037.04 121.172C1036.15 122.539 1035.07 123.615 1033.79 124.398C1032.53 125.164 1031.05 125.547 1029.36 125.547C1027.48 125.547 1025.82 125.173 1024.38 124.426C1022.96 123.678 1021.77 122.63 1020.8 121.281C1019.85 119.932 1019.13 118.346 1018.64 116.523C1018.15 114.701 1017.9 112.714 1017.9 110.562ZM1027.12 109.988V110.562C1027.12 111.674 1027.19 112.704 1027.34 113.652C1027.48 114.6 1027.73 115.439 1028.07 116.168C1028.44 116.879 1028.91 117.435 1029.5 117.836C1030.1 118.237 1030.84 118.438 1031.71 118.438C1032.9 118.438 1033.87 118.155 1034.64 117.59C1035.42 117.025 1035.99 116.223 1036.36 115.184C1036.74 114.145 1036.91 112.923 1036.85 111.52V109.359C1036.89 108.156 1036.81 107.099 1036.61 106.188C1036.4 105.258 1036.09 104.483 1035.65 103.863C1035.23 103.243 1034.69 102.779 1034.04 102.469C1033.4 102.141 1032.64 101.977 1031.77 101.977C1030.91 101.977 1030.18 102.177 1029.58 102.578C1028.99 102.979 1028.52 103.544 1028.16 104.273C1027.79 104.984 1027.53 105.832 1027.36 106.816C1027.2 107.783 1027.12 108.84 1027.12 109.988ZM100.793 151.188H108.613L117.5 178.887L126.387 151.188H134.207L120.672 191H114.328L100.793 151.188ZM96.0352 151.188H104.129L105.633 181.703V191H96.0352V151.188ZM130.871 151.188H138.992V191H129.367V181.703L130.871 151.188ZM160.074 183.562V171.367C160.074 170.529 159.956 169.809 159.719 169.207C159.482 168.605 159.108 168.141 158.598 167.812C158.087 167.466 157.404 167.293 156.547 167.293C155.854 167.293 155.262 167.411 154.77 167.648C154.277 167.885 153.904 168.241 153.648 168.715C153.393 169.189 153.266 169.79 153.266 170.52H144.051C144.051 169.152 144.352 167.885 144.953 166.719C145.573 165.534 146.448 164.504 147.578 163.629C148.727 162.754 150.094 162.079 151.68 161.605C153.284 161.113 155.07 160.867 157.039 160.867C159.391 160.867 161.487 161.259 163.328 162.043C165.188 162.827 166.655 164.003 167.73 165.57C168.806 167.12 169.344 169.07 169.344 171.422V183.535C169.344 185.467 169.453 186.935 169.672 187.938C169.891 188.922 170.201 189.788 170.602 190.535V191H161.359C160.922 190.089 160.594 188.977 160.375 187.664C160.174 186.333 160.074 184.966 160.074 183.562ZM161.195 172.926L161.25 177.848H157.176C156.319 177.848 155.59 177.966 154.988 178.203C154.405 178.44 153.931 178.768 153.566 179.188C153.22 179.589 152.965 180.044 152.801 180.555C152.655 181.065 152.582 181.603 152.582 182.168C152.582 182.715 152.71 183.207 152.965 183.645C153.238 184.064 153.603 184.392 154.059 184.629C154.514 184.866 155.025 184.984 155.59 184.984C156.611 184.984 157.477 184.793 158.188 184.41C158.917 184.009 159.473 183.526 159.855 182.961C160.238 182.396 160.43 181.867 160.43 181.375L162.453 185.148C162.089 185.878 161.669 186.616 161.195 187.363C160.74 188.111 160.165 188.803 159.473 189.441C158.798 190.061 157.969 190.572 156.984 190.973C156 191.355 154.806 191.547 153.402 191.547C151.579 191.547 149.902 191.173 148.371 190.426C146.858 189.678 145.646 188.639 144.734 187.309C143.823 185.96 143.367 184.41 143.367 182.66C143.367 181.129 143.641 179.762 144.188 178.559C144.753 177.355 145.6 176.335 146.73 175.496C147.861 174.658 149.301 174.02 151.051 173.582C152.801 173.145 154.861 172.926 157.23 172.926H161.195ZM183.508 167.73V191H174.293V161.414H182.934L183.508 167.73ZM182.414 175.195L180.254 175.25C180.254 172.99 180.527 170.975 181.074 169.207C181.621 167.421 182.396 165.908 183.398 164.668C184.401 163.428 185.595 162.49 186.98 161.852C188.384 161.195 189.943 160.867 191.656 160.867C193.023 160.867 194.272 161.068 195.402 161.469C196.551 161.87 197.535 162.517 198.355 163.41C199.194 164.303 199.832 165.488 200.27 166.965C200.725 168.423 200.953 170.228 200.953 172.379V191H191.684V172.352C191.684 171.167 191.52 170.264 191.191 169.645C190.863 169.007 190.389 168.569 189.77 168.332C189.15 168.095 188.393 167.977 187.5 167.977C186.552 167.977 185.75 168.159 185.094 168.523C184.438 168.888 183.909 169.398 183.508 170.055C183.125 170.693 182.842 171.449 182.66 172.324C182.496 173.199 182.414 174.156 182.414 175.195ZM221.434 183.562V171.367C221.434 170.529 221.315 169.809 221.078 169.207C220.841 168.605 220.467 168.141 219.957 167.812C219.447 167.466 218.763 167.293 217.906 167.293C217.214 167.293 216.621 167.411 216.129 167.648C215.637 167.885 215.263 168.241 215.008 168.715C214.753 169.189 214.625 169.79 214.625 170.52H205.41C205.41 169.152 205.711 167.885 206.312 166.719C206.932 165.534 207.807 164.504 208.938 163.629C210.086 162.754 211.453 162.079 213.039 161.605C214.643 161.113 216.43 160.867 218.398 160.867C220.75 160.867 222.846 161.259 224.688 162.043C226.547 162.827 228.014 164.003 229.09 165.57C230.165 167.12 230.703 169.07 230.703 171.422V183.535C230.703 185.467 230.812 186.935 231.031 187.938C231.25 188.922 231.56 189.788 231.961 190.535V191H222.719C222.281 190.089 221.953 188.977 221.734 187.664C221.534 186.333 221.434 184.966 221.434 183.562ZM222.555 172.926L222.609 177.848H218.535C217.678 177.848 216.949 177.966 216.348 178.203C215.764 178.44 215.29 178.768 214.926 179.188C214.579 179.589 214.324 180.044 214.16 180.555C214.014 181.065 213.941 181.603 213.941 182.168C213.941 182.715 214.069 183.207 214.324 183.645C214.598 184.064 214.962 184.392 215.418 184.629C215.874 184.866 216.384 184.984 216.949 184.984C217.97 184.984 218.836 184.793 219.547 184.41C220.276 184.009 220.832 183.526 221.215 182.961C221.598 182.396 221.789 181.867 221.789 181.375L223.812 185.148C223.448 185.878 223.029 186.616 222.555 187.363C222.099 188.111 221.525 188.803 220.832 189.441C220.158 190.061 219.328 190.572 218.344 190.973C217.359 191.355 216.165 191.547 214.762 191.547C212.939 191.547 211.262 191.173 209.73 190.426C208.217 189.678 207.005 188.639 206.094 187.309C205.182 185.96 204.727 184.41 204.727 182.66C204.727 181.129 205 179.762 205.547 178.559C206.112 177.355 206.96 176.335 208.09 175.496C209.22 174.658 210.66 174.02 212.41 173.582C214.16 173.145 216.22 172.926 218.59 172.926H222.555ZM254.41 161.414H262.777V189.852C262.777 192.586 262.148 194.901 260.891 196.797C259.633 198.711 257.874 200.16 255.613 201.145C253.371 202.147 250.746 202.648 247.738 202.648C246.408 202.648 245.049 202.475 243.664 202.129C242.279 201.801 240.984 201.309 239.781 200.652C238.578 199.996 237.566 199.185 236.746 198.219L240.602 192.805C241.349 193.643 242.288 194.354 243.418 194.938C244.548 195.539 245.879 195.84 247.41 195.84C248.741 195.84 249.853 195.603 250.746 195.129C251.658 194.655 252.35 193.962 252.824 193.051C253.298 192.158 253.535 191.073 253.535 189.797V168.414L254.41 161.414ZM234.75 176.562V175.988C234.75 173.746 235.023 171.704 235.57 169.863C236.135 168.004 236.938 166.409 237.977 165.078C239.034 163.729 240.31 162.69 241.805 161.961C243.299 161.232 244.986 160.867 246.863 160.867C248.887 160.867 250.546 161.259 251.84 162.043C253.152 162.809 254.201 163.884 254.984 165.27C255.786 166.655 256.406 168.277 256.844 170.137C257.299 171.978 257.682 173.965 257.992 176.098V176.781C257.682 178.786 257.254 180.682 256.707 182.469C256.178 184.237 255.486 185.805 254.629 187.172C253.772 188.539 252.697 189.615 251.402 190.398C250.126 191.164 248.595 191.547 246.809 191.547C244.949 191.547 243.272 191.173 241.777 190.426C240.301 189.678 239.034 188.63 237.977 187.281C236.938 185.932 236.135 184.346 235.57 182.523C235.023 180.701 234.75 178.714 234.75 176.562ZM243.965 175.988V176.562C243.965 177.674 244.065 178.704 244.266 179.652C244.484 180.6 244.812 181.439 245.25 182.168C245.688 182.879 246.225 183.435 246.863 183.836C247.52 184.237 248.285 184.438 249.16 184.438C250.491 184.438 251.566 184.155 252.387 183.59C253.207 183.025 253.799 182.223 254.164 181.184C254.529 180.145 254.684 178.923 254.629 177.52V175.359C254.665 174.156 254.583 173.099 254.383 172.188C254.182 171.258 253.863 170.483 253.426 169.863C253.007 169.243 252.441 168.779 251.73 168.469C251.038 168.141 250.199 167.977 249.215 167.977C248.358 167.977 247.602 168.177 246.945 168.578C246.289 168.979 245.742 169.544 245.305 170.273C244.867 170.984 244.53 171.832 244.293 172.816C244.074 173.783 243.965 174.84 243.965 175.988ZM282.41 191.547C280.004 191.547 277.853 191.173 275.957 190.426C274.061 189.66 272.457 188.612 271.145 187.281C269.85 185.951 268.857 184.419 268.164 182.688C267.49 180.956 267.152 179.124 267.152 177.191V176.152C267.152 173.983 267.453 171.978 268.055 170.137C268.656 168.277 269.549 166.655 270.734 165.27C271.919 163.884 273.405 162.809 275.191 162.043C276.978 161.259 279.056 160.867 281.426 160.867C283.522 160.867 285.4 161.204 287.059 161.879C288.717 162.553 290.121 163.52 291.27 164.777C292.436 166.035 293.32 167.557 293.922 169.344C294.542 171.13 294.852 173.135 294.852 175.359V179.105H270.68V173.336H285.855V172.625C285.874 171.641 285.701 170.802 285.336 170.109C284.99 169.417 284.479 168.888 283.805 168.523C283.13 168.159 282.31 167.977 281.344 167.977C280.341 167.977 279.512 168.195 278.855 168.633C278.217 169.07 277.716 169.672 277.352 170.438C277.005 171.185 276.759 172.051 276.613 173.035C276.467 174.02 276.395 175.059 276.395 176.152V177.191C276.395 178.285 276.54 179.279 276.832 180.172C277.142 181.065 277.579 181.831 278.145 182.469C278.728 183.089 279.421 183.572 280.223 183.918C281.043 184.264 281.973 184.438 283.012 184.438C284.27 184.438 285.509 184.201 286.73 183.727C287.952 183.253 289 182.469 289.875 181.375L294.059 186.352C293.457 187.208 292.6 188.038 291.488 188.84C290.395 189.642 289.082 190.298 287.551 190.809C286.02 191.301 284.306 191.547 282.41 191.547ZM307.895 167.676V191H298.68V161.414H307.32L307.895 167.676ZM306.773 175.195L304.668 175.25C304.668 173.172 304.914 171.258 305.406 169.508C305.898 167.758 306.628 166.236 307.594 164.941C308.56 163.647 309.745 162.645 311.148 161.934C312.57 161.223 314.211 160.867 316.07 160.867C317.365 160.867 318.54 161.068 319.598 161.469C320.655 161.852 321.566 162.462 322.332 163.301C323.098 164.121 323.681 165.197 324.082 166.527C324.501 167.84 324.711 169.417 324.711 171.258V191H315.496V172.434C315.496 171.176 315.35 170.228 315.059 169.59C314.785 168.952 314.384 168.523 313.855 168.305C313.327 168.086 312.68 167.977 311.914 167.977C311.112 167.977 310.392 168.159 309.754 168.523C309.116 168.888 308.569 169.398 308.113 170.055C307.676 170.693 307.339 171.449 307.102 172.324C306.883 173.199 306.773 174.156 306.773 175.195ZM323.672 175.195L321.102 175.25C321.102 173.172 321.329 171.258 321.785 169.508C322.259 167.758 322.961 166.236 323.891 164.941C324.839 163.647 326.014 162.645 327.418 161.934C328.822 161.223 330.453 160.867 332.312 160.867C333.661 160.867 334.901 161.068 336.031 161.469C337.161 161.87 338.137 162.517 338.957 163.41C339.777 164.303 340.415 165.488 340.871 166.965C341.327 168.423 341.555 170.228 341.555 172.379V191H332.312V172.379C332.312 171.158 332.167 170.237 331.875 169.617C331.602 168.979 331.201 168.551 330.672 168.332C330.143 168.095 329.514 167.977 328.785 167.977C327.91 167.977 327.154 168.159 326.516 168.523C325.878 168.888 325.34 169.398 324.902 170.055C324.483 170.693 324.173 171.449 323.973 172.324C323.772 173.199 323.672 174.156 323.672 175.195ZM361.16 191.547C358.754 191.547 356.603 191.173 354.707 190.426C352.811 189.66 351.207 188.612 349.895 187.281C348.6 185.951 347.607 184.419 346.914 182.688C346.24 180.956 345.902 179.124 345.902 177.191V176.152C345.902 173.983 346.203 171.978 346.805 170.137C347.406 168.277 348.299 166.655 349.484 165.27C350.669 163.884 352.155 162.809 353.941 162.043C355.728 161.259 357.806 160.867 360.176 160.867C362.272 160.867 364.15 161.204 365.809 161.879C367.467 162.553 368.871 163.52 370.02 164.777C371.186 166.035 372.07 167.557 372.672 169.344C373.292 171.13 373.602 173.135 373.602 175.359V179.105H349.43V173.336H364.605V172.625C364.624 171.641 364.451 170.802 364.086 170.109C363.74 169.417 363.229 168.888 362.555 168.523C361.88 168.159 361.06 167.977 360.094 167.977C359.091 167.977 358.262 168.195 357.605 168.633C356.967 169.07 356.466 169.672 356.102 170.438C355.755 171.185 355.509 172.051 355.363 173.035C355.217 174.02 355.145 175.059 355.145 176.152V177.191C355.145 178.285 355.29 179.279 355.582 180.172C355.892 181.065 356.329 181.831 356.895 182.469C357.478 183.089 358.171 183.572 358.973 183.918C359.793 184.264 360.723 184.438 361.762 184.438C363.02 184.438 364.259 184.201 365.48 183.727C366.702 183.253 367.75 182.469 368.625 181.375L372.809 186.352C372.207 187.208 371.35 188.038 370.238 188.84C369.145 189.642 367.832 190.298 366.301 190.809C364.77 191.301 363.056 191.547 361.16 191.547ZM386.398 167.73V191H377.184V161.414H385.824L386.398 167.73ZM385.305 175.195L383.145 175.25C383.145 172.99 383.418 170.975 383.965 169.207C384.512 167.421 385.286 165.908 386.289 164.668C387.292 163.428 388.486 162.49 389.871 161.852C391.275 161.195 392.833 160.867 394.547 160.867C395.914 160.867 397.163 161.068 398.293 161.469C399.441 161.87 400.426 162.517 401.246 163.41C402.085 164.303 402.723 165.488 403.16 166.965C403.616 168.423 403.844 170.228 403.844 172.379V191H394.574V172.352C394.574 171.167 394.41 170.264 394.082 169.645C393.754 169.007 393.28 168.569 392.66 168.332C392.04 168.095 391.284 167.977 390.391 167.977C389.443 167.977 388.641 168.159 387.984 168.523C387.328 168.888 386.799 169.398 386.398 170.055C386.016 170.693 385.733 171.449 385.551 172.324C385.387 173.199 385.305 174.156 385.305 175.195ZM424.543 161.414V167.812H406.715V161.414H424.543ZM410.461 154.059H419.676V181.348C419.676 182.132 419.767 182.742 419.949 183.18C420.132 183.599 420.441 183.9 420.879 184.082C421.335 184.246 421.936 184.328 422.684 184.328C423.212 184.328 423.65 184.319 423.996 184.301C424.342 184.264 424.671 184.219 424.98 184.164V190.754C424.197 191.009 423.376 191.201 422.52 191.328C421.663 191.474 420.751 191.547 419.785 191.547C417.816 191.547 416.13 191.237 414.727 190.617C413.341 189.997 412.284 189.022 411.555 187.691C410.826 186.361 410.461 184.629 410.461 182.496V154.059Z" fill="black"/>
<path d="M1134 0H1348C1356.28 0 1363 6.71573 1363 15V220C1363 228.284 1356.28 235 1348 235H1134V0Z" fill="#BFDBF7"/>
<path d="M1234.26 139.786H1262.74V145.357H1234.26V139.786ZM1239.96 150.929H1257.04V156.5H1239.96V150.929ZM1248.5 78.5C1240.95 78.5 1233.71 81.4349 1228.37 86.6592C1223.03 91.8834 1220.03 98.969 1220.03 106.357C1219.84 110.406 1220.63 114.441 1222.34 118.132C1224.05 121.822 1226.64 125.062 1229.88 127.584C1232.73 130.175 1234.26 131.651 1234.26 134.214H1239.96C1239.96 129.089 1236.8 126.219 1233.72 123.461C1231.06 121.468 1228.94 118.866 1227.55 115.884C1226.15 112.902 1225.53 109.631 1225.72 106.357C1225.72 100.447 1228.12 94.7781 1232.39 90.5988C1236.67 86.4194 1242.46 84.0714 1248.5 84.0714C1254.54 84.0714 1260.33 86.4194 1264.61 90.5988C1268.88 94.7781 1271.28 100.447 1271.28 106.357C1271.47 109.633 1270.84 112.906 1269.44 115.888C1268.04 118.87 1265.92 121.471 1263.25 123.461C1260.2 126.247 1257.04 129.033 1257.04 134.214H1262.74C1262.74 131.651 1264.25 130.175 1267.12 127.556C1270.36 125.038 1272.94 121.803 1274.66 118.118C1276.37 114.432 1277.16 110.401 1276.97 106.357C1276.97 102.699 1276.24 99.0765 1274.81 95.6967C1273.37 92.3169 1271.28 89.2459 1268.63 86.6592C1265.99 84.0724 1262.85 82.0205 1259.4 80.6205C1255.94 79.2205 1252.24 78.5 1248.5 78.5Z" fill="white"/>
</svg>
