<svg width="1363" height="297" viewBox="0 0 1363 297" fill="none" xmlns="http://www.w3.org/2000/svg">
<path d="M0 15C0 6.71573 6.71573 0 15 0H37V297H15C6.71573 297 0 290.284 0 282V15Z" fill="#1F7A8C"/>
<path d="M37 0H1066V297H37V0Z" fill="#F0F0F0"/>
<path d="M108.609 68.3027C108.609 67.8457 108.539 67.4355 108.398 67.0723C108.27 66.6973 108.023 66.3574 107.66 66.0527C107.297 65.7363 106.787 65.4258 106.131 65.1211C105.475 64.8164 104.625 64.5 103.582 64.1719C102.422 63.7969 101.32 63.375 100.277 62.9062C99.2461 62.4375 98.332 61.8926 97.5352 61.2715C96.75 60.6387 96.1289 59.9062 95.6719 59.0742C95.2266 58.2422 95.0039 57.2754 95.0039 56.1738C95.0039 55.1074 95.2383 54.1406 95.707 53.2734C96.1758 52.3945 96.832 51.6445 97.6758 51.0234C98.5195 50.3906 99.5156 49.9043 100.664 49.5645C101.824 49.2246 103.096 49.0547 104.479 49.0547C106.365 49.0547 108.012 49.3945 109.418 50.0742C110.824 50.7539 111.914 51.6855 112.688 52.8691C113.473 54.0527 113.865 55.4062 113.865 56.9297H108.627C108.627 56.1797 108.469 55.5234 108.152 54.9609C107.848 54.3867 107.379 53.9355 106.746 53.6074C106.125 53.2793 105.34 53.1152 104.391 53.1152C103.477 53.1152 102.715 53.2559 102.105 53.5371C101.496 53.8066 101.039 54.1758 100.734 54.6445C100.43 55.1016 100.277 55.6172 100.277 56.1914C100.277 56.625 100.383 57.0176 100.594 57.3691C100.816 57.7207 101.145 58.0488 101.578 58.3535C102.012 58.6582 102.545 58.9453 103.178 59.2148C103.811 59.4844 104.543 59.748 105.375 60.0059C106.77 60.4277 107.994 60.9023 109.049 61.4297C110.115 61.957 111.006 62.5488 111.721 63.2051C112.436 63.8613 112.975 64.6055 113.338 65.4375C113.701 66.2695 113.883 67.2129 113.883 68.2676C113.883 69.3809 113.666 70.377 113.232 71.2559C112.799 72.1348 112.172 72.8789 111.352 73.4883C110.531 74.0977 109.553 74.5605 108.416 74.877C107.279 75.1934 106.008 75.3516 104.602 75.3516C103.336 75.3516 102.088 75.1875 100.857 74.8594C99.627 74.5195 98.5078 74.0098 97.5 73.3301C96.5039 72.6504 95.707 71.7832 95.1094 70.7285C94.5117 69.6738 94.2129 68.4258 94.2129 66.9844H99.5039C99.5039 67.7812 99.627 68.4551 99.873 69.0059C100.119 69.5566 100.465 70.002 100.91 70.3418C101.367 70.6816 101.906 70.9277 102.527 71.0801C103.16 71.2324 103.852 71.3086 104.602 71.3086C105.516 71.3086 106.266 71.1797 106.852 70.9219C107.449 70.6641 107.889 70.3066 108.17 69.8496C108.463 69.3926 108.609 68.877 108.609 68.3027ZM126.469 55.9805V59.5664H115.395V55.9805H126.469ZM118.137 51.2871H123.199V69.2695C123.199 69.8203 123.27 70.2422 123.41 70.5352C123.562 70.8281 123.785 71.0332 124.078 71.1504C124.371 71.2559 124.74 71.3086 125.186 71.3086C125.502 71.3086 125.783 71.2969 126.029 71.2734C126.287 71.2383 126.504 71.2031 126.68 71.168L126.697 74.8945C126.264 75.0352 125.795 75.1465 125.291 75.2285C124.787 75.3105 124.23 75.3516 123.621 75.3516C122.508 75.3516 121.535 75.1699 120.703 74.8066C119.883 74.4316 119.25 73.834 118.805 73.0137C118.359 72.1934 118.137 71.1152 118.137 69.7793V51.2871ZM140.602 70.4473V55.9805H145.664V75H140.9L140.602 70.4473ZM141.164 66.5449L142.658 66.5098C142.658 67.7754 142.512 68.9531 142.219 70.043C141.926 71.1211 141.486 72.0586 140.9 72.8555C140.314 73.6406 139.576 74.2559 138.686 74.7012C137.795 75.1348 136.746 75.3516 135.539 75.3516C134.613 75.3516 133.758 75.2227 132.973 74.9648C132.199 74.6953 131.531 74.2793 130.969 73.7168C130.418 73.1426 129.984 72.4102 129.668 71.5195C129.363 70.6172 129.211 69.5332 129.211 68.2676V55.9805H134.273V68.3027C134.273 68.8652 134.338 69.3398 134.467 69.7266C134.607 70.1133 134.801 70.4297 135.047 70.6758C135.293 70.9219 135.58 71.0977 135.908 71.2031C136.248 71.3086 136.623 71.3613 137.033 71.3613C138.076 71.3613 138.896 71.1504 139.494 70.7285C140.104 70.3066 140.531 69.7324 140.777 69.0059C141.035 68.2676 141.164 67.4473 141.164 66.5449ZM160.764 70.8516V48H165.861V75H161.273L160.764 70.8516ZM148.74 65.7188V65.3496C148.74 63.8965 148.904 62.5781 149.232 61.3945C149.561 60.1992 150.041 59.1738 150.674 58.3184C151.307 57.4629 152.086 56.8008 153.012 56.332C153.938 55.8633 154.992 55.6289 156.176 55.6289C157.289 55.6289 158.262 55.8633 159.094 56.332C159.938 56.8008 160.652 57.4688 161.238 58.3359C161.836 59.1914 162.316 60.2051 162.68 61.377C163.043 62.5371 163.307 63.8086 163.471 65.1914V66C163.307 67.3242 163.043 68.5547 162.68 69.6914C162.316 70.8281 161.836 71.8242 161.238 72.6797C160.652 73.5234 159.938 74.1797 159.094 74.6484C158.25 75.1172 157.266 75.3516 156.141 75.3516C154.957 75.3516 153.902 75.1113 152.977 74.6309C152.062 74.1504 151.289 73.4766 150.656 72.6094C150.035 71.7422 149.561 70.7227 149.232 69.5508C148.904 68.3789 148.74 67.1016 148.74 65.7188ZM153.803 65.3496V65.7188C153.803 66.5039 153.861 67.2363 153.979 67.916C154.107 68.5957 154.312 69.1992 154.594 69.7266C154.887 70.2422 155.262 70.6465 155.719 70.9395C156.188 71.2207 156.756 71.3613 157.424 71.3613C158.291 71.3613 159.006 71.168 159.568 70.7812C160.131 70.3828 160.559 69.8379 160.852 69.1465C161.156 68.4551 161.332 67.6582 161.379 66.7559V64.4531C161.344 63.7148 161.238 63.0527 161.062 62.4668C160.898 61.8691 160.652 61.3594 160.324 60.9375C160.008 60.5156 159.609 60.1875 159.129 59.9531C158.66 59.7188 158.104 59.6016 157.459 59.6016C156.803 59.6016 156.24 59.7539 155.771 60.0586C155.303 60.3516 154.922 60.7559 154.629 61.2715C154.348 61.7871 154.137 62.3965 153.996 63.0996C153.867 63.791 153.803 64.541 153.803 65.3496ZM178.57 75.3516C177.094 75.3516 175.77 75.1172 174.598 74.6484C173.426 74.168 172.43 73.5059 171.609 72.6621C170.801 71.8184 170.18 70.8398 169.746 69.7266C169.312 68.6016 169.096 67.4062 169.096 66.1406V65.4375C169.096 63.9961 169.301 62.6777 169.711 61.4824C170.121 60.2871 170.707 59.25 171.469 58.3711C172.242 57.4922 173.18 56.8184 174.281 56.3496C175.383 55.8691 176.625 55.6289 178.008 55.6289C179.355 55.6289 180.551 55.8516 181.594 56.2969C182.637 56.7422 183.51 57.375 184.213 58.1953C184.928 59.0156 185.467 60 185.83 61.1484C186.193 62.2852 186.375 63.5508 186.375 64.9453V67.0547H171.258V63.6797H181.4V63.293C181.4 62.5898 181.271 61.9629 181.014 61.4121C180.768 60.8496 180.393 60.4043 179.889 60.0762C179.385 59.748 178.74 59.584 177.955 59.584C177.287 59.584 176.713 59.7305 176.232 60.0234C175.752 60.3164 175.359 60.7266 175.055 61.2539C174.762 61.7812 174.539 62.4023 174.387 63.1172C174.246 63.8203 174.176 64.5938 174.176 65.4375V66.1406C174.176 66.9023 174.281 67.6055 174.492 68.25C174.715 68.8945 175.025 69.4512 175.424 69.9199C175.834 70.3887 176.326 70.752 176.9 71.0098C177.486 71.2676 178.148 71.3965 178.887 71.3965C179.801 71.3965 180.65 71.2207 181.436 70.8691C182.232 70.5059 182.918 69.9609 183.492 69.2344L185.953 71.9062C185.555 72.4805 185.01 73.0312 184.318 73.5586C183.639 74.0859 182.818 74.5195 181.857 74.8594C180.896 75.1875 179.801 75.3516 178.57 75.3516ZM194.215 60.041V75H189.152V55.9805H193.898L194.215 60.041ZM193.477 64.8223H192.105C192.105 63.416 192.287 62.1504 192.65 61.0254C193.014 59.8887 193.523 58.9219 194.18 58.125C194.836 57.3164 195.615 56.7012 196.518 56.2793C197.432 55.8457 198.451 55.6289 199.576 55.6289C200.467 55.6289 201.281 55.7578 202.02 56.0156C202.758 56.2734 203.391 56.6836 203.918 57.2461C204.457 57.8086 204.867 58.5527 205.148 59.4785C205.441 60.4043 205.588 61.5352 205.588 62.8711V75H200.49V62.8535C200.49 62.0098 200.373 61.3535 200.139 60.8848C199.904 60.416 199.559 60.0879 199.102 59.9004C198.656 59.7012 198.105 59.6016 197.449 59.6016C196.77 59.6016 196.178 59.7363 195.674 60.0059C195.182 60.2754 194.771 60.6504 194.443 61.1309C194.127 61.5996 193.887 62.1504 193.723 62.7832C193.559 63.416 193.477 64.0957 193.477 64.8223ZM218.754 55.9805V59.5664H207.68V55.9805H218.754ZM210.422 51.2871H215.484V69.2695C215.484 69.8203 215.555 70.2422 215.695 70.5352C215.848 70.8281 216.07 71.0332 216.363 71.1504C216.656 71.2559 217.025 71.3086 217.471 71.3086C217.787 71.3086 218.068 71.2969 218.314 71.2734C218.572 71.2383 218.789 71.2031 218.965 71.168L218.982 74.8945C218.549 75.0352 218.08 75.1465 217.576 75.2285C217.072 75.3105 216.516 75.3516 215.906 75.3516C214.793 75.3516 213.82 75.1699 212.988 74.8066C212.168 74.4316 211.535 73.834 211.09 73.0137C210.645 72.1934 210.422 71.1152 210.422 69.7793V51.2871ZM251.748 49.4062V75H246.475L236.191 57.8438V75H230.918V49.4062H236.191L246.492 66.5801V49.4062H251.748ZM266.285 70.7109V62.2383C266.285 61.6289 266.186 61.1074 265.986 60.6738C265.787 60.2285 265.477 59.8828 265.055 59.6367C264.645 59.3906 264.111 59.2676 263.455 59.2676C262.893 59.2676 262.406 59.3672 261.996 59.5664C261.586 59.7539 261.27 60.0293 261.047 60.3926C260.824 60.7441 260.713 61.1602 260.713 61.6406H255.65C255.65 60.832 255.838 60.0645 256.213 59.3379C256.588 58.6113 257.133 57.9727 257.848 57.4219C258.562 56.8594 259.412 56.4199 260.396 56.1035C261.393 55.7871 262.506 55.6289 263.736 55.6289C265.213 55.6289 266.525 55.875 267.674 56.3672C268.822 56.8594 269.725 57.5977 270.381 58.582C271.049 59.5664 271.383 60.7969 271.383 62.2734V70.4121C271.383 71.4551 271.447 72.3105 271.576 72.9785C271.705 73.6348 271.893 74.209 272.139 74.7012V75H267.023C266.777 74.4844 266.59 73.8398 266.461 73.0664C266.344 72.2812 266.285 71.4961 266.285 70.7109ZM266.953 63.416L266.988 66.2812H264.158C263.49 66.2812 262.91 66.3574 262.418 66.5098C261.926 66.6621 261.521 66.8789 261.205 67.1602C260.889 67.4297 260.654 67.7461 260.502 68.1094C260.361 68.4727 260.291 68.8711 260.291 69.3047C260.291 69.7383 260.391 70.1309 260.59 70.4824C260.789 70.8223 261.076 71.0918 261.451 71.291C261.826 71.4785 262.266 71.5723 262.77 71.5723C263.531 71.5723 264.193 71.4199 264.756 71.1152C265.318 70.8105 265.752 70.4355 266.057 69.9902C266.373 69.5449 266.537 69.123 266.549 68.7246L267.885 70.8691C267.697 71.3496 267.439 71.8477 267.111 72.3633C266.795 72.8789 266.391 73.3652 265.898 73.8223C265.406 74.2676 264.814 74.6367 264.123 74.9297C263.432 75.2109 262.611 75.3516 261.662 75.3516C260.455 75.3516 259.359 75.1113 258.375 74.6309C257.402 74.1387 256.629 73.4648 256.055 72.6094C255.492 71.7422 255.211 70.7578 255.211 69.6562C255.211 68.6602 255.398 67.7754 255.773 67.002C256.148 66.2285 256.699 65.5781 257.426 65.0508C258.164 64.5117 259.084 64.1074 260.186 63.8379C261.287 63.5566 262.564 63.416 264.018 63.416H266.953ZM280.348 59.918V75H275.268V55.9805H280.031L280.348 59.918ZM279.645 64.8223H278.238C278.238 63.498 278.396 62.2793 278.713 61.166C279.041 60.041 279.516 59.0684 280.137 58.248C280.77 57.416 281.549 56.7715 282.475 56.3145C283.4 55.8574 284.473 55.6289 285.691 55.6289C286.535 55.6289 287.309 55.7578 288.012 56.0156C288.715 56.2617 289.318 56.6543 289.822 57.1934C290.338 57.7207 290.736 58.4121 291.018 59.2676C291.299 60.1113 291.439 61.125 291.439 62.3086V75H286.377V62.8711C286.377 62.0039 286.26 61.3359 286.025 60.8672C285.791 60.3984 285.457 60.0703 285.023 59.8828C284.602 59.6953 284.092 59.6016 283.494 59.6016C282.838 59.6016 282.264 59.7363 281.771 60.0059C281.291 60.2754 280.893 60.6504 280.576 61.1309C280.26 61.5996 280.025 62.1504 279.873 62.7832C279.721 63.416 279.645 64.0957 279.645 64.8223ZM290.965 64.2422L289.154 64.4707C289.154 63.2285 289.307 62.0742 289.611 61.0078C289.928 59.9414 290.391 59.0039 291 58.1953C291.621 57.3867 292.389 56.7598 293.303 56.3145C294.217 55.8574 295.271 55.6289 296.467 55.6289C297.381 55.6289 298.213 55.7637 298.963 56.0332C299.713 56.291 300.352 56.707 300.879 57.2812C301.418 57.8438 301.828 58.582 302.109 59.4961C302.402 60.4102 302.549 61.5293 302.549 62.8535V75H297.469V62.8535C297.469 61.9746 297.352 61.3066 297.117 60.8496C296.895 60.3809 296.566 60.0586 296.133 59.8828C295.711 59.6953 295.207 59.6016 294.621 59.6016C294.012 59.6016 293.479 59.7246 293.021 59.9707C292.564 60.2051 292.184 60.5332 291.879 60.9551C291.574 61.377 291.346 61.8691 291.193 62.4316C291.041 62.9824 290.965 63.5859 290.965 64.2422ZM315.223 75.3516C313.746 75.3516 312.422 75.1172 311.25 74.6484C310.078 74.168 309.082 73.5059 308.262 72.6621C307.453 71.8184 306.832 70.8398 306.398 69.7266C305.965 68.6016 305.748 67.4062 305.748 66.1406V65.4375C305.748 63.9961 305.953 62.6777 306.363 61.4824C306.773 60.2871 307.359 59.25 308.121 58.3711C308.895 57.4922 309.832 56.8184 310.934 56.3496C312.035 55.8691 313.277 55.6289 314.66 55.6289C316.008 55.6289 317.203 55.8516 318.246 56.2969C319.289 56.7422 320.162 57.375 320.865 58.1953C321.58 59.0156 322.119 60 322.482 61.1484C322.846 62.2852 323.027 63.5508 323.027 64.9453V67.0547H307.91V63.6797H318.053V63.293C318.053 62.5898 317.924 61.9629 317.666 61.4121C317.42 60.8496 317.045 60.4043 316.541 60.0762C316.037 59.748 315.393 59.584 314.607 59.584C313.939 59.584 313.365 59.7305 312.885 60.0234C312.404 60.3164 312.012 60.7266 311.707 61.2539C311.414 61.7812 311.191 62.4023 311.039 63.1172C310.898 63.8203 310.828 64.5938 310.828 65.4375V66.1406C310.828 66.9023 310.934 67.6055 311.145 68.25C311.367 68.8945 311.678 69.4512 312.076 69.9199C312.486 70.3887 312.979 70.752 313.553 71.0098C314.139 71.2676 314.801 71.3965 315.539 71.3965C316.453 71.3965 317.303 71.2207 318.088 70.8691C318.885 70.5059 319.57 69.9609 320.145 69.2344L322.605 71.9062C322.207 72.4805 321.662 73.0312 320.971 73.5586C320.291 74.0859 319.471 74.5195 318.51 74.8594C317.549 75.1875 316.453 75.3516 315.223 75.3516Z" fill="#888888"/>
<path d="M128.602 118.727V135.078C127.927 135.826 126.888 136.628 125.484 137.484C124.099 138.323 122.349 139.043 120.234 139.645C118.12 140.246 115.632 140.547 112.77 140.547C110.126 140.547 107.729 140.128 105.578 139.289C103.427 138.432 101.577 137.184 100.027 135.543C98.4961 133.884 97.3112 131.861 96.4727 129.473C95.6523 127.066 95.2422 124.314 95.2422 121.215V119C95.2422 115.901 95.6615 113.148 96.5 110.742C97.3385 108.336 98.5143 106.312 100.027 104.672C101.559 103.013 103.354 101.755 105.414 100.898C107.492 100.042 109.771 99.6133 112.25 99.6133C115.914 99.6133 118.895 100.197 121.191 101.363C123.488 102.512 125.229 104.107 126.414 106.148C127.599 108.172 128.319 110.514 128.574 113.176H119.359C119.177 111.863 118.831 110.751 118.32 109.84C117.828 108.91 117.117 108.208 116.188 107.734C115.258 107.242 114.055 106.996 112.578 106.996C111.43 106.996 110.382 107.242 109.434 107.734C108.504 108.227 107.711 108.974 107.055 109.977C106.398 110.961 105.888 112.201 105.523 113.695C105.177 115.19 105.004 116.94 105.004 118.945V121.215C105.004 123.202 105.168 124.943 105.496 126.438C105.842 127.932 106.353 129.181 107.027 130.184C107.72 131.168 108.595 131.915 109.652 132.426C110.728 132.918 111.995 133.164 113.453 133.164C114.474 133.164 115.349 133.082 116.078 132.918C116.807 132.736 117.409 132.517 117.883 132.262C118.375 131.988 118.749 131.733 119.004 131.496V125.316H112.332V118.727H128.602ZM142.793 98V140H133.578V98H142.793ZM141.699 124.195L139.539 124.25C139.539 122.172 139.794 120.258 140.305 118.508C140.815 116.758 141.544 115.236 142.492 113.941C143.44 112.647 144.579 111.645 145.91 110.934C147.241 110.223 148.717 109.867 150.34 109.867C151.798 109.867 153.129 110.077 154.332 110.496C155.553 110.915 156.602 111.59 157.477 112.52C158.37 113.449 159.053 114.661 159.527 116.156C160.02 117.651 160.266 119.474 160.266 121.625V140H150.996V121.57C150.996 120.367 150.823 119.438 150.477 118.781C150.148 118.107 149.674 117.642 149.055 117.387C148.435 117.113 147.678 116.977 146.785 116.977C145.71 116.977 144.835 117.159 144.16 117.523C143.486 117.888 142.966 118.398 142.602 119.055C142.255 119.693 142.018 120.449 141.891 121.324C141.763 122.199 141.699 123.156 141.699 124.195ZM180.746 132.562V120.367C180.746 119.529 180.628 118.809 180.391 118.207C180.154 117.605 179.78 117.141 179.27 116.812C178.759 116.466 178.076 116.293 177.219 116.293C176.526 116.293 175.934 116.411 175.441 116.648C174.949 116.885 174.576 117.241 174.32 117.715C174.065 118.189 173.938 118.79 173.938 119.52H164.723C164.723 118.152 165.023 116.885 165.625 115.719C166.245 114.534 167.12 113.504 168.25 112.629C169.398 111.754 170.766 111.079 172.352 110.605C173.956 110.113 175.742 109.867 177.711 109.867C180.062 109.867 182.159 110.259 184 111.043C185.859 111.827 187.327 113.003 188.402 114.57C189.478 116.12 190.016 118.07 190.016 120.422V132.535C190.016 134.467 190.125 135.935 190.344 136.938C190.562 137.922 190.872 138.788 191.273 139.535V140H182.031C181.594 139.089 181.266 137.977 181.047 136.664C180.846 135.333 180.746 133.966 180.746 132.562ZM181.867 121.926L181.922 126.848H177.848C176.991 126.848 176.262 126.966 175.66 127.203C175.077 127.44 174.603 127.768 174.238 128.188C173.892 128.589 173.637 129.044 173.473 129.555C173.327 130.065 173.254 130.603 173.254 131.168C173.254 131.715 173.382 132.207 173.637 132.645C173.91 133.064 174.275 133.392 174.73 133.629C175.186 133.866 175.697 133.984 176.262 133.984C177.283 133.984 178.148 133.793 178.859 133.41C179.589 133.009 180.145 132.526 180.527 131.961C180.91 131.396 181.102 130.867 181.102 130.375L183.125 134.148C182.76 134.878 182.341 135.616 181.867 136.363C181.411 137.111 180.837 137.803 180.145 138.441C179.47 139.061 178.641 139.572 177.656 139.973C176.672 140.355 175.478 140.547 174.074 140.547C172.251 140.547 170.574 140.173 169.043 139.426C167.53 138.678 166.318 137.639 165.406 136.309C164.495 134.96 164.039 133.41 164.039 131.66C164.039 130.129 164.312 128.762 164.859 127.559C165.424 126.355 166.272 125.335 167.402 124.496C168.533 123.658 169.973 123.02 171.723 122.582C173.473 122.145 175.533 121.926 177.902 121.926H181.867ZM212.137 133.219V98H221.406V140H213.094L212.137 133.219ZM193.98 125.562V124.988C193.98 122.746 194.227 120.704 194.719 118.863C195.211 117.004 195.94 115.409 196.906 114.078C197.872 112.729 199.076 111.69 200.516 110.961C201.956 110.232 203.615 109.867 205.492 109.867C207.169 109.867 208.637 110.259 209.895 111.043C211.152 111.809 212.228 112.884 213.121 114.27C214.014 115.655 214.743 117.277 215.309 119.137C215.874 120.978 216.302 122.965 216.594 125.098V125.781C216.302 127.786 215.874 129.682 215.309 131.469C214.743 133.237 214.014 134.805 213.121 136.172C212.228 137.539 211.143 138.615 209.867 139.398C208.609 140.164 207.133 140.547 205.438 140.547C203.56 140.547 201.901 140.173 200.461 139.426C199.039 138.678 197.845 137.63 196.879 136.281C195.931 134.932 195.211 133.346 194.719 131.523C194.227 129.701 193.98 127.714 193.98 125.562ZM203.195 124.988V125.562C203.195 126.674 203.268 127.704 203.414 128.652C203.56 129.6 203.806 130.439 204.152 131.168C204.517 131.879 204.991 132.435 205.574 132.836C206.176 133.237 206.914 133.438 207.789 133.438C208.974 133.438 209.949 133.155 210.715 132.59C211.499 132.025 212.073 131.223 212.438 130.184C212.82 129.145 212.984 127.923 212.93 126.52V124.359C212.966 123.156 212.884 122.099 212.684 121.188C212.483 120.258 212.164 119.483 211.727 118.863C211.307 118.243 210.77 117.779 210.113 117.469C209.475 117.141 208.719 116.977 207.844 116.977C206.987 116.977 206.258 117.177 205.656 117.578C205.073 117.979 204.599 118.544 204.234 119.273C203.87 119.984 203.605 120.832 203.441 121.816C203.277 122.783 203.195 123.84 203.195 124.988ZM235.707 136.527L243.363 110.414H253.262L241.367 144.402C241.112 145.15 240.775 145.952 240.355 146.809C239.936 147.684 239.362 148.513 238.633 149.297C237.904 150.081 236.965 150.719 235.816 151.211C234.686 151.703 233.283 151.949 231.605 151.949C230.712 151.949 230.056 151.904 229.637 151.812C229.236 151.74 228.616 151.603 227.777 151.402V144.812C228.014 144.812 228.215 144.812 228.379 144.812C228.561 144.812 228.762 144.812 228.98 144.812C229.965 144.812 230.749 144.712 231.332 144.512C231.934 144.311 232.389 144.02 232.699 143.637C233.027 143.254 233.283 142.789 233.465 142.242L235.707 136.527ZM233.766 110.414L239.59 131.113L240.602 140.875H234.422L223.895 110.414H233.766ZM274.809 100.188H282.629L291.516 127.887L300.402 100.188H308.223L294.688 140H288.344L274.809 100.188ZM270.051 100.188H278.145L279.648 130.703V140H270.051V100.188ZM304.887 100.188H313.008V140H303.383V130.703L304.887 100.188ZM334.09 132.562V120.367C334.09 119.529 333.971 118.809 333.734 118.207C333.497 117.605 333.124 117.141 332.613 116.812C332.103 116.466 331.419 116.293 330.562 116.293C329.87 116.293 329.277 116.411 328.785 116.648C328.293 116.885 327.919 117.241 327.664 117.715C327.409 118.189 327.281 118.79 327.281 119.52H318.066C318.066 118.152 318.367 116.885 318.969 115.719C319.589 114.534 320.464 113.504 321.594 112.629C322.742 111.754 324.109 111.079 325.695 110.605C327.299 110.113 329.086 109.867 331.055 109.867C333.406 109.867 335.503 110.259 337.344 111.043C339.203 111.827 340.671 113.003 341.746 114.57C342.822 116.12 343.359 118.07 343.359 120.422V132.535C343.359 134.467 343.469 135.935 343.688 136.938C343.906 137.922 344.216 138.788 344.617 139.535V140H335.375C334.938 139.089 334.609 137.977 334.391 136.664C334.19 135.333 334.09 133.966 334.09 132.562ZM335.211 121.926L335.266 126.848H331.191C330.335 126.848 329.605 126.966 329.004 127.203C328.421 127.44 327.947 127.768 327.582 128.188C327.236 128.589 326.98 129.044 326.816 129.555C326.671 130.065 326.598 130.603 326.598 131.168C326.598 131.715 326.725 132.207 326.98 132.645C327.254 133.064 327.618 133.392 328.074 133.629C328.53 133.866 329.04 133.984 329.605 133.984C330.626 133.984 331.492 133.793 332.203 133.41C332.932 133.009 333.488 132.526 333.871 131.961C334.254 131.396 334.445 130.867 334.445 130.375L336.469 134.148C336.104 134.878 335.685 135.616 335.211 136.363C334.755 137.111 334.181 137.803 333.488 138.441C332.814 139.061 331.984 139.572 331 139.973C330.016 140.355 328.822 140.547 327.418 140.547C325.595 140.547 323.918 140.173 322.387 139.426C320.874 138.678 319.661 137.639 318.75 136.309C317.839 134.96 317.383 133.41 317.383 131.66C317.383 130.129 317.656 128.762 318.203 127.559C318.768 126.355 319.616 125.335 320.746 124.496C321.876 123.658 323.316 123.02 325.066 122.582C326.816 122.145 328.876 121.926 331.246 121.926H335.211ZM364.059 110.414V116.812H346.23V110.414H364.059ZM349.977 103.059H359.191V130.348C359.191 131.132 359.283 131.742 359.465 132.18C359.647 132.599 359.957 132.9 360.395 133.082C360.85 133.246 361.452 133.328 362.199 133.328C362.728 133.328 363.165 133.319 363.512 133.301C363.858 133.264 364.186 133.219 364.496 133.164V139.754C363.712 140.009 362.892 140.201 362.035 140.328C361.178 140.474 360.267 140.547 359.301 140.547C357.332 140.547 355.646 140.237 354.242 139.617C352.857 138.997 351.799 138.022 351.07 136.691C350.341 135.361 349.977 133.629 349.977 131.496V103.059ZM383.309 110.414V116.812H365.48V110.414H383.309ZM369.227 103.059H378.441V130.348C378.441 131.132 378.533 131.742 378.715 132.18C378.897 132.599 379.207 132.9 379.645 133.082C380.1 133.246 380.702 133.328 381.449 133.328C381.978 133.328 382.415 133.319 382.762 133.301C383.108 133.264 383.436 133.219 383.746 133.164V139.754C382.962 140.009 382.142 140.201 381.285 140.328C380.428 140.474 379.517 140.547 378.551 140.547C376.582 140.547 374.896 140.237 373.492 139.617C372.107 138.997 371.049 138.022 370.32 136.691C369.591 135.361 369.227 133.629 369.227 131.496V103.059ZM402.34 132.562V120.367C402.34 119.529 402.221 118.809 401.984 118.207C401.747 117.605 401.374 117.141 400.863 116.812C400.353 116.466 399.669 116.293 398.812 116.293C398.12 116.293 397.527 116.411 397.035 116.648C396.543 116.885 396.169 117.241 395.914 117.715C395.659 118.189 395.531 118.79 395.531 119.52H386.316C386.316 118.152 386.617 116.885 387.219 115.719C387.839 114.534 388.714 113.504 389.844 112.629C390.992 111.754 392.359 111.079 393.945 110.605C395.549 110.113 397.336 109.867 399.305 109.867C401.656 109.867 403.753 110.259 405.594 111.043C407.453 111.827 408.921 113.003 409.996 114.57C411.072 116.12 411.609 118.07 411.609 120.422V132.535C411.609 134.467 411.719 135.935 411.938 136.938C412.156 137.922 412.466 138.788 412.867 139.535V140H403.625C403.188 139.089 402.859 137.977 402.641 136.664C402.44 135.333 402.34 133.966 402.34 132.562ZM403.461 121.926L403.516 126.848H399.441C398.585 126.848 397.855 126.966 397.254 127.203C396.671 127.44 396.197 127.768 395.832 128.188C395.486 128.589 395.23 129.044 395.066 129.555C394.921 130.065 394.848 130.603 394.848 131.168C394.848 131.715 394.975 132.207 395.23 132.645C395.504 133.064 395.868 133.392 396.324 133.629C396.78 133.866 397.29 133.984 397.855 133.984C398.876 133.984 399.742 133.793 400.453 133.41C401.182 133.009 401.738 132.526 402.121 131.961C402.504 131.396 402.695 130.867 402.695 130.375L404.719 134.148C404.354 134.878 403.935 135.616 403.461 136.363C403.005 137.111 402.431 137.803 401.738 138.441C401.064 139.061 400.234 139.572 399.25 139.973C398.266 140.355 397.072 140.547 395.668 140.547C393.845 140.547 392.168 140.173 390.637 139.426C389.124 138.678 387.911 137.639 387 136.309C386.089 134.96 385.633 133.41 385.633 131.66C385.633 130.129 385.906 128.762 386.453 127.559C387.018 126.355 387.866 125.335 388.996 124.496C390.126 123.658 391.566 123.02 393.316 122.582C395.066 122.145 397.126 121.926 399.496 121.926H403.461Z" fill="black"/>
<rect x="93" y="178" width="917" height="77" rx="10" fill="#D3D3D3"/>
<rect x="111" y="196" width="131" height="41" rx="3" fill="#424242"/>
<rect x="111" y="196" width="131" height="41" rx="3" stroke="#424242" stroke-width="4"/>
<path d="M142.917 220.627V223H136.097V220.627H142.917ZM137.195 210.203V223H134.11V210.203H137.195ZM142.038 215.283V217.577H136.097V215.283H142.038ZM142.943 210.203V212.585H136.097V210.203H142.943ZM147.171 209.5V223H144.2V209.5H147.171ZM153.604 223.176C152.831 223.176 152.14 223.056 151.53 222.815C150.921 222.569 150.405 222.232 149.983 221.805C149.567 221.377 149.248 220.885 149.025 220.328C148.809 219.771 148.7 219.183 148.7 218.562V218.228C148.7 217.53 148.797 216.886 148.99 216.294C149.184 215.696 149.471 215.175 149.852 214.729C150.232 214.284 150.71 213.938 151.284 213.692C151.858 213.44 152.526 213.314 153.288 213.314C153.962 213.314 154.565 213.423 155.099 213.64C155.632 213.856 156.083 214.167 156.452 214.571C156.827 214.976 157.111 215.465 157.305 216.039C157.504 216.613 157.604 217.258 157.604 217.973V219.177H149.834V217.322H154.712V217.094C154.718 216.777 154.662 216.508 154.545 216.285C154.434 216.062 154.27 215.893 154.053 215.775C153.836 215.658 153.572 215.6 153.262 215.6C152.939 215.6 152.673 215.67 152.462 215.811C152.257 215.951 152.096 216.145 151.979 216.391C151.867 216.631 151.788 216.909 151.741 217.226C151.694 217.542 151.671 217.876 151.671 218.228V218.562C151.671 218.913 151.718 219.232 151.812 219.52C151.911 219.807 152.052 220.053 152.233 220.258C152.421 220.457 152.644 220.612 152.901 220.724C153.165 220.835 153.464 220.891 153.798 220.891C154.202 220.891 154.601 220.814 154.993 220.662C155.386 220.51 155.723 220.258 156.004 219.906L157.349 221.506C157.155 221.781 156.88 222.048 156.522 222.306C156.171 222.563 155.749 222.774 155.257 222.938C154.765 223.097 154.214 223.176 153.604 223.176ZM162.824 220.891C163.1 220.891 163.334 220.841 163.527 220.741C163.727 220.636 163.876 220.489 163.976 220.302C164.081 220.108 164.131 219.877 164.125 219.607H166.911C166.917 220.322 166.741 220.949 166.384 221.488C166.032 222.021 165.552 222.438 164.942 222.736C164.339 223.029 163.656 223.176 162.895 223.176C162.15 223.176 161.5 223.056 160.943 222.815C160.387 222.569 159.921 222.229 159.546 221.796C159.177 221.356 158.898 220.844 158.711 220.258C158.529 219.672 158.438 219.036 158.438 218.351V218.148C158.438 217.463 158.529 216.827 158.711 216.241C158.898 215.649 159.177 215.137 159.546 214.703C159.921 214.264 160.384 213.924 160.935 213.684C161.491 213.438 162.139 213.314 162.877 213.314C163.668 213.314 164.365 213.464 164.969 213.763C165.578 214.062 166.056 214.495 166.401 215.063C166.747 215.632 166.917 216.32 166.911 217.129H164.125C164.131 216.842 164.087 216.584 163.993 216.355C163.899 216.127 163.753 215.945 163.554 215.811C163.36 215.67 163.111 215.6 162.807 215.6C162.502 215.6 162.256 215.667 162.068 215.802C161.881 215.937 161.737 216.124 161.638 216.364C161.544 216.599 161.479 216.868 161.444 217.173C161.415 217.478 161.4 217.803 161.4 218.148V218.351C161.4 218.702 161.415 219.033 161.444 219.344C161.479 219.648 161.547 219.918 161.646 220.152C161.746 220.381 161.89 220.562 162.077 220.697C162.265 220.826 162.514 220.891 162.824 220.891ZM173.187 213.49V215.547H167.456V213.49H173.187ZM168.66 211.126H171.622V219.897C171.622 220.149 171.651 220.346 171.71 220.486C171.769 220.621 171.868 220.718 172.009 220.776C172.155 220.829 172.349 220.855 172.589 220.855C172.759 220.855 172.899 220.853 173.011 220.847C173.122 220.835 173.228 220.82 173.327 220.803V222.921C173.075 223.003 172.812 223.064 172.536 223.105C172.261 223.152 171.968 223.176 171.657 223.176C171.024 223.176 170.482 223.076 170.031 222.877C169.586 222.678 169.246 222.364 169.012 221.937C168.777 221.509 168.66 220.952 168.66 220.267V211.126ZM177.353 215.846V223H174.391V213.49H177.159L177.353 215.846ZM180.165 213.42L180.112 216.171C179.995 216.159 179.837 216.145 179.638 216.127C179.438 216.109 179.271 216.101 179.137 216.101C178.791 216.101 178.492 216.142 178.24 216.224C177.994 216.3 177.789 216.417 177.625 216.575C177.467 216.728 177.35 216.921 177.273 217.155C177.203 217.39 177.171 217.662 177.177 217.973L176.641 217.621C176.641 216.982 176.702 216.402 176.825 215.881C176.954 215.354 177.136 214.899 177.37 214.519C177.604 214.132 177.889 213.836 178.223 213.631C178.557 213.42 178.932 213.314 179.348 213.314C179.494 213.314 179.638 213.323 179.778 213.341C179.925 213.358 180.054 213.385 180.165 213.42ZM180.499 218.342V218.157C180.499 217.46 180.599 216.818 180.798 216.232C180.997 215.641 181.29 215.128 181.677 214.694C182.063 214.261 182.541 213.924 183.109 213.684C183.678 213.438 184.334 213.314 185.078 213.314C185.828 213.314 186.487 213.438 187.056 213.684C187.63 213.924 188.11 214.261 188.497 214.694C188.884 215.128 189.177 215.641 189.376 216.232C189.575 216.818 189.675 217.46 189.675 218.157V218.342C189.675 219.033 189.575 219.675 189.376 220.267C189.177 220.853 188.884 221.365 188.497 221.805C188.11 222.238 187.633 222.575 187.064 222.815C186.496 223.056 185.84 223.176 185.096 223.176C184.352 223.176 183.692 223.056 183.118 222.815C182.544 222.575 182.063 222.238 181.677 221.805C181.29 221.365 180.997 220.853 180.798 220.267C180.599 219.675 180.499 219.033 180.499 218.342ZM183.461 218.157V218.342C183.461 218.699 183.487 219.033 183.54 219.344C183.593 219.654 183.681 219.927 183.804 220.161C183.927 220.39 184.094 220.568 184.305 220.697C184.516 220.826 184.779 220.891 185.096 220.891C185.406 220.891 185.664 220.826 185.869 220.697C186.08 220.568 186.247 220.39 186.37 220.161C186.493 219.927 186.581 219.654 186.634 219.344C186.687 219.033 186.713 218.699 186.713 218.342V218.157C186.713 217.812 186.687 217.486 186.634 217.182C186.581 216.871 186.493 216.599 186.37 216.364C186.247 216.124 186.08 215.937 185.869 215.802C185.658 215.667 185.395 215.6 185.078 215.6C184.768 215.6 184.507 215.667 184.296 215.802C184.091 215.937 183.927 216.124 183.804 216.364C183.681 216.599 183.593 216.871 183.54 217.182C183.487 217.486 183.461 217.812 183.461 218.157ZM193.902 215.521V223H190.94V213.49H193.718L193.902 215.521ZM193.551 217.92L192.856 217.938C192.856 217.211 192.944 216.563 193.12 215.995C193.296 215.421 193.545 214.935 193.867 214.536C194.189 214.138 194.573 213.836 195.019 213.631C195.47 213.42 195.971 213.314 196.521 213.314C196.961 213.314 197.362 213.379 197.726 213.508C198.095 213.637 198.411 213.845 198.675 214.132C198.944 214.419 199.149 214.8 199.29 215.274C199.437 215.743 199.51 216.323 199.51 217.015V223H196.53V217.006C196.53 216.625 196.478 216.335 196.372 216.136C196.267 215.931 196.114 215.79 195.915 215.714C195.716 215.638 195.473 215.6 195.186 215.6C194.881 215.6 194.623 215.658 194.412 215.775C194.201 215.893 194.031 216.057 193.902 216.268C193.779 216.473 193.688 216.716 193.63 216.997C193.577 217.278 193.551 217.586 193.551 217.92ZM201.347 221.611C201.347 221.189 201.499 220.838 201.804 220.557C202.108 220.27 202.501 220.126 202.981 220.126C203.468 220.126 203.86 220.27 204.159 220.557C204.464 220.838 204.616 221.189 204.616 221.611C204.616 222.033 204.464 222.388 204.159 222.675C203.86 222.956 203.468 223.097 202.981 223.097C202.501 223.097 202.108 222.956 201.804 222.675C201.499 222.388 201.347 222.033 201.347 221.611ZM206.822 213.49H209.793V223.308C209.793 224.069 209.646 224.711 209.354 225.232C209.061 225.76 208.642 226.158 208.097 226.428C207.552 226.703 206.901 226.841 206.146 226.841C205.894 226.841 205.662 226.829 205.451 226.806C205.234 226.788 204.997 226.75 204.739 226.691V224.45C204.892 224.474 205.032 224.491 205.161 224.503C205.29 224.521 205.431 224.529 205.583 224.529C205.853 224.529 206.078 224.485 206.26 224.397C206.441 224.31 206.579 224.175 206.673 223.993C206.772 223.812 206.822 223.583 206.822 223.308V213.49ZM206.603 211.038C206.603 210.616 206.755 210.271 207.06 210.001C207.364 209.731 207.76 209.597 208.246 209.597C208.732 209.597 209.128 209.731 209.433 210.001C209.737 210.271 209.89 210.616 209.89 211.038C209.89 211.46 209.737 211.806 209.433 212.075C209.128 212.345 208.732 212.479 208.246 212.479C207.76 212.479 207.364 212.345 207.06 212.075C206.755 211.806 206.603 211.46 206.603 211.038ZM216.455 220.328C216.455 220.164 216.399 220.023 216.288 219.906C216.183 219.783 215.995 219.672 215.726 219.572C215.456 219.467 215.078 219.361 214.592 219.256C214.129 219.156 213.692 219.024 213.282 218.86C212.878 218.696 212.523 218.497 212.219 218.263C211.914 218.028 211.674 217.75 211.498 217.428C211.328 217.105 211.243 216.736 211.243 216.32C211.243 215.916 211.328 215.535 211.498 215.178C211.674 214.814 211.929 214.495 212.263 214.22C212.603 213.938 213.016 213.719 213.502 213.561C213.988 213.396 214.542 213.314 215.163 213.314C216.019 213.314 216.757 213.446 217.378 213.71C217.999 213.968 218.477 214.331 218.811 214.8C219.15 215.263 219.32 215.799 219.32 216.408H216.358C216.358 216.168 216.317 215.963 216.235 215.793C216.159 215.623 216.033 215.494 215.857 215.406C215.682 215.312 215.447 215.266 215.154 215.266C214.949 215.266 214.762 215.304 214.592 215.38C214.428 215.456 214.296 215.562 214.196 215.696C214.097 215.831 214.047 215.989 214.047 216.171C214.047 216.3 214.076 216.417 214.135 216.522C214.199 216.622 214.296 216.716 214.425 216.804C214.554 216.886 214.718 216.962 214.917 217.032C215.116 217.097 215.356 217.155 215.638 217.208C216.276 217.325 216.874 217.492 217.431 217.709C217.987 217.926 218.438 218.233 218.784 218.632C219.136 219.03 219.312 219.566 219.312 220.24C219.312 220.662 219.215 221.052 219.021 221.409C218.828 221.761 218.55 222.071 218.187 222.341C217.823 222.604 217.387 222.81 216.877 222.956C216.367 223.103 215.793 223.176 215.154 223.176C214.246 223.176 213.479 223.015 212.852 222.692C212.225 222.364 211.75 221.954 211.428 221.462C211.111 220.964 210.953 220.46 210.953 219.95H213.713C213.725 220.243 213.795 220.483 213.924 220.671C214.059 220.858 214.237 220.996 214.46 221.084C214.683 221.172 214.94 221.216 215.233 221.216C215.503 221.216 215.726 221.178 215.901 221.102C216.083 221.025 216.221 220.923 216.314 220.794C216.408 220.659 216.455 220.504 216.455 220.328Z" fill="white"/>
<rect x="262" y="196" width="130" height="41" rx="3" fill="#424242"/>
<rect x="262" y="196" width="130" height="41" rx="3" stroke="#424242" stroke-width="4"/>
<path d="M307.541 210.203V223H304.465L299.938 215.037V223H296.854V210.203H299.938L304.465 218.166V210.203H307.541ZM308.982 218.342V218.157C308.982 217.46 309.082 216.818 309.281 216.232C309.48 215.641 309.773 215.128 310.16 214.694C310.547 214.261 311.024 213.924 311.593 213.684C312.161 213.438 312.817 213.314 313.562 213.314C314.312 213.314 314.971 213.438 315.539 213.684C316.113 213.924 316.594 214.261 316.98 214.694C317.367 215.128 317.66 215.641 317.859 216.232C318.059 216.818 318.158 217.46 318.158 218.157V218.342C318.158 219.033 318.059 219.675 317.859 220.267C317.66 220.853 317.367 221.365 316.98 221.805C316.594 222.238 316.116 222.575 315.548 222.815C314.979 223.056 314.323 223.176 313.579 223.176C312.835 223.176 312.176 223.056 311.602 222.815C311.027 222.575 310.547 222.238 310.16 221.805C309.773 221.365 309.48 220.853 309.281 220.267C309.082 219.675 308.982 219.033 308.982 218.342ZM311.944 218.157V218.342C311.944 218.699 311.971 219.033 312.023 219.344C312.076 219.654 312.164 219.927 312.287 220.161C312.41 220.39 312.577 220.568 312.788 220.697C312.999 220.826 313.263 220.891 313.579 220.891C313.89 220.891 314.147 220.826 314.353 220.697C314.563 220.568 314.73 220.39 314.854 220.161C314.977 219.927 315.064 219.654 315.117 219.344C315.17 219.033 315.196 218.699 315.196 218.342V218.157C315.196 217.812 315.17 217.486 315.117 217.182C315.064 216.871 314.977 216.599 314.854 216.364C314.73 216.124 314.563 215.937 314.353 215.802C314.142 215.667 313.878 215.6 313.562 215.6C313.251 215.6 312.99 215.667 312.779 215.802C312.574 215.937 312.41 216.124 312.287 216.364C312.164 216.599 312.076 216.871 312.023 217.182C311.971 217.486 311.944 217.812 311.944 218.157ZM324.943 220.82V209.5H327.923V223H325.251L324.943 220.82ZM319.107 218.359V218.175C319.107 217.454 319.187 216.798 319.345 216.206C319.503 215.608 319.737 215.096 320.048 214.668C320.358 214.234 320.745 213.9 321.208 213.666C321.671 213.432 322.204 213.314 322.808 213.314C323.347 213.314 323.818 213.44 324.223 213.692C324.627 213.938 324.973 214.284 325.26 214.729C325.547 215.175 325.781 215.696 325.963 216.294C326.145 216.886 326.282 217.524 326.376 218.21V218.43C326.282 219.074 326.145 219.684 325.963 220.258C325.781 220.826 325.547 221.33 325.26 221.77C324.973 222.209 324.624 222.555 324.214 222.807C323.81 223.053 323.335 223.176 322.79 223.176C322.187 223.176 321.653 223.056 321.19 222.815C320.733 222.575 320.35 222.238 320.039 221.805C319.734 221.371 319.503 220.861 319.345 220.275C319.187 219.689 319.107 219.051 319.107 218.359ZM322.069 218.175V218.359C322.069 218.717 322.093 219.048 322.14 219.353C322.187 219.657 322.266 219.927 322.377 220.161C322.494 220.39 322.646 220.568 322.834 220.697C323.027 220.826 323.265 220.891 323.546 220.891C323.927 220.891 324.24 220.8 324.486 220.618C324.738 220.437 324.923 220.179 325.04 219.845C325.163 219.511 325.216 219.118 325.198 218.667V217.973C325.21 217.586 325.184 217.246 325.119 216.953C325.055 216.654 324.952 216.405 324.812 216.206C324.677 216.007 324.504 215.857 324.293 215.758C324.088 215.652 323.845 215.6 323.563 215.6C323.288 215.6 323.054 215.664 322.86 215.793C322.673 215.922 322.521 216.104 322.403 216.338C322.286 216.566 322.201 216.839 322.148 217.155C322.096 217.466 322.069 217.806 322.069 218.175ZM334.207 223.176C333.434 223.176 332.742 223.056 332.133 222.815C331.523 222.569 331.008 222.232 330.586 221.805C330.17 221.377 329.851 220.885 329.628 220.328C329.411 219.771 329.303 219.183 329.303 218.562V218.228C329.303 217.53 329.399 216.886 329.593 216.294C329.786 215.696 330.073 215.175 330.454 214.729C330.835 214.284 331.312 213.938 331.887 213.692C332.461 213.44 333.129 213.314 333.891 213.314C334.564 213.314 335.168 213.423 335.701 213.64C336.234 213.856 336.686 214.167 337.055 214.571C337.43 214.976 337.714 215.465 337.907 216.039C338.106 216.613 338.206 217.258 338.206 217.973V219.177H330.437V217.322H335.314V217.094C335.32 216.777 335.265 216.508 335.147 216.285C335.036 216.062 334.872 215.893 334.655 215.775C334.438 215.658 334.175 215.6 333.864 215.6C333.542 215.6 333.275 215.67 333.064 215.811C332.859 215.951 332.698 216.145 332.581 216.391C332.47 216.631 332.391 216.909 332.344 217.226C332.297 217.542 332.273 217.876 332.273 218.228V218.562C332.273 218.913 332.32 219.232 332.414 219.52C332.514 219.807 332.654 220.053 332.836 220.258C333.023 220.457 333.246 220.612 333.504 220.724C333.768 220.835 334.066 220.891 334.4 220.891C334.805 220.891 335.203 220.814 335.596 220.662C335.988 220.51 336.325 220.258 336.606 219.906L337.951 221.506C337.758 221.781 337.482 222.048 337.125 222.306C336.773 222.563 336.352 222.774 335.859 222.938C335.367 223.097 334.816 223.176 334.207 223.176ZM339.604 221.611C339.604 221.189 339.756 220.838 340.061 220.557C340.365 220.27 340.758 220.126 341.238 220.126C341.725 220.126 342.117 220.27 342.416 220.557C342.721 220.838 342.873 221.189 342.873 221.611C342.873 222.033 342.721 222.388 342.416 222.675C342.117 222.956 341.725 223.097 341.238 223.097C340.758 223.097 340.365 222.956 340.061 222.675C339.756 222.388 339.604 222.033 339.604 221.611ZM345.079 213.49H348.05V223.308C348.05 224.069 347.903 224.711 347.61 225.232C347.317 225.76 346.898 226.158 346.354 226.428C345.809 226.703 345.158 226.841 344.402 226.841C344.15 226.841 343.919 226.829 343.708 226.806C343.491 226.788 343.254 226.75 342.996 226.691V224.45C343.148 224.474 343.289 224.491 343.418 224.503C343.547 224.521 343.688 224.529 343.84 224.529C344.109 224.529 344.335 224.485 344.517 224.397C344.698 224.31 344.836 224.175 344.93 223.993C345.029 223.812 345.079 223.583 345.079 223.308V213.49ZM344.859 211.038C344.859 210.616 345.012 210.271 345.316 210.001C345.621 209.731 346.017 209.597 346.503 209.597C346.989 209.597 347.385 209.731 347.689 210.001C347.994 210.271 348.146 210.616 348.146 211.038C348.146 211.46 347.994 211.806 347.689 212.075C347.385 212.345 346.989 212.479 346.503 212.479C346.017 212.479 345.621 212.345 345.316 212.075C345.012 211.806 344.859 211.46 344.859 211.038ZM354.712 220.328C354.712 220.164 354.656 220.023 354.545 219.906C354.439 219.783 354.252 219.672 353.982 219.572C353.713 219.467 353.335 219.361 352.849 219.256C352.386 219.156 351.949 219.024 351.539 218.86C351.135 218.696 350.78 218.497 350.476 218.263C350.171 218.028 349.931 217.75 349.755 217.428C349.585 217.105 349.5 216.736 349.5 216.32C349.5 215.916 349.585 215.535 349.755 215.178C349.931 214.814 350.186 214.495 350.52 214.22C350.859 213.938 351.272 213.719 351.759 213.561C352.245 213.396 352.799 213.314 353.42 213.314C354.275 213.314 355.014 213.446 355.635 213.71C356.256 213.968 356.733 214.331 357.067 214.8C357.407 215.263 357.577 215.799 357.577 216.408H354.615C354.615 216.168 354.574 215.963 354.492 215.793C354.416 215.623 354.29 215.494 354.114 215.406C353.938 215.312 353.704 215.266 353.411 215.266C353.206 215.266 353.019 215.304 352.849 215.38C352.685 215.456 352.553 215.562 352.453 215.696C352.354 215.831 352.304 215.989 352.304 216.171C352.304 216.3 352.333 216.417 352.392 216.522C352.456 216.622 352.553 216.716 352.682 216.804C352.811 216.886 352.975 216.962 353.174 217.032C353.373 217.097 353.613 217.155 353.895 217.208C354.533 217.325 355.131 217.492 355.688 217.709C356.244 217.926 356.695 218.233 357.041 218.632C357.393 219.03 357.568 219.566 357.568 220.24C357.568 220.662 357.472 221.052 357.278 221.409C357.085 221.761 356.807 222.071 356.443 222.341C356.08 222.604 355.644 222.81 355.134 222.956C354.624 223.103 354.05 223.176 353.411 223.176C352.503 223.176 351.735 223.015 351.108 222.692C350.481 222.364 350.007 221.954 349.685 221.462C349.368 220.964 349.21 220.46 349.21 219.95H351.97C351.981 220.243 352.052 220.483 352.181 220.671C352.315 220.858 352.494 220.996 352.717 221.084C352.939 221.172 353.197 221.216 353.49 221.216C353.76 221.216 353.982 221.178 354.158 221.102C354.34 221.025 354.478 220.923 354.571 220.794C354.665 220.659 354.712 220.504 354.712 220.328Z" fill="white"/>
<rect x="412" y="196" width="91" height="41" rx="3" fill="#424242"/>
<rect x="412" y="196" width="91" height="41" rx="3" stroke="#424242" stroke-width="4"/>
<path d="M435.141 210.203H440.177C441.161 210.203 442.017 210.35 442.743 210.643C443.47 210.936 444.029 211.369 444.422 211.943C444.82 212.518 445.02 213.227 445.02 214.07C445.02 214.803 444.905 215.415 444.677 215.907C444.448 216.399 444.129 216.807 443.719 217.129C443.314 217.445 442.843 217.706 442.304 217.911L441.293 218.482H437.065L437.048 216.101H440.177C440.569 216.101 440.895 216.03 441.152 215.89C441.41 215.749 441.604 215.55 441.732 215.292C441.867 215.028 441.935 214.715 441.935 214.352C441.935 213.982 441.867 213.666 441.732 213.402C441.598 213.139 441.398 212.937 441.135 212.796C440.877 212.655 440.558 212.585 440.177 212.585H438.226V223H435.141V210.203ZM442.146 223L439.315 217.34L442.585 217.322L445.45 222.868V223H442.146ZM451.348 223.176C450.574 223.176 449.883 223.056 449.273 222.815C448.664 222.569 448.148 222.232 447.727 221.805C447.311 221.377 446.991 220.885 446.769 220.328C446.552 219.771 446.443 219.183 446.443 218.562V218.228C446.443 217.53 446.54 216.886 446.733 216.294C446.927 215.696 447.214 215.175 447.595 214.729C447.976 214.284 448.453 213.938 449.027 213.692C449.602 213.44 450.27 213.314 451.031 213.314C451.705 213.314 452.309 213.423 452.842 213.64C453.375 213.856 453.826 214.167 454.195 214.571C454.57 214.976 454.854 215.465 455.048 216.039C455.247 216.613 455.347 217.258 455.347 217.973V219.177H447.577V217.322H452.455V217.094C452.461 216.777 452.405 216.508 452.288 216.285C452.177 216.062 452.013 215.893 451.796 215.775C451.579 215.658 451.315 215.6 451.005 215.6C450.683 215.6 450.416 215.67 450.205 215.811C450 215.951 449.839 216.145 449.722 216.391C449.61 216.631 449.531 216.909 449.484 217.226C449.438 217.542 449.414 217.876 449.414 218.228V218.562C449.414 218.913 449.461 219.232 449.555 219.52C449.654 219.807 449.795 220.053 449.977 220.258C450.164 220.457 450.387 220.612 450.645 220.724C450.908 220.835 451.207 220.891 451.541 220.891C451.945 220.891 452.344 220.814 452.736 220.662C453.129 220.51 453.466 220.258 453.747 219.906L455.092 221.506C454.898 221.781 454.623 222.048 454.266 222.306C453.914 222.563 453.492 222.774 453 222.938C452.508 223.097 451.957 223.176 451.348 223.176ZM461.49 220.609V216.689C461.49 216.42 461.452 216.188 461.376 215.995C461.3 215.802 461.18 215.652 461.016 215.547C460.852 215.436 460.632 215.38 460.356 215.38C460.134 215.38 459.943 215.418 459.785 215.494C459.627 215.57 459.507 215.685 459.425 215.837C459.343 215.989 459.302 216.183 459.302 216.417H456.34C456.34 215.978 456.437 215.57 456.63 215.195C456.829 214.814 457.11 214.483 457.474 214.202C457.843 213.921 458.282 213.704 458.792 213.552C459.308 213.394 459.882 213.314 460.515 213.314C461.271 213.314 461.944 213.44 462.536 213.692C463.134 213.944 463.605 214.322 463.951 214.826C464.297 215.324 464.47 215.951 464.47 216.707V220.601C464.47 221.222 464.505 221.693 464.575 222.016C464.646 222.332 464.745 222.61 464.874 222.851V223H461.903C461.763 222.707 461.657 222.35 461.587 221.928C461.522 221.5 461.49 221.061 461.49 220.609ZM461.851 217.19L461.868 218.772H460.559C460.283 218.772 460.049 218.811 459.855 218.887C459.668 218.963 459.516 219.068 459.398 219.203C459.287 219.332 459.205 219.479 459.152 219.643C459.105 219.807 459.082 219.979 459.082 220.161C459.082 220.337 459.123 220.495 459.205 220.636C459.293 220.771 459.41 220.876 459.557 220.952C459.703 221.028 459.867 221.066 460.049 221.066C460.377 221.066 460.655 221.005 460.884 220.882C461.118 220.753 461.297 220.598 461.42 220.416C461.543 220.234 461.604 220.064 461.604 219.906L462.255 221.119C462.138 221.354 462.003 221.591 461.851 221.831C461.704 222.071 461.52 222.294 461.297 222.499C461.08 222.698 460.813 222.862 460.497 222.991C460.181 223.114 459.797 223.176 459.346 223.176C458.76 223.176 458.221 223.056 457.729 222.815C457.242 222.575 456.853 222.241 456.56 221.813C456.267 221.38 456.12 220.882 456.12 220.319C456.12 219.827 456.208 219.388 456.384 219.001C456.565 218.614 456.838 218.286 457.201 218.017C457.564 217.747 458.027 217.542 458.59 217.401C459.152 217.261 459.814 217.19 460.576 217.19H461.851ZM470.13 220.891C470.405 220.891 470.64 220.841 470.833 220.741C471.032 220.636 471.182 220.489 471.281 220.302C471.387 220.108 471.437 219.877 471.431 219.607H474.217C474.223 220.322 474.047 220.949 473.689 221.488C473.338 222.021 472.857 222.438 472.248 222.736C471.645 223.029 470.962 223.176 470.2 223.176C469.456 223.176 468.806 223.056 468.249 222.815C467.692 222.569 467.227 222.229 466.852 221.796C466.482 221.356 466.204 220.844 466.017 220.258C465.835 219.672 465.744 219.036 465.744 218.351V218.148C465.744 217.463 465.835 216.827 466.017 216.241C466.204 215.649 466.482 215.137 466.852 214.703C467.227 214.264 467.689 213.924 468.24 213.684C468.797 213.438 469.444 213.314 470.183 213.314C470.974 213.314 471.671 213.464 472.274 213.763C472.884 214.062 473.361 214.495 473.707 215.063C474.053 215.632 474.223 216.32 474.217 217.129H471.431C471.437 216.842 471.393 216.584 471.299 216.355C471.205 216.127 471.059 215.945 470.859 215.811C470.666 215.67 470.417 215.6 470.112 215.6C469.808 215.6 469.562 215.667 469.374 215.802C469.187 215.937 469.043 216.124 468.943 216.364C468.85 216.599 468.785 216.868 468.75 217.173C468.721 217.478 468.706 217.803 468.706 218.148V218.351C468.706 218.702 468.721 219.033 468.75 219.344C468.785 219.648 468.853 219.918 468.952 220.152C469.052 220.381 469.195 220.562 469.383 220.697C469.57 220.826 469.819 220.891 470.13 220.891ZM480.492 213.49V215.547H474.762V213.49H480.492ZM475.966 211.126H478.928V219.897C478.928 220.149 478.957 220.346 479.016 220.486C479.074 220.621 479.174 220.718 479.314 220.776C479.461 220.829 479.654 220.855 479.895 220.855C480.064 220.855 480.205 220.853 480.316 220.847C480.428 220.835 480.533 220.82 480.633 220.803V222.921C480.381 223.003 480.117 223.064 479.842 223.105C479.566 223.152 479.273 223.176 478.963 223.176C478.33 223.176 477.788 223.076 477.337 222.877C476.892 222.678 476.552 222.364 476.317 221.937C476.083 221.509 475.966 220.952 475.966 220.267V211.126Z" fill="white"/>
<rect x="523" y="196" width="104" height="41" rx="3" fill="#424242"/>
<rect x="523" y="196" width="104" height="41" rx="3" stroke="#424242" stroke-width="4"/>
<path d="M554.812 220.627V223H548.343V220.627H554.812ZM549.441 210.203V223H546.356V210.203H549.441ZM560.911 220.609V216.689C560.911 216.42 560.873 216.188 560.797 215.995C560.721 215.802 560.601 215.652 560.437 215.547C560.272 215.436 560.053 215.38 559.777 215.38C559.555 215.38 559.364 215.418 559.206 215.494C559.048 215.57 558.928 215.685 558.846 215.837C558.764 215.989 558.723 216.183 558.723 216.417H555.761C555.761 215.978 555.857 215.57 556.051 215.195C556.25 214.814 556.531 214.483 556.895 214.202C557.264 213.921 557.703 213.704 558.213 213.552C558.729 213.394 559.303 213.314 559.936 213.314C560.691 213.314 561.365 213.44 561.957 213.692C562.555 213.944 563.026 214.322 563.372 214.826C563.718 215.324 563.891 215.951 563.891 216.707V220.601C563.891 221.222 563.926 221.693 563.996 222.016C564.066 222.332 564.166 222.61 564.295 222.851V223H561.324C561.184 222.707 561.078 222.35 561.008 221.928C560.943 221.5 560.911 221.061 560.911 220.609ZM561.271 217.19L561.289 218.772H559.979C559.704 218.772 559.47 218.811 559.276 218.887C559.089 218.963 558.937 219.068 558.819 219.203C558.708 219.332 558.626 219.479 558.573 219.643C558.526 219.807 558.503 219.979 558.503 220.161C558.503 220.337 558.544 220.495 558.626 220.636C558.714 220.771 558.831 220.876 558.978 220.952C559.124 221.028 559.288 221.066 559.47 221.066C559.798 221.066 560.076 221.005 560.305 220.882C560.539 220.753 560.718 220.598 560.841 220.416C560.964 220.234 561.025 220.064 561.025 219.906L561.676 221.119C561.559 221.354 561.424 221.591 561.271 221.831C561.125 222.071 560.94 222.294 560.718 222.499C560.501 222.698 560.234 222.862 559.918 222.991C559.602 223.114 559.218 223.176 558.767 223.176C558.181 223.176 557.642 223.056 557.149 222.815C556.663 222.575 556.273 222.241 555.98 221.813C555.688 221.38 555.541 220.882 555.541 220.319C555.541 219.827 555.629 219.388 555.805 219.001C555.986 218.614 556.259 218.286 556.622 218.017C556.985 217.747 557.448 217.542 558.011 217.401C558.573 217.261 559.235 217.19 559.997 217.19H561.271ZM568.522 215.846V223H565.561V213.49H568.329L568.522 215.846ZM571.335 213.42L571.282 216.171C571.165 216.159 571.007 216.145 570.808 216.127C570.608 216.109 570.441 216.101 570.307 216.101C569.961 216.101 569.662 216.142 569.41 216.224C569.164 216.3 568.959 216.417 568.795 216.575C568.637 216.728 568.52 216.921 568.443 217.155C568.373 217.39 568.341 217.662 568.347 217.973L567.811 217.621C567.811 216.982 567.872 216.402 567.995 215.881C568.124 215.354 568.306 214.899 568.54 214.519C568.774 214.132 569.059 213.836 569.393 213.631C569.727 213.42 570.102 213.314 570.518 213.314C570.664 213.314 570.808 213.323 570.948 213.341C571.095 213.358 571.224 213.385 571.335 213.42ZM577.03 220.609V216.689C577.03 216.42 576.992 216.188 576.916 215.995C576.84 215.802 576.72 215.652 576.556 215.547C576.392 215.436 576.172 215.38 575.896 215.38C575.674 215.38 575.483 215.418 575.325 215.494C575.167 215.57 575.047 215.685 574.965 215.837C574.883 215.989 574.842 216.183 574.842 216.417H571.88C571.88 215.978 571.977 215.57 572.17 215.195C572.369 214.814 572.65 214.483 573.014 214.202C573.383 213.921 573.822 213.704 574.332 213.552C574.848 213.394 575.422 213.314 576.055 213.314C576.811 213.314 577.484 213.44 578.076 213.692C578.674 213.944 579.146 214.322 579.491 214.826C579.837 215.324 580.01 215.951 580.01 216.707V220.601C580.01 221.222 580.045 221.693 580.115 222.016C580.186 222.332 580.285 222.61 580.414 222.851V223H577.443C577.303 222.707 577.197 222.35 577.127 221.928C577.062 221.5 577.03 221.061 577.03 220.609ZM577.391 217.19L577.408 218.772H576.099C575.823 218.772 575.589 218.811 575.396 218.887C575.208 218.963 575.056 219.068 574.938 219.203C574.827 219.332 574.745 219.479 574.692 219.643C574.646 219.807 574.622 219.979 574.622 220.161C574.622 220.337 574.663 220.495 574.745 220.636C574.833 220.771 574.95 220.876 575.097 220.952C575.243 221.028 575.407 221.066 575.589 221.066C575.917 221.066 576.195 221.005 576.424 220.882C576.658 220.753 576.837 220.598 576.96 220.416C577.083 220.234 577.145 220.064 577.145 219.906L577.795 221.119C577.678 221.354 577.543 221.591 577.391 221.831C577.244 222.071 577.06 222.294 576.837 222.499C576.62 222.698 576.354 222.862 576.037 222.991C575.721 223.114 575.337 223.176 574.886 223.176C574.3 223.176 573.761 223.056 573.269 222.815C572.782 222.575 572.393 222.241 572.1 221.813C571.807 221.38 571.66 220.882 571.66 220.319C571.66 219.827 571.748 219.388 571.924 219.001C572.105 218.614 572.378 218.286 572.741 218.017C573.104 217.747 573.567 217.542 574.13 217.401C574.692 217.261 575.354 217.19 576.116 217.19H577.391ZM584.94 220.97L586.812 213.49H589.933L586.821 223H584.976L584.94 220.97ZM583.833 213.49L585.679 220.97L585.661 223H583.807L580.704 213.49H583.833ZM595.294 223.176C594.521 223.176 593.829 223.056 593.22 222.815C592.61 222.569 592.095 222.232 591.673 221.805C591.257 221.377 590.938 220.885 590.715 220.328C590.498 219.771 590.39 219.183 590.39 218.562V218.228C590.39 217.53 590.486 216.886 590.68 216.294C590.873 215.696 591.16 215.175 591.541 214.729C591.922 214.284 592.399 213.938 592.974 213.692C593.548 213.44 594.216 213.314 594.978 213.314C595.651 213.314 596.255 213.423 596.788 213.64C597.321 213.856 597.772 214.167 598.142 214.571C598.517 214.976 598.801 215.465 598.994 216.039C599.193 216.613 599.293 217.258 599.293 217.973V219.177H591.523V217.322H596.401V217.094C596.407 216.777 596.352 216.508 596.234 216.285C596.123 216.062 595.959 215.893 595.742 215.775C595.525 215.658 595.262 215.6 594.951 215.6C594.629 215.6 594.362 215.67 594.151 215.811C593.946 215.951 593.785 216.145 593.668 216.391C593.557 216.631 593.478 216.909 593.431 217.226C593.384 217.542 593.36 217.876 593.36 218.228V218.562C593.36 218.913 593.407 219.232 593.501 219.52C593.601 219.807 593.741 220.053 593.923 220.258C594.11 220.457 594.333 220.612 594.591 220.724C594.854 220.835 595.153 220.891 595.487 220.891C595.892 220.891 596.29 220.814 596.683 220.662C597.075 220.51 597.412 220.258 597.693 219.906L599.038 221.506C598.845 221.781 598.569 222.048 598.212 222.306C597.86 222.563 597.438 222.774 596.946 222.938C596.454 223.097 595.903 223.176 595.294 223.176ZM603.626 209.5V223H600.655V209.5H603.626Z" fill="white"/>
<rect x="647" y="196" width="102" height="41" rx="3" fill="#424242"/>
<rect x="647" y="196" width="102" height="41" rx="3" stroke="#424242" stroke-width="4"/>
<path d="M674.41 223H671.571L671.589 220.627H674.41C674.996 220.627 675.491 220.486 675.896 220.205C676.306 219.924 676.616 219.505 676.827 218.948C677.044 218.386 677.152 217.694 677.152 216.874V216.32C677.152 215.705 677.091 215.166 676.968 214.703C676.851 214.234 676.675 213.845 676.44 213.534C676.206 213.218 675.913 212.98 675.562 212.822C675.216 212.664 674.817 212.585 674.366 212.585H671.519V210.203H674.366C675.233 210.203 676.027 210.353 676.748 210.651C677.475 210.944 678.102 211.366 678.629 211.917C679.162 212.462 679.572 213.109 679.859 213.859C680.152 214.604 680.299 215.43 680.299 216.338V216.874C680.299 217.776 680.152 218.603 679.859 219.353C679.572 220.103 679.165 220.75 678.638 221.295C678.11 221.84 677.486 222.262 676.766 222.561C676.051 222.854 675.266 223 674.41 223ZM673.338 210.203V223H670.253V210.203H673.338ZM681.397 218.342V218.157C681.397 217.46 681.497 216.818 681.696 216.232C681.896 215.641 682.188 215.128 682.575 214.694C682.962 214.261 683.439 213.924 684.008 213.684C684.576 213.438 685.232 213.314 685.977 213.314C686.727 213.314 687.386 213.438 687.954 213.684C688.528 213.924 689.009 214.261 689.396 214.694C689.782 215.128 690.075 215.641 690.274 216.232C690.474 216.818 690.573 217.46 690.573 218.157V218.342C690.573 219.033 690.474 219.675 690.274 220.267C690.075 220.853 689.782 221.365 689.396 221.805C689.009 222.238 688.531 222.575 687.963 222.815C687.395 223.056 686.738 223.176 685.994 223.176C685.25 223.176 684.591 223.056 684.017 222.815C683.442 222.575 682.962 222.238 682.575 221.805C682.188 221.365 681.896 220.853 681.696 220.267C681.497 219.675 681.397 219.033 681.397 218.342ZM684.359 218.157V218.342C684.359 218.699 684.386 219.033 684.438 219.344C684.491 219.654 684.579 219.927 684.702 220.161C684.825 220.39 684.992 220.568 685.203 220.697C685.414 220.826 685.678 220.891 685.994 220.891C686.305 220.891 686.562 220.826 686.768 220.697C686.979 220.568 687.146 220.39 687.269 220.161C687.392 219.927 687.479 219.654 687.532 219.344C687.585 219.033 687.611 218.699 687.611 218.342V218.157C687.611 217.812 687.585 217.486 687.532 217.182C687.479 216.871 687.392 216.599 687.269 216.364C687.146 216.124 686.979 215.937 686.768 215.802C686.557 215.667 686.293 215.6 685.977 215.6C685.666 215.6 685.405 215.667 685.194 215.802C684.989 215.937 684.825 216.124 684.702 216.364C684.579 216.599 684.491 216.871 684.438 217.182C684.386 217.486 684.359 217.812 684.359 218.157ZM695.908 220.891C696.184 220.891 696.418 220.841 696.611 220.741C696.811 220.636 696.96 220.489 697.06 220.302C697.165 220.108 697.215 219.877 697.209 219.607H699.995C700.001 220.322 699.825 220.949 699.468 221.488C699.116 222.021 698.636 222.438 698.026 222.736C697.423 223.029 696.74 223.176 695.979 223.176C695.234 223.176 694.584 223.056 694.027 222.815C693.471 222.569 693.005 222.229 692.63 221.796C692.261 221.356 691.982 220.844 691.795 220.258C691.613 219.672 691.522 219.036 691.522 218.351V218.148C691.522 217.463 691.613 216.827 691.795 216.241C691.982 215.649 692.261 215.137 692.63 214.703C693.005 214.264 693.468 213.924 694.019 213.684C694.575 213.438 695.223 213.314 695.961 213.314C696.752 213.314 697.449 213.464 698.053 213.763C698.662 214.062 699.14 214.495 699.485 215.063C699.831 215.632 700.001 216.32 699.995 217.129H697.209C697.215 216.842 697.171 216.584 697.077 216.355C696.983 216.127 696.837 215.945 696.638 215.811C696.444 215.67 696.195 215.6 695.891 215.6C695.586 215.6 695.34 215.667 695.152 215.802C694.965 215.937 694.821 216.124 694.722 216.364C694.628 216.599 694.563 216.868 694.528 217.173C694.499 217.478 694.484 217.803 694.484 218.148V218.351C694.484 218.702 694.499 219.033 694.528 219.344C694.563 219.648 694.631 219.918 694.73 220.152C694.83 220.381 694.974 220.562 695.161 220.697C695.349 220.826 695.598 220.891 695.908 220.891ZM704.249 209.491V223H701.287V209.491H704.249ZM710.331 213.49L706.2 218.333L704.038 220.495L702.746 218.614L704.548 216.268L706.78 213.49H710.331ZM707.158 223L704.618 218.667L706.807 217.111L710.551 223H707.158ZM715.534 223.176C714.761 223.176 714.069 223.056 713.46 222.815C712.851 222.569 712.335 222.232 711.913 221.805C711.497 221.377 711.178 220.885 710.955 220.328C710.738 219.771 710.63 219.183 710.63 218.562V218.228C710.63 217.53 710.727 216.886 710.92 216.294C711.113 215.696 711.4 215.175 711.781 214.729C712.162 214.284 712.64 213.938 713.214 213.692C713.788 213.44 714.456 213.314 715.218 213.314C715.892 213.314 716.495 213.423 717.028 213.64C717.562 213.856 718.013 214.167 718.382 214.571C718.757 214.976 719.041 215.465 719.234 216.039C719.434 216.613 719.533 217.258 719.533 217.973V219.177H711.764V217.322H716.642V217.094C716.647 216.777 716.592 216.508 716.475 216.285C716.363 216.062 716.199 215.893 715.982 215.775C715.766 215.658 715.502 215.6 715.191 215.6C714.869 215.6 714.603 215.67 714.392 215.811C714.187 215.951 714.025 216.145 713.908 216.391C713.797 216.631 713.718 216.909 713.671 217.226C713.624 217.542 713.601 217.876 713.601 218.228V218.562C713.601 218.913 713.647 219.232 713.741 219.52C713.841 219.807 713.981 220.053 714.163 220.258C714.351 220.457 714.573 220.612 714.831 220.724C715.095 220.835 715.394 220.891 715.728 220.891C716.132 220.891 716.53 220.814 716.923 220.662C717.315 220.51 717.652 220.258 717.934 219.906L719.278 221.506C719.085 221.781 718.81 222.048 718.452 222.306C718.101 222.563 717.679 222.774 717.187 222.938C716.694 223.097 716.144 223.176 715.534 223.176ZM723.726 215.846V223H720.764V213.49H723.532L723.726 215.846ZM726.538 213.42L726.485 216.171C726.368 216.159 726.21 216.145 726.011 216.127C725.812 216.109 725.645 216.101 725.51 216.101C725.164 216.101 724.865 216.142 724.613 216.224C724.367 216.3 724.162 216.417 723.998 216.575C723.84 216.728 723.723 216.921 723.646 217.155C723.576 217.39 723.544 217.662 723.55 217.973L723.014 217.621C723.014 216.982 723.075 216.402 723.198 215.881C723.327 215.354 723.509 214.899 723.743 214.519C723.978 214.132 724.262 213.836 724.596 213.631C724.93 213.42 725.305 213.314 725.721 213.314C725.867 213.314 726.011 213.323 726.151 213.341C726.298 213.358 726.427 213.385 726.538 213.42Z" fill="white"/>
<path d="M1066 0H1348C1356.28 0 1363 6.71573 1363 15V282C1363 290.284 1356.28 297 1348 297H1066V0Z" fill="#BFDBF7"/>
</svg>
