<svg width="1363" height="163" viewBox="0 0 1363 163" fill="none" xmlns="http://www.w3.org/2000/svg">
<path d="M0 15C0 6.71573 6.71573 0 15 0H37V163H15C6.71573 163 0 156.284 0 148V15Z" fill="#1F7A8C"/>
<rect width="1097" height="163" transform="translate(37)" fill="#F0F0F0"/>
<path d="M101.906 53.9219L94.3945 51.2383V48.0859L104.602 52.375V54.6367L101.906 53.9219ZM94.3945 56.1719L101.918 53.4297L104.602 52.7852V55.0352L94.3945 59.3242V56.1719ZM119.543 54.918H115.195V52.1758H119.543C120.215 52.1758 120.762 52.0664 121.184 51.8477C121.605 51.6211 121.914 51.3086 122.109 50.9102C122.305 50.5117 122.402 50.0625 122.402 49.5625C122.402 49.0547 122.305 48.582 122.109 48.1445C121.914 47.707 121.605 47.3555 121.184 47.0898C120.762 46.8242 120.215 46.6914 119.543 46.6914H116.414V61H112.898V43.9375H119.543C120.879 43.9375 122.023 44.1797 122.977 44.6641C123.938 45.1406 124.672 45.8008 125.18 46.6445C125.688 47.4883 125.941 48.4531 125.941 49.5391C125.941 50.6406 125.688 51.5938 125.18 52.3984C124.672 53.2031 123.938 53.8242 122.977 54.2617C122.023 54.6992 120.879 54.918 119.543 54.918ZM131.531 51.0859V61H128.156V48.3203H131.332L131.531 51.0859ZM135.352 48.2383L135.293 51.3672C135.129 51.3438 134.93 51.3242 134.695 51.3086C134.469 51.2852 134.262 51.2734 134.074 51.2734C133.598 51.2734 133.184 51.3359 132.832 51.4609C132.488 51.5781 132.199 51.7539 131.965 51.9883C131.738 52.2227 131.566 52.5078 131.449 52.8438C131.34 53.1797 131.277 53.5625 131.262 53.9922L130.582 53.7812C130.582 52.9609 130.664 52.207 130.828 51.5195C130.992 50.8242 131.23 50.2188 131.543 49.7031C131.863 49.1875 132.254 48.7891 132.715 48.5078C133.176 48.2266 133.703 48.0859 134.297 48.0859C134.484 48.0859 134.676 48.1016 134.871 48.1328C135.066 48.1562 135.227 48.1914 135.352 48.2383ZM136.055 54.7891V54.543C136.055 53.6133 136.188 52.7578 136.453 51.9766C136.719 51.1875 137.105 50.5039 137.613 49.9258C138.121 49.3477 138.746 48.8984 139.488 48.5781C140.23 48.25 141.082 48.0859 142.043 48.0859C143.004 48.0859 143.859 48.25 144.609 48.5781C145.359 48.8984 145.988 49.3477 146.496 49.9258C147.012 50.5039 147.402 51.1875 147.668 51.9766C147.934 52.7578 148.066 53.6133 148.066 54.543V54.7891C148.066 55.7109 147.934 56.5664 147.668 57.3555C147.402 58.1367 147.012 58.8203 146.496 59.4062C145.988 59.9844 145.363 60.4336 144.621 60.7539C143.879 61.0742 143.027 61.2344 142.066 61.2344C141.105 61.2344 140.25 61.0742 139.5 60.7539C138.758 60.4336 138.129 59.9844 137.613 59.4062C137.105 58.8203 136.719 58.1367 136.453 57.3555C136.188 56.5664 136.055 55.7109 136.055 54.7891ZM139.43 54.543V54.7891C139.43 55.3203 139.477 55.8164 139.57 56.2773C139.664 56.7383 139.812 57.1445 140.016 57.4961C140.227 57.8398 140.5 58.1094 140.836 58.3047C141.172 58.5 141.582 58.5977 142.066 58.5977C142.535 58.5977 142.938 58.5 143.273 58.3047C143.609 58.1094 143.879 57.8398 144.082 57.4961C144.285 57.1445 144.434 56.7383 144.527 56.2773C144.629 55.8164 144.68 55.3203 144.68 54.7891V54.543C144.68 54.0273 144.629 53.543 144.527 53.0898C144.434 52.6289 144.281 52.2227 144.07 51.8711C143.867 51.5117 143.598 51.2305 143.262 51.0273C142.926 50.8242 142.52 50.7227 142.043 50.7227C141.566 50.7227 141.16 50.8242 140.824 51.0273C140.496 51.2305 140.227 51.5117 140.016 51.8711C139.812 52.2227 139.664 52.6289 139.57 53.0898C139.477 53.543 139.43 54.0273 139.43 54.543ZM150.328 48.3203H153.715V61.7617C153.715 62.6992 153.543 63.4922 153.199 64.1406C152.855 64.7891 152.359 65.2812 151.711 65.6172C151.062 65.9531 150.277 66.1211 149.355 66.1211C149.066 66.1211 148.785 66.1055 148.512 66.0742C148.23 66.043 147.941 65.9922 147.645 65.9219L147.656 63.332C147.844 63.3633 148.027 63.3867 148.207 63.4023C148.379 63.4258 148.555 63.4375 148.734 63.4375C149.086 63.4375 149.379 63.3789 149.613 63.2617C149.848 63.1445 150.023 62.9609 150.141 62.7109C150.266 62.4688 150.328 62.1523 150.328 61.7617V48.3203ZM150.059 45.0156C150.059 44.5234 150.23 44.1172 150.574 43.7969C150.926 43.4766 151.387 43.3164 151.957 43.3164C152.535 43.3164 152.996 43.4766 153.34 43.7969C153.684 44.1172 153.855 44.5234 153.855 45.0156C153.855 45.5078 153.684 45.9141 153.34 46.2344C152.996 46.5547 152.535 46.7148 151.957 46.7148C151.387 46.7148 150.926 46.5547 150.574 46.2344C150.23 45.9141 150.059 45.5078 150.059 45.0156ZM162.234 61.2344C161.25 61.2344 160.367 61.0781 159.586 60.7656C158.805 60.4453 158.141 60.0039 157.594 59.4414C157.055 58.8789 156.641 58.2266 156.352 57.4844C156.062 56.7344 155.918 55.9375 155.918 55.0938V54.625C155.918 53.6641 156.055 52.7852 156.328 51.9883C156.602 51.1914 156.992 50.5 157.5 49.9141C158.016 49.3281 158.641 48.8789 159.375 48.5664C160.109 48.2461 160.938 48.0859 161.859 48.0859C162.758 48.0859 163.555 48.2344 164.25 48.5312C164.945 48.8281 165.527 49.25 165.996 49.7969C166.473 50.3438 166.832 51 167.074 51.7656C167.316 52.5234 167.438 53.3672 167.438 54.2969V55.7031H157.359V53.4531H164.121V53.1953C164.121 52.7266 164.035 52.3086 163.863 51.9414C163.699 51.5664 163.449 51.2695 163.113 51.0508C162.777 50.832 162.348 50.7227 161.824 50.7227C161.379 50.7227 160.996 50.8203 160.676 51.0156C160.355 51.2109 160.094 51.4844 159.891 51.8359C159.695 52.1875 159.547 52.6016 159.445 53.0781C159.352 53.5469 159.305 54.0625 159.305 54.625V55.0938C159.305 55.6016 159.375 56.0703 159.516 56.5C159.664 56.9297 159.871 57.3008 160.137 57.6133C160.41 57.9258 160.738 58.168 161.121 58.3398C161.512 58.5117 161.953 58.5977 162.445 58.5977C163.055 58.5977 163.621 58.4805 164.145 58.2461C164.676 58.0039 165.133 57.6406 165.516 57.1562L167.156 58.9375C166.891 59.3203 166.527 59.6875 166.066 60.0391C165.613 60.3906 165.066 60.6797 164.426 60.9062C163.785 61.125 163.055 61.2344 162.234 61.2344ZM174.598 58.5977C175.012 58.5977 175.379 58.5195 175.699 58.3633C176.02 58.1992 176.27 57.9727 176.449 57.6836C176.637 57.3867 176.734 57.0391 176.742 56.6406H179.918C179.91 57.5312 179.672 58.3242 179.203 59.0195C178.734 59.707 178.105 60.25 177.316 60.6484C176.527 61.0391 175.645 61.2344 174.668 61.2344C173.684 61.2344 172.824 61.0703 172.09 60.7422C171.363 60.4141 170.758 59.9609 170.273 59.3828C169.789 58.7969 169.426 58.1172 169.184 57.3438C168.941 56.5625 168.82 55.7266 168.82 54.8359V54.4961C168.82 53.5977 168.941 52.7617 169.184 51.9883C169.426 51.207 169.789 50.5273 170.273 49.9492C170.758 49.3633 171.363 48.9062 172.09 48.5781C172.816 48.25 173.668 48.0859 174.645 48.0859C175.684 48.0859 176.594 48.2852 177.375 48.6836C178.164 49.082 178.781 49.6523 179.227 50.3945C179.68 51.1289 179.91 52 179.918 53.0078H176.742C176.734 52.5859 176.645 52.2031 176.473 51.8594C176.309 51.5156 176.066 51.2422 175.746 51.0391C175.434 50.8281 175.047 50.7227 174.586 50.7227C174.094 50.7227 173.691 50.8281 173.379 51.0391C173.066 51.2422 172.824 51.5234 172.652 51.8828C172.48 52.2344 172.359 52.6367 172.289 53.0898C172.227 53.5352 172.195 54.0039 172.195 54.4961V54.8359C172.195 55.3281 172.227 55.8008 172.289 56.2539C172.352 56.707 172.469 57.1094 172.641 57.4609C172.82 57.8125 173.066 58.0898 173.379 58.293C173.691 58.4961 174.098 58.5977 174.598 58.5977ZM188.086 48.3203V50.7109H180.703V48.3203H188.086ZM182.531 45.1914H185.906V57.1797C185.906 57.5469 185.953 57.8281 186.047 58.0234C186.148 58.2188 186.297 58.3555 186.492 58.4336C186.688 58.5039 186.934 58.5391 187.23 58.5391C187.441 58.5391 187.629 58.5312 187.793 58.5156C187.965 58.4922 188.109 58.4688 188.227 58.4453L188.238 60.9297C187.949 61.0234 187.637 61.0977 187.301 61.1523C186.965 61.207 186.594 61.2344 186.188 61.2344C185.445 61.2344 184.797 61.1133 184.242 60.8711C183.695 60.6211 183.273 60.2227 182.977 59.6758C182.68 59.1289 182.531 58.4102 182.531 57.5195V45.1914ZM203.191 43.9375V61H199.688V43.9375H203.191ZM208.441 43.9375V46.6914H194.52V43.9375H208.441ZM213.797 48.3203V61H210.41V48.3203H213.797ZM210.199 45.0156C210.199 44.5234 210.371 44.1172 210.715 43.7969C211.059 43.4766 211.52 43.3164 212.098 43.3164C212.668 43.3164 213.125 43.4766 213.469 43.7969C213.82 44.1172 213.996 44.5234 213.996 45.0156C213.996 45.5078 213.82 45.9141 213.469 46.2344C213.125 46.5547 212.668 46.7148 212.098 46.7148C211.52 46.7148 211.059 46.5547 210.715 46.2344C210.371 45.9141 210.199 45.5078 210.199 45.0156ZM222.797 48.3203V50.7109H215.414V48.3203H222.797ZM217.242 45.1914H220.617V57.1797C220.617 57.5469 220.664 57.8281 220.758 58.0234C220.859 58.2188 221.008 58.3555 221.203 58.4336C221.398 58.5039 221.645 58.5391 221.941 58.5391C222.152 58.5391 222.34 58.5312 222.504 58.5156C222.676 58.4922 222.82 58.4688 222.938 58.4453L222.949 60.9297C222.66 61.0234 222.348 61.0977 222.012 61.1523C221.676 61.207 221.305 61.2344 220.898 61.2344C220.156 61.2344 219.508 61.1133 218.953 60.8711C218.406 60.6211 217.984 60.2227 217.688 59.6758C217.391 59.1289 217.242 58.4102 217.242 57.5195V45.1914ZM228.281 43V61H224.895V43H228.281ZM236.906 61.2344C235.922 61.2344 235.039 61.0781 234.258 60.7656C233.477 60.4453 232.812 60.0039 232.266 59.4414C231.727 58.8789 231.312 58.2266 231.023 57.4844C230.734 56.7344 230.59 55.9375 230.59 55.0938V54.625C230.59 53.6641 230.727 52.7852 231 51.9883C231.273 51.1914 231.664 50.5 232.172 49.9141C232.688 49.3281 233.312 48.8789 234.047 48.5664C234.781 48.2461 235.609 48.0859 236.531 48.0859C237.43 48.0859 238.227 48.2344 238.922 48.5312C239.617 48.8281 240.199 49.25 240.668 49.7969C241.145 50.3438 241.504 51 241.746 51.7656C241.988 52.5234 242.109 53.3672 242.109 54.2969V55.7031H232.031V53.4531H238.793V53.1953C238.793 52.7266 238.707 52.3086 238.535 51.9414C238.371 51.5664 238.121 51.2695 237.785 51.0508C237.449 50.832 237.02 50.7227 236.496 50.7227C236.051 50.7227 235.668 50.8203 235.348 51.0156C235.027 51.2109 234.766 51.4844 234.562 51.8359C234.367 52.1875 234.219 52.6016 234.117 53.0781C234.023 53.5469 233.977 54.0625 233.977 54.625V55.0938C233.977 55.6016 234.047 56.0703 234.188 56.5C234.336 56.9297 234.543 57.3008 234.809 57.6133C235.082 57.9258 235.41 58.168 235.793 58.3398C236.184 58.5117 236.625 58.5977 237.117 58.5977C237.727 58.5977 238.293 58.4805 238.816 58.2461C239.348 58.0039 239.805 57.6406 240.188 57.1562L241.828 58.9375C241.562 59.3203 241.199 59.6875 240.738 60.0391C240.285 60.3906 239.738 60.6797 239.098 60.9062C238.457 61.125 237.727 61.2344 236.906 61.2344Z" fill="#888888"/>
<path d="M118.148 112.672V119H100.898V112.672H118.148ZM103.828 84.875V119H95.6016V84.875H103.828ZM133.523 119.469C131.461 119.469 129.617 119.148 127.992 118.508C126.367 117.852 124.992 116.953 123.867 115.812C122.758 114.672 121.906 113.359 121.312 111.875C120.734 110.391 120.445 108.82 120.445 107.164V106.273C120.445 104.414 120.703 102.695 121.219 101.117C121.734 99.5234 122.5 98.1328 123.516 96.9453C124.531 95.7578 125.805 94.8359 127.336 94.1797C128.867 93.5078 130.648 93.1719 132.68 93.1719C134.477 93.1719 136.086 93.4609 137.508 94.0391C138.93 94.6172 140.133 95.4453 141.117 96.5234C142.117 97.6016 142.875 98.9062 143.391 100.438C143.922 101.969 144.188 103.688 144.188 105.594V108.805H123.469V103.859H136.477V103.25C136.492 102.406 136.344 101.688 136.031 101.094C135.734 100.5 135.297 100.047 134.719 99.7344C134.141 99.4219 133.438 99.2656 132.609 99.2656C131.75 99.2656 131.039 99.4531 130.477 99.8281C129.93 100.203 129.5 100.719 129.188 101.375C128.891 102.016 128.68 102.758 128.555 103.602C128.43 104.445 128.367 105.336 128.367 106.273V107.164C128.367 108.102 128.492 108.953 128.742 109.719C129.008 110.484 129.383 111.141 129.867 111.688C130.367 112.219 130.961 112.633 131.648 112.93C132.352 113.227 133.148 113.375 134.039 113.375C135.117 113.375 136.18 113.172 137.227 112.766C138.273 112.359 139.172 111.688 139.922 110.75L143.508 115.016C142.992 115.75 142.258 116.461 141.305 117.148C140.367 117.836 139.242 118.398 137.93 118.836C136.617 119.258 135.148 119.469 133.523 119.469ZM160.57 112.625V102.172C160.57 101.453 160.469 100.836 160.266 100.32C160.062 99.8047 159.742 99.4062 159.305 99.125C158.867 98.8281 158.281 98.6797 157.547 98.6797C156.953 98.6797 156.445 98.7812 156.023 98.9844C155.602 99.1875 155.281 99.4922 155.062 99.8984C154.844 100.305 154.734 100.82 154.734 101.445H146.836C146.836 100.273 147.094 99.1875 147.609 98.1875C148.141 97.1719 148.891 96.2891 149.859 95.5391C150.844 94.7891 152.016 94.2109 153.375 93.8047C154.75 93.3828 156.281 93.1719 157.969 93.1719C159.984 93.1719 161.781 93.5078 163.359 94.1797C164.953 94.8516 166.211 95.8594 167.133 97.2031C168.055 98.5312 168.516 100.203 168.516 102.219V112.602C168.516 114.258 168.609 115.516 168.797 116.375C168.984 117.219 169.25 117.961 169.594 118.602V119H161.672C161.297 118.219 161.016 117.266 160.828 116.141C160.656 115 160.57 113.828 160.57 112.625ZM161.531 103.508L161.578 107.727H158.086C157.352 107.727 156.727 107.828 156.211 108.031C155.711 108.234 155.305 108.516 154.992 108.875C154.695 109.219 154.477 109.609 154.336 110.047C154.211 110.484 154.148 110.945 154.148 111.43C154.148 111.898 154.258 112.32 154.477 112.695C154.711 113.055 155.023 113.336 155.414 113.539C155.805 113.742 156.242 113.844 156.727 113.844C157.602 113.844 158.344 113.68 158.953 113.352C159.578 113.008 160.055 112.594 160.383 112.109C160.711 111.625 160.875 111.172 160.875 110.75L162.609 113.984C162.297 114.609 161.938 115.242 161.531 115.883C161.141 116.523 160.648 117.117 160.055 117.664C159.477 118.195 158.766 118.633 157.922 118.977C157.078 119.305 156.055 119.469 154.852 119.469C153.289 119.469 151.852 119.148 150.539 118.508C149.242 117.867 148.203 116.977 147.422 115.836C146.641 114.68 146.25 113.352 146.25 111.852C146.25 110.539 146.484 109.367 146.953 108.336C147.438 107.305 148.164 106.43 149.133 105.711C150.102 104.992 151.336 104.445 152.836 104.07C154.336 103.695 156.102 103.508 158.133 103.508H161.531ZM180.867 99.9219V119H172.969V93.6406H180.352L180.867 99.9219ZM188.367 93.4531L188.227 100.789C187.914 100.758 187.492 100.719 186.961 100.672C186.43 100.625 185.984 100.602 185.625 100.602C184.703 100.602 183.906 100.711 183.234 100.93C182.578 101.133 182.031 101.445 181.594 101.867C181.172 102.273 180.859 102.789 180.656 103.414C180.469 104.039 180.383 104.766 180.398 105.594L178.969 104.656C178.969 102.953 179.133 101.406 179.461 100.016C179.805 98.6094 180.289 97.3984 180.914 96.3828C181.539 95.3516 182.297 94.5625 183.188 94.0156C184.078 93.4531 185.078 93.1719 186.188 93.1719C186.578 93.1719 186.961 93.1953 187.336 93.2422C187.727 93.2891 188.07 93.3594 188.367 93.4531ZM198.844 99.0547V119H190.945V93.6406H198.352L198.844 99.0547ZM197.906 105.453L196.055 105.5C196.055 103.562 196.289 101.836 196.758 100.32C197.227 98.7891 197.891 97.4922 198.75 96.4297C199.609 95.3672 200.633 94.5625 201.82 94.0156C203.023 93.4531 204.359 93.1719 205.828 93.1719C207 93.1719 208.07 93.3438 209.039 93.6875C210.023 94.0312 210.867 94.5859 211.57 95.3516C212.289 96.1172 212.836 97.1328 213.211 98.3984C213.602 99.6484 213.797 101.195 213.797 103.039V119H205.852V103.016C205.852 102 205.711 101.227 205.43 100.695C205.148 100.148 204.742 99.7734 204.211 99.5703C203.68 99.3672 203.031 99.2656 202.266 99.2656C201.453 99.2656 200.766 99.4219 200.203 99.7344C199.641 100.047 199.188 100.484 198.844 101.047C198.516 101.594 198.273 102.242 198.117 102.992C197.977 103.742 197.906 104.562 197.906 105.453ZM226.781 84.875V119H218.555V84.875H226.781ZM240.047 99.0781V105.406H224.438V99.0781H240.047ZM241.383 84.875V91.2266H224.438V84.875H241.383ZM251.789 99.9219V119H243.891V93.6406H251.273L251.789 99.9219ZM259.289 93.4531L259.148 100.789C258.836 100.758 258.414 100.719 257.883 100.672C257.352 100.625 256.906 100.602 256.547 100.602C255.625 100.602 254.828 100.711 254.156 100.93C253.5 101.133 252.953 101.445 252.516 101.867C252.094 102.273 251.781 102.789 251.578 103.414C251.391 104.039 251.305 104.766 251.32 105.594L249.891 104.656C249.891 102.953 250.055 101.406 250.383 100.016C250.727 98.6094 251.211 97.3984 251.836 96.3828C252.461 95.3516 253.219 94.5625 254.109 94.0156C255 93.4531 256 93.1719 257.109 93.1719C257.5 93.1719 257.883 93.1953 258.258 93.2422C258.648 93.2891 258.992 93.3594 259.289 93.4531ZM260.18 106.578V106.086C260.18 104.227 260.445 102.516 260.977 100.953C261.508 99.375 262.289 98.0078 263.32 96.8516C264.352 95.6953 265.625 94.7969 267.141 94.1562C268.656 93.5 270.406 93.1719 272.391 93.1719C274.391 93.1719 276.148 93.5 277.664 94.1562C279.195 94.7969 280.477 95.6953 281.508 96.8516C282.539 98.0078 283.32 99.375 283.852 100.953C284.383 102.516 284.648 104.227 284.648 106.086V106.578C284.648 108.422 284.383 110.133 283.852 111.711C283.32 113.273 282.539 114.641 281.508 115.812C280.477 116.969 279.203 117.867 277.688 118.508C276.172 119.148 274.422 119.469 272.438 119.469C270.453 119.469 268.695 119.148 267.164 118.508C265.633 117.867 264.352 116.969 263.32 115.812C262.289 114.641 261.508 113.273 260.977 111.711C260.445 110.133 260.18 108.422 260.18 106.578ZM268.078 106.086V106.578C268.078 107.531 268.148 108.422 268.289 109.25C268.43 110.078 268.664 110.805 268.992 111.43C269.32 112.039 269.766 112.516 270.328 112.859C270.891 113.203 271.594 113.375 272.438 113.375C273.266 113.375 273.953 113.203 274.5 112.859C275.062 112.516 275.508 112.039 275.836 111.43C276.164 110.805 276.398 110.078 276.539 109.25C276.68 108.422 276.75 107.531 276.75 106.578V106.086C276.75 105.164 276.68 104.297 276.539 103.484C276.398 102.656 276.164 101.93 275.836 101.305C275.508 100.664 275.062 100.164 274.5 99.8047C273.938 99.4453 273.234 99.2656 272.391 99.2656C271.562 99.2656 270.867 99.4453 270.305 99.8047C269.758 100.164 269.32 100.664 268.992 101.305C268.664 101.93 268.43 102.656 268.289 103.484C268.148 104.297 268.078 105.164 268.078 106.086ZM296.133 99.0078V119H288.234V93.6406H295.641L296.133 99.0078ZM295.172 105.453L293.367 105.5C293.367 103.719 293.578 102.078 294 100.578C294.422 99.0781 295.047 97.7734 295.875 96.6641C296.703 95.5547 297.719 94.6953 298.922 94.0859C300.141 93.4766 301.547 93.1719 303.141 93.1719C304.25 93.1719 305.258 93.3438 306.164 93.6875C307.07 94.0156 307.852 94.5391 308.508 95.2578C309.164 95.9609 309.664 96.8828 310.008 98.0234C310.367 99.1484 310.547 100.5 310.547 102.078V119H302.648V103.086C302.648 102.008 302.523 101.195 302.273 100.648C302.039 100.102 301.695 99.7344 301.242 99.5469C300.789 99.3594 300.234 99.2656 299.578 99.2656C298.891 99.2656 298.273 99.4219 297.727 99.7344C297.18 100.047 296.711 100.484 296.32 101.047C295.945 101.594 295.656 102.242 295.453 102.992C295.266 103.742 295.172 104.562 295.172 105.453ZM309.656 105.453L307.453 105.5C307.453 103.719 307.648 102.078 308.039 100.578C308.445 99.0781 309.047 97.7734 309.844 96.6641C310.656 95.5547 311.664 94.6953 312.867 94.0859C314.07 93.4766 315.469 93.1719 317.062 93.1719C318.219 93.1719 319.281 93.3438 320.25 93.6875C321.219 94.0312 322.055 94.5859 322.758 95.3516C323.461 96.1172 324.008 97.1328 324.398 98.3984C324.789 99.6484 324.984 101.195 324.984 103.039V119H317.062V103.039C317.062 101.992 316.938 101.203 316.688 100.672C316.453 100.125 316.109 99.7578 315.656 99.5703C315.203 99.3672 314.664 99.2656 314.039 99.2656C313.289 99.2656 312.641 99.4219 312.094 99.7344C311.547 100.047 311.086 100.484 310.711 101.047C310.352 101.594 310.086 102.242 309.914 102.992C309.742 103.742 309.656 104.562 309.656 105.453ZM342.797 110.961L349.898 84.875H359.109L347.602 119H341.648L342.797 110.961ZM336.352 84.875L343.453 110.961L344.648 119H338.625L327.188 84.875H336.352ZM369.586 93.6406V119H361.664V93.6406H369.586ZM361.195 87.1016C361.195 85.9766 361.602 85.0547 362.414 84.3359C363.227 83.6172 364.281 83.2578 365.578 83.2578C366.875 83.2578 367.93 83.6172 368.742 84.3359C369.555 85.0547 369.961 85.9766 369.961 87.1016C369.961 88.2266 369.555 89.1484 368.742 89.8672C367.93 90.5859 366.875 90.9453 365.578 90.9453C364.281 90.9453 363.227 90.5859 362.414 89.8672C361.602 89.1484 361.195 88.2266 361.195 87.1016ZM389.039 113.188V83H396.984V119H389.859L389.039 113.188ZM373.477 106.625V106.133C373.477 104.211 373.688 102.461 374.109 100.883C374.531 99.2891 375.156 97.9219 375.984 96.7812C376.812 95.625 377.844 94.7344 379.078 94.1094C380.312 93.4844 381.734 93.1719 383.344 93.1719C384.781 93.1719 386.039 93.5078 387.117 94.1797C388.195 94.8359 389.117 95.7578 389.883 96.9453C390.648 98.1328 391.273 99.5234 391.758 101.117C392.242 102.695 392.609 104.398 392.859 106.227V106.812C392.609 108.531 392.242 110.156 391.758 111.688C391.273 113.203 390.648 114.547 389.883 115.719C389.117 116.891 388.188 117.812 387.094 118.484C386.016 119.141 384.75 119.469 383.297 119.469C381.688 119.469 380.266 119.148 379.031 118.508C377.812 117.867 376.789 116.969 375.961 115.812C375.148 114.656 374.531 113.297 374.109 111.734C373.688 110.172 373.477 108.469 373.477 106.625ZM381.375 106.133V106.625C381.375 107.578 381.438 108.461 381.562 109.273C381.688 110.086 381.898 110.805 382.195 111.43C382.508 112.039 382.914 112.516 383.414 112.859C383.93 113.203 384.562 113.375 385.312 113.375C386.328 113.375 387.164 113.133 387.82 112.648C388.492 112.164 388.984 111.477 389.297 110.586C389.625 109.695 389.766 108.648 389.719 107.445V105.594C389.75 104.562 389.68 103.656 389.508 102.875C389.336 102.078 389.062 101.414 388.688 100.883C388.328 100.352 387.867 99.9531 387.305 99.6875C386.758 99.4062 386.109 99.2656 385.359 99.2656C384.625 99.2656 384 99.4375 383.484 99.7812C382.984 100.125 382.578 100.609 382.266 101.234C381.953 101.844 381.727 102.57 381.586 103.414C381.445 104.242 381.375 105.148 381.375 106.133ZM413.742 119.469C411.68 119.469 409.836 119.148 408.211 118.508C406.586 117.852 405.211 116.953 404.086 115.812C402.977 114.672 402.125 113.359 401.531 111.875C400.953 110.391 400.664 108.82 400.664 107.164V106.273C400.664 104.414 400.922 102.695 401.438 101.117C401.953 99.5234 402.719 98.1328 403.734 96.9453C404.75 95.7578 406.023 94.8359 407.555 94.1797C409.086 93.5078 410.867 93.1719 412.898 93.1719C414.695 93.1719 416.305 93.4609 417.727 94.0391C419.148 94.6172 420.352 95.4453 421.336 96.5234C422.336 97.6016 423.094 98.9062 423.609 100.438C424.141 101.969 424.406 103.688 424.406 105.594V108.805H403.688V103.859H416.695V103.25C416.711 102.406 416.562 101.688 416.25 101.094C415.953 100.5 415.516 100.047 414.938 99.7344C414.359 99.4219 413.656 99.2656 412.828 99.2656C411.969 99.2656 411.258 99.4531 410.695 99.8281C410.148 100.203 409.719 100.719 409.406 101.375C409.109 102.016 408.898 102.758 408.773 103.602C408.648 104.445 408.586 105.336 408.586 106.273V107.164C408.586 108.102 408.711 108.953 408.961 109.719C409.227 110.484 409.602 111.141 410.086 111.688C410.586 112.219 411.18 112.633 411.867 112.93C412.57 113.227 413.367 113.375 414.258 113.375C415.336 113.375 416.398 113.172 417.445 112.766C418.492 112.359 419.391 111.688 420.141 110.75L423.727 115.016C423.211 115.75 422.477 116.461 421.523 117.148C420.586 117.836 419.461 118.398 418.148 118.836C416.836 119.258 415.367 119.469 413.742 119.469ZM426.633 106.578V106.086C426.633 104.227 426.898 102.516 427.43 100.953C427.961 99.375 428.742 98.0078 429.773 96.8516C430.805 95.6953 432.078 94.7969 433.594 94.1562C435.109 93.5 436.859 93.1719 438.844 93.1719C440.844 93.1719 442.602 93.5 444.117 94.1562C445.648 94.7969 446.93 95.6953 447.961 96.8516C448.992 98.0078 449.773 99.375 450.305 100.953C450.836 102.516 451.102 104.227 451.102 106.086V106.578C451.102 108.422 450.836 110.133 450.305 111.711C449.773 113.273 448.992 114.641 447.961 115.812C446.93 116.969 445.656 117.867 444.141 118.508C442.625 119.148 440.875 119.469 438.891 119.469C436.906 119.469 435.148 119.148 433.617 118.508C432.086 117.867 430.805 116.969 429.773 115.812C428.742 114.641 427.961 113.273 427.43 111.711C426.898 110.133 426.633 108.422 426.633 106.578ZM434.531 106.086V106.578C434.531 107.531 434.602 108.422 434.742 109.25C434.883 110.078 435.117 110.805 435.445 111.43C435.773 112.039 436.219 112.516 436.781 112.859C437.344 113.203 438.047 113.375 438.891 113.375C439.719 113.375 440.406 113.203 440.953 112.859C441.516 112.516 441.961 112.039 442.289 111.43C442.617 110.805 442.852 110.078 442.992 109.25C443.133 108.422 443.203 107.531 443.203 106.578V106.086C443.203 105.164 443.133 104.297 442.992 103.484C442.852 102.656 442.617 101.93 442.289 101.305C441.961 100.664 441.516 100.164 440.953 99.8047C440.391 99.4453 439.688 99.2656 438.844 99.2656C438.016 99.2656 437.32 99.4453 436.758 99.8047C436.211 100.164 435.773 100.664 435.445 101.305C435.117 101.93 434.883 102.656 434.742 103.484C434.602 104.297 434.531 105.164 434.531 106.086Z" fill="black"/>
<path d="M1134 0H1348C1356.28 0 1363 6.71573 1363 15V148C1363 156.284 1356.28 163 1348 163H1134V0Z" fill="#BFDBF7"/>
<path d="M1210.62 43.625H1286.38V119.375H1210.62V43.625Z" fill="white" fill-opacity="0.01"/>
<path d="M1276.91 72.0312V105.172C1276.91 107.787 1274.79 109.906 1272.17 109.906H1224.83C1222.21 109.906 1220.09 107.787 1220.09 105.172V57.8281C1220.09 55.2134 1222.21 53.0938 1224.83 53.0938H1261.12" stroke="white" stroke-width="7.24" stroke-linecap="round" stroke-linejoin="round"/>
<path d="M1232.72 75.1875L1248.5 87.8125L1276.91 53.0938" stroke="white" stroke-width="7.24" stroke-linecap="round" stroke-linejoin="round"/>
</svg>
