<svg width="1363" height="219" viewBox="0 0 1363 219" fill="none" xmlns="http://www.w3.org/2000/svg">
<path d="M0 15C0 6.71572 6.71573 0 15 0H37V219H15C6.71573 219 0 212.284 0 204V15Z" fill="#1F7A8C"/>
<rect width="1097" height="219" transform="translate(37)" fill="#F0F0F0"/>
<path d="M98.2617 43.9375V61H94.7578V43.9375H98.2617ZM104.719 50.9453V61H101.332V48.3203H104.508L104.719 50.9453ZM104.25 54.2148H103.312C103.312 53.332 103.418 52.5195 103.629 51.7773C103.848 51.0273 104.164 50.3789 104.578 49.832C105 49.2773 105.52 48.8477 106.137 48.543C106.754 48.2383 107.469 48.0859 108.281 48.0859C108.844 48.0859 109.359 48.1719 109.828 48.3438C110.297 48.5078 110.699 48.7695 111.035 49.1289C111.379 49.4805 111.645 49.9414 111.832 50.5117C112.02 51.0742 112.113 51.75 112.113 52.5391V61H108.738V52.9141C108.738 52.3359 108.66 51.8906 108.504 51.5781C108.348 51.2656 108.125 51.0469 107.836 50.9219C107.555 50.7969 107.215 50.7344 106.816 50.7344C106.379 50.7344 105.996 50.8242 105.668 51.0039C105.348 51.1836 105.082 51.4336 104.871 51.7539C104.66 52.0664 104.504 52.4336 104.402 52.8555C104.301 53.2773 104.25 53.7305 104.25 54.2148ZM111.797 53.8281L110.59 53.9805C110.59 53.1523 110.691 52.3828 110.895 51.6719C111.105 50.9609 111.414 50.3359 111.82 49.7969C112.234 49.2578 112.746 48.8398 113.355 48.543C113.965 48.2383 114.668 48.0859 115.465 48.0859C116.074 48.0859 116.629 48.1758 117.129 48.3555C117.629 48.5273 118.055 48.8047 118.406 49.1875C118.766 49.5625 119.039 50.0547 119.227 50.6641C119.422 51.2734 119.52 52.0195 119.52 52.9023V61H116.133V52.9023C116.133 52.3164 116.055 51.8711 115.898 51.5664C115.75 51.2539 115.531 51.0391 115.242 50.9219C114.961 50.7969 114.625 50.7344 114.234 50.7344C113.828 50.7344 113.473 50.8164 113.168 50.9805C112.863 51.1367 112.609 51.3555 112.406 51.6367C112.203 51.918 112.051 52.2461 111.949 52.6211C111.848 52.9883 111.797 53.3906 111.797 53.8281ZM128.977 58.1406V52.4922C128.977 52.0859 128.91 51.7383 128.777 51.4492C128.645 51.1523 128.438 50.9219 128.156 50.7578C127.883 50.5938 127.527 50.5117 127.09 50.5117C126.715 50.5117 126.391 50.5781 126.117 50.7109C125.844 50.8359 125.633 51.0195 125.484 51.2617C125.336 51.4961 125.262 51.7734 125.262 52.0938H121.887C121.887 51.5547 122.012 51.043 122.262 50.5586C122.512 50.0742 122.875 49.6484 123.352 49.2812C123.828 48.9062 124.395 48.6133 125.051 48.4023C125.715 48.1914 126.457 48.0859 127.277 48.0859C128.262 48.0859 129.137 48.25 129.902 48.5781C130.668 48.9062 131.27 49.3984 131.707 50.0547C132.152 50.7109 132.375 51.5312 132.375 52.5156V57.9414C132.375 58.6367 132.418 59.207 132.504 59.6523C132.59 60.0898 132.715 60.4727 132.879 60.8008V61H129.469C129.305 60.6562 129.18 60.2266 129.094 59.7109C129.016 59.1875 128.977 58.6641 128.977 58.1406ZM129.422 53.2773L129.445 55.1875H127.559C127.113 55.1875 126.727 55.2383 126.398 55.3398C126.07 55.4414 125.801 55.5859 125.59 55.7734C125.379 55.9531 125.223 56.1641 125.121 56.4062C125.027 56.6484 124.98 56.9141 124.98 57.2031C124.98 57.4922 125.047 57.7539 125.18 57.9883C125.312 58.2148 125.504 58.3945 125.754 58.5273C126.004 58.6523 126.297 58.7148 126.633 58.7148C127.141 58.7148 127.582 58.6133 127.957 58.4102C128.332 58.207 128.621 57.957 128.824 57.6602C129.035 57.3633 129.145 57.082 129.152 56.8164L130.043 58.2461C129.918 58.5664 129.746 58.8984 129.527 59.2422C129.316 59.5859 129.047 59.9102 128.719 60.2148C128.391 60.5117 127.996 60.7578 127.535 60.9531C127.074 61.1406 126.527 61.2344 125.895 61.2344C125.09 61.2344 124.359 61.0742 123.703 60.7539C123.055 60.4258 122.539 59.9766 122.156 59.4062C121.781 58.8281 121.594 58.1719 121.594 57.4375C121.594 56.7734 121.719 56.1836 121.969 55.668C122.219 55.1523 122.586 54.7188 123.07 54.3672C123.562 54.0078 124.176 53.7383 124.91 53.5586C125.645 53.3711 126.496 53.2773 127.465 53.2773H129.422ZM143.004 48.3203H146.062V60.5781C146.062 61.7344 145.805 62.7148 145.289 63.5195C144.781 64.332 144.07 64.9453 143.156 65.3594C142.242 65.7812 141.18 65.9922 139.969 65.9922C139.438 65.9922 138.875 65.9219 138.281 65.7812C137.695 65.6406 137.133 65.4219 136.594 65.125C136.062 64.8281 135.617 64.4531 135.258 64L136.746 62.0078C137.137 62.4609 137.59 62.8125 138.105 63.0625C138.621 63.3203 139.191 63.4492 139.816 63.4492C140.426 63.4492 140.941 63.3359 141.363 63.1094C141.785 62.8906 142.109 62.5664 142.336 62.1367C142.562 61.7148 142.676 61.2031 142.676 60.6016V51.25L143.004 48.3203ZM134.473 54.8125V54.5664C134.473 53.5977 134.59 52.7188 134.824 51.9297C135.066 51.1328 135.406 50.4492 135.844 49.8789C136.289 49.3086 136.828 48.8672 137.461 48.5547C138.094 48.2422 138.809 48.0859 139.605 48.0859C140.449 48.0859 141.156 48.2422 141.727 48.5547C142.297 48.8672 142.766 49.3125 143.133 49.8906C143.5 50.4609 143.785 51.1367 143.988 51.918C144.199 52.6914 144.363 53.5391 144.48 54.4609V55C144.363 55.8828 144.188 56.7031 143.953 57.4609C143.719 58.2188 143.41 58.8828 143.027 59.4531C142.645 60.0156 142.168 60.4531 141.598 60.7656C141.035 61.0781 140.363 61.2344 139.582 61.2344C138.801 61.2344 138.094 61.0742 137.461 60.7539C136.836 60.4336 136.301 59.9844 135.855 59.4062C135.41 58.8281 135.066 58.1484 134.824 57.3672C134.59 56.5859 134.473 55.7344 134.473 54.8125ZM137.848 54.5664V54.8125C137.848 55.3359 137.898 55.8242 138 56.2773C138.102 56.7305 138.258 57.1328 138.469 57.4844C138.688 57.8281 138.957 58.0977 139.277 58.293C139.605 58.4805 139.992 58.5742 140.438 58.5742C141.055 58.5742 141.559 58.4453 141.949 58.1875C142.34 57.9219 142.633 57.5586 142.828 57.0977C143.023 56.6367 143.137 56.1055 143.168 55.5039V53.9688C143.152 53.4766 143.086 53.0352 142.969 52.6445C142.852 52.2461 142.688 51.9062 142.477 51.625C142.266 51.3438 141.992 51.125 141.656 50.9688C141.32 50.8125 140.922 50.7344 140.461 50.7344C140.016 50.7344 139.629 50.8359 139.301 51.0391C138.98 51.2344 138.711 51.5039 138.492 51.8477C138.281 52.1914 138.121 52.5977 138.012 53.0664C137.902 53.5273 137.848 54.0273 137.848 54.5664ZM154.523 61.2344C153.539 61.2344 152.656 61.0781 151.875 60.7656C151.094 60.4453 150.43 60.0039 149.883 59.4414C149.344 58.8789 148.93 58.2266 148.641 57.4844C148.352 56.7344 148.207 55.9375 148.207 55.0938V54.625C148.207 53.6641 148.344 52.7852 148.617 51.9883C148.891 51.1914 149.281 50.5 149.789 49.9141C150.305 49.3281 150.93 48.8789 151.664 48.5664C152.398 48.2461 153.227 48.0859 154.148 48.0859C155.047 48.0859 155.844 48.2344 156.539 48.5312C157.234 48.8281 157.816 49.25 158.285 49.7969C158.762 50.3438 159.121 51 159.363 51.7656C159.605 52.5234 159.727 53.3672 159.727 54.2969V55.7031H149.648V53.4531H156.41V53.1953C156.41 52.7266 156.324 52.3086 156.152 51.9414C155.988 51.5664 155.738 51.2695 155.402 51.0508C155.066 50.832 154.637 50.7227 154.113 50.7227C153.668 50.7227 153.285 50.8203 152.965 51.0156C152.645 51.2109 152.383 51.4844 152.18 51.8359C151.984 52.1875 151.836 52.6016 151.734 53.0781C151.641 53.5469 151.594 54.0625 151.594 54.625V55.0938C151.594 55.6016 151.664 56.0703 151.805 56.5C151.953 56.9297 152.16 57.3008 152.426 57.6133C152.699 57.9258 153.027 58.168 153.41 58.3398C153.801 58.5117 154.242 58.5977 154.734 58.5977C155.344 58.5977 155.91 58.4805 156.434 58.2461C156.965 58.0039 157.422 57.6406 157.805 57.1562L159.445 58.9375C159.18 59.3203 158.816 59.6875 158.355 60.0391C157.902 60.3906 157.355 60.6797 156.715 60.9062C156.074 61.125 155.344 61.2344 154.523 61.2344ZM177.258 43.9375H180.762V55.2109C180.762 56.5234 180.48 57.6289 179.918 58.5273C179.363 59.4258 178.594 60.1016 177.609 60.5547C176.633 61.0078 175.508 61.2344 174.234 61.2344C172.961 61.2344 171.828 61.0078 170.836 60.5547C169.852 60.1016 169.078 59.4258 168.516 58.5273C167.961 57.6289 167.684 56.5234 167.684 55.2109V43.9375H171.199V55.2109C171.199 55.9766 171.32 56.6016 171.562 57.0859C171.805 57.5703 172.152 57.9258 172.605 58.1523C173.066 58.3789 173.609 58.4922 174.234 58.4922C174.875 58.4922 175.418 58.3789 175.863 58.1523C176.316 57.9258 176.66 57.5703 176.895 57.0859C177.137 56.6016 177.258 55.9766 177.258 55.2109V43.9375ZM186.82 50.7578V65.875H183.445V48.3203H186.574L186.82 50.7578ZM194.848 54.5195V54.7656C194.848 55.6875 194.738 56.543 194.52 57.332C194.309 58.1211 193.996 58.8086 193.582 59.3945C193.168 59.9727 192.652 60.4258 192.035 60.7539C191.426 61.0742 190.723 61.2344 189.926 61.2344C189.152 61.2344 188.48 61.0781 187.91 60.7656C187.34 60.4531 186.859 60.0156 186.469 59.4531C186.086 58.8828 185.777 58.2227 185.543 57.4727C185.309 56.7227 185.129 55.918 185.004 55.0586V54.4141C185.129 53.4922 185.309 52.6484 185.543 51.8828C185.777 51.1094 186.086 50.4414 186.469 49.8789C186.859 49.3086 187.336 48.8672 187.898 48.5547C188.469 48.2422 189.137 48.0859 189.902 48.0859C190.707 48.0859 191.414 48.2383 192.023 48.543C192.641 48.8477 193.156 49.2852 193.57 49.8555C193.992 50.4258 194.309 51.1055 194.52 51.8945C194.738 52.6836 194.848 53.5586 194.848 54.5195ZM191.461 54.7656V54.5195C191.461 53.9805 191.414 53.4844 191.32 53.0312C191.234 52.5703 191.094 52.168 190.898 51.8242C190.711 51.4805 190.461 51.2148 190.148 51.0273C189.844 50.832 189.473 50.7344 189.035 50.7344C188.574 50.7344 188.18 50.8086 187.852 50.957C187.531 51.1055 187.27 51.3203 187.066 51.6016C186.863 51.8828 186.711 52.2188 186.609 52.6094C186.508 53 186.445 53.4414 186.422 53.9336V55.5625C186.461 56.1406 186.57 56.6602 186.75 57.1211C186.93 57.5742 187.207 57.9336 187.582 58.1992C187.957 58.4648 188.449 58.5977 189.059 58.5977C189.504 58.5977 189.879 58.5 190.184 58.3047C190.488 58.1016 190.734 57.8242 190.922 57.4727C191.117 57.1211 191.254 56.7148 191.332 56.2539C191.418 55.793 191.461 55.2969 191.461 54.7656ZM200.508 43V61H197.121V43H200.508ZM202.758 54.7891V54.543C202.758 53.6133 202.891 52.7578 203.156 51.9766C203.422 51.1875 203.809 50.5039 204.316 49.9258C204.824 49.3477 205.449 48.8984 206.191 48.5781C206.934 48.25 207.785 48.0859 208.746 48.0859C209.707 48.0859 210.562 48.25 211.312 48.5781C212.062 48.8984 212.691 49.3477 213.199 49.9258C213.715 50.5039 214.105 51.1875 214.371 51.9766C214.637 52.7578 214.77 53.6133 214.77 54.543V54.7891C214.77 55.7109 214.637 56.5664 214.371 57.3555C214.105 58.1367 213.715 58.8203 213.199 59.4062C212.691 59.9844 212.066 60.4336 211.324 60.7539C210.582 61.0742 209.73 61.2344 208.77 61.2344C207.809 61.2344 206.953 61.0742 206.203 60.7539C205.461 60.4336 204.832 59.9844 204.316 59.4062C203.809 58.8203 203.422 58.1367 203.156 57.3555C202.891 56.5664 202.758 55.7109 202.758 54.7891ZM206.133 54.543V54.7891C206.133 55.3203 206.18 55.8164 206.273 56.2773C206.367 56.7383 206.516 57.1445 206.719 57.4961C206.93 57.8398 207.203 58.1094 207.539 58.3047C207.875 58.5 208.285 58.5977 208.77 58.5977C209.238 58.5977 209.641 58.5 209.977 58.3047C210.312 58.1094 210.582 57.8398 210.785 57.4961C210.988 57.1445 211.137 56.7383 211.23 56.2773C211.332 55.8164 211.383 55.3203 211.383 54.7891V54.543C211.383 54.0273 211.332 53.543 211.23 53.0898C211.137 52.6289 210.984 52.2227 210.773 51.8711C210.57 51.5117 210.301 51.2305 209.965 51.0273C209.629 50.8242 209.223 50.7227 208.746 50.7227C208.27 50.7227 207.863 50.8242 207.527 51.0273C207.199 51.2305 206.93 51.5117 206.719 51.8711C206.516 52.2227 206.367 52.6289 206.273 53.0898C206.18 53.543 206.133 54.0273 206.133 54.543ZM223.688 58.1406V52.4922C223.688 52.0859 223.621 51.7383 223.488 51.4492C223.355 51.1523 223.148 50.9219 222.867 50.7578C222.594 50.5938 222.238 50.5117 221.801 50.5117C221.426 50.5117 221.102 50.5781 220.828 50.7109C220.555 50.8359 220.344 51.0195 220.195 51.2617C220.047 51.4961 219.973 51.7734 219.973 52.0938H216.598C216.598 51.5547 216.723 51.043 216.973 50.5586C217.223 50.0742 217.586 49.6484 218.062 49.2812C218.539 48.9062 219.105 48.6133 219.762 48.4023C220.426 48.1914 221.168 48.0859 221.988 48.0859C222.973 48.0859 223.848 48.25 224.613 48.5781C225.379 48.9062 225.98 49.3984 226.418 50.0547C226.863 50.7109 227.086 51.5312 227.086 52.5156V57.9414C227.086 58.6367 227.129 59.207 227.215 59.6523C227.301 60.0898 227.426 60.4727 227.59 60.8008V61H224.18C224.016 60.6562 223.891 60.2266 223.805 59.7109C223.727 59.1875 223.688 58.6641 223.688 58.1406ZM224.133 53.2773L224.156 55.1875H222.27C221.824 55.1875 221.438 55.2383 221.109 55.3398C220.781 55.4414 220.512 55.5859 220.301 55.7734C220.09 55.9531 219.934 56.1641 219.832 56.4062C219.738 56.6484 219.691 56.9141 219.691 57.2031C219.691 57.4922 219.758 57.7539 219.891 57.9883C220.023 58.2148 220.215 58.3945 220.465 58.5273C220.715 58.6523 221.008 58.7148 221.344 58.7148C221.852 58.7148 222.293 58.6133 222.668 58.4102C223.043 58.207 223.332 57.957 223.535 57.6602C223.746 57.3633 223.855 57.082 223.863 56.8164L224.754 58.2461C224.629 58.5664 224.457 58.8984 224.238 59.2422C224.027 59.5859 223.758 59.9102 223.43 60.2148C223.102 60.5117 222.707 60.7578 222.246 60.9531C221.785 61.1406 221.238 61.2344 220.605 61.2344C219.801 61.2344 219.07 61.0742 218.414 60.7539C217.766 60.4258 217.25 59.9766 216.867 59.4062C216.492 58.8281 216.305 58.1719 216.305 57.4375C216.305 56.7734 216.43 56.1836 216.68 55.668C216.93 55.1523 217.297 54.7188 217.781 54.3672C218.273 54.0078 218.887 53.7383 219.621 53.5586C220.355 53.3711 221.207 53.2773 222.176 53.2773H224.133ZM237.176 58.2344V43H240.574V61H237.516L237.176 58.2344ZM229.16 54.8125V54.5664C229.16 53.5977 229.27 52.7188 229.488 51.9297C229.707 51.1328 230.027 50.4492 230.449 49.8789C230.871 49.3086 231.391 48.8672 232.008 48.5547C232.625 48.2422 233.328 48.0859 234.117 48.0859C234.859 48.0859 235.508 48.2422 236.062 48.5547C236.625 48.8672 237.102 49.3125 237.492 49.8906C237.891 50.4609 238.211 51.1367 238.453 51.918C238.695 52.6914 238.871 53.5391 238.98 54.4609V55C238.871 55.8828 238.695 56.7031 238.453 57.4609C238.211 58.2188 237.891 58.8828 237.492 59.4531C237.102 60.0156 236.625 60.4531 236.062 60.7656C235.5 61.0781 234.844 61.2344 234.094 61.2344C233.305 61.2344 232.602 61.0742 231.984 60.7539C231.375 60.4336 230.859 59.9844 230.438 59.4062C230.023 58.8281 229.707 58.1484 229.488 57.3672C229.27 56.5859 229.16 55.7344 229.16 54.8125ZM232.535 54.5664V54.8125C232.535 55.3359 232.574 55.8242 232.652 56.2773C232.738 56.7305 232.875 57.1328 233.062 57.4844C233.258 57.8281 233.508 58.0977 233.812 58.293C234.125 58.4805 234.504 58.5742 234.949 58.5742C235.527 58.5742 236.004 58.4453 236.379 58.1875C236.754 57.9219 237.039 57.5586 237.234 57.0977C237.438 56.6367 237.555 56.1055 237.586 55.5039V53.9688C237.562 53.4766 237.492 53.0352 237.375 52.6445C237.266 52.2461 237.102 51.9062 236.883 51.625C236.672 51.3438 236.406 51.125 236.086 50.9688C235.773 50.8125 235.402 50.7344 234.973 50.7344C234.535 50.7344 234.16 50.8359 233.848 51.0391C233.535 51.2344 233.281 51.5039 233.086 51.8477C232.898 52.1914 232.758 52.5977 232.664 53.0664C232.578 53.5273 232.535 54.0273 232.535 54.5664ZM251.871 51.8711L255.152 49.75C255.637 49.4297 255.961 49.1211 256.125 48.8242C256.289 48.5273 256.371 48.1953 256.371 47.8281C256.371 47.4609 256.234 47.1211 255.961 46.8086C255.688 46.4883 255.305 46.3281 254.812 46.3281C254.461 46.3281 254.164 46.4102 253.922 46.5742C253.68 46.7305 253.496 46.9414 253.371 47.207C253.254 47.4727 253.195 47.7695 253.195 48.0977C253.195 48.4492 253.289 48.8086 253.477 49.1758C253.664 49.5352 253.918 49.918 254.238 50.3242C254.559 50.7227 254.914 51.1562 255.305 51.625L263.355 61H259.523L252.961 53.4062C252.406 52.7188 251.922 52.0898 251.508 51.5195C251.094 50.9414 250.77 50.3789 250.535 49.832C250.301 49.2852 250.184 48.7227 250.184 48.1445C250.184 47.2539 250.375 46.4766 250.758 45.8125C251.141 45.1406 251.68 44.6211 252.375 44.2539C253.07 43.8789 253.887 43.6914 254.824 43.6914C255.707 43.6914 256.473 43.875 257.121 44.2422C257.77 44.6016 258.27 45.0781 258.621 45.6719C258.98 46.2656 259.16 46.918 259.16 47.6289C259.16 48.1602 259.062 48.6523 258.867 49.1055C258.672 49.5508 258.402 49.9648 258.059 50.3477C257.715 50.7227 257.32 51.0703 256.875 51.3906L253.137 54.0508C252.848 54.3164 252.629 54.5781 252.48 54.8359C252.332 55.0938 252.23 55.3398 252.176 55.5742C252.121 55.8008 252.094 56.0195 252.094 56.2305C252.094 56.6836 252.191 57.0898 252.387 57.4492C252.582 57.8086 252.855 58.0898 253.207 58.293C253.559 58.4961 253.969 58.5977 254.438 58.5977C255.078 58.5977 255.699 58.457 256.301 58.1758C256.902 57.8945 257.441 57.4922 257.918 56.9688C258.395 56.4375 258.773 55.8086 259.055 55.082C259.336 54.3555 259.477 53.5547 259.477 52.6797H262.336C262.336 53.5547 262.25 54.3867 262.078 55.1758C261.906 55.957 261.629 56.6836 261.246 57.3555C260.863 58.0195 260.355 58.6094 259.723 59.125C259.676 59.1641 259.609 59.2227 259.523 59.3008C259.445 59.3711 259.379 59.4258 259.324 59.4648C258.574 60.0664 257.793 60.5156 256.98 60.8125C256.168 61.1016 255.262 61.2461 254.262 61.2461C253.121 61.2461 252.133 61.0391 251.297 60.625C250.469 60.2109 249.828 59.6406 249.375 58.9141C248.93 58.1875 248.707 57.3555 248.707 56.418C248.707 55.7305 248.84 55.1328 249.105 54.625C249.379 54.1094 249.754 53.6328 250.23 53.1953C250.707 52.7578 251.254 52.3164 251.871 51.8711ZM276.41 61H272.695L272.719 58.2578H276.41C277.332 58.2578 278.109 58.0508 278.742 57.6367C279.375 57.2148 279.852 56.6016 280.172 55.7969C280.5 54.9922 280.664 54.0195 280.664 52.8789V52.0469C280.664 51.1719 280.57 50.4023 280.383 49.7383C280.203 49.0742 279.934 48.5156 279.574 48.0625C279.215 47.6094 278.773 47.2695 278.25 47.043C277.727 46.8086 277.125 46.6914 276.445 46.6914H272.625V43.9375H276.445C277.586 43.9375 278.629 44.1328 279.574 44.5234C280.527 44.9062 281.352 45.457 282.047 46.1758C282.742 46.8945 283.277 47.7539 283.652 48.7539C284.035 49.7461 284.227 50.8516 284.227 52.0703V52.8789C284.227 54.0898 284.035 55.1953 283.652 56.1953C283.277 57.1953 282.742 58.0547 282.047 58.7734C281.359 59.4844 280.535 60.0352 279.574 60.4258C278.621 60.8086 277.566 61 276.41 61ZM274.688 43.9375V61H271.172V43.9375H274.688ZM290.133 48.3203V61H286.746V48.3203H290.133ZM286.535 45.0156C286.535 44.5234 286.707 44.1172 287.051 43.7969C287.395 43.4766 287.855 43.3164 288.434 43.3164C289.004 43.3164 289.461 43.4766 289.805 43.7969C290.156 44.1172 290.332 44.5234 290.332 45.0156C290.332 45.5078 290.156 45.9141 289.805 46.2344C289.461 46.5547 289.004 46.7148 288.434 46.7148C287.855 46.7148 287.395 46.5547 287.051 46.2344C286.707 45.9141 286.535 45.5078 286.535 45.0156ZM299.777 57.4961C299.777 57.2539 299.707 57.0352 299.566 56.8398C299.426 56.6445 299.164 56.4648 298.781 56.3008C298.406 56.1289 297.863 55.9727 297.152 55.832C296.512 55.6914 295.914 55.5156 295.359 55.3047C294.812 55.0859 294.336 54.8242 293.93 54.5195C293.531 54.2148 293.219 53.8555 292.992 53.4414C292.766 53.0195 292.652 52.5391 292.652 52C292.652 51.4688 292.766 50.9688 292.992 50.5C293.227 50.0312 293.559 49.6172 293.988 49.2578C294.426 48.8906 294.957 48.6055 295.582 48.4023C296.215 48.1914 296.926 48.0859 297.715 48.0859C298.816 48.0859 299.762 48.2617 300.551 48.6133C301.348 48.9648 301.957 49.4492 302.379 50.0664C302.809 50.6758 303.023 51.3711 303.023 52.1523H299.648C299.648 51.8242 299.578 51.5312 299.438 51.2734C299.305 51.0078 299.094 50.8008 298.805 50.6523C298.523 50.4961 298.156 50.418 297.703 50.418C297.328 50.418 297.004 50.4844 296.73 50.6172C296.457 50.7422 296.246 50.9141 296.098 51.1328C295.957 51.3438 295.887 51.5781 295.887 51.8359C295.887 52.0312 295.926 52.207 296.004 52.3633C296.09 52.5117 296.227 52.6484 296.414 52.7734C296.602 52.8984 296.844 53.0156 297.141 53.125C297.445 53.2266 297.82 53.3203 298.266 53.4062C299.18 53.5938 299.996 53.8398 300.715 54.1445C301.434 54.4414 302.004 54.8477 302.426 55.3633C302.848 55.8711 303.059 56.5391 303.059 57.3672C303.059 57.9297 302.934 58.4453 302.684 58.9141C302.434 59.3828 302.074 59.793 301.605 60.1445C301.137 60.4883 300.574 60.7578 299.918 60.9531C299.27 61.1406 298.539 61.2344 297.727 61.2344C296.547 61.2344 295.547 61.0234 294.727 60.6016C293.914 60.1797 293.297 59.6445 292.875 58.9961C292.461 58.3398 292.254 57.668 292.254 56.9805H295.453C295.469 57.4414 295.586 57.8125 295.805 58.0938C296.031 58.375 296.316 58.5781 296.66 58.7031C297.012 58.8281 297.391 58.8906 297.797 58.8906C298.234 58.8906 298.598 58.832 298.887 58.7148C299.176 58.5898 299.395 58.4258 299.543 58.2227C299.699 58.0117 299.777 57.7695 299.777 57.4961ZM308.625 50.7578V65.875H305.25V48.3203H308.379L308.625 50.7578ZM316.652 54.5195V54.7656C316.652 55.6875 316.543 56.543 316.324 57.332C316.113 58.1211 315.801 58.8086 315.387 59.3945C314.973 59.9727 314.457 60.4258 313.84 60.7539C313.23 61.0742 312.527 61.2344 311.73 61.2344C310.957 61.2344 310.285 61.0781 309.715 60.7656C309.145 60.4531 308.664 60.0156 308.273 59.4531C307.891 58.8828 307.582 58.2227 307.348 57.4727C307.113 56.7227 306.934 55.918 306.809 55.0586V54.4141C306.934 53.4922 307.113 52.6484 307.348 51.8828C307.582 51.1094 307.891 50.4414 308.273 49.8789C308.664 49.3086 309.141 48.8672 309.703 48.5547C310.273 48.2422 310.941 48.0859 311.707 48.0859C312.512 48.0859 313.219 48.2383 313.828 48.543C314.445 48.8477 314.961 49.2852 315.375 49.8555C315.797 50.4258 316.113 51.1055 316.324 51.8945C316.543 52.6836 316.652 53.5586 316.652 54.5195ZM313.266 54.7656V54.5195C313.266 53.9805 313.219 53.4844 313.125 53.0312C313.039 52.5703 312.898 52.168 312.703 51.8242C312.516 51.4805 312.266 51.2148 311.953 51.0273C311.648 50.832 311.277 50.7344 310.84 50.7344C310.379 50.7344 309.984 50.8086 309.656 50.957C309.336 51.1055 309.074 51.3203 308.871 51.6016C308.668 51.8828 308.516 52.2188 308.414 52.6094C308.312 53 308.25 53.4414 308.227 53.9336V55.5625C308.266 56.1406 308.375 56.6602 308.555 57.1211C308.734 57.5742 309.012 57.9336 309.387 58.1992C309.762 58.4648 310.254 58.5977 310.863 58.5977C311.309 58.5977 311.684 58.5 311.988 58.3047C312.293 58.1016 312.539 57.8242 312.727 57.4727C312.922 57.1211 313.059 56.7148 313.137 56.2539C313.223 55.793 313.266 55.2969 313.266 54.7656ZM322.312 43V61H318.926V43H322.312ZM331.945 58.1406V52.4922C331.945 52.0859 331.879 51.7383 331.746 51.4492C331.613 51.1523 331.406 50.9219 331.125 50.7578C330.852 50.5938 330.496 50.5117 330.059 50.5117C329.684 50.5117 329.359 50.5781 329.086 50.7109C328.812 50.8359 328.602 51.0195 328.453 51.2617C328.305 51.4961 328.23 51.7734 328.23 52.0938H324.855C324.855 51.5547 324.98 51.043 325.23 50.5586C325.48 50.0742 325.844 49.6484 326.32 49.2812C326.797 48.9062 327.363 48.6133 328.02 48.4023C328.684 48.1914 329.426 48.0859 330.246 48.0859C331.23 48.0859 332.105 48.25 332.871 48.5781C333.637 48.9062 334.238 49.3984 334.676 50.0547C335.121 50.7109 335.344 51.5312 335.344 52.5156V57.9414C335.344 58.6367 335.387 59.207 335.473 59.6523C335.559 60.0898 335.684 60.4727 335.848 60.8008V61H332.438C332.273 60.6562 332.148 60.2266 332.062 59.7109C331.984 59.1875 331.945 58.6641 331.945 58.1406ZM332.391 53.2773L332.414 55.1875H330.527C330.082 55.1875 329.695 55.2383 329.367 55.3398C329.039 55.4414 328.77 55.5859 328.559 55.7734C328.348 55.9531 328.191 56.1641 328.09 56.4062C327.996 56.6484 327.949 56.9141 327.949 57.2031C327.949 57.4922 328.016 57.7539 328.148 57.9883C328.281 58.2148 328.473 58.3945 328.723 58.5273C328.973 58.6523 329.266 58.7148 329.602 58.7148C330.109 58.7148 330.551 58.6133 330.926 58.4102C331.301 58.207 331.59 57.957 331.793 57.6602C332.004 57.3633 332.113 57.082 332.121 56.8164L333.012 58.2461C332.887 58.5664 332.715 58.8984 332.496 59.2422C332.285 59.5859 332.016 59.9102 331.688 60.2148C331.359 60.5117 330.965 60.7578 330.504 60.9531C330.043 61.1406 329.496 61.2344 328.863 61.2344C328.059 61.2344 327.328 61.0742 326.672 60.7539C326.023 60.4258 325.508 59.9766 325.125 59.4062C324.75 58.8281 324.562 58.1719 324.562 57.4375C324.562 56.7734 324.688 56.1836 324.938 55.668C325.188 55.1523 325.555 54.7188 326.039 54.3672C326.531 54.0078 327.145 53.7383 327.879 53.5586C328.613 53.3711 329.465 53.2773 330.434 53.2773H332.391ZM341.52 59.5703L344.883 48.3203H348.504L343.406 62.9102C343.297 63.2305 343.148 63.5742 342.961 63.9414C342.781 64.3086 342.535 64.6562 342.223 64.9844C341.918 65.3203 341.531 65.5938 341.062 65.8047C340.602 66.0156 340.035 66.1211 339.363 66.1211C339.043 66.1211 338.781 66.1016 338.578 66.0625C338.375 66.0234 338.133 65.9688 337.852 65.8984V63.4258C337.938 63.4258 338.027 63.4258 338.121 63.4258C338.215 63.4336 338.305 63.4375 338.391 63.4375C338.836 63.4375 339.199 63.3867 339.48 63.2852C339.762 63.1836 339.988 63.0273 340.16 62.8164C340.332 62.6133 340.469 62.3477 340.57 62.0195L341.52 59.5703ZM340.113 48.3203L342.867 57.5078L343.348 61.082L341.051 61.3281L336.492 48.3203H340.113ZM349.98 59.3711C349.98 58.8711 350.152 58.4531 350.496 58.1172C350.848 57.7812 351.312 57.6133 351.891 57.6133C352.469 57.6133 352.93 57.7812 353.273 58.1172C353.625 58.4531 353.801 58.8711 353.801 59.3711C353.801 59.8711 353.625 60.2891 353.273 60.625C352.93 60.9609 352.469 61.1289 351.891 61.1289C351.312 61.1289 350.848 60.9609 350.496 60.625C350.152 60.2891 349.98 59.8711 349.98 59.3711ZM349.98 49.7031C349.98 49.2031 350.152 48.7852 350.496 48.4492C350.848 48.1133 351.312 47.9453 351.891 47.9453C352.469 47.9453 352.93 48.1133 353.273 48.4492C353.625 48.7852 353.801 49.2031 353.801 49.7031C353.801 50.2031 353.625 50.6211 353.273 50.957C352.93 51.293 352.469 51.4609 351.891 51.4609C351.312 51.4609 350.848 51.293 350.496 50.957C350.152 50.6211 349.98 50.2031 349.98 49.7031Z" fill="#888888"/>
<path d="M114.117 84.875H122.344V107.164C122.344 109.82 121.789 112.07 120.68 113.914C119.57 115.742 118.016 117.125 116.016 118.062C114.016 119 111.664 119.469 108.961 119.469C106.289 119.469 103.938 119 101.906 118.062C99.8906 117.125 98.3125 115.742 97.1719 113.914C96.0469 112.07 95.4844 109.82 95.4844 107.164V84.875H103.734V107.164C103.734 108.57 103.938 109.719 104.344 110.609C104.75 111.484 105.344 112.125 106.125 112.531C106.906 112.938 107.852 113.141 108.961 113.141C110.086 113.141 111.031 112.938 111.797 112.531C112.562 112.125 113.141 111.484 113.531 110.609C113.922 109.719 114.117 108.57 114.117 107.164V84.875ZM135.117 98.5156V128.75H127.219V93.6406H134.578L135.117 98.5156ZM150.68 106.016V106.508C150.68 108.352 150.469 110.062 150.047 111.641C149.625 113.219 149 114.594 148.172 115.766C147.344 116.938 146.312 117.852 145.078 118.508C143.859 119.148 142.445 119.469 140.836 119.469C139.32 119.469 138.016 119.133 136.922 118.461C135.828 117.789 134.914 116.859 134.18 115.672C133.445 114.484 132.852 113.125 132.398 111.594C131.945 110.062 131.586 108.445 131.32 106.742V106.109C131.586 104.281 131.945 102.586 132.398 101.023C132.852 99.4453 133.445 98.0703 134.18 96.8984C134.914 95.7266 135.82 94.8125 136.898 94.1562C137.992 93.5 139.297 93.1719 140.812 93.1719C142.422 93.1719 143.836 93.4766 145.055 94.0859C146.289 94.6953 147.32 95.5703 148.148 96.7109C148.992 97.8359 149.625 99.1875 150.047 100.766C150.469 102.344 150.68 104.094 150.68 106.016ZM142.781 106.508V106.016C142.781 105.031 142.711 104.133 142.57 103.32C142.43 102.492 142.203 101.773 141.891 101.164C141.594 100.555 141.195 100.086 140.695 99.7578C140.195 99.4297 139.578 99.2656 138.844 99.2656C138 99.2656 137.289 99.3984 136.711 99.6641C136.148 99.9141 135.695 100.305 135.352 100.836C135.023 101.352 134.789 102 134.648 102.781C134.523 103.547 134.469 104.445 134.484 105.477V107.398C134.453 108.586 134.57 109.633 134.836 110.539C135.102 111.43 135.562 112.125 136.219 112.625C136.875 113.125 137.766 113.375 138.891 113.375C139.641 113.375 140.266 113.203 140.766 112.859C141.266 112.5 141.664 112.008 141.961 111.383C142.258 110.742 142.469 110.008 142.594 109.18C142.719 108.352 142.781 107.461 142.781 106.508ZM162.539 83V119H154.617V83H162.539ZM166.43 106.578V106.086C166.43 104.227 166.695 102.516 167.227 100.953C167.758 99.375 168.539 98.0078 169.57 96.8516C170.602 95.6953 171.875 94.7969 173.391 94.1562C174.906 93.5 176.656 93.1719 178.641 93.1719C180.641 93.1719 182.398 93.5 183.914 94.1562C185.445 94.7969 186.727 95.6953 187.758 96.8516C188.789 98.0078 189.57 99.375 190.102 100.953C190.633 102.516 190.898 104.227 190.898 106.086V106.578C190.898 108.422 190.633 110.133 190.102 111.711C189.57 113.273 188.789 114.641 187.758 115.812C186.727 116.969 185.453 117.867 183.938 118.508C182.422 119.148 180.672 119.469 178.688 119.469C176.703 119.469 174.945 119.148 173.414 118.508C171.883 117.867 170.602 116.969 169.57 115.812C168.539 114.641 167.758 113.273 167.227 111.711C166.695 110.133 166.43 108.422 166.43 106.578ZM174.328 106.086V106.578C174.328 107.531 174.398 108.422 174.539 109.25C174.68 110.078 174.914 110.805 175.242 111.43C175.57 112.039 176.016 112.516 176.578 112.859C177.141 113.203 177.844 113.375 178.688 113.375C179.516 113.375 180.203 113.203 180.75 112.859C181.312 112.516 181.758 112.039 182.086 111.43C182.414 110.805 182.648 110.078 182.789 109.25C182.93 108.422 183 107.531 183 106.578V106.086C183 105.164 182.93 104.297 182.789 103.484C182.648 102.656 182.414 101.93 182.086 101.305C181.758 100.664 181.312 100.164 180.75 99.8047C180.188 99.4453 179.484 99.2656 178.641 99.2656C177.812 99.2656 177.117 99.4453 176.555 99.8047C176.008 100.164 175.57 100.664 175.242 101.305C174.914 101.93 174.68 102.656 174.539 103.484C174.398 104.297 174.328 105.164 174.328 106.086ZM207.586 112.625V102.172C207.586 101.453 207.484 100.836 207.281 100.32C207.078 99.8047 206.758 99.4062 206.32 99.125C205.883 98.8281 205.297 98.6797 204.562 98.6797C203.969 98.6797 203.461 98.7812 203.039 98.9844C202.617 99.1875 202.297 99.4922 202.078 99.8984C201.859 100.305 201.75 100.82 201.75 101.445H193.852C193.852 100.273 194.109 99.1875 194.625 98.1875C195.156 97.1719 195.906 96.2891 196.875 95.5391C197.859 94.7891 199.031 94.2109 200.391 93.8047C201.766 93.3828 203.297 93.1719 204.984 93.1719C207 93.1719 208.797 93.5078 210.375 94.1797C211.969 94.8516 213.227 95.8594 214.148 97.2031C215.07 98.5312 215.531 100.203 215.531 102.219V112.602C215.531 114.258 215.625 115.516 215.812 116.375C216 117.219 216.266 117.961 216.609 118.602V119H208.688C208.312 118.219 208.031 117.266 207.844 116.141C207.672 115 207.586 113.828 207.586 112.625ZM208.547 103.508L208.594 107.727H205.102C204.367 107.727 203.742 107.828 203.227 108.031C202.727 108.234 202.32 108.516 202.008 108.875C201.711 109.219 201.492 109.609 201.352 110.047C201.227 110.484 201.164 110.945 201.164 111.43C201.164 111.898 201.273 112.32 201.492 112.695C201.727 113.055 202.039 113.336 202.43 113.539C202.82 113.742 203.258 113.844 203.742 113.844C204.617 113.844 205.359 113.68 205.969 113.352C206.594 113.008 207.07 112.594 207.398 112.109C207.727 111.625 207.891 111.172 207.891 110.75L209.625 113.984C209.312 114.609 208.953 115.242 208.547 115.883C208.156 116.523 207.664 117.117 207.07 117.664C206.492 118.195 205.781 118.633 204.938 118.977C204.094 119.305 203.07 119.469 201.867 119.469C200.305 119.469 198.867 119.148 197.555 118.508C196.258 117.867 195.219 116.977 194.438 115.836C193.656 114.68 193.266 113.352 193.266 111.852C193.266 110.539 193.5 109.367 193.969 108.336C194.453 107.305 195.18 106.43 196.148 105.711C197.117 104.992 198.352 104.445 199.852 104.07C201.352 103.695 203.117 103.508 205.148 103.508H208.547ZM234.492 113.188V83H242.438V119H235.312L234.492 113.188ZM218.93 106.625V106.133C218.93 104.211 219.141 102.461 219.562 100.883C219.984 99.2891 220.609 97.9219 221.438 96.7812C222.266 95.625 223.297 94.7344 224.531 94.1094C225.766 93.4844 227.188 93.1719 228.797 93.1719C230.234 93.1719 231.492 93.5078 232.57 94.1797C233.648 94.8359 234.57 95.7578 235.336 96.9453C236.102 98.1328 236.727 99.5234 237.211 101.117C237.695 102.695 238.062 104.398 238.312 106.227V106.812C238.062 108.531 237.695 110.156 237.211 111.688C236.727 113.203 236.102 114.547 235.336 115.719C234.57 116.891 233.641 117.812 232.547 118.484C231.469 119.141 230.203 119.469 228.75 119.469C227.141 119.469 225.719 119.148 224.484 118.508C223.266 117.867 222.242 116.969 221.414 115.812C220.602 114.656 219.984 113.297 219.562 111.734C219.141 110.172 218.93 108.469 218.93 106.625ZM226.828 106.133V106.625C226.828 107.578 226.891 108.461 227.016 109.273C227.141 110.086 227.352 110.805 227.648 111.43C227.961 112.039 228.367 112.516 228.867 112.859C229.383 113.203 230.016 113.375 230.766 113.375C231.781 113.375 232.617 113.133 233.273 112.648C233.945 112.164 234.438 111.477 234.75 110.586C235.078 109.695 235.219 108.648 235.172 107.445V105.594C235.203 104.562 235.133 103.656 234.961 102.875C234.789 102.078 234.516 101.414 234.141 100.883C233.781 100.352 233.32 99.9531 232.758 99.6875C232.211 99.4062 231.562 99.2656 230.812 99.2656C230.078 99.2656 229.453 99.4375 228.938 99.7812C228.438 100.125 228.031 100.609 227.719 101.234C227.406 101.844 227.18 102.57 227.039 103.414C226.898 104.242 226.828 105.148 226.828 106.133ZM272.039 112.625V102.172C272.039 101.453 271.938 100.836 271.734 100.32C271.531 99.8047 271.211 99.4062 270.773 99.125C270.336 98.8281 269.75 98.6797 269.016 98.6797C268.422 98.6797 267.914 98.7812 267.492 98.9844C267.07 99.1875 266.75 99.4922 266.531 99.8984C266.312 100.305 266.203 100.82 266.203 101.445H258.305C258.305 100.273 258.562 99.1875 259.078 98.1875C259.609 97.1719 260.359 96.2891 261.328 95.5391C262.312 94.7891 263.484 94.2109 264.844 93.8047C266.219 93.3828 267.75 93.1719 269.438 93.1719C271.453 93.1719 273.25 93.5078 274.828 94.1797C276.422 94.8516 277.68 95.8594 278.602 97.2031C279.523 98.5312 279.984 100.203 279.984 102.219V112.602C279.984 114.258 280.078 115.516 280.266 116.375C280.453 117.219 280.719 117.961 281.062 118.602V119H273.141C272.766 118.219 272.484 117.266 272.297 116.141C272.125 115 272.039 113.828 272.039 112.625ZM273 103.508L273.047 107.727H269.555C268.82 107.727 268.195 107.828 267.68 108.031C267.18 108.234 266.773 108.516 266.461 108.875C266.164 109.219 265.945 109.609 265.805 110.047C265.68 110.484 265.617 110.945 265.617 111.43C265.617 111.898 265.727 112.32 265.945 112.695C266.18 113.055 266.492 113.336 266.883 113.539C267.273 113.742 267.711 113.844 268.195 113.844C269.07 113.844 269.812 113.68 270.422 113.352C271.047 113.008 271.523 112.594 271.852 112.109C272.18 111.625 272.344 111.172 272.344 110.75L274.078 113.984C273.766 114.609 273.406 115.242 273 115.883C272.609 116.523 272.117 117.117 271.523 117.664C270.945 118.195 270.234 118.633 269.391 118.977C268.547 119.305 267.523 119.469 266.32 119.469C264.758 119.469 263.32 119.148 262.008 118.508C260.711 117.867 259.672 116.977 258.891 115.836C258.109 114.68 257.719 113.352 257.719 111.852C257.719 110.539 257.953 109.367 258.422 108.336C258.906 107.305 259.633 106.43 260.602 105.711C261.57 104.992 262.805 104.445 264.305 104.07C265.805 103.695 267.57 103.508 269.602 103.508H273ZM292.125 99.0547V119H284.227V93.6406H291.633L292.125 99.0547ZM291.188 105.453L289.336 105.5C289.336 103.562 289.57 101.836 290.039 100.32C290.508 98.7891 291.172 97.4922 292.031 96.4297C292.891 95.3672 293.914 94.5625 295.102 94.0156C296.305 93.4531 297.641 93.1719 299.109 93.1719C300.281 93.1719 301.352 93.3438 302.32 93.6875C303.305 94.0312 304.148 94.5859 304.852 95.3516C305.57 96.1172 306.117 97.1328 306.492 98.3984C306.883 99.6484 307.078 101.195 307.078 103.039V119H299.133V103.016C299.133 102 298.992 101.227 298.711 100.695C298.43 100.148 298.023 99.7734 297.492 99.5703C296.961 99.3672 296.312 99.2656 295.547 99.2656C294.734 99.2656 294.047 99.4219 293.484 99.7344C292.922 100.047 292.469 100.484 292.125 101.047C291.797 101.594 291.555 102.242 291.398 102.992C291.258 103.742 291.188 104.562 291.188 105.453ZM326.039 113.188V83H333.984V119H326.859L326.039 113.188ZM310.477 106.625V106.133C310.477 104.211 310.688 102.461 311.109 100.883C311.531 99.2891 312.156 97.9219 312.984 96.7812C313.812 95.625 314.844 94.7344 316.078 94.1094C317.312 93.4844 318.734 93.1719 320.344 93.1719C321.781 93.1719 323.039 93.5078 324.117 94.1797C325.195 94.8359 326.117 95.7578 326.883 96.9453C327.648 98.1328 328.273 99.5234 328.758 101.117C329.242 102.695 329.609 104.398 329.859 106.227V106.812C329.609 108.531 329.242 110.156 328.758 111.688C328.273 113.203 327.648 114.547 326.883 115.719C326.117 116.891 325.188 117.812 324.094 118.484C323.016 119.141 321.75 119.469 320.297 119.469C318.688 119.469 317.266 119.148 316.031 118.508C314.812 117.867 313.789 116.969 312.961 115.812C312.148 114.656 311.531 113.297 311.109 111.734C310.688 110.172 310.477 108.469 310.477 106.625ZM318.375 106.133V106.625C318.375 107.578 318.438 108.461 318.562 109.273C318.688 110.086 318.898 110.805 319.195 111.43C319.508 112.039 319.914 112.516 320.414 112.859C320.93 113.203 321.562 113.375 322.312 113.375C323.328 113.375 324.164 113.133 324.82 112.648C325.492 112.164 325.984 111.477 326.297 110.586C326.625 109.695 326.766 108.648 326.719 107.445V105.594C326.75 104.562 326.68 103.656 326.508 102.875C326.336 102.078 326.062 101.414 325.688 100.883C325.328 100.352 324.867 99.9531 324.305 99.6875C323.758 99.4062 323.109 99.2656 322.359 99.2656C321.625 99.2656 321 99.4375 320.484 99.7812C319.984 100.125 319.578 100.609 319.266 101.234C318.953 101.844 318.727 102.57 318.586 103.414C318.445 104.242 318.375 105.148 318.375 106.133ZM359.555 113.586L364.547 93.6406H372.867L364.57 119H359.648L359.555 113.586ZM356.602 93.6406L361.523 113.586L361.477 119H356.531L348.258 93.6406H356.602ZM383.555 93.6406V119H375.633V93.6406H383.555ZM375.164 87.1016C375.164 85.9766 375.57 85.0547 376.383 84.3359C377.195 83.6172 378.25 83.2578 379.547 83.2578C380.844 83.2578 381.898 83.6172 382.711 84.3359C383.523 85.0547 383.93 85.9766 383.93 87.1016C383.93 88.2266 383.523 89.1484 382.711 89.8672C381.898 90.5859 380.844 90.9453 379.547 90.9453C378.25 90.9453 377.195 90.5859 376.383 89.8672C375.57 89.1484 375.164 88.2266 375.164 87.1016ZM400.711 119.469C398.648 119.469 396.805 119.148 395.18 118.508C393.555 117.852 392.18 116.953 391.055 115.812C389.945 114.672 389.094 113.359 388.5 111.875C387.922 110.391 387.633 108.82 387.633 107.164V106.273C387.633 104.414 387.891 102.695 388.406 101.117C388.922 99.5234 389.688 98.1328 390.703 96.9453C391.719 95.7578 392.992 94.8359 394.523 94.1797C396.055 93.5078 397.836 93.1719 399.867 93.1719C401.664 93.1719 403.273 93.4609 404.695 94.0391C406.117 94.6172 407.32 95.4453 408.305 96.5234C409.305 97.6016 410.062 98.9062 410.578 100.438C411.109 101.969 411.375 103.688 411.375 105.594V108.805H390.656V103.859H403.664V103.25C403.68 102.406 403.531 101.688 403.219 101.094C402.922 100.5 402.484 100.047 401.906 99.7344C401.328 99.4219 400.625 99.2656 399.797 99.2656C398.938 99.2656 398.227 99.4531 397.664 99.8281C397.117 100.203 396.688 100.719 396.375 101.375C396.078 102.016 395.867 102.758 395.742 103.602C395.617 104.445 395.555 105.336 395.555 106.273V107.164C395.555 108.102 395.68 108.953 395.93 109.719C396.195 110.484 396.57 111.141 397.055 111.688C397.555 112.219 398.148 112.633 398.836 112.93C399.539 113.227 400.336 113.375 401.227 113.375C402.305 113.375 403.367 113.172 404.414 112.766C405.461 112.359 406.359 111.688 407.109 110.75L410.695 115.016C410.18 115.75 409.445 116.461 408.492 117.148C407.555 117.836 406.43 118.398 405.117 118.836C403.805 119.258 402.336 119.469 400.711 119.469ZM422.297 111.453L426.984 93.6406H431.93L430.172 102.57L425.531 119H421.57L422.297 111.453ZM420.445 93.6406L423.352 111.312L423.68 119H418.875L412.875 93.6406H420.445ZM436.102 110.938L439.031 93.6406H446.602L440.648 119H435.844L436.102 110.938ZM432.492 93.6406L437.227 111.406L437.953 119H433.945L429.398 102.617L427.711 93.6406H432.492ZM469.758 93.6406V119H461.836V93.6406H469.758ZM461.367 87.1016C461.367 85.9766 461.773 85.0547 462.586 84.3359C463.398 83.6172 464.453 83.2578 465.75 83.2578C467.047 83.2578 468.102 83.6172 468.914 84.3359C469.727 85.0547 470.133 85.9766 470.133 87.1016C470.133 88.2266 469.727 89.1484 468.914 89.8672C468.102 90.5859 467.047 90.9453 465.75 90.9453C464.453 90.9453 463.398 90.5859 462.586 89.8672C461.773 89.1484 461.367 88.2266 461.367 87.1016ZM482.602 99.0078V119H474.703V93.6406H482.109L482.602 99.0078ZM481.641 105.453L479.836 105.5C479.836 103.719 480.047 102.078 480.469 100.578C480.891 99.0781 481.516 97.7734 482.344 96.6641C483.172 95.5547 484.188 94.6953 485.391 94.0859C486.609 93.4766 488.016 93.1719 489.609 93.1719C490.719 93.1719 491.727 93.3438 492.633 93.6875C493.539 94.0156 494.32 94.5391 494.977 95.2578C495.633 95.9609 496.133 96.8828 496.477 98.0234C496.836 99.1484 497.016 100.5 497.016 102.078V119H489.117V103.086C489.117 102.008 488.992 101.195 488.742 100.648C488.508 100.102 488.164 99.7344 487.711 99.5469C487.258 99.3594 486.703 99.2656 486.047 99.2656C485.359 99.2656 484.742 99.4219 484.195 99.7344C483.648 100.047 483.18 100.484 482.789 101.047C482.414 101.594 482.125 102.242 481.922 102.992C481.734 103.742 481.641 104.562 481.641 105.453ZM496.125 105.453L493.922 105.5C493.922 103.719 494.117 102.078 494.508 100.578C494.914 99.0781 495.516 97.7734 496.312 96.6641C497.125 95.5547 498.133 94.6953 499.336 94.0859C500.539 93.4766 501.938 93.1719 503.531 93.1719C504.688 93.1719 505.75 93.3438 506.719 93.6875C507.688 94.0312 508.523 94.5859 509.227 95.3516C509.93 96.1172 510.477 97.1328 510.867 98.3984C511.258 99.6484 511.453 101.195 511.453 103.039V119H503.531V103.039C503.531 101.992 503.406 101.203 503.156 100.672C502.922 100.125 502.578 99.7578 502.125 99.5703C501.672 99.3672 501.133 99.2656 500.508 99.2656C499.758 99.2656 499.109 99.4219 498.562 99.7344C498.016 100.047 497.555 100.484 497.18 101.047C496.82 101.594 496.555 102.242 496.383 102.992C496.211 103.742 496.125 104.562 496.125 105.453ZM529.148 112.625V102.172C529.148 101.453 529.047 100.836 528.844 100.32C528.641 99.8047 528.32 99.4062 527.883 99.125C527.445 98.8281 526.859 98.6797 526.125 98.6797C525.531 98.6797 525.023 98.7812 524.602 98.9844C524.18 99.1875 523.859 99.4922 523.641 99.8984C523.422 100.305 523.312 100.82 523.312 101.445H515.414C515.414 100.273 515.672 99.1875 516.188 98.1875C516.719 97.1719 517.469 96.2891 518.438 95.5391C519.422 94.7891 520.594 94.2109 521.953 93.8047C523.328 93.3828 524.859 93.1719 526.547 93.1719C528.562 93.1719 530.359 93.5078 531.938 94.1797C533.531 94.8516 534.789 95.8594 535.711 97.2031C536.633 98.5312 537.094 100.203 537.094 102.219V112.602C537.094 114.258 537.188 115.516 537.375 116.375C537.562 117.219 537.828 117.961 538.172 118.602V119H530.25C529.875 118.219 529.594 117.266 529.406 116.141C529.234 115 529.148 113.828 529.148 112.625ZM530.109 103.508L530.156 107.727H526.664C525.93 107.727 525.305 107.828 524.789 108.031C524.289 108.234 523.883 108.516 523.57 108.875C523.273 109.219 523.055 109.609 522.914 110.047C522.789 110.484 522.727 110.945 522.727 111.43C522.727 111.898 522.836 112.32 523.055 112.695C523.289 113.055 523.602 113.336 523.992 113.539C524.383 113.742 524.82 113.844 525.305 113.844C526.18 113.844 526.922 113.68 527.531 113.352C528.156 113.008 528.633 112.594 528.961 112.109C529.289 111.625 529.453 111.172 529.453 110.75L531.188 113.984C530.875 114.609 530.516 115.242 530.109 115.883C529.719 116.523 529.227 117.117 528.633 117.664C528.055 118.195 527.344 118.633 526.5 118.977C525.656 119.305 524.633 119.469 523.43 119.469C521.867 119.469 520.43 119.148 519.117 118.508C517.82 117.867 516.781 116.977 516 115.836C515.219 114.68 514.828 113.352 514.828 111.852C514.828 110.539 515.062 109.367 515.531 108.336C516.016 107.305 516.742 106.43 517.711 105.711C518.68 104.992 519.914 104.445 521.414 104.07C522.914 103.695 524.68 103.508 526.711 103.508H530.109ZM557.414 93.6406H564.586V118.016C564.586 120.359 564.047 122.344 562.969 123.969C561.891 125.609 560.383 126.852 558.445 127.695C556.523 128.555 554.273 128.984 551.695 128.984C550.555 128.984 549.391 128.836 548.203 128.539C547.016 128.258 545.906 127.836 544.875 127.273C543.844 126.711 542.977 126.016 542.273 125.188L545.578 120.547C546.219 121.266 547.023 121.875 547.992 122.375C548.961 122.891 550.102 123.148 551.414 123.148C552.555 123.148 553.508 122.945 554.273 122.539C555.055 122.133 555.648 121.539 556.055 120.758C556.461 119.992 556.664 119.062 556.664 117.969V99.6406L557.414 93.6406ZM540.562 106.625V106.133C540.562 104.211 540.797 102.461 541.266 100.883C541.75 99.2891 542.438 97.9219 543.328 96.7812C544.234 95.625 545.328 94.7344 546.609 94.1094C547.891 93.4844 549.336 93.1719 550.945 93.1719C552.68 93.1719 554.102 93.5078 555.211 94.1797C556.336 94.8359 557.234 95.7578 557.906 96.9453C558.594 98.1328 559.125 99.5234 559.5 101.117C559.891 102.695 560.219 104.398 560.484 106.227V106.812C560.219 108.531 559.852 110.156 559.383 111.688C558.93 113.203 558.336 114.547 557.602 115.719C556.867 116.891 555.945 117.812 554.836 118.484C553.742 119.141 552.43 119.469 550.898 119.469C549.305 119.469 547.867 119.148 546.586 118.508C545.32 117.867 544.234 116.969 543.328 115.812C542.438 114.656 541.75 113.297 541.266 111.734C540.797 110.172 540.562 108.469 540.562 106.625ZM548.461 106.133V106.625C548.461 107.578 548.547 108.461 548.719 109.273C548.906 110.086 549.188 110.805 549.562 111.43C549.938 112.039 550.398 112.516 550.945 112.859C551.508 113.203 552.164 113.375 552.914 113.375C554.055 113.375 554.977 113.133 555.68 112.648C556.383 112.164 556.891 111.477 557.203 110.586C557.516 109.695 557.648 108.648 557.602 107.445V105.594C557.633 104.562 557.562 103.656 557.391 102.875C557.219 102.078 556.945 101.414 556.57 100.883C556.211 100.352 555.727 99.9531 555.117 99.6875C554.523 99.4062 553.805 99.2656 552.961 99.2656C552.227 99.2656 551.578 99.4375 551.016 99.7812C550.453 100.125 549.984 100.609 549.609 101.234C549.234 101.844 548.945 102.57 548.742 103.414C548.555 104.242 548.461 105.148 548.461 106.133ZM581.414 119.469C579.352 119.469 577.508 119.148 575.883 118.508C574.258 117.852 572.883 116.953 571.758 115.812C570.648 114.672 569.797 113.359 569.203 111.875C568.625 110.391 568.336 108.82 568.336 107.164V106.273C568.336 104.414 568.594 102.695 569.109 101.117C569.625 99.5234 570.391 98.1328 571.406 96.9453C572.422 95.7578 573.695 94.8359 575.227 94.1797C576.758 93.5078 578.539 93.1719 580.57 93.1719C582.367 93.1719 583.977 93.4609 585.398 94.0391C586.82 94.6172 588.023 95.4453 589.008 96.5234C590.008 97.6016 590.766 98.9062 591.281 100.438C591.812 101.969 592.078 103.688 592.078 105.594V108.805H571.359V103.859H584.367V103.25C584.383 102.406 584.234 101.688 583.922 101.094C583.625 100.5 583.188 100.047 582.609 99.7344C582.031 99.4219 581.328 99.2656 580.5 99.2656C579.641 99.2656 578.93 99.4531 578.367 99.8281C577.82 100.203 577.391 100.719 577.078 101.375C576.781 102.016 576.57 102.758 576.445 103.602C576.32 104.445 576.258 105.336 576.258 106.273V107.164C576.258 108.102 576.383 108.953 576.633 109.719C576.898 110.484 577.273 111.141 577.758 111.688C578.258 112.219 578.852 112.633 579.539 112.93C580.242 113.227 581.039 113.375 581.93 113.375C583.008 113.375 584.07 113.172 585.117 112.766C586.164 112.359 587.062 111.688 587.812 110.75L591.398 115.016C590.883 115.75 590.148 116.461 589.195 117.148C588.258 117.836 587.133 118.398 585.82 118.836C584.508 119.258 583.039 119.469 581.414 119.469ZM608.578 111.875C608.578 111.438 608.43 111.062 608.133 110.75C607.852 110.422 607.352 110.125 606.633 109.859C605.914 109.578 604.906 109.297 603.609 109.016C602.375 108.75 601.211 108.398 600.117 107.961C599.039 107.523 598.094 106.992 597.281 106.367C596.469 105.742 595.828 105 595.359 104.141C594.906 103.281 594.68 102.297 594.68 101.188C594.68 100.109 594.906 99.0938 595.359 98.1406C595.828 97.1719 596.508 96.3203 597.398 95.5859C598.305 94.8359 599.406 94.25 600.703 93.8281C602 93.3906 603.477 93.1719 605.133 93.1719C607.414 93.1719 609.383 93.5234 611.039 94.2266C612.695 94.9141 613.969 95.8828 614.859 97.1328C615.766 98.3672 616.219 99.7969 616.219 101.422H608.32C608.32 100.781 608.211 100.234 607.992 99.7812C607.789 99.3281 607.453 98.9844 606.984 98.75C606.516 98.5 605.891 98.375 605.109 98.375C604.562 98.375 604.062 98.4766 603.609 98.6797C603.172 98.8828 602.82 99.1641 602.555 99.5234C602.289 99.8828 602.156 100.305 602.156 100.789C602.156 101.133 602.234 101.445 602.391 101.727C602.562 101.992 602.82 102.242 603.164 102.477C603.508 102.695 603.945 102.898 604.477 103.086C605.008 103.258 605.648 103.414 606.398 103.555C608.102 103.867 609.695 104.312 611.18 104.891C612.664 105.469 613.867 106.289 614.789 107.352C615.727 108.414 616.195 109.844 616.195 111.641C616.195 112.766 615.938 113.805 615.422 114.758C614.906 115.695 614.164 116.523 613.195 117.242C612.227 117.945 611.062 118.492 609.703 118.883C608.344 119.273 606.812 119.469 605.109 119.469C602.688 119.469 600.641 119.039 598.969 118.18C597.297 117.305 596.031 116.211 595.172 114.898C594.328 113.57 593.906 112.227 593.906 110.867H601.266C601.297 111.648 601.484 112.289 601.828 112.789C602.188 113.289 602.664 113.656 603.258 113.891C603.852 114.125 604.539 114.242 605.32 114.242C606.039 114.242 606.633 114.141 607.102 113.938C607.586 113.734 607.953 113.461 608.203 113.117C608.453 112.758 608.578 112.344 608.578 111.875ZM645.141 111.875C645.141 111.438 644.992 111.062 644.695 110.75C644.414 110.422 643.914 110.125 643.195 109.859C642.477 109.578 641.469 109.297 640.172 109.016C638.938 108.75 637.773 108.398 636.68 107.961C635.602 107.523 634.656 106.992 633.844 106.367C633.031 105.742 632.391 105 631.922 104.141C631.469 103.281 631.242 102.297 631.242 101.188C631.242 100.109 631.469 99.0938 631.922 98.1406C632.391 97.1719 633.07 96.3203 633.961 95.5859C634.867 94.8359 635.969 94.25 637.266 93.8281C638.562 93.3906 640.039 93.1719 641.695 93.1719C643.977 93.1719 645.945 93.5234 647.602 94.2266C649.258 94.9141 650.531 95.8828 651.422 97.1328C652.328 98.3672 652.781 99.7969 652.781 101.422H644.883C644.883 100.781 644.773 100.234 644.555 99.7812C644.352 99.3281 644.016 98.9844 643.547 98.75C643.078 98.5 642.453 98.375 641.672 98.375C641.125 98.375 640.625 98.4766 640.172 98.6797C639.734 98.8828 639.383 99.1641 639.117 99.5234C638.852 99.8828 638.719 100.305 638.719 100.789C638.719 101.133 638.797 101.445 638.953 101.727C639.125 101.992 639.383 102.242 639.727 102.477C640.07 102.695 640.508 102.898 641.039 103.086C641.57 103.258 642.211 103.414 642.961 103.555C644.664 103.867 646.258 104.312 647.742 104.891C649.227 105.469 650.43 106.289 651.352 107.352C652.289 108.414 652.758 109.844 652.758 111.641C652.758 112.766 652.5 113.805 651.984 114.758C651.469 115.695 650.727 116.523 649.758 117.242C648.789 117.945 647.625 118.492 646.266 118.883C644.906 119.273 643.375 119.469 641.672 119.469C639.25 119.469 637.203 119.039 635.531 118.18C633.859 117.305 632.594 116.211 631.734 114.898C630.891 113.57 630.469 112.227 630.469 110.867H637.828C637.859 111.648 638.047 112.289 638.391 112.789C638.75 113.289 639.227 113.656 639.82 113.891C640.414 114.125 641.102 114.242 641.883 114.242C642.602 114.242 643.195 114.141 643.664 113.938C644.148 113.734 644.516 113.461 644.766 113.117C645.016 112.758 645.141 112.344 645.141 111.875ZM669.82 93.6406V99.125H654.539V93.6406H669.82ZM657.75 87.3359H665.648V110.727C665.648 111.398 665.727 111.922 665.883 112.297C666.039 112.656 666.305 112.914 666.68 113.07C667.07 113.211 667.586 113.281 668.227 113.281C668.68 113.281 669.055 113.273 669.352 113.258C669.648 113.227 669.93 113.188 670.195 113.141V118.789C669.523 119.008 668.82 119.172 668.086 119.281C667.352 119.406 666.57 119.469 665.742 119.469C664.055 119.469 662.609 119.203 661.406 118.672C660.219 118.141 659.312 117.305 658.688 116.164C658.062 115.023 657.75 113.539 657.75 111.711V87.3359ZM671.273 106.578V106.086C671.273 104.227 671.539 102.516 672.07 100.953C672.602 99.375 673.383 98.0078 674.414 96.8516C675.445 95.6953 676.719 94.7969 678.234 94.1562C679.75 93.5 681.5 93.1719 683.484 93.1719C685.484 93.1719 687.242 93.5 688.758 94.1562C690.289 94.7969 691.57 95.6953 692.602 96.8516C693.633 98.0078 694.414 99.375 694.945 100.953C695.477 102.516 695.742 104.227 695.742 106.086V106.578C695.742 108.422 695.477 110.133 694.945 111.711C694.414 113.273 693.633 114.641 692.602 115.812C691.57 116.969 690.297 117.867 688.781 118.508C687.266 119.148 685.516 119.469 683.531 119.469C681.547 119.469 679.789 119.148 678.258 118.508C676.727 117.867 675.445 116.969 674.414 115.812C673.383 114.641 672.602 113.273 672.07 111.711C671.539 110.133 671.273 108.422 671.273 106.578ZM679.172 106.086V106.578C679.172 107.531 679.242 108.422 679.383 109.25C679.523 110.078 679.758 110.805 680.086 111.43C680.414 112.039 680.859 112.516 681.422 112.859C681.984 113.203 682.688 113.375 683.531 113.375C684.359 113.375 685.047 113.203 685.594 112.859C686.156 112.516 686.602 112.039 686.93 111.43C687.258 110.805 687.492 110.078 687.633 109.25C687.773 108.422 687.844 107.531 687.844 106.578V106.086C687.844 105.164 687.773 104.297 687.633 103.484C687.492 102.656 687.258 101.93 686.93 101.305C686.602 100.664 686.156 100.164 685.594 99.8047C685.031 99.4453 684.328 99.2656 683.484 99.2656C682.656 99.2656 681.961 99.4453 681.398 99.8047C680.852 100.164 680.414 100.664 680.086 101.305C679.758 101.93 679.523 102.656 679.383 103.484C679.242 104.297 679.172 105.164 679.172 106.086ZM707.227 99.9219V119H699.328V93.6406H706.711L707.227 99.9219ZM714.727 93.4531L714.586 100.789C714.273 100.758 713.852 100.719 713.32 100.672C712.789 100.625 712.344 100.602 711.984 100.602C711.062 100.602 710.266 100.711 709.594 100.93C708.938 101.133 708.391 101.445 707.953 101.867C707.531 102.273 707.219 102.789 707.016 103.414C706.828 104.039 706.742 104.766 706.758 105.594L705.328 104.656C705.328 102.953 705.492 101.406 705.82 100.016C706.164 98.6094 706.648 97.3984 707.273 96.3828C707.898 95.3516 708.656 94.5625 709.547 94.0156C710.438 93.4531 711.438 93.1719 712.547 93.1719C712.938 93.1719 713.32 93.1953 713.695 93.2422C714.086 93.2891 714.43 93.3594 714.727 93.4531ZM729.258 119.469C727.195 119.469 725.352 119.148 723.727 118.508C722.102 117.852 720.727 116.953 719.602 115.812C718.492 114.672 717.641 113.359 717.047 111.875C716.469 110.391 716.18 108.82 716.18 107.164V106.273C716.18 104.414 716.438 102.695 716.953 101.117C717.469 99.5234 718.234 98.1328 719.25 96.9453C720.266 95.7578 721.539 94.8359 723.07 94.1797C724.602 93.5078 726.383 93.1719 728.414 93.1719C730.211 93.1719 731.82 93.4609 733.242 94.0391C734.664 94.6172 735.867 95.4453 736.852 96.5234C737.852 97.6016 738.609 98.9062 739.125 100.438C739.656 101.969 739.922 103.688 739.922 105.594V108.805H719.203V103.859H732.211V103.25C732.227 102.406 732.078 101.688 731.766 101.094C731.469 100.5 731.031 100.047 730.453 99.7344C729.875 99.4219 729.172 99.2656 728.344 99.2656C727.484 99.2656 726.773 99.4531 726.211 99.8281C725.664 100.203 725.234 100.719 724.922 101.375C724.625 102.016 724.414 102.758 724.289 103.602C724.164 104.445 724.102 105.336 724.102 106.273V107.164C724.102 108.102 724.227 108.953 724.477 109.719C724.742 110.484 725.117 111.141 725.602 111.688C726.102 112.219 726.695 112.633 727.383 112.93C728.086 113.227 728.883 113.375 729.773 113.375C730.852 113.375 731.914 113.172 732.961 112.766C734.008 112.359 734.906 111.688 735.656 110.75L739.242 115.016C738.727 115.75 737.992 116.461 737.039 117.148C736.102 117.836 734.977 118.398 733.664 118.836C732.352 119.258 730.883 119.469 729.258 119.469ZM757.711 113.188V83H765.656V119H758.531L757.711 113.188ZM742.148 106.625V106.133C742.148 104.211 742.359 102.461 742.781 100.883C743.203 99.2891 743.828 97.9219 744.656 96.7812C745.484 95.625 746.516 94.7344 747.75 94.1094C748.984 93.4844 750.406 93.1719 752.016 93.1719C753.453 93.1719 754.711 93.5078 755.789 94.1797C756.867 94.8359 757.789 95.7578 758.555 96.9453C759.32 98.1328 759.945 99.5234 760.43 101.117C760.914 102.695 761.281 104.398 761.531 106.227V106.812C761.281 108.531 760.914 110.156 760.43 111.688C759.945 113.203 759.32 114.547 758.555 115.719C757.789 116.891 756.859 117.812 755.766 118.484C754.688 119.141 753.422 119.469 751.969 119.469C750.359 119.469 748.938 119.148 747.703 118.508C746.484 117.867 745.461 116.969 744.633 115.812C743.82 114.656 743.203 113.297 742.781 111.734C742.359 110.172 742.148 108.469 742.148 106.625ZM750.047 106.133V106.625C750.047 107.578 750.109 108.461 750.234 109.273C750.359 110.086 750.57 110.805 750.867 111.43C751.18 112.039 751.586 112.516 752.086 112.859C752.602 113.203 753.234 113.375 753.984 113.375C755 113.375 755.836 113.133 756.492 112.648C757.164 112.164 757.656 111.477 757.969 110.586C758.297 109.695 758.438 108.648 758.391 107.445V105.594C758.422 104.562 758.352 103.656 758.18 102.875C758.008 102.078 757.734 101.414 757.359 100.883C757 100.352 756.539 99.9531 755.977 99.6875C755.43 99.4062 754.781 99.2656 754.031 99.2656C753.297 99.2656 752.672 99.4375 752.156 99.7812C751.656 100.125 751.25 100.609 750.938 101.234C750.625 101.844 750.398 102.57 750.258 103.414C750.117 104.242 750.047 105.148 750.047 106.133ZM790.43 83V119H782.508V83H790.43ZM794.32 106.578V106.086C794.32 104.227 794.586 102.516 795.117 100.953C795.648 99.375 796.43 98.0078 797.461 96.8516C798.492 95.6953 799.766 94.7969 801.281 94.1562C802.797 93.5 804.547 93.1719 806.531 93.1719C808.531 93.1719 810.289 93.5 811.805 94.1562C813.336 94.7969 814.617 95.6953 815.648 96.8516C816.68 98.0078 817.461 99.375 817.992 100.953C818.523 102.516 818.789 104.227 818.789 106.086V106.578C818.789 108.422 818.523 110.133 817.992 111.711C817.461 113.273 816.68 114.641 815.648 115.812C814.617 116.969 813.344 117.867 811.828 118.508C810.312 119.148 808.562 119.469 806.578 119.469C804.594 119.469 802.836 119.148 801.305 118.508C799.773 117.867 798.492 116.969 797.461 115.812C796.43 114.641 795.648 113.273 795.117 111.711C794.586 110.133 794.32 108.422 794.32 106.578ZM802.219 106.086V106.578C802.219 107.531 802.289 108.422 802.43 109.25C802.57 110.078 802.805 110.805 803.133 111.43C803.461 112.039 803.906 112.516 804.469 112.859C805.031 113.203 805.734 113.375 806.578 113.375C807.406 113.375 808.094 113.203 808.641 112.859C809.203 112.516 809.648 112.039 809.977 111.43C810.305 110.805 810.539 110.078 810.68 109.25C810.82 108.422 810.891 107.531 810.891 106.578V106.086C810.891 105.164 810.82 104.297 810.68 103.484C810.539 102.656 810.305 101.93 809.977 101.305C809.648 100.664 809.203 100.164 808.641 99.8047C808.078 99.4453 807.375 99.2656 806.531 99.2656C805.703 99.2656 805.008 99.4453 804.445 99.8047C803.898 100.164 803.461 100.664 803.133 101.305C802.805 101.93 802.57 102.656 802.43 103.484C802.289 104.297 802.219 105.164 802.219 106.086ZM833.016 113.375C833.75 113.375 834.375 113.242 834.891 112.977C835.422 112.695 835.82 112.305 836.086 111.805C836.367 111.289 836.5 110.672 836.484 109.953H843.914C843.93 111.859 843.461 113.531 842.508 114.969C841.57 116.391 840.289 117.5 838.664 118.297C837.055 119.078 835.234 119.469 833.203 119.469C831.219 119.469 829.484 119.148 828 118.508C826.516 117.852 825.273 116.945 824.273 115.789C823.289 114.617 822.547 113.25 822.047 111.688C821.562 110.125 821.32 108.43 821.32 106.602V106.062C821.32 104.234 821.562 102.539 822.047 100.977C822.547 99.3984 823.289 98.0312 824.273 96.875C825.273 95.7031 826.508 94.7969 827.977 94.1562C829.461 93.5 831.188 93.1719 833.156 93.1719C835.266 93.1719 837.125 93.5703 838.734 94.3672C840.359 95.1641 841.633 96.3203 842.555 97.8359C843.477 99.3516 843.93 101.188 843.914 103.344H836.484C836.5 102.578 836.383 101.891 836.133 101.281C835.883 100.672 835.492 100.188 834.961 99.8281C834.445 99.4531 833.781 99.2656 832.969 99.2656C832.156 99.2656 831.5 99.4453 831 99.8047C830.5 100.164 830.117 100.664 829.852 101.305C829.602 101.93 829.43 102.648 829.336 103.461C829.258 104.273 829.219 105.141 829.219 106.062V106.602C829.219 107.539 829.258 108.422 829.336 109.25C829.43 110.062 829.609 110.781 829.875 111.406C830.141 112.016 830.523 112.5 831.023 112.859C831.523 113.203 832.188 113.375 833.016 113.375ZM860.461 112.625V102.172C860.461 101.453 860.359 100.836 860.156 100.32C859.953 99.8047 859.633 99.4062 859.195 99.125C858.758 98.8281 858.172 98.6797 857.438 98.6797C856.844 98.6797 856.336 98.7812 855.914 98.9844C855.492 99.1875 855.172 99.4922 854.953 99.8984C854.734 100.305 854.625 100.82 854.625 101.445H846.727C846.727 100.273 846.984 99.1875 847.5 98.1875C848.031 97.1719 848.781 96.2891 849.75 95.5391C850.734 94.7891 851.906 94.2109 853.266 93.8047C854.641 93.3828 856.172 93.1719 857.859 93.1719C859.875 93.1719 861.672 93.5078 863.25 94.1797C864.844 94.8516 866.102 95.8594 867.023 97.2031C867.945 98.5312 868.406 100.203 868.406 102.219V112.602C868.406 114.258 868.5 115.516 868.688 116.375C868.875 117.219 869.141 117.961 869.484 118.602V119H861.562C861.188 118.219 860.906 117.266 860.719 116.141C860.547 115 860.461 113.828 860.461 112.625ZM861.422 103.508L861.469 107.727H857.977C857.242 107.727 856.617 107.828 856.102 108.031C855.602 108.234 855.195 108.516 854.883 108.875C854.586 109.219 854.367 109.609 854.227 110.047C854.102 110.484 854.039 110.945 854.039 111.43C854.039 111.898 854.148 112.32 854.367 112.695C854.602 113.055 854.914 113.336 855.305 113.539C855.695 113.742 856.133 113.844 856.617 113.844C857.492 113.844 858.234 113.68 858.844 113.352C859.469 113.008 859.945 112.594 860.273 112.109C860.602 111.625 860.766 111.172 860.766 110.75L862.5 113.984C862.188 114.609 861.828 115.242 861.422 115.883C861.031 116.523 860.539 117.117 859.945 117.664C859.367 118.195 858.656 118.633 857.812 118.977C856.969 119.305 855.945 119.469 854.742 119.469C853.18 119.469 851.742 119.148 850.43 118.508C849.133 117.867 848.094 116.977 847.312 115.836C846.531 114.68 846.141 113.352 846.141 111.852C846.141 110.539 846.375 109.367 846.844 108.336C847.328 107.305 848.055 106.43 849.023 105.711C849.992 104.992 851.227 104.445 852.727 104.07C854.227 103.695 855.992 103.508 858.023 103.508H861.422ZM881.133 83V119H873.211V83H881.133ZM894.352 83V119H886.43V83H894.352ZM907.008 116.023L913.57 93.6406H922.055L911.859 122.773C911.641 123.414 911.352 124.102 910.992 124.836C910.633 125.586 910.141 126.297 909.516 126.969C908.891 127.641 908.086 128.188 907.102 128.609C906.133 129.031 904.93 129.242 903.492 129.242C902.727 129.242 902.164 129.203 901.805 129.125C901.461 129.062 900.93 128.945 900.211 128.773V123.125C900.414 123.125 900.586 123.125 900.727 123.125C900.883 123.125 901.055 123.125 901.242 123.125C902.086 123.125 902.758 123.039 903.258 122.867C903.773 122.695 904.164 122.445 904.43 122.117C904.711 121.789 904.93 121.391 905.086 120.922L907.008 116.023ZM905.344 93.6406L910.336 111.383L911.203 119.75H905.906L896.883 93.6406H905.344ZM935.086 106.578V106.086C935.086 104.227 935.352 102.516 935.883 100.953C936.414 99.375 937.195 98.0078 938.227 96.8516C939.258 95.6953 940.531 94.7969 942.047 94.1562C943.562 93.5 945.312 93.1719 947.297 93.1719C949.297 93.1719 951.055 93.5 952.57 94.1562C954.102 94.7969 955.383 95.6953 956.414 96.8516C957.445 98.0078 958.227 99.375 958.758 100.953C959.289 102.516 959.555 104.227 959.555 106.086V106.578C959.555 108.422 959.289 110.133 958.758 111.711C958.227 113.273 957.445 114.641 956.414 115.812C955.383 116.969 954.109 117.867 952.594 118.508C951.078 119.148 949.328 119.469 947.344 119.469C945.359 119.469 943.602 119.148 942.07 118.508C940.539 117.867 939.258 116.969 938.227 115.812C937.195 114.641 936.414 113.273 935.883 111.711C935.352 110.133 935.086 108.422 935.086 106.578ZM942.984 106.086V106.578C942.984 107.531 943.055 108.422 943.195 109.25C943.336 110.078 943.57 110.805 943.898 111.43C944.227 112.039 944.672 112.516 945.234 112.859C945.797 113.203 946.5 113.375 947.344 113.375C948.172 113.375 948.859 113.203 949.406 112.859C949.969 112.516 950.414 112.039 950.742 111.43C951.07 110.805 951.305 110.078 951.445 109.25C951.586 108.422 951.656 107.531 951.656 106.578V106.086C951.656 105.164 951.586 104.297 951.445 103.484C951.305 102.656 951.07 101.93 950.742 101.305C950.414 100.664 949.969 100.164 949.406 99.8047C948.844 99.4453 948.141 99.2656 947.297 99.2656C946.469 99.2656 945.773 99.4453 945.211 99.8047C944.664 100.164 944.227 100.664 943.898 101.305C943.57 101.93 943.336 102.656 943.195 103.484C943.055 104.297 942.984 105.164 942.984 106.086ZM970.828 99.0547V119H962.93V93.6406H970.336L970.828 99.0547ZM969.891 105.453L968.039 105.5C968.039 103.562 968.273 101.836 968.742 100.32C969.211 98.7891 969.875 97.4922 970.734 96.4297C971.594 95.3672 972.617 94.5625 973.805 94.0156C975.008 93.4531 976.344 93.1719 977.812 93.1719C978.984 93.1719 980.055 93.3438 981.023 93.6875C982.008 94.0312 982.852 94.5859 983.555 95.3516C984.273 96.1172 984.82 97.1328 985.195 98.3984C985.586 99.6484 985.781 101.195 985.781 103.039V119H977.836V103.016C977.836 102 977.695 101.227 977.414 100.695C977.133 100.148 976.727 99.7734 976.195 99.5703C975.664 99.3672 975.016 99.2656 974.25 99.2656C973.438 99.2656 972.75 99.4219 972.188 99.7344C971.625 100.047 971.172 100.484 970.828 101.047C970.5 101.594 970.258 102.242 970.102 102.992C969.961 103.742 969.891 104.562 969.891 105.453ZM1015.48 93.6406V99.125H1000.2V93.6406H1015.48ZM1003.41 87.3359H1011.3V110.727C1011.3 111.398 1011.38 111.922 1011.54 112.297C1011.7 112.656 1011.96 112.914 1012.34 113.07C1012.73 113.211 1013.24 113.281 1013.88 113.281C1014.34 113.281 1014.71 113.273 1015.01 113.258C1015.3 113.227 1015.59 113.188 1015.85 113.141V118.789C1015.18 119.008 1014.48 119.172 1013.74 119.281C1013.01 119.406 1012.23 119.469 1011.4 119.469C1009.71 119.469 1008.27 119.203 1007.06 118.672C1005.88 118.141 1004.97 117.305 1004.34 116.164C1003.72 115.023 1003.41 113.539 1003.41 111.711V87.3359ZM1026.35 83V119H1018.45V83H1026.35ZM1025.41 105.453L1023.56 105.5C1023.56 103.719 1023.78 102.078 1024.22 100.578C1024.66 99.0781 1025.28 97.7734 1026.09 96.6641C1026.91 95.5547 1027.88 94.6953 1029.02 94.0859C1030.16 93.4766 1031.43 93.1719 1032.82 93.1719C1034.07 93.1719 1035.21 93.3516 1036.24 93.7109C1037.29 94.0703 1038.19 94.6484 1038.94 95.4453C1039.7 96.2422 1040.29 97.2812 1040.7 98.5625C1041.12 99.8438 1041.33 101.406 1041.33 103.25V119H1033.38V103.203C1033.38 102.172 1033.23 101.375 1032.94 100.812C1032.66 100.234 1032.25 99.8359 1031.72 99.6172C1031.19 99.3828 1030.54 99.2656 1029.77 99.2656C1028.85 99.2656 1028.1 99.4219 1027.52 99.7344C1026.95 100.047 1026.5 100.484 1026.19 101.047C1025.89 101.594 1025.69 102.242 1025.58 102.992C1025.47 103.742 1025.41 104.562 1025.41 105.453ZM1057.99 119.469C1055.93 119.469 1054.09 119.148 1052.46 118.508C1050.84 117.852 1049.46 116.953 1048.34 115.812C1047.23 114.672 1046.38 113.359 1045.78 111.875C1045.2 110.391 1044.91 108.82 1044.91 107.164V106.273C1044.91 104.414 1045.17 102.695 1045.69 101.117C1046.2 99.5234 1046.97 98.1328 1047.98 96.9453C1049 95.7578 1050.27 94.8359 1051.8 94.1797C1053.34 93.5078 1055.12 93.1719 1057.15 93.1719C1058.95 93.1719 1060.55 93.4609 1061.98 94.0391C1063.4 94.6172 1064.6 95.4453 1065.59 96.5234C1066.59 97.6016 1067.34 98.9062 1067.86 100.438C1068.39 101.969 1068.66 103.688 1068.66 105.594V108.805H1047.94V103.859H1060.95V103.25C1060.96 102.406 1060.81 101.688 1060.5 101.094C1060.2 100.5 1059.77 100.047 1059.19 99.7344C1058.61 99.4219 1057.91 99.2656 1057.08 99.2656C1056.22 99.2656 1055.51 99.4531 1054.95 99.8281C1054.4 100.203 1053.97 100.719 1053.66 101.375C1053.36 102.016 1053.15 102.758 1053.02 103.602C1052.9 104.445 1052.84 105.336 1052.84 106.273V107.164C1052.84 108.102 1052.96 108.953 1053.21 109.719C1053.48 110.484 1053.85 111.141 1054.34 111.688C1054.84 112.219 1055.43 112.633 1056.12 112.93C1056.82 113.227 1057.62 113.375 1058.51 113.375C1059.59 113.375 1060.65 113.172 1061.7 112.766C1062.74 112.359 1063.64 111.688 1064.39 110.75L1067.98 115.016C1067.46 115.75 1066.73 116.461 1065.77 117.148C1064.84 117.836 1063.71 118.398 1062.4 118.836C1061.09 119.258 1059.62 119.469 1057.99 119.469ZM110.039 168.836V149.641H117.961V175H110.555L110.039 168.836ZM110.789 163.68L112.852 163.633C112.852 165.336 112.648 166.914 112.242 168.367C111.836 169.805 111.234 171.055 110.438 172.117C109.656 173.18 108.688 174.008 107.531 174.602C106.391 175.18 105.07 175.469 103.57 175.469C102.32 175.469 101.172 175.297 100.125 174.953C99.0938 174.594 98.2031 174.039 97.4531 173.289C96.7031 172.523 96.1172 171.547 95.6953 170.359C95.2891 169.156 95.0859 167.719 95.0859 166.047V149.641H102.984V166.094C102.984 166.656 103.055 167.141 103.195 167.547C103.336 167.953 103.539 168.297 103.805 168.578C104.07 168.844 104.398 169.047 104.789 169.188C105.195 169.312 105.656 169.375 106.172 169.375C107.359 169.375 108.289 169.125 108.961 168.625C109.633 168.125 110.102 167.445 110.367 166.586C110.648 165.727 110.789 164.758 110.789 163.68ZM135.609 167.875C135.609 167.438 135.461 167.062 135.164 166.75C134.883 166.422 134.383 166.125 133.664 165.859C132.945 165.578 131.938 165.297 130.641 165.016C129.406 164.75 128.242 164.398 127.148 163.961C126.07 163.523 125.125 162.992 124.312 162.367C123.5 161.742 122.859 161 122.391 160.141C121.938 159.281 121.711 158.297 121.711 157.188C121.711 156.109 121.938 155.094 122.391 154.141C122.859 153.172 123.539 152.32 124.43 151.586C125.336 150.836 126.438 150.25 127.734 149.828C129.031 149.391 130.508 149.172 132.164 149.172C134.445 149.172 136.414 149.523 138.07 150.227C139.727 150.914 141 151.883 141.891 153.133C142.797 154.367 143.25 155.797 143.25 157.422H135.352C135.352 156.781 135.242 156.234 135.023 155.781C134.82 155.328 134.484 154.984 134.016 154.75C133.547 154.5 132.922 154.375 132.141 154.375C131.594 154.375 131.094 154.477 130.641 154.68C130.203 154.883 129.852 155.164 129.586 155.523C129.32 155.883 129.188 156.305 129.188 156.789C129.188 157.133 129.266 157.445 129.422 157.727C129.594 157.992 129.852 158.242 130.195 158.477C130.539 158.695 130.977 158.898 131.508 159.086C132.039 159.258 132.68 159.414 133.43 159.555C135.133 159.867 136.727 160.312 138.211 160.891C139.695 161.469 140.898 162.289 141.82 163.352C142.758 164.414 143.227 165.844 143.227 167.641C143.227 168.766 142.969 169.805 142.453 170.758C141.938 171.695 141.195 172.523 140.227 173.242C139.258 173.945 138.094 174.492 136.734 174.883C135.375 175.273 133.844 175.469 132.141 175.469C129.719 175.469 127.672 175.039 126 174.18C124.328 173.305 123.062 172.211 122.203 170.898C121.359 169.57 120.938 168.227 120.938 166.867H128.297C128.328 167.648 128.516 168.289 128.859 168.789C129.219 169.289 129.695 169.656 130.289 169.891C130.883 170.125 131.57 170.242 132.352 170.242C133.07 170.242 133.664 170.141 134.133 169.938C134.617 169.734 134.984 169.461 135.234 169.117C135.484 168.758 135.609 168.344 135.609 167.875ZM159.211 175.469C157.148 175.469 155.305 175.148 153.68 174.508C152.055 173.852 150.68 172.953 149.555 171.812C148.445 170.672 147.594 169.359 147 167.875C146.422 166.391 146.133 164.82 146.133 163.164V162.273C146.133 160.414 146.391 158.695 146.906 157.117C147.422 155.523 148.188 154.133 149.203 152.945C150.219 151.758 151.492 150.836 153.023 150.18C154.555 149.508 156.336 149.172 158.367 149.172C160.164 149.172 161.773 149.461 163.195 150.039C164.617 150.617 165.82 151.445 166.805 152.523C167.805 153.602 168.562 154.906 169.078 156.438C169.609 157.969 169.875 159.688 169.875 161.594V164.805H149.156V159.859H162.164V159.25C162.18 158.406 162.031 157.688 161.719 157.094C161.422 156.5 160.984 156.047 160.406 155.734C159.828 155.422 159.125 155.266 158.297 155.266C157.438 155.266 156.727 155.453 156.164 155.828C155.617 156.203 155.188 156.719 154.875 157.375C154.578 158.016 154.367 158.758 154.242 159.602C154.117 160.445 154.055 161.336 154.055 162.273V163.164C154.055 164.102 154.18 164.953 154.43 165.719C154.695 166.484 155.07 167.141 155.555 167.688C156.055 168.219 156.648 168.633 157.336 168.93C158.039 169.227 158.836 169.375 159.727 169.375C160.805 169.375 161.867 169.172 162.914 168.766C163.961 168.359 164.859 167.688 165.609 166.75L169.195 171.016C168.68 171.75 167.945 172.461 166.992 173.148C166.055 173.836 164.93 174.398 163.617 174.836C162.305 175.258 160.836 175.469 159.211 175.469ZM181.055 155.922V175H173.156V149.641H180.539L181.055 155.922ZM188.555 149.453L188.414 156.789C188.102 156.758 187.68 156.719 187.148 156.672C186.617 156.625 186.172 156.602 185.812 156.602C184.891 156.602 184.094 156.711 183.422 156.93C182.766 157.133 182.219 157.445 181.781 157.867C181.359 158.273 181.047 158.789 180.844 159.414C180.656 160.039 180.57 160.766 180.586 161.594L179.156 160.656C179.156 158.953 179.32 157.406 179.648 156.016C179.992 154.609 180.477 153.398 181.102 152.383C181.727 151.352 182.484 150.562 183.375 150.016C184.266 149.453 185.266 149.172 186.375 149.172C186.766 149.172 187.148 149.195 187.523 149.242C187.914 149.289 188.258 149.359 188.555 149.453ZM196.078 139V142.797L195.281 152.477H190.453V143.102V139H196.078ZM210.188 167.875C210.188 167.438 210.039 167.062 209.742 166.75C209.461 166.422 208.961 166.125 208.242 165.859C207.523 165.578 206.516 165.297 205.219 165.016C203.984 164.75 202.82 164.398 201.727 163.961C200.648 163.523 199.703 162.992 198.891 162.367C198.078 161.742 197.438 161 196.969 160.141C196.516 159.281 196.289 158.297 196.289 157.188C196.289 156.109 196.516 155.094 196.969 154.141C197.438 153.172 198.117 152.32 199.008 151.586C199.914 150.836 201.016 150.25 202.312 149.828C203.609 149.391 205.086 149.172 206.742 149.172C209.023 149.172 210.992 149.523 212.648 150.227C214.305 150.914 215.578 151.883 216.469 153.133C217.375 154.367 217.828 155.797 217.828 157.422H209.93C209.93 156.781 209.82 156.234 209.602 155.781C209.398 155.328 209.062 154.984 208.594 154.75C208.125 154.5 207.5 154.375 206.719 154.375C206.172 154.375 205.672 154.477 205.219 154.68C204.781 154.883 204.43 155.164 204.164 155.523C203.898 155.883 203.766 156.305 203.766 156.789C203.766 157.133 203.844 157.445 204 157.727C204.172 157.992 204.43 158.242 204.773 158.477C205.117 158.695 205.555 158.898 206.086 159.086C206.617 159.258 207.258 159.414 208.008 159.555C209.711 159.867 211.305 160.312 212.789 160.891C214.273 161.469 215.477 162.289 216.398 163.352C217.336 164.414 217.805 165.844 217.805 167.641C217.805 168.766 217.547 169.805 217.031 170.758C216.516 171.695 215.773 172.523 214.805 173.242C213.836 173.945 212.672 174.492 211.312 174.883C209.953 175.273 208.422 175.469 206.719 175.469C204.297 175.469 202.25 175.039 200.578 174.18C198.906 173.305 197.641 172.211 196.781 170.898C195.938 169.57 195.516 168.227 195.516 166.867H202.875C202.906 167.648 203.094 168.289 203.438 168.789C203.797 169.289 204.273 169.656 204.867 169.891C205.461 170.125 206.148 170.242 206.93 170.242C207.648 170.242 208.242 170.141 208.711 169.938C209.195 169.734 209.562 169.461 209.812 169.117C210.062 168.758 210.188 168.344 210.188 167.875ZM248.039 169.188V139H255.984V175H248.859L248.039 169.188ZM232.477 162.625V162.133C232.477 160.211 232.688 158.461 233.109 156.883C233.531 155.289 234.156 153.922 234.984 152.781C235.812 151.625 236.844 150.734 238.078 150.109C239.312 149.484 240.734 149.172 242.344 149.172C243.781 149.172 245.039 149.508 246.117 150.18C247.195 150.836 248.117 151.758 248.883 152.945C249.648 154.133 250.273 155.523 250.758 157.117C251.242 158.695 251.609 160.398 251.859 162.227V162.812C251.609 164.531 251.242 166.156 250.758 167.688C250.273 169.203 249.648 170.547 248.883 171.719C248.117 172.891 247.188 173.812 246.094 174.484C245.016 175.141 243.75 175.469 242.297 175.469C240.688 175.469 239.266 175.148 238.031 174.508C236.812 173.867 235.789 172.969 234.961 171.812C234.148 170.656 233.531 169.297 233.109 167.734C232.688 166.172 232.477 164.469 232.477 162.625ZM240.375 162.133V162.625C240.375 163.578 240.438 164.461 240.562 165.273C240.688 166.086 240.898 166.805 241.195 167.43C241.508 168.039 241.914 168.516 242.414 168.859C242.93 169.203 243.562 169.375 244.312 169.375C245.328 169.375 246.164 169.133 246.82 168.648C247.492 168.164 247.984 167.477 248.297 166.586C248.625 165.695 248.766 164.648 248.719 163.445V161.594C248.75 160.562 248.68 159.656 248.508 158.875C248.336 158.078 248.062 157.414 247.688 156.883C247.328 156.352 246.867 155.953 246.305 155.688C245.758 155.406 245.109 155.266 244.359 155.266C243.625 155.266 243 155.438 242.484 155.781C241.984 156.125 241.578 156.609 241.266 157.234C240.953 157.844 240.727 158.57 240.586 159.414C240.445 160.242 240.375 161.148 240.375 162.133ZM272.742 175.469C270.68 175.469 268.836 175.148 267.211 174.508C265.586 173.852 264.211 172.953 263.086 171.812C261.977 170.672 261.125 169.359 260.531 167.875C259.953 166.391 259.664 164.82 259.664 163.164V162.273C259.664 160.414 259.922 158.695 260.438 157.117C260.953 155.523 261.719 154.133 262.734 152.945C263.75 151.758 265.023 150.836 266.555 150.18C268.086 149.508 269.867 149.172 271.898 149.172C273.695 149.172 275.305 149.461 276.727 150.039C278.148 150.617 279.352 151.445 280.336 152.523C281.336 153.602 282.094 154.906 282.609 156.438C283.141 157.969 283.406 159.688 283.406 161.594V164.805H262.688V159.859H275.695V159.25C275.711 158.406 275.562 157.688 275.25 157.094C274.953 156.5 274.516 156.047 273.938 155.734C273.359 155.422 272.656 155.266 271.828 155.266C270.969 155.266 270.258 155.453 269.695 155.828C269.148 156.203 268.719 156.719 268.406 157.375C268.109 158.016 267.898 158.758 267.773 159.602C267.648 160.445 267.586 161.336 267.586 162.273V163.164C267.586 164.102 267.711 164.953 267.961 165.719C268.227 166.484 268.602 167.141 269.086 167.688C269.586 168.219 270.18 168.633 270.867 168.93C271.57 169.227 272.367 169.375 273.258 169.375C274.336 169.375 275.398 169.172 276.445 168.766C277.492 168.359 278.391 167.688 279.141 166.75L282.727 171.016C282.211 171.75 281.477 172.461 280.523 173.148C279.586 173.836 278.461 174.398 277.148 174.836C275.836 175.258 274.367 175.469 272.742 175.469ZM295.43 169.586L300.422 149.641H308.742L300.445 175H295.523L295.43 169.586ZM292.477 149.641L297.398 169.586L297.352 175H292.406L284.133 149.641H292.477ZM319.43 149.641V175H311.508V149.641H319.43ZM311.039 143.102C311.039 141.977 311.445 141.055 312.258 140.336C313.07 139.617 314.125 139.258 315.422 139.258C316.719 139.258 317.773 139.617 318.586 140.336C319.398 141.055 319.805 141.977 319.805 143.102C319.805 144.227 319.398 145.148 318.586 145.867C317.773 146.586 316.719 146.945 315.422 146.945C314.125 146.945 313.07 146.586 312.258 145.867C311.445 145.148 311.039 144.227 311.039 143.102ZM335.016 169.375C335.75 169.375 336.375 169.242 336.891 168.977C337.422 168.695 337.82 168.305 338.086 167.805C338.367 167.289 338.5 166.672 338.484 165.953H345.914C345.93 167.859 345.461 169.531 344.508 170.969C343.57 172.391 342.289 173.5 340.664 174.297C339.055 175.078 337.234 175.469 335.203 175.469C333.219 175.469 331.484 175.148 330 174.508C328.516 173.852 327.273 172.945 326.273 171.789C325.289 170.617 324.547 169.25 324.047 167.688C323.562 166.125 323.32 164.43 323.32 162.602V162.062C323.32 160.234 323.562 158.539 324.047 156.977C324.547 155.398 325.289 154.031 326.273 152.875C327.273 151.703 328.508 150.797 329.977 150.156C331.461 149.5 333.188 149.172 335.156 149.172C337.266 149.172 339.125 149.57 340.734 150.367C342.359 151.164 343.633 152.32 344.555 153.836C345.477 155.352 345.93 157.188 345.914 159.344H338.484C338.5 158.578 338.383 157.891 338.133 157.281C337.883 156.672 337.492 156.188 336.961 155.828C336.445 155.453 335.781 155.266 334.969 155.266C334.156 155.266 333.5 155.445 333 155.805C332.5 156.164 332.117 156.664 331.852 157.305C331.602 157.93 331.43 158.648 331.336 159.461C331.258 160.273 331.219 161.141 331.219 162.062V162.602C331.219 163.539 331.258 164.422 331.336 165.25C331.43 166.062 331.609 166.781 331.875 167.406C332.141 168.016 332.523 168.5 333.023 168.859C333.523 169.203 334.188 169.375 335.016 169.375ZM361.57 175.469C359.508 175.469 357.664 175.148 356.039 174.508C354.414 173.852 353.039 172.953 351.914 171.812C350.805 170.672 349.953 169.359 349.359 167.875C348.781 166.391 348.492 164.82 348.492 163.164V162.273C348.492 160.414 348.75 158.695 349.266 157.117C349.781 155.523 350.547 154.133 351.562 152.945C352.578 151.758 353.852 150.836 355.383 150.18C356.914 149.508 358.695 149.172 360.727 149.172C362.523 149.172 364.133 149.461 365.555 150.039C366.977 150.617 368.18 151.445 369.164 152.523C370.164 153.602 370.922 154.906 371.438 156.438C371.969 157.969 372.234 159.688 372.234 161.594V164.805H351.516V159.859H364.523V159.25C364.539 158.406 364.391 157.688 364.078 157.094C363.781 156.5 363.344 156.047 362.766 155.734C362.188 155.422 361.484 155.266 360.656 155.266C359.797 155.266 359.086 155.453 358.523 155.828C357.977 156.203 357.547 156.719 357.234 157.375C356.938 158.016 356.727 158.758 356.602 159.602C356.477 160.445 356.414 161.336 356.414 162.273V163.164C356.414 164.102 356.539 164.953 356.789 165.719C357.055 166.484 357.43 167.141 357.914 167.688C358.414 168.219 359.008 168.633 359.695 168.93C360.398 169.227 361.195 169.375 362.086 169.375C363.164 169.375 364.227 169.172 365.273 168.766C366.32 168.359 367.219 167.688 367.969 166.75L371.555 171.016C371.039 171.75 370.305 172.461 369.352 173.148C368.414 173.836 367.289 174.398 365.977 174.836C364.664 175.258 363.195 175.469 361.57 175.469ZM375.961 171.297C375.961 170.172 376.367 169.234 377.18 168.484C377.992 167.719 379.039 167.336 380.32 167.336C381.617 167.336 382.664 167.719 383.461 168.484C384.273 169.234 384.68 170.172 384.68 171.297C384.68 172.422 384.273 173.367 383.461 174.133C382.664 174.883 381.617 175.258 380.32 175.258C379.039 175.258 377.992 174.883 377.18 174.133C376.367 173.367 375.961 172.422 375.961 171.297Z" fill="black"/>
<path d="M1134 0H1348C1356.28 0 1363 6.71573 1363 15V204C1363 212.284 1356.28 219 1348 219H1134V0Z" fill="#BFDBF7"/>
<path fill-rule="evenodd" clip-rule="evenodd" d="M1219.98 81C1219.85 81 1219.73 81.0527 1219.64 81.1464C1219.55 81.2402 1219.5 81.3674 1219.5 81.5V137.5C1219.5 137.633 1219.55 137.76 1219.64 137.854C1219.73 137.947 1219.85 138 1219.98 138H1277.02C1277.15 138 1277.27 137.947 1277.36 137.854C1277.45 137.76 1277.5 137.633 1277.5 137.5V92C1277.5 91.8674 1277.45 91.7402 1277.36 91.6464C1277.27 91.5527 1277.15 91.5 1277.02 91.5H1248.5C1247.65 91.5 1246.84 91.1045 1246.29 90.4206L1238.77 81H1219.98ZM1215.58 76.9038C1216.74 75.6848 1218.33 75 1219.98 75H1240.11C1240.97 75 1241.77 75.3955 1242.32 76.0794L1249.85 85.5H1277.02C1278.67 85.5 1280.26 86.1848 1281.42 87.4038C1282.59 88.6228 1283.25 90.2761 1283.25 92V137.5C1283.25 139.224 1282.59 140.877 1281.42 142.096C1280.26 143.315 1278.67 144 1277.02 144H1219.98C1218.33 144 1216.74 143.315 1215.58 142.096C1214.41 140.877 1213.75 139.224 1213.75 137.5V81.5C1213.75 79.7761 1214.41 78.1228 1215.58 76.9038Z" fill="white"/>
<path fill-rule="evenodd" clip-rule="evenodd" d="M1244.16 103.525C1245.47 104.892 1245.47 107.108 1244.16 108.475L1238.15 114.75L1244.16 121.025C1245.47 122.392 1245.47 124.608 1244.16 125.975C1242.85 127.342 1240.73 127.342 1239.42 125.975L1231.03 117.225C1229.72 115.858 1229.72 113.642 1231.03 112.275L1239.42 103.525C1240.73 102.158 1242.85 102.158 1244.16 103.525Z" fill="white"/>
<path fill-rule="evenodd" clip-rule="evenodd" d="M1252.12 125.975C1250.81 124.608 1250.81 122.392 1252.12 121.025L1258.13 114.75L1252.12 108.475C1250.81 107.108 1250.81 104.892 1252.12 103.525C1253.43 102.158 1255.55 102.158 1256.86 103.525L1265.25 112.275C1266.56 113.642 1266.56 115.858 1265.25 117.225L1256.86 125.975C1255.55 127.342 1253.43 127.342 1252.12 125.975Z" fill="white"/>
</svg>
