<svg width="1363" height="219" viewBox="0 0 1363 219" fill="none" xmlns="http://www.w3.org/2000/svg">
<path d="M0 15C0 6.71572 6.71573 0 15 0H37V219H15C6.71573 219 0 212.284 0 204V15Z" fill="#1F7A8C"/>
<rect width="1097" height="219" transform="translate(37)" fill="#F0F0F0"/>
<path d="M98.2617 43.9375V61H94.7578V43.9375H98.2617ZM104.719 50.9453V61H101.332V48.3203H104.508L104.719 50.9453ZM104.25 54.2148H103.312C103.312 53.332 103.418 52.5195 103.629 51.7773C103.848 51.0273 104.164 50.3789 104.578 49.832C105 49.2773 105.52 48.8477 106.137 48.543C106.754 48.2383 107.469 48.0859 108.281 48.0859C108.844 48.0859 109.359 48.1719 109.828 48.3438C110.297 48.5078 110.699 48.7695 111.035 49.1289C111.379 49.4805 111.645 49.9414 111.832 50.5117C112.02 51.0742 112.113 51.75 112.113 52.5391V61H108.738V52.9141C108.738 52.3359 108.66 51.8906 108.504 51.5781C108.348 51.2656 108.125 51.0469 107.836 50.9219C107.555 50.7969 107.215 50.7344 106.816 50.7344C106.379 50.7344 105.996 50.8242 105.668 51.0039C105.348 51.1836 105.082 51.4336 104.871 51.7539C104.66 52.0664 104.504 52.4336 104.402 52.8555C104.301 53.2773 104.25 53.7305 104.25 54.2148ZM111.797 53.8281L110.59 53.9805C110.59 53.1523 110.691 52.3828 110.895 51.6719C111.105 50.9609 111.414 50.3359 111.82 49.7969C112.234 49.2578 112.746 48.8398 113.355 48.543C113.965 48.2383 114.668 48.0859 115.465 48.0859C116.074 48.0859 116.629 48.1758 117.129 48.3555C117.629 48.5273 118.055 48.8047 118.406 49.1875C118.766 49.5625 119.039 50.0547 119.227 50.6641C119.422 51.2734 119.52 52.0195 119.52 52.9023V61H116.133V52.9023C116.133 52.3164 116.055 51.8711 115.898 51.5664C115.75 51.2539 115.531 51.0391 115.242 50.9219C114.961 50.7969 114.625 50.7344 114.234 50.7344C113.828 50.7344 113.473 50.8164 113.168 50.9805C112.863 51.1367 112.609 51.3555 112.406 51.6367C112.203 51.918 112.051 52.2461 111.949 52.6211C111.848 52.9883 111.797 53.3906 111.797 53.8281ZM128.977 58.1406V52.4922C128.977 52.0859 128.91 51.7383 128.777 51.4492C128.645 51.1523 128.438 50.9219 128.156 50.7578C127.883 50.5938 127.527 50.5117 127.09 50.5117C126.715 50.5117 126.391 50.5781 126.117 50.7109C125.844 50.8359 125.633 51.0195 125.484 51.2617C125.336 51.4961 125.262 51.7734 125.262 52.0938H121.887C121.887 51.5547 122.012 51.043 122.262 50.5586C122.512 50.0742 122.875 49.6484 123.352 49.2812C123.828 48.9062 124.395 48.6133 125.051 48.4023C125.715 48.1914 126.457 48.0859 127.277 48.0859C128.262 48.0859 129.137 48.25 129.902 48.5781C130.668 48.9062 131.27 49.3984 131.707 50.0547C132.152 50.7109 132.375 51.5312 132.375 52.5156V57.9414C132.375 58.6367 132.418 59.207 132.504 59.6523C132.59 60.0898 132.715 60.4727 132.879 60.8008V61H129.469C129.305 60.6562 129.18 60.2266 129.094 59.7109C129.016 59.1875 128.977 58.6641 128.977 58.1406ZM129.422 53.2773L129.445 55.1875H127.559C127.113 55.1875 126.727 55.2383 126.398 55.3398C126.07 55.4414 125.801 55.5859 125.59 55.7734C125.379 55.9531 125.223 56.1641 125.121 56.4062C125.027 56.6484 124.98 56.9141 124.98 57.2031C124.98 57.4922 125.047 57.7539 125.18 57.9883C125.312 58.2148 125.504 58.3945 125.754 58.5273C126.004 58.6523 126.297 58.7148 126.633 58.7148C127.141 58.7148 127.582 58.6133 127.957 58.4102C128.332 58.207 128.621 57.957 128.824 57.6602C129.035 57.3633 129.145 57.082 129.152 56.8164L130.043 58.2461C129.918 58.5664 129.746 58.8984 129.527 59.2422C129.316 59.5859 129.047 59.9102 128.719 60.2148C128.391 60.5117 127.996 60.7578 127.535 60.9531C127.074 61.1406 126.527 61.2344 125.895 61.2344C125.09 61.2344 124.359 61.0742 123.703 60.7539C123.055 60.4258 122.539 59.9766 122.156 59.4062C121.781 58.8281 121.594 58.1719 121.594 57.4375C121.594 56.7734 121.719 56.1836 121.969 55.668C122.219 55.1523 122.586 54.7188 123.07 54.3672C123.562 54.0078 124.176 53.7383 124.91 53.5586C125.645 53.3711 126.496 53.2773 127.465 53.2773H129.422ZM143.004 48.3203H146.062V60.5781C146.062 61.7344 145.805 62.7148 145.289 63.5195C144.781 64.332 144.07 64.9453 143.156 65.3594C142.242 65.7812 141.18 65.9922 139.969 65.9922C139.438 65.9922 138.875 65.9219 138.281 65.7812C137.695 65.6406 137.133 65.4219 136.594 65.125C136.062 64.8281 135.617 64.4531 135.258 64L136.746 62.0078C137.137 62.4609 137.59 62.8125 138.105 63.0625C138.621 63.3203 139.191 63.4492 139.816 63.4492C140.426 63.4492 140.941 63.3359 141.363 63.1094C141.785 62.8906 142.109 62.5664 142.336 62.1367C142.562 61.7148 142.676 61.2031 142.676 60.6016V51.25L143.004 48.3203ZM134.473 54.8125V54.5664C134.473 53.5977 134.59 52.7188 134.824 51.9297C135.066 51.1328 135.406 50.4492 135.844 49.8789C136.289 49.3086 136.828 48.8672 137.461 48.5547C138.094 48.2422 138.809 48.0859 139.605 48.0859C140.449 48.0859 141.156 48.2422 141.727 48.5547C142.297 48.8672 142.766 49.3125 143.133 49.8906C143.5 50.4609 143.785 51.1367 143.988 51.918C144.199 52.6914 144.363 53.5391 144.48 54.4609V55C144.363 55.8828 144.188 56.7031 143.953 57.4609C143.719 58.2188 143.41 58.8828 143.027 59.4531C142.645 60.0156 142.168 60.4531 141.598 60.7656C141.035 61.0781 140.363 61.2344 139.582 61.2344C138.801 61.2344 138.094 61.0742 137.461 60.7539C136.836 60.4336 136.301 59.9844 135.855 59.4062C135.41 58.8281 135.066 58.1484 134.824 57.3672C134.59 56.5859 134.473 55.7344 134.473 54.8125ZM137.848 54.5664V54.8125C137.848 55.3359 137.898 55.8242 138 56.2773C138.102 56.7305 138.258 57.1328 138.469 57.4844C138.688 57.8281 138.957 58.0977 139.277 58.293C139.605 58.4805 139.992 58.5742 140.438 58.5742C141.055 58.5742 141.559 58.4453 141.949 58.1875C142.34 57.9219 142.633 57.5586 142.828 57.0977C143.023 56.6367 143.137 56.1055 143.168 55.5039V53.9688C143.152 53.4766 143.086 53.0352 142.969 52.6445C142.852 52.2461 142.688 51.9062 142.477 51.625C142.266 51.3438 141.992 51.125 141.656 50.9688C141.32 50.8125 140.922 50.7344 140.461 50.7344C140.016 50.7344 139.629 50.8359 139.301 51.0391C138.98 51.2344 138.711 51.5039 138.492 51.8477C138.281 52.1914 138.121 52.5977 138.012 53.0664C137.902 53.5273 137.848 54.0273 137.848 54.5664ZM154.523 61.2344C153.539 61.2344 152.656 61.0781 151.875 60.7656C151.094 60.4453 150.43 60.0039 149.883 59.4414C149.344 58.8789 148.93 58.2266 148.641 57.4844C148.352 56.7344 148.207 55.9375 148.207 55.0938V54.625C148.207 53.6641 148.344 52.7852 148.617 51.9883C148.891 51.1914 149.281 50.5 149.789 49.9141C150.305 49.3281 150.93 48.8789 151.664 48.5664C152.398 48.2461 153.227 48.0859 154.148 48.0859C155.047 48.0859 155.844 48.2344 156.539 48.5312C157.234 48.8281 157.816 49.25 158.285 49.7969C158.762 50.3438 159.121 51 159.363 51.7656C159.605 52.5234 159.727 53.3672 159.727 54.2969V55.7031H149.648V53.4531H156.41V53.1953C156.41 52.7266 156.324 52.3086 156.152 51.9414C155.988 51.5664 155.738 51.2695 155.402 51.0508C155.066 50.832 154.637 50.7227 154.113 50.7227C153.668 50.7227 153.285 50.8203 152.965 51.0156C152.645 51.2109 152.383 51.4844 152.18 51.8359C151.984 52.1875 151.836 52.6016 151.734 53.0781C151.641 53.5469 151.594 54.0625 151.594 54.625V55.0938C151.594 55.6016 151.664 56.0703 151.805 56.5C151.953 56.9297 152.16 57.3008 152.426 57.6133C152.699 57.9258 153.027 58.168 153.41 58.3398C153.801 58.5117 154.242 58.5977 154.734 58.5977C155.344 58.5977 155.91 58.4805 156.434 58.2461C156.965 58.0039 157.422 57.6406 157.805 57.1562L159.445 58.9375C159.18 59.3203 158.816 59.6875 158.355 60.0391C157.902 60.3906 157.355 60.6797 156.715 60.9062C156.074 61.125 155.344 61.2344 154.523 61.2344ZM181.723 43.9375V61H178.207L171.352 49.5625V61H167.836V43.9375H171.352L178.219 55.3867V43.9375H181.723ZM191.414 58.1406V52.4922C191.414 52.0859 191.348 51.7383 191.215 51.4492C191.082 51.1523 190.875 50.9219 190.594 50.7578C190.32 50.5938 189.965 50.5117 189.527 50.5117C189.152 50.5117 188.828 50.5781 188.555 50.7109C188.281 50.8359 188.07 51.0195 187.922 51.2617C187.773 51.4961 187.699 51.7734 187.699 52.0938H184.324C184.324 51.5547 184.449 51.043 184.699 50.5586C184.949 50.0742 185.312 49.6484 185.789 49.2812C186.266 48.9062 186.832 48.6133 187.488 48.4023C188.152 48.1914 188.895 48.0859 189.715 48.0859C190.699 48.0859 191.574 48.25 192.34 48.5781C193.105 48.9062 193.707 49.3984 194.145 50.0547C194.59 50.7109 194.812 51.5312 194.812 52.5156V57.9414C194.812 58.6367 194.855 59.207 194.941 59.6523C195.027 60.0898 195.152 60.4727 195.316 60.8008V61H191.906C191.742 60.6562 191.617 60.2266 191.531 59.7109C191.453 59.1875 191.414 58.6641 191.414 58.1406ZM191.859 53.2773L191.883 55.1875H189.996C189.551 55.1875 189.164 55.2383 188.836 55.3398C188.508 55.4414 188.238 55.5859 188.027 55.7734C187.816 55.9531 187.66 56.1641 187.559 56.4062C187.465 56.6484 187.418 56.9141 187.418 57.2031C187.418 57.4922 187.484 57.7539 187.617 57.9883C187.75 58.2148 187.941 58.3945 188.191 58.5273C188.441 58.6523 188.734 58.7148 189.07 58.7148C189.578 58.7148 190.02 58.6133 190.395 58.4102C190.77 58.207 191.059 57.957 191.262 57.6602C191.473 57.3633 191.582 57.082 191.59 56.8164L192.48 58.2461C192.355 58.5664 192.184 58.8984 191.965 59.2422C191.754 59.5859 191.484 59.9102 191.156 60.2148C190.828 60.5117 190.434 60.7578 189.973 60.9531C189.512 61.1406 188.965 61.2344 188.332 61.2344C187.527 61.2344 186.797 61.0742 186.141 60.7539C185.492 60.4258 184.977 59.9766 184.594 59.4062C184.219 58.8281 184.031 58.1719 184.031 57.4375C184.031 56.7734 184.156 56.1836 184.406 55.668C184.656 55.1523 185.023 54.7188 185.508 54.3672C186 54.0078 186.613 53.7383 187.348 53.5586C188.082 53.3711 188.934 53.2773 189.902 53.2773H191.859ZM201.539 58.5391L204.352 48.3203H207.879L203.602 61H201.469L201.539 58.5391ZM199.605 48.3203L202.43 58.5508L202.488 61H200.344L196.066 48.3203H199.605ZM212.953 48.3203V61H209.566V48.3203H212.953ZM209.355 45.0156C209.355 44.5234 209.527 44.1172 209.871 43.7969C210.215 43.4766 210.676 43.3164 211.254 43.3164C211.824 43.3164 212.281 43.4766 212.625 43.7969C212.977 44.1172 213.152 44.5234 213.152 45.0156C213.152 45.5078 212.977 45.9141 212.625 46.2344C212.281 46.5547 211.824 46.7148 211.254 46.7148C210.676 46.7148 210.215 46.5547 209.871 46.2344C209.527 45.9141 209.355 45.5078 209.355 45.0156ZM223.77 48.3203H226.828V60.5781C226.828 61.7344 226.57 62.7148 226.055 63.5195C225.547 64.332 224.836 64.9453 223.922 65.3594C223.008 65.7812 221.945 65.9922 220.734 65.9922C220.203 65.9922 219.641 65.9219 219.047 65.7812C218.461 65.6406 217.898 65.4219 217.359 65.125C216.828 64.8281 216.383 64.4531 216.023 64L217.512 62.0078C217.902 62.4609 218.355 62.8125 218.871 63.0625C219.387 63.3203 219.957 63.4492 220.582 63.4492C221.191 63.4492 221.707 63.3359 222.129 63.1094C222.551 62.8906 222.875 62.5664 223.102 62.1367C223.328 61.7148 223.441 61.2031 223.441 60.6016V51.25L223.77 48.3203ZM215.238 54.8125V54.5664C215.238 53.5977 215.355 52.7188 215.59 51.9297C215.832 51.1328 216.172 50.4492 216.609 49.8789C217.055 49.3086 217.594 48.8672 218.227 48.5547C218.859 48.2422 219.574 48.0859 220.371 48.0859C221.215 48.0859 221.922 48.2422 222.492 48.5547C223.062 48.8672 223.531 49.3125 223.898 49.8906C224.266 50.4609 224.551 51.1367 224.754 51.918C224.965 52.6914 225.129 53.5391 225.246 54.4609V55C225.129 55.8828 224.953 56.7031 224.719 57.4609C224.484 58.2188 224.176 58.8828 223.793 59.4531C223.41 60.0156 222.934 60.4531 222.363 60.7656C221.801 61.0781 221.129 61.2344 220.348 61.2344C219.566 61.2344 218.859 61.0742 218.227 60.7539C217.602 60.4336 217.066 59.9844 216.621 59.4062C216.176 58.8281 215.832 58.1484 215.59 57.3672C215.355 56.5859 215.238 55.7344 215.238 54.8125ZM218.613 54.5664V54.8125C218.613 55.3359 218.664 55.8242 218.766 56.2773C218.867 56.7305 219.023 57.1328 219.234 57.4844C219.453 57.8281 219.723 58.0977 220.043 58.293C220.371 58.4805 220.758 58.5742 221.203 58.5742C221.82 58.5742 222.324 58.4453 222.715 58.1875C223.105 57.9219 223.398 57.5586 223.594 57.0977C223.789 56.6367 223.902 56.1055 223.934 55.5039V53.9688C223.918 53.4766 223.852 53.0352 223.734 52.6445C223.617 52.2461 223.453 51.9062 223.242 51.625C223.031 51.3438 222.758 51.125 222.422 50.9688C222.086 50.8125 221.688 50.7344 221.227 50.7344C220.781 50.7344 220.395 50.8359 220.066 51.0391C219.746 51.2344 219.477 51.5039 219.258 51.8477C219.047 52.1914 218.887 52.5977 218.777 53.0664C218.668 53.5273 218.613 54.0273 218.613 54.5664ZM236.297 58.1406V52.4922C236.297 52.0859 236.23 51.7383 236.098 51.4492C235.965 51.1523 235.758 50.9219 235.477 50.7578C235.203 50.5938 234.848 50.5117 234.41 50.5117C234.035 50.5117 233.711 50.5781 233.438 50.7109C233.164 50.8359 232.953 51.0195 232.805 51.2617C232.656 51.4961 232.582 51.7734 232.582 52.0938H229.207C229.207 51.5547 229.332 51.043 229.582 50.5586C229.832 50.0742 230.195 49.6484 230.672 49.2812C231.148 48.9062 231.715 48.6133 232.371 48.4023C233.035 48.1914 233.777 48.0859 234.598 48.0859C235.582 48.0859 236.457 48.25 237.223 48.5781C237.988 48.9062 238.59 49.3984 239.027 50.0547C239.473 50.7109 239.695 51.5312 239.695 52.5156V57.9414C239.695 58.6367 239.738 59.207 239.824 59.6523C239.91 60.0898 240.035 60.4727 240.199 60.8008V61H236.789C236.625 60.6562 236.5 60.2266 236.414 59.7109C236.336 59.1875 236.297 58.6641 236.297 58.1406ZM236.742 53.2773L236.766 55.1875H234.879C234.434 55.1875 234.047 55.2383 233.719 55.3398C233.391 55.4414 233.121 55.5859 232.91 55.7734C232.699 55.9531 232.543 56.1641 232.441 56.4062C232.348 56.6484 232.301 56.9141 232.301 57.2031C232.301 57.4922 232.367 57.7539 232.5 57.9883C232.633 58.2148 232.824 58.3945 233.074 58.5273C233.324 58.6523 233.617 58.7148 233.953 58.7148C234.461 58.7148 234.902 58.6133 235.277 58.4102C235.652 58.207 235.941 57.957 236.145 57.6602C236.355 57.3633 236.465 57.082 236.473 56.8164L237.363 58.2461C237.238 58.5664 237.066 58.8984 236.848 59.2422C236.637 59.5859 236.367 59.9102 236.039 60.2148C235.711 60.5117 235.316 60.7578 234.855 60.9531C234.395 61.1406 233.848 61.2344 233.215 61.2344C232.41 61.2344 231.68 61.0742 231.023 60.7539C230.375 60.4258 229.859 59.9766 229.477 59.4062C229.102 58.8281 228.914 58.1719 228.914 57.4375C228.914 56.7734 229.039 56.1836 229.289 55.668C229.539 55.1523 229.906 54.7188 230.391 54.3672C230.883 54.0078 231.496 53.7383 232.23 53.5586C232.965 53.3711 233.816 53.2773 234.785 53.2773H236.742ZM248.508 48.3203V50.7109H241.125V48.3203H248.508ZM242.953 45.1914H246.328V57.1797C246.328 57.5469 246.375 57.8281 246.469 58.0234C246.57 58.2188 246.719 58.3555 246.914 58.4336C247.109 58.5039 247.355 58.5391 247.652 58.5391C247.863 58.5391 248.051 58.5312 248.215 58.5156C248.387 58.4922 248.531 58.4688 248.648 58.4453L248.66 60.9297C248.371 61.0234 248.059 61.0977 247.723 61.1523C247.387 61.207 247.016 61.2344 246.609 61.2344C245.867 61.2344 245.219 61.1133 244.664 60.8711C244.117 60.6211 243.695 60.2227 243.398 59.6758C243.102 59.1289 242.953 58.4102 242.953 57.5195V45.1914ZM253.992 48.3203V61H250.605V48.3203H253.992ZM250.395 45.0156C250.395 44.5234 250.566 44.1172 250.91 43.7969C251.254 43.4766 251.715 43.3164 252.293 43.3164C252.863 43.3164 253.32 43.4766 253.664 43.7969C254.016 44.1172 254.191 44.5234 254.191 45.0156C254.191 45.5078 254.016 45.9141 253.664 46.2344C253.32 46.5547 252.863 46.7148 252.293 46.7148C251.715 46.7148 251.254 46.5547 250.91 46.2344C250.566 45.9141 250.395 45.5078 250.395 45.0156ZM256.242 54.7891V54.543C256.242 53.6133 256.375 52.7578 256.641 51.9766C256.906 51.1875 257.293 50.5039 257.801 49.9258C258.309 49.3477 258.934 48.8984 259.676 48.5781C260.418 48.25 261.27 48.0859 262.23 48.0859C263.191 48.0859 264.047 48.25 264.797 48.5781C265.547 48.8984 266.176 49.3477 266.684 49.9258C267.199 50.5039 267.59 51.1875 267.855 51.9766C268.121 52.7578 268.254 53.6133 268.254 54.543V54.7891C268.254 55.7109 268.121 56.5664 267.855 57.3555C267.59 58.1367 267.199 58.8203 266.684 59.4062C266.176 59.9844 265.551 60.4336 264.809 60.7539C264.066 61.0742 263.215 61.2344 262.254 61.2344C261.293 61.2344 260.438 61.0742 259.688 60.7539C258.945 60.4336 258.316 59.9844 257.801 59.4062C257.293 58.8203 256.906 58.1367 256.641 57.3555C256.375 56.5664 256.242 55.7109 256.242 54.7891ZM259.617 54.543V54.7891C259.617 55.3203 259.664 55.8164 259.758 56.2773C259.852 56.7383 260 57.1445 260.203 57.4961C260.414 57.8398 260.688 58.1094 261.023 58.3047C261.359 58.5 261.77 58.5977 262.254 58.5977C262.723 58.5977 263.125 58.5 263.461 58.3047C263.797 58.1094 264.066 57.8398 264.27 57.4961C264.473 57.1445 264.621 56.7383 264.715 56.2773C264.816 55.8164 264.867 55.3203 264.867 54.7891V54.543C264.867 54.0273 264.816 53.543 264.715 53.0898C264.621 52.6289 264.469 52.2227 264.258 51.8711C264.055 51.5117 263.785 51.2305 263.449 51.0273C263.113 50.8242 262.707 50.7227 262.23 50.7227C261.754 50.7227 261.348 50.8242 261.012 51.0273C260.684 51.2305 260.414 51.5117 260.203 51.8711C260 52.2227 259.852 52.6289 259.758 53.0898C259.664 53.543 259.617 54.0273 259.617 54.543ZM273.633 51.0273V61H270.258V48.3203H273.422L273.633 51.0273ZM273.141 54.2148H272.227C272.227 53.2773 272.348 52.4336 272.59 51.6836C272.832 50.9258 273.172 50.2812 273.609 49.75C274.047 49.2109 274.566 48.8008 275.168 48.5195C275.777 48.2305 276.457 48.0859 277.207 48.0859C277.801 48.0859 278.344 48.1719 278.836 48.3438C279.328 48.5156 279.75 48.7891 280.102 49.1641C280.461 49.5391 280.734 50.0352 280.922 50.6523C281.117 51.2695 281.215 52.0234 281.215 52.9141V61H277.816V52.9023C277.816 52.3398 277.738 51.9023 277.582 51.5898C277.426 51.2773 277.195 51.0586 276.891 50.9336C276.594 50.8008 276.227 50.7344 275.789 50.7344C275.336 50.7344 274.941 50.8242 274.605 51.0039C274.277 51.1836 274.004 51.4336 273.785 51.7539C273.574 52.0664 273.414 52.4336 273.305 52.8555C273.195 53.2773 273.141 53.7305 273.141 54.2148Z" fill="#888888"/>
<path d="M113.18 109.93C113.18 109.398 113.102 108.922 112.945 108.5C112.789 108.062 112.5 107.656 112.078 107.281C111.656 106.906 111.047 106.531 110.25 106.156C109.469 105.766 108.438 105.359 107.156 104.938C105.656 104.438 104.211 103.875 102.82 103.25C101.43 102.609 100.188 101.867 99.0938 101.023C98 100.164 97.1328 99.1641 96.4922 98.0234C95.8516 96.8672 95.5312 95.5234 95.5312 93.9922C95.5312 92.5234 95.8594 91.2031 96.5156 90.0312C97.1719 88.8438 98.0859 87.8359 99.2578 87.0078C100.445 86.1641 101.836 85.5234 103.43 85.0859C105.023 84.6328 106.766 84.4062 108.656 84.4062C111.156 84.4062 113.359 84.8438 115.266 85.7188C117.188 86.5781 118.688 87.8047 119.766 89.3984C120.859 90.9766 121.406 92.8438 121.406 95H113.227C113.227 94.1406 113.047 93.3828 112.688 92.7266C112.344 92.0703 111.82 91.5547 111.117 91.1797C110.414 90.8047 109.531 90.6172 108.469 90.6172C107.438 90.6172 106.57 90.7734 105.867 91.0859C105.164 91.3984 104.633 91.8203 104.273 92.3516C103.914 92.8672 103.734 93.4375 103.734 94.0625C103.734 94.5781 103.875 95.0469 104.156 95.4688C104.453 95.875 104.867 96.2578 105.398 96.6172C105.945 96.9766 106.602 97.3203 107.367 97.6484C108.148 97.9766 109.023 98.2969 109.992 98.6094C111.805 99.1875 113.414 99.8359 114.82 100.555C116.242 101.258 117.438 102.062 118.406 102.969C119.391 103.859 120.133 104.875 120.633 106.016C121.148 107.156 121.406 108.445 121.406 109.883C121.406 111.414 121.109 112.773 120.516 113.961C119.922 115.148 119.07 116.156 117.961 116.984C116.852 117.797 115.523 118.414 113.977 118.836C112.43 119.258 110.703 119.469 108.797 119.469C107.047 119.469 105.32 119.25 103.617 118.812C101.93 118.359 100.398 117.672 99.0234 116.75C97.6484 115.812 96.5469 114.617 95.7188 113.164C94.9062 111.695 94.5 109.953 94.5 107.938H102.75C102.75 108.938 102.883 109.781 103.148 110.469C103.414 111.156 103.805 111.711 104.32 112.133C104.836 112.539 105.469 112.836 106.219 113.023C106.969 113.195 107.828 113.281 108.797 113.281C109.844 113.281 110.688 113.133 111.328 112.836C111.969 112.523 112.438 112.117 112.734 111.617C113.031 111.102 113.18 110.539 113.18 109.93ZM137.555 119.469C135.492 119.469 133.648 119.148 132.023 118.508C130.398 117.852 129.023 116.953 127.898 115.812C126.789 114.672 125.938 113.359 125.344 111.875C124.766 110.391 124.477 108.82 124.477 107.164V106.273C124.477 104.414 124.734 102.695 125.25 101.117C125.766 99.5234 126.531 98.1328 127.547 96.9453C128.562 95.7578 129.836 94.8359 131.367 94.1797C132.898 93.5078 134.68 93.1719 136.711 93.1719C138.508 93.1719 140.117 93.4609 141.539 94.0391C142.961 94.6172 144.164 95.4453 145.148 96.5234C146.148 97.6016 146.906 98.9062 147.422 100.438C147.953 101.969 148.219 103.688 148.219 105.594V108.805H127.5V103.859H140.508V103.25C140.523 102.406 140.375 101.688 140.062 101.094C139.766 100.5 139.328 100.047 138.75 99.7344C138.172 99.4219 137.469 99.2656 136.641 99.2656C135.781 99.2656 135.07 99.4531 134.508 99.8281C133.961 100.203 133.531 100.719 133.219 101.375C132.922 102.016 132.711 102.758 132.586 103.602C132.461 104.445 132.398 105.336 132.398 106.273V107.164C132.398 108.102 132.523 108.953 132.773 109.719C133.039 110.484 133.414 111.141 133.898 111.688C134.398 112.219 134.992 112.633 135.68 112.93C136.383 113.227 137.18 113.375 138.07 113.375C139.148 113.375 140.211 113.172 141.258 112.766C142.305 112.359 143.203 111.688 143.953 110.75L147.539 115.016C147.023 115.75 146.289 116.461 145.336 117.148C144.398 117.836 143.273 118.398 141.961 118.836C140.648 119.258 139.18 119.469 137.555 119.469ZM164.602 112.625V102.172C164.602 101.453 164.5 100.836 164.297 100.32C164.094 99.8047 163.773 99.4062 163.336 99.125C162.898 98.8281 162.312 98.6797 161.578 98.6797C160.984 98.6797 160.477 98.7812 160.055 98.9844C159.633 99.1875 159.312 99.4922 159.094 99.8984C158.875 100.305 158.766 100.82 158.766 101.445H150.867C150.867 100.273 151.125 99.1875 151.641 98.1875C152.172 97.1719 152.922 96.2891 153.891 95.5391C154.875 94.7891 156.047 94.2109 157.406 93.8047C158.781 93.3828 160.312 93.1719 162 93.1719C164.016 93.1719 165.812 93.5078 167.391 94.1797C168.984 94.8516 170.242 95.8594 171.164 97.2031C172.086 98.5312 172.547 100.203 172.547 102.219V112.602C172.547 114.258 172.641 115.516 172.828 116.375C173.016 117.219 173.281 117.961 173.625 118.602V119H165.703C165.328 118.219 165.047 117.266 164.859 116.141C164.688 115 164.602 113.828 164.602 112.625ZM165.562 103.508L165.609 107.727H162.117C161.383 107.727 160.758 107.828 160.242 108.031C159.742 108.234 159.336 108.516 159.023 108.875C158.727 109.219 158.508 109.609 158.367 110.047C158.242 110.484 158.18 110.945 158.18 111.43C158.18 111.898 158.289 112.32 158.508 112.695C158.742 113.055 159.055 113.336 159.445 113.539C159.836 113.742 160.273 113.844 160.758 113.844C161.633 113.844 162.375 113.68 162.984 113.352C163.609 113.008 164.086 112.594 164.414 112.109C164.742 111.625 164.906 111.172 164.906 110.75L166.641 113.984C166.328 114.609 165.969 115.242 165.562 115.883C165.172 116.523 164.68 117.117 164.086 117.664C163.508 118.195 162.797 118.633 161.953 118.977C161.109 119.305 160.086 119.469 158.883 119.469C157.32 119.469 155.883 119.148 154.57 118.508C153.273 117.867 152.234 116.977 151.453 115.836C150.672 114.68 150.281 113.352 150.281 111.852C150.281 110.539 150.516 109.367 150.984 108.336C151.469 107.305 152.195 106.43 153.164 105.711C154.133 104.992 155.367 104.445 156.867 104.07C158.367 103.695 160.133 103.508 162.164 103.508H165.562ZM184.898 99.0078V119H177V93.6406H184.406L184.898 99.0078ZM183.938 105.453L182.133 105.5C182.133 103.719 182.344 102.078 182.766 100.578C183.188 99.0781 183.812 97.7734 184.641 96.6641C185.469 95.5547 186.484 94.6953 187.688 94.0859C188.906 93.4766 190.312 93.1719 191.906 93.1719C193.016 93.1719 194.023 93.3438 194.93 93.6875C195.836 94.0156 196.617 94.5391 197.273 95.2578C197.93 95.9609 198.43 96.8828 198.773 98.0234C199.133 99.1484 199.312 100.5 199.312 102.078V119H191.414V103.086C191.414 102.008 191.289 101.195 191.039 100.648C190.805 100.102 190.461 99.7344 190.008 99.5469C189.555 99.3594 189 99.2656 188.344 99.2656C187.656 99.2656 187.039 99.4219 186.492 99.7344C185.945 100.047 185.477 100.484 185.086 101.047C184.711 101.594 184.422 102.242 184.219 102.992C184.031 103.742 183.938 104.562 183.938 105.453ZM198.422 105.453L196.219 105.5C196.219 103.719 196.414 102.078 196.805 100.578C197.211 99.0781 197.812 97.7734 198.609 96.6641C199.422 95.5547 200.43 94.6953 201.633 94.0859C202.836 93.4766 204.234 93.1719 205.828 93.1719C206.984 93.1719 208.047 93.3438 209.016 93.6875C209.984 94.0312 210.82 94.5859 211.523 95.3516C212.227 96.1172 212.773 97.1328 213.164 98.3984C213.555 99.6484 213.75 101.195 213.75 103.039V119H205.828V103.039C205.828 101.992 205.703 101.203 205.453 100.672C205.219 100.125 204.875 99.7578 204.422 99.5703C203.969 99.3672 203.43 99.2656 202.805 99.2656C202.055 99.2656 201.406 99.4219 200.859 99.7344C200.312 100.047 199.852 100.484 199.477 101.047C199.117 101.594 198.852 102.242 198.68 102.992C198.508 103.742 198.422 104.562 198.422 105.453ZM226.617 83V119H218.695V83H226.617ZM243.773 119.469C241.711 119.469 239.867 119.148 238.242 118.508C236.617 117.852 235.242 116.953 234.117 115.812C233.008 114.672 232.156 113.359 231.562 111.875C230.984 110.391 230.695 108.82 230.695 107.164V106.273C230.695 104.414 230.953 102.695 231.469 101.117C231.984 99.5234 232.75 98.1328 233.766 96.9453C234.781 95.7578 236.055 94.8359 237.586 94.1797C239.117 93.5078 240.898 93.1719 242.93 93.1719C244.727 93.1719 246.336 93.4609 247.758 94.0391C249.18 94.6172 250.383 95.4453 251.367 96.5234C252.367 97.6016 253.125 98.9062 253.641 100.438C254.172 101.969 254.438 103.688 254.438 105.594V108.805H233.719V103.859H246.727V103.25C246.742 102.406 246.594 101.688 246.281 101.094C245.984 100.5 245.547 100.047 244.969 99.7344C244.391 99.4219 243.688 99.2656 242.859 99.2656C242 99.2656 241.289 99.4531 240.727 99.8281C240.18 100.203 239.75 100.719 239.438 101.375C239.141 102.016 238.93 102.758 238.805 103.602C238.68 104.445 238.617 105.336 238.617 106.273V107.164C238.617 108.102 238.742 108.953 238.992 109.719C239.258 110.484 239.633 111.141 240.117 111.688C240.617 112.219 241.211 112.633 241.898 112.93C242.602 113.227 243.398 113.375 244.289 113.375C245.367 113.375 246.43 113.172 247.477 112.766C248.523 112.359 249.422 111.688 250.172 110.75L253.758 115.016C253.242 115.75 252.508 116.461 251.555 117.148C250.617 117.836 249.492 118.398 248.18 118.836C246.867 119.258 245.398 119.469 243.773 119.469ZM270.938 111.875C270.938 111.438 270.789 111.062 270.492 110.75C270.211 110.422 269.711 110.125 268.992 109.859C268.273 109.578 267.266 109.297 265.969 109.016C264.734 108.75 263.57 108.398 262.477 107.961C261.398 107.523 260.453 106.992 259.641 106.367C258.828 105.742 258.188 105 257.719 104.141C257.266 103.281 257.039 102.297 257.039 101.188C257.039 100.109 257.266 99.0938 257.719 98.1406C258.188 97.1719 258.867 96.3203 259.758 95.5859C260.664 94.8359 261.766 94.25 263.062 93.8281C264.359 93.3906 265.836 93.1719 267.492 93.1719C269.773 93.1719 271.742 93.5234 273.398 94.2266C275.055 94.9141 276.328 95.8828 277.219 97.1328C278.125 98.3672 278.578 99.7969 278.578 101.422H270.68C270.68 100.781 270.57 100.234 270.352 99.7812C270.148 99.3281 269.812 98.9844 269.344 98.75C268.875 98.5 268.25 98.375 267.469 98.375C266.922 98.375 266.422 98.4766 265.969 98.6797C265.531 98.8828 265.18 99.1641 264.914 99.5234C264.648 99.8828 264.516 100.305 264.516 100.789C264.516 101.133 264.594 101.445 264.75 101.727C264.922 101.992 265.18 102.242 265.523 102.477C265.867 102.695 266.305 102.898 266.836 103.086C267.367 103.258 268.008 103.414 268.758 103.555C270.461 103.867 272.055 104.312 273.539 104.891C275.023 105.469 276.227 106.289 277.148 107.352C278.086 108.414 278.555 109.844 278.555 111.641C278.555 112.766 278.297 113.805 277.781 114.758C277.266 115.695 276.523 116.523 275.555 117.242C274.586 117.945 273.422 118.492 272.062 118.883C270.703 119.273 269.172 119.469 267.469 119.469C265.047 119.469 263 119.039 261.328 118.18C259.656 117.305 258.391 116.211 257.531 114.898C256.688 113.57 256.266 112.227 256.266 110.867H263.625C263.656 111.648 263.844 112.289 264.188 112.789C264.547 113.289 265.023 113.656 265.617 113.891C266.211 114.125 266.898 114.242 267.68 114.242C268.398 114.242 268.992 114.141 269.461 113.938C269.945 113.734 270.312 113.461 270.562 113.117C270.812 112.758 270.938 112.344 270.938 111.875ZM295.547 111.875C295.547 111.438 295.398 111.062 295.102 110.75C294.82 110.422 294.32 110.125 293.602 109.859C292.883 109.578 291.875 109.297 290.578 109.016C289.344 108.75 288.18 108.398 287.086 107.961C286.008 107.523 285.062 106.992 284.25 106.367C283.438 105.742 282.797 105 282.328 104.141C281.875 103.281 281.648 102.297 281.648 101.188C281.648 100.109 281.875 99.0938 282.328 98.1406C282.797 97.1719 283.477 96.3203 284.367 95.5859C285.273 94.8359 286.375 94.25 287.672 93.8281C288.969 93.3906 290.445 93.1719 292.102 93.1719C294.383 93.1719 296.352 93.5234 298.008 94.2266C299.664 94.9141 300.938 95.8828 301.828 97.1328C302.734 98.3672 303.188 99.7969 303.188 101.422H295.289C295.289 100.781 295.18 100.234 294.961 99.7812C294.758 99.3281 294.422 98.9844 293.953 98.75C293.484 98.5 292.859 98.375 292.078 98.375C291.531 98.375 291.031 98.4766 290.578 98.6797C290.141 98.8828 289.789 99.1641 289.523 99.5234C289.258 99.8828 289.125 100.305 289.125 100.789C289.125 101.133 289.203 101.445 289.359 101.727C289.531 101.992 289.789 102.242 290.133 102.477C290.477 102.695 290.914 102.898 291.445 103.086C291.977 103.258 292.617 103.414 293.367 103.555C295.07 103.867 296.664 104.312 298.148 104.891C299.633 105.469 300.836 106.289 301.758 107.352C302.695 108.414 303.164 109.844 303.164 111.641C303.164 112.766 302.906 113.805 302.391 114.758C301.875 115.695 301.133 116.523 300.164 117.242C299.195 117.945 298.031 118.492 296.672 118.883C295.312 119.273 293.781 119.469 292.078 119.469C289.656 119.469 287.609 119.039 285.938 118.18C284.266 117.305 283 116.211 282.141 114.898C281.297 113.57 280.875 112.227 280.875 110.867H288.234C288.266 111.648 288.453 112.289 288.797 112.789C289.156 113.289 289.633 113.656 290.227 113.891C290.82 114.125 291.508 114.242 292.289 114.242C293.008 114.242 293.602 114.141 294.07 113.938C294.555 113.734 294.922 113.461 295.172 113.117C295.422 112.758 295.547 112.344 295.547 111.875ZM326.578 99.0547V119H318.68V93.6406H326.086L326.578 99.0547ZM325.641 105.453L323.789 105.5C323.789 103.562 324.023 101.836 324.492 100.32C324.961 98.7891 325.625 97.4922 326.484 96.4297C327.344 95.3672 328.367 94.5625 329.555 94.0156C330.758 93.4531 332.094 93.1719 333.562 93.1719C334.734 93.1719 335.805 93.3438 336.773 93.6875C337.758 94.0312 338.602 94.5859 339.305 95.3516C340.023 96.1172 340.57 97.1328 340.945 98.3984C341.336 99.6484 341.531 101.195 341.531 103.039V119H333.586V103.016C333.586 102 333.445 101.227 333.164 100.695C332.883 100.148 332.477 99.7734 331.945 99.5703C331.414 99.3672 330.766 99.2656 330 99.2656C329.188 99.2656 328.5 99.4219 327.938 99.7344C327.375 100.047 326.922 100.484 326.578 101.047C326.25 101.594 326.008 102.242 325.852 102.992C325.711 103.742 325.641 104.562 325.641 105.453ZM359.086 112.625V102.172C359.086 101.453 358.984 100.836 358.781 100.32C358.578 99.8047 358.258 99.4062 357.82 99.125C357.383 98.8281 356.797 98.6797 356.062 98.6797C355.469 98.6797 354.961 98.7812 354.539 98.9844C354.117 99.1875 353.797 99.4922 353.578 99.8984C353.359 100.305 353.25 100.82 353.25 101.445H345.352C345.352 100.273 345.609 99.1875 346.125 98.1875C346.656 97.1719 347.406 96.2891 348.375 95.5391C349.359 94.7891 350.531 94.2109 351.891 93.8047C353.266 93.3828 354.797 93.1719 356.484 93.1719C358.5 93.1719 360.297 93.5078 361.875 94.1797C363.469 94.8516 364.727 95.8594 365.648 97.2031C366.57 98.5312 367.031 100.203 367.031 102.219V112.602C367.031 114.258 367.125 115.516 367.312 116.375C367.5 117.219 367.766 117.961 368.109 118.602V119H360.188C359.812 118.219 359.531 117.266 359.344 116.141C359.172 115 359.086 113.828 359.086 112.625ZM360.047 103.508L360.094 107.727H356.602C355.867 107.727 355.242 107.828 354.727 108.031C354.227 108.234 353.82 108.516 353.508 108.875C353.211 109.219 352.992 109.609 352.852 110.047C352.727 110.484 352.664 110.945 352.664 111.43C352.664 111.898 352.773 112.32 352.992 112.695C353.227 113.055 353.539 113.336 353.93 113.539C354.32 113.742 354.758 113.844 355.242 113.844C356.117 113.844 356.859 113.68 357.469 113.352C358.094 113.008 358.57 112.594 358.898 112.109C359.227 111.625 359.391 111.172 359.391 110.75L361.125 113.984C360.812 114.609 360.453 115.242 360.047 115.883C359.656 116.523 359.164 117.117 358.57 117.664C357.992 118.195 357.281 118.633 356.438 118.977C355.594 119.305 354.57 119.469 353.367 119.469C351.805 119.469 350.367 119.148 349.055 118.508C347.758 117.867 346.719 116.977 345.938 115.836C345.156 114.68 344.766 113.352 344.766 111.852C344.766 110.539 345 109.367 345.469 108.336C345.953 107.305 346.68 106.43 347.648 105.711C348.617 104.992 349.852 104.445 351.352 104.07C352.852 103.695 354.617 103.508 356.648 103.508H360.047ZM380.18 113.586L385.172 93.6406H393.492L385.195 119H380.273L380.18 113.586ZM377.227 93.6406L382.148 113.586L382.102 119H377.156L368.883 93.6406H377.227ZM404.18 93.6406V119H396.258V93.6406H404.18ZM395.789 87.1016C395.789 85.9766 396.195 85.0547 397.008 84.3359C397.82 83.6172 398.875 83.2578 400.172 83.2578C401.469 83.2578 402.523 83.6172 403.336 84.3359C404.148 85.0547 404.555 85.9766 404.555 87.1016C404.555 88.2266 404.148 89.1484 403.336 89.8672C402.523 90.5859 401.469 90.9453 400.172 90.9453C398.875 90.9453 397.82 90.5859 397.008 89.8672C396.195 89.1484 395.789 88.2266 395.789 87.1016ZM424.992 93.6406H432.164V118.016C432.164 120.359 431.625 122.344 430.547 123.969C429.469 125.609 427.961 126.852 426.023 127.695C424.102 128.555 421.852 128.984 419.273 128.984C418.133 128.984 416.969 128.836 415.781 128.539C414.594 128.258 413.484 127.836 412.453 127.273C411.422 126.711 410.555 126.016 409.852 125.188L413.156 120.547C413.797 121.266 414.602 121.875 415.57 122.375C416.539 122.891 417.68 123.148 418.992 123.148C420.133 123.148 421.086 122.945 421.852 122.539C422.633 122.133 423.227 121.539 423.633 120.758C424.039 119.992 424.242 119.062 424.242 117.969V99.6406L424.992 93.6406ZM408.141 106.625V106.133C408.141 104.211 408.375 102.461 408.844 100.883C409.328 99.2891 410.016 97.9219 410.906 96.7812C411.812 95.625 412.906 94.7344 414.188 94.1094C415.469 93.4844 416.914 93.1719 418.523 93.1719C420.258 93.1719 421.68 93.5078 422.789 94.1797C423.914 94.8359 424.812 95.7578 425.484 96.9453C426.172 98.1328 426.703 99.5234 427.078 101.117C427.469 102.695 427.797 104.398 428.062 106.227V106.812C427.797 108.531 427.43 110.156 426.961 111.688C426.508 113.203 425.914 114.547 425.18 115.719C424.445 116.891 423.523 117.812 422.414 118.484C421.32 119.141 420.008 119.469 418.477 119.469C416.883 119.469 415.445 119.148 414.164 118.508C412.898 117.867 411.812 116.969 410.906 115.812C410.016 114.656 409.328 113.297 408.844 111.734C408.375 110.172 408.141 108.469 408.141 106.625ZM416.039 106.133V106.625C416.039 107.578 416.125 108.461 416.297 109.273C416.484 110.086 416.766 110.805 417.141 111.43C417.516 112.039 417.977 112.516 418.523 112.859C419.086 113.203 419.742 113.375 420.492 113.375C421.633 113.375 422.555 113.133 423.258 112.648C423.961 112.164 424.469 111.477 424.781 110.586C425.094 109.695 425.227 108.648 425.18 107.445V105.594C425.211 104.562 425.141 103.656 424.969 102.875C424.797 102.078 424.523 101.414 424.148 100.883C423.789 100.352 423.305 99.9531 422.695 99.6875C422.102 99.4062 421.383 99.2656 420.539 99.2656C419.805 99.2656 419.156 99.4375 418.594 99.7812C418.031 100.125 417.562 100.609 417.188 101.234C416.812 101.844 416.523 102.57 416.32 103.414C416.133 104.242 416.039 105.148 416.039 106.133ZM449.883 112.625V102.172C449.883 101.453 449.781 100.836 449.578 100.32C449.375 99.8047 449.055 99.4062 448.617 99.125C448.18 98.8281 447.594 98.6797 446.859 98.6797C446.266 98.6797 445.758 98.7812 445.336 98.9844C444.914 99.1875 444.594 99.4922 444.375 99.8984C444.156 100.305 444.047 100.82 444.047 101.445H436.148C436.148 100.273 436.406 99.1875 436.922 98.1875C437.453 97.1719 438.203 96.2891 439.172 95.5391C440.156 94.7891 441.328 94.2109 442.688 93.8047C444.062 93.3828 445.594 93.1719 447.281 93.1719C449.297 93.1719 451.094 93.5078 452.672 94.1797C454.266 94.8516 455.523 95.8594 456.445 97.2031C457.367 98.5312 457.828 100.203 457.828 102.219V112.602C457.828 114.258 457.922 115.516 458.109 116.375C458.297 117.219 458.562 117.961 458.906 118.602V119H450.984C450.609 118.219 450.328 117.266 450.141 116.141C449.969 115 449.883 113.828 449.883 112.625ZM450.844 103.508L450.891 107.727H447.398C446.664 107.727 446.039 107.828 445.523 108.031C445.023 108.234 444.617 108.516 444.305 108.875C444.008 109.219 443.789 109.609 443.648 110.047C443.523 110.484 443.461 110.945 443.461 111.43C443.461 111.898 443.57 112.32 443.789 112.695C444.023 113.055 444.336 113.336 444.727 113.539C445.117 113.742 445.555 113.844 446.039 113.844C446.914 113.844 447.656 113.68 448.266 113.352C448.891 113.008 449.367 112.594 449.695 112.109C450.023 111.625 450.188 111.172 450.188 110.75L451.922 113.984C451.609 114.609 451.25 115.242 450.844 115.883C450.453 116.523 449.961 117.117 449.367 117.664C448.789 118.195 448.078 118.633 447.234 118.977C446.391 119.305 445.367 119.469 444.164 119.469C442.602 119.469 441.164 119.148 439.852 118.508C438.555 117.867 437.516 116.977 436.734 115.836C435.953 114.68 435.562 113.352 435.562 111.852C435.562 110.539 435.797 109.367 436.266 108.336C436.75 107.305 437.477 106.43 438.445 105.711C439.414 104.992 440.648 104.445 442.148 104.07C443.648 103.695 445.414 103.508 447.445 103.508H450.844ZM475.57 93.6406V99.125H460.289V93.6406H475.57ZM463.5 87.3359H471.398V110.727C471.398 111.398 471.477 111.922 471.633 112.297C471.789 112.656 472.055 112.914 472.43 113.07C472.82 113.211 473.336 113.281 473.977 113.281C474.43 113.281 474.805 113.273 475.102 113.258C475.398 113.227 475.68 113.188 475.945 113.141V118.789C475.273 119.008 474.57 119.172 473.836 119.281C473.102 119.406 472.32 119.469 471.492 119.469C469.805 119.469 468.359 119.203 467.156 118.672C465.969 118.141 465.062 117.305 464.438 116.164C463.812 115.023 463.5 113.539 463.5 111.711V87.3359ZM487.055 93.6406V119H479.133V93.6406H487.055ZM478.664 87.1016C478.664 85.9766 479.07 85.0547 479.883 84.3359C480.695 83.6172 481.75 83.2578 483.047 83.2578C484.344 83.2578 485.398 83.6172 486.211 84.3359C487.023 85.0547 487.43 85.9766 487.43 87.1016C487.43 88.2266 487.023 89.1484 486.211 89.8672C485.398 90.5859 484.344 90.9453 483.047 90.9453C481.75 90.9453 480.695 90.5859 479.883 89.8672C479.07 89.1484 478.664 88.2266 478.664 87.1016ZM490.945 106.578V106.086C490.945 104.227 491.211 102.516 491.742 100.953C492.273 99.375 493.055 98.0078 494.086 96.8516C495.117 95.6953 496.391 94.7969 497.906 94.1562C499.422 93.5 501.172 93.1719 503.156 93.1719C505.156 93.1719 506.914 93.5 508.43 94.1562C509.961 94.7969 511.242 95.6953 512.273 96.8516C513.305 98.0078 514.086 99.375 514.617 100.953C515.148 102.516 515.414 104.227 515.414 106.086V106.578C515.414 108.422 515.148 110.133 514.617 111.711C514.086 113.273 513.305 114.641 512.273 115.812C511.242 116.969 509.969 117.867 508.453 118.508C506.938 119.148 505.188 119.469 503.203 119.469C501.219 119.469 499.461 119.148 497.93 118.508C496.398 117.867 495.117 116.969 494.086 115.812C493.055 114.641 492.273 113.273 491.742 111.711C491.211 110.133 490.945 108.422 490.945 106.578ZM498.844 106.086V106.578C498.844 107.531 498.914 108.422 499.055 109.25C499.195 110.078 499.43 110.805 499.758 111.43C500.086 112.039 500.531 112.516 501.094 112.859C501.656 113.203 502.359 113.375 503.203 113.375C504.031 113.375 504.719 113.203 505.266 112.859C505.828 112.516 506.273 112.039 506.602 111.43C506.93 110.805 507.164 110.078 507.305 109.25C507.445 108.422 507.516 107.531 507.516 106.578V106.086C507.516 105.164 507.445 104.297 507.305 103.484C507.164 102.656 506.93 101.93 506.602 101.305C506.273 100.664 505.828 100.164 505.266 99.8047C504.703 99.4453 504 99.2656 503.156 99.2656C502.328 99.2656 501.633 99.4453 501.07 99.8047C500.523 100.164 500.086 100.664 499.758 101.305C499.43 101.93 499.195 102.656 499.055 103.484C498.914 104.297 498.844 105.164 498.844 106.086ZM526.688 99.0547V119H518.789V93.6406H526.195L526.688 99.0547ZM525.75 105.453L523.898 105.5C523.898 103.562 524.133 101.836 524.602 100.32C525.07 98.7891 525.734 97.4922 526.594 96.4297C527.453 95.3672 528.477 94.5625 529.664 94.0156C530.867 93.4531 532.203 93.1719 533.672 93.1719C534.844 93.1719 535.914 93.3438 536.883 93.6875C537.867 94.0312 538.711 94.5859 539.414 95.3516C540.133 96.1172 540.68 97.1328 541.055 98.3984C541.445 99.6484 541.641 101.195 541.641 103.039V119H533.695V103.016C533.695 102 533.555 101.227 533.273 100.695C532.992 100.148 532.586 99.7734 532.055 99.5703C531.523 99.3672 530.875 99.2656 530.109 99.2656C529.297 99.2656 528.609 99.4219 528.047 99.7344C527.484 100.047 527.031 100.484 526.688 101.047C526.359 101.594 526.117 102.242 525.961 102.992C525.82 103.742 525.75 104.562 525.75 105.453ZM558.047 83H565.945V112.766L565.125 119H558.047V83ZM581.508 106.039V106.531C581.508 108.453 581.312 110.203 580.922 111.781C580.531 113.359 579.93 114.727 579.117 115.883C578.305 117.023 577.281 117.906 576.047 118.531C574.812 119.156 573.352 119.469 571.664 119.469C570.133 119.469 568.82 119.141 567.727 118.484C566.633 117.812 565.719 116.891 564.984 115.719C564.25 114.531 563.656 113.164 563.203 111.617C562.75 110.055 562.391 108.383 562.125 106.602V106.016C562.391 104.25 562.75 102.594 563.203 101.047C563.656 99.4844 564.25 98.1172 564.984 96.9453C565.719 95.7578 566.625 94.8359 567.703 94.1797C568.797 93.5078 570.102 93.1719 571.617 93.1719C573.32 93.1719 574.789 93.4922 576.023 94.1328C577.273 94.7734 578.305 95.6719 579.117 96.8281C579.93 97.9844 580.531 99.3438 580.922 100.906C581.312 102.469 581.508 104.18 581.508 106.039ZM573.609 106.531V106.039C573.609 105.117 573.555 104.25 573.445 103.438C573.336 102.625 573.141 101.906 572.859 101.281C572.578 100.656 572.18 100.164 571.664 99.8047C571.148 99.4453 570.477 99.2656 569.648 99.2656C568.805 99.2656 568.094 99.4062 567.516 99.6875C566.953 99.9688 566.5 100.375 566.156 100.906C565.828 101.422 565.594 102.062 565.453 102.828C565.312 103.578 565.25 104.43 565.266 105.383V107.234C565.234 108.531 565.352 109.641 565.617 110.562C565.883 111.484 566.344 112.188 567 112.672C567.656 113.156 568.555 113.398 569.695 113.398C570.539 113.398 571.219 113.234 571.734 112.906C572.266 112.578 572.664 112.109 572.93 111.5C573.195 110.891 573.375 110.164 573.469 109.32C573.562 108.477 573.609 107.547 573.609 106.531ZM597.305 119.469C595.242 119.469 593.398 119.148 591.773 118.508C590.148 117.852 588.773 116.953 587.648 115.812C586.539 114.672 585.688 113.359 585.094 111.875C584.516 110.391 584.227 108.82 584.227 107.164V106.273C584.227 104.414 584.484 102.695 585 101.117C585.516 99.5234 586.281 98.1328 587.297 96.9453C588.312 95.7578 589.586 94.8359 591.117 94.1797C592.648 93.5078 594.43 93.1719 596.461 93.1719C598.258 93.1719 599.867 93.4609 601.289 94.0391C602.711 94.6172 603.914 95.4453 604.898 96.5234C605.898 97.6016 606.656 98.9062 607.172 100.438C607.703 101.969 607.969 103.688 607.969 105.594V108.805H587.25V103.859H600.258V103.25C600.273 102.406 600.125 101.688 599.812 101.094C599.516 100.5 599.078 100.047 598.5 99.7344C597.922 99.4219 597.219 99.2656 596.391 99.2656C595.531 99.2656 594.82 99.4531 594.258 99.8281C593.711 100.203 593.281 100.719 592.969 101.375C592.672 102.016 592.461 102.758 592.336 103.602C592.211 104.445 592.148 105.336 592.148 106.273V107.164C592.148 108.102 592.273 108.953 592.523 109.719C592.789 110.484 593.164 111.141 593.648 111.688C594.148 112.219 594.742 112.633 595.43 112.93C596.133 113.227 596.93 113.375 597.82 113.375C598.898 113.375 599.961 113.172 601.008 112.766C602.055 112.359 602.953 111.688 603.703 110.75L607.289 115.016C606.773 115.75 606.039 116.461 605.086 117.148C604.148 117.836 603.023 118.398 601.711 118.836C600.398 119.258 598.93 119.469 597.305 119.469ZM624.539 93.6406V99.125H609.258V93.6406H624.539ZM612.469 87.3359H620.367V110.727C620.367 111.398 620.445 111.922 620.602 112.297C620.758 112.656 621.023 112.914 621.398 113.07C621.789 113.211 622.305 113.281 622.945 113.281C623.398 113.281 623.773 113.273 624.07 113.258C624.367 113.227 624.648 113.188 624.914 113.141V118.789C624.242 119.008 623.539 119.172 622.805 119.281C622.07 119.406 621.289 119.469 620.461 119.469C618.773 119.469 617.328 119.203 616.125 118.672C614.938 118.141 614.031 117.305 613.406 116.164C612.781 115.023 612.469 113.539 612.469 111.711V87.3359ZM635.391 111.453L640.078 93.6406H645.023L643.266 102.57L638.625 119H634.664L635.391 111.453ZM633.539 93.6406L636.445 111.312L636.773 119H631.969L625.969 93.6406H633.539ZM649.195 110.938L652.125 93.6406H659.695L653.742 119H648.938L649.195 110.938ZM645.586 93.6406L650.32 111.406L651.047 119H647.039L642.492 102.617L640.805 93.6406H645.586ZM674.836 119.469C672.773 119.469 670.93 119.148 669.305 118.508C667.68 117.852 666.305 116.953 665.18 115.812C664.07 114.672 663.219 113.359 662.625 111.875C662.047 110.391 661.758 108.82 661.758 107.164V106.273C661.758 104.414 662.016 102.695 662.531 101.117C663.047 99.5234 663.812 98.1328 664.828 96.9453C665.844 95.7578 667.117 94.8359 668.648 94.1797C670.18 93.5078 671.961 93.1719 673.992 93.1719C675.789 93.1719 677.398 93.4609 678.82 94.0391C680.242 94.6172 681.445 95.4453 682.43 96.5234C683.43 97.6016 684.188 98.9062 684.703 100.438C685.234 101.969 685.5 103.688 685.5 105.594V108.805H664.781V103.859H677.789V103.25C677.805 102.406 677.656 101.688 677.344 101.094C677.047 100.5 676.609 100.047 676.031 99.7344C675.453 99.4219 674.75 99.2656 673.922 99.2656C673.062 99.2656 672.352 99.4531 671.789 99.8281C671.242 100.203 670.812 100.719 670.5 101.375C670.203 102.016 669.992 102.758 669.867 103.602C669.742 104.445 669.68 105.336 669.68 106.273V107.164C669.68 108.102 669.805 108.953 670.055 109.719C670.32 110.484 670.695 111.141 671.18 111.688C671.68 112.219 672.273 112.633 672.961 112.93C673.664 113.227 674.461 113.375 675.352 113.375C676.43 113.375 677.492 113.172 678.539 112.766C679.586 112.359 680.484 111.688 681.234 110.75L684.82 115.016C684.305 115.75 683.57 116.461 682.617 117.148C681.68 117.836 680.555 118.398 679.242 118.836C677.93 119.258 676.461 119.469 674.836 119.469ZM700.992 119.469C698.93 119.469 697.086 119.148 695.461 118.508C693.836 117.852 692.461 116.953 691.336 115.812C690.227 114.672 689.375 113.359 688.781 111.875C688.203 110.391 687.914 108.82 687.914 107.164V106.273C687.914 104.414 688.172 102.695 688.688 101.117C689.203 99.5234 689.969 98.1328 690.984 96.9453C692 95.7578 693.273 94.8359 694.805 94.1797C696.336 93.5078 698.117 93.1719 700.148 93.1719C701.945 93.1719 703.555 93.4609 704.977 94.0391C706.398 94.6172 707.602 95.4453 708.586 96.5234C709.586 97.6016 710.344 98.9062 710.859 100.438C711.391 101.969 711.656 103.688 711.656 105.594V108.805H690.938V103.859H703.945V103.25C703.961 102.406 703.812 101.688 703.5 101.094C703.203 100.5 702.766 100.047 702.188 99.7344C701.609 99.4219 700.906 99.2656 700.078 99.2656C699.219 99.2656 698.508 99.4531 697.945 99.8281C697.398 100.203 696.969 100.719 696.656 101.375C696.359 102.016 696.148 102.758 696.023 103.602C695.898 104.445 695.836 105.336 695.836 106.273V107.164C695.836 108.102 695.961 108.953 696.211 109.719C696.477 110.484 696.852 111.141 697.336 111.688C697.836 112.219 698.43 112.633 699.117 112.93C699.82 113.227 700.617 113.375 701.508 113.375C702.586 113.375 703.648 113.172 704.695 112.766C705.742 112.359 706.641 111.688 707.391 110.75L710.977 115.016C710.461 115.75 709.727 116.461 708.773 117.148C707.836 117.836 706.711 118.398 705.398 118.836C704.086 119.258 702.617 119.469 700.992 119.469ZM722.625 99.0547V119H714.727V93.6406H722.133L722.625 99.0547ZM721.688 105.453L719.836 105.5C719.836 103.562 720.07 101.836 720.539 100.32C721.008 98.7891 721.672 97.4922 722.531 96.4297C723.391 95.3672 724.414 94.5625 725.602 94.0156C726.805 93.4531 728.141 93.1719 729.609 93.1719C730.781 93.1719 731.852 93.3438 732.82 93.6875C733.805 94.0312 734.648 94.5859 735.352 95.3516C736.07 96.1172 736.617 97.1328 736.992 98.3984C737.383 99.6484 737.578 101.195 737.578 103.039V119H729.633V103.016C729.633 102 729.492 101.227 729.211 100.695C728.93 100.148 728.523 99.7734 727.992 99.5703C727.461 99.3672 726.812 99.2656 726.047 99.2656C725.234 99.2656 724.547 99.4219 723.984 99.7344C723.422 100.047 722.969 100.484 722.625 101.047C722.297 101.594 722.055 102.242 721.898 102.992C721.758 103.742 721.688 104.562 721.688 105.453ZM767.273 93.6406V99.125H751.992V93.6406H767.273ZM755.203 87.3359H763.102V110.727C763.102 111.398 763.18 111.922 763.336 112.297C763.492 112.656 763.758 112.914 764.133 113.07C764.523 113.211 765.039 113.281 765.68 113.281C766.133 113.281 766.508 113.273 766.805 113.258C767.102 113.227 767.383 113.188 767.648 113.141V118.789C766.977 119.008 766.273 119.172 765.539 119.281C764.805 119.406 764.023 119.469 763.195 119.469C761.508 119.469 760.062 119.203 758.859 118.672C757.672 118.141 756.766 117.305 756.141 116.164C755.516 115.023 755.203 113.539 755.203 111.711V87.3359ZM778.148 83V119H770.25V83H778.148ZM777.211 105.453L775.359 105.5C775.359 103.719 775.578 102.078 776.016 100.578C776.453 99.0781 777.078 97.7734 777.891 96.6641C778.703 95.5547 779.68 94.6953 780.82 94.0859C781.961 93.4766 783.227 93.1719 784.617 93.1719C785.867 93.1719 787.008 93.3516 788.039 93.7109C789.086 94.0703 789.984 94.6484 790.734 95.4453C791.5 96.2422 792.086 97.2812 792.492 98.5625C792.914 99.8438 793.125 101.406 793.125 103.25V119H785.18V103.203C785.18 102.172 785.031 101.375 784.734 100.812C784.453 100.234 784.047 99.8359 783.516 99.6172C782.984 99.3828 782.336 99.2656 781.57 99.2656C780.648 99.2656 779.898 99.4219 779.32 99.7344C778.742 100.047 778.297 100.484 777.984 101.047C777.688 101.594 777.484 102.242 777.375 102.992C777.266 103.742 777.211 104.562 777.211 105.453ZM809.789 119.469C807.727 119.469 805.883 119.148 804.258 118.508C802.633 117.852 801.258 116.953 800.133 115.812C799.023 114.672 798.172 113.359 797.578 111.875C797 110.391 796.711 108.82 796.711 107.164V106.273C796.711 104.414 796.969 102.695 797.484 101.117C798 99.5234 798.766 98.1328 799.781 96.9453C800.797 95.7578 802.07 94.8359 803.602 94.1797C805.133 93.5078 806.914 93.1719 808.945 93.1719C810.742 93.1719 812.352 93.4609 813.773 94.0391C815.195 94.6172 816.398 95.4453 817.383 96.5234C818.383 97.6016 819.141 98.9062 819.656 100.438C820.188 101.969 820.453 103.688 820.453 105.594V108.805H799.734V103.859H812.742V103.25C812.758 102.406 812.609 101.688 812.297 101.094C812 100.5 811.562 100.047 810.984 99.7344C810.406 99.4219 809.703 99.2656 808.875 99.2656C808.016 99.2656 807.305 99.4531 806.742 99.8281C806.195 100.203 805.766 100.719 805.453 101.375C805.156 102.016 804.945 102.758 804.82 103.602C804.695 104.445 804.633 105.336 804.633 106.273V107.164C804.633 108.102 804.758 108.953 805.008 109.719C805.273 110.484 805.648 111.141 806.133 111.688C806.633 112.219 807.227 112.633 807.914 112.93C808.617 113.227 809.414 113.375 810.305 113.375C811.383 113.375 812.445 113.172 813.492 112.766C814.539 112.359 815.438 111.688 816.188 110.75L819.773 115.016C819.258 115.75 818.523 116.461 817.57 117.148C816.633 117.836 815.508 118.398 814.195 118.836C812.883 119.258 811.414 119.469 809.789 119.469ZM859.477 112.672V119H841.289V112.672H859.477ZM844.219 84.875V119H835.992V84.875H844.219ZM857.133 98.4219V104.539H841.289V98.4219H857.133ZM859.547 84.875V91.2266H841.289V84.875H859.547ZM876.586 113.188V83H884.531V119H877.406L876.586 113.188ZM861.023 106.625V106.133C861.023 104.211 861.234 102.461 861.656 100.883C862.078 99.2891 862.703 97.9219 863.531 96.7812C864.359 95.625 865.391 94.7344 866.625 94.1094C867.859 93.4844 869.281 93.1719 870.891 93.1719C872.328 93.1719 873.586 93.5078 874.664 94.1797C875.742 94.8359 876.664 95.7578 877.43 96.9453C878.195 98.1328 878.82 99.5234 879.305 101.117C879.789 102.695 880.156 104.398 880.406 106.227V106.812C880.156 108.531 879.789 110.156 879.305 111.688C878.82 113.203 878.195 114.547 877.43 115.719C876.664 116.891 875.734 117.812 874.641 118.484C873.562 119.141 872.297 119.469 870.844 119.469C869.234 119.469 867.812 119.148 866.578 118.508C865.359 117.867 864.336 116.969 863.508 115.812C862.695 114.656 862.078 113.297 861.656 111.734C861.234 110.172 861.023 108.469 861.023 106.625ZM868.922 106.133V106.625C868.922 107.578 868.984 108.461 869.109 109.273C869.234 110.086 869.445 110.805 869.742 111.43C870.055 112.039 870.461 112.516 870.961 112.859C871.477 113.203 872.109 113.375 872.859 113.375C873.875 113.375 874.711 113.133 875.367 112.648C876.039 112.164 876.531 111.477 876.844 110.586C877.172 109.695 877.312 108.648 877.266 107.445V105.594C877.297 104.562 877.227 103.656 877.055 102.875C876.883 102.078 876.609 101.414 876.234 100.883C875.875 100.352 875.414 99.9531 874.852 99.6875C874.305 99.4062 873.656 99.2656 872.906 99.2656C872.172 99.2656 871.547 99.4375 871.031 99.7812C870.531 100.125 870.125 100.609 869.812 101.234C869.5 101.844 869.273 102.57 869.133 103.414C868.992 104.242 868.922 105.148 868.922 106.133ZM897.352 93.6406V119H889.43V93.6406H897.352ZM888.961 87.1016C888.961 85.9766 889.367 85.0547 890.18 84.3359C890.992 83.6172 892.047 83.2578 893.344 83.2578C894.641 83.2578 895.695 83.6172 896.508 84.3359C897.32 85.0547 897.727 85.9766 897.727 87.1016C897.727 88.2266 897.32 89.1484 896.508 89.8672C895.695 90.5859 894.641 90.9453 893.344 90.9453C892.047 90.9453 890.992 90.5859 890.18 89.8672C889.367 89.1484 888.961 88.2266 888.961 87.1016ZM915.586 93.6406V99.125H900.305V93.6406H915.586ZM903.516 87.3359H911.414V110.727C911.414 111.398 911.492 111.922 911.648 112.297C911.805 112.656 912.07 112.914 912.445 113.07C912.836 113.211 913.352 113.281 913.992 113.281C914.445 113.281 914.82 113.273 915.117 113.258C915.414 113.227 915.695 113.188 915.961 113.141V118.789C915.289 119.008 914.586 119.172 913.852 119.281C913.117 119.406 912.336 119.469 911.508 119.469C909.82 119.469 908.375 119.203 907.172 118.672C905.984 118.141 905.078 117.305 904.453 116.164C903.828 115.023 903.516 113.539 903.516 111.711V87.3359ZM943.852 112.625V102.172C943.852 101.453 943.75 100.836 943.547 100.32C943.344 99.8047 943.023 99.4062 942.586 99.125C942.148 98.8281 941.562 98.6797 940.828 98.6797C940.234 98.6797 939.727 98.7812 939.305 98.9844C938.883 99.1875 938.562 99.4922 938.344 99.8984C938.125 100.305 938.016 100.82 938.016 101.445H930.117C930.117 100.273 930.375 99.1875 930.891 98.1875C931.422 97.1719 932.172 96.2891 933.141 95.5391C934.125 94.7891 935.297 94.2109 936.656 93.8047C938.031 93.3828 939.562 93.1719 941.25 93.1719C943.266 93.1719 945.062 93.5078 946.641 94.1797C948.234 94.8516 949.492 95.8594 950.414 97.2031C951.336 98.5312 951.797 100.203 951.797 102.219V112.602C951.797 114.258 951.891 115.516 952.078 116.375C952.266 117.219 952.531 117.961 952.875 118.602V119H944.953C944.578 118.219 944.297 117.266 944.109 116.141C943.938 115 943.852 113.828 943.852 112.625ZM944.812 103.508L944.859 107.727H941.367C940.633 107.727 940.008 107.828 939.492 108.031C938.992 108.234 938.586 108.516 938.273 108.875C937.977 109.219 937.758 109.609 937.617 110.047C937.492 110.484 937.43 110.945 937.43 111.43C937.43 111.898 937.539 112.32 937.758 112.695C937.992 113.055 938.305 113.336 938.695 113.539C939.086 113.742 939.523 113.844 940.008 113.844C940.883 113.844 941.625 113.68 942.234 113.352C942.859 113.008 943.336 112.594 943.664 112.109C943.992 111.625 944.156 111.172 944.156 110.75L945.891 113.984C945.578 114.609 945.219 115.242 944.812 115.883C944.422 116.523 943.93 117.117 943.336 117.664C942.758 118.195 942.047 118.633 941.203 118.977C940.359 119.305 939.336 119.469 938.133 119.469C936.57 119.469 935.133 119.148 933.82 118.508C932.523 117.867 931.484 116.977 930.703 115.836C929.922 114.68 929.531 113.352 929.531 111.852C929.531 110.539 929.766 109.367 930.234 108.336C930.719 107.305 931.445 106.43 932.414 105.711C933.383 104.992 934.617 104.445 936.117 104.07C937.617 103.695 939.383 103.508 941.414 103.508H944.812ZM963.938 99.0547V119H956.039V93.6406H963.445L963.938 99.0547ZM963 105.453L961.148 105.5C961.148 103.562 961.383 101.836 961.852 100.32C962.32 98.7891 962.984 97.4922 963.844 96.4297C964.703 95.3672 965.727 94.5625 966.914 94.0156C968.117 93.4531 969.453 93.1719 970.922 93.1719C972.094 93.1719 973.164 93.3438 974.133 93.6875C975.117 94.0312 975.961 94.5859 976.664 95.3516C977.383 96.1172 977.93 97.1328 978.305 98.3984C978.695 99.6484 978.891 101.195 978.891 103.039V119H970.945V103.016C970.945 102 970.805 101.227 970.523 100.695C970.242 100.148 969.836 99.7734 969.305 99.5703C968.773 99.3672 968.125 99.2656 967.359 99.2656C966.547 99.2656 965.859 99.4219 965.297 99.7344C964.734 100.047 964.281 100.484 963.938 101.047C963.609 101.594 963.367 102.242 963.211 102.992C963.07 103.742 963 104.562 963 105.453ZM997.852 113.188V83H1005.8V119H998.672L997.852 113.188ZM982.289 106.625V106.133C982.289 104.211 982.5 102.461 982.922 100.883C983.344 99.2891 983.969 97.9219 984.797 96.7812C985.625 95.625 986.656 94.7344 987.891 94.1094C989.125 93.4844 990.547 93.1719 992.156 93.1719C993.594 93.1719 994.852 93.5078 995.93 94.1797C997.008 94.8359 997.93 95.7578 998.695 96.9453C999.461 98.1328 1000.09 99.5234 1000.57 101.117C1001.05 102.695 1001.42 104.398 1001.67 106.227V106.812C1001.42 108.531 1001.05 110.156 1000.57 111.688C1000.09 113.203 999.461 114.547 998.695 115.719C997.93 116.891 997 117.812 995.906 118.484C994.828 119.141 993.562 119.469 992.109 119.469C990.5 119.469 989.078 119.148 987.844 118.508C986.625 117.867 985.602 116.969 984.773 115.812C983.961 114.656 983.344 113.297 982.922 111.734C982.5 110.172 982.289 108.469 982.289 106.625ZM990.188 106.133V106.625C990.188 107.578 990.25 108.461 990.375 109.273C990.5 110.086 990.711 110.805 991.008 111.43C991.32 112.039 991.727 112.516 992.227 112.859C992.742 113.203 993.375 113.375 994.125 113.375C995.141 113.375 995.977 113.133 996.633 112.648C997.305 112.164 997.797 111.477 998.109 110.586C998.438 109.695 998.578 108.648 998.531 107.445V105.594C998.562 104.562 998.492 103.656 998.32 102.875C998.148 102.078 997.875 101.414 997.5 100.883C997.141 100.352 996.68 99.9531 996.117 99.6875C995.57 99.4062 994.922 99.2656 994.172 99.2656C993.438 99.2656 992.812 99.4375 992.297 99.7812C991.797 100.125 991.391 100.609 991.078 101.234C990.766 101.844 990.539 102.57 990.398 103.414C990.258 104.242 990.188 105.148 990.188 106.133ZM115.008 163.445H123.211C123.102 165.82 122.461 167.914 121.289 169.727C120.117 171.539 118.492 172.953 116.414 173.969C114.352 174.969 111.914 175.469 109.102 175.469C106.82 175.469 104.781 175.086 102.984 174.32C101.203 173.555 99.6875 172.453 98.4375 171.016C97.2031 169.578 96.2578 167.836 95.6016 165.789C94.9609 163.742 94.6406 161.438 94.6406 158.875V157.023C94.6406 154.461 94.9766 152.156 95.6484 150.109C96.3359 148.047 97.3047 146.297 98.5547 144.859C99.8203 143.406 101.336 142.297 103.102 141.531C104.867 140.766 106.828 140.383 108.984 140.383C111.953 140.383 114.461 140.914 116.508 141.977C118.555 143.039 120.141 144.5 121.266 146.359C122.391 148.203 123.055 150.305 123.258 152.664H115.055C115.023 151.383 114.805 150.312 114.398 149.453C113.992 148.578 113.352 147.922 112.477 147.484C111.602 147.047 110.438 146.828 108.984 146.828C107.969 146.828 107.086 147.016 106.336 147.391C105.586 147.766 104.961 148.359 104.461 149.172C103.961 149.984 103.586 151.039 103.336 152.336C103.102 153.617 102.984 155.164 102.984 156.977V158.875C102.984 160.688 103.094 162.234 103.312 163.516C103.531 164.797 103.883 165.844 104.367 166.656C104.852 167.469 105.477 168.07 106.242 168.461C107.023 168.836 107.977 169.023 109.102 169.023C110.352 169.023 111.406 168.828 112.266 168.438C113.125 168.031 113.789 167.422 114.258 166.609C114.727 165.781 114.977 164.727 115.008 163.445ZM134.695 155.922V175H126.797V149.641H134.18L134.695 155.922ZM142.195 149.453L142.055 156.789C141.742 156.758 141.32 156.719 140.789 156.672C140.258 156.625 139.812 156.602 139.453 156.602C138.531 156.602 137.734 156.711 137.062 156.93C136.406 157.133 135.859 157.445 135.422 157.867C135 158.273 134.688 158.789 134.484 159.414C134.297 160.039 134.211 160.766 134.227 161.594L132.797 160.656C132.797 158.953 132.961 157.406 133.289 156.016C133.633 154.609 134.117 153.398 134.742 152.383C135.367 151.352 136.125 150.562 137.016 150.016C137.906 149.453 138.906 149.172 140.016 149.172C140.406 149.172 140.789 149.195 141.164 149.242C141.555 149.289 141.898 149.359 142.195 149.453ZM143.086 162.578V162.086C143.086 160.227 143.352 158.516 143.883 156.953C144.414 155.375 145.195 154.008 146.227 152.852C147.258 151.695 148.531 150.797 150.047 150.156C151.562 149.5 153.312 149.172 155.297 149.172C157.297 149.172 159.055 149.5 160.57 150.156C162.102 150.797 163.383 151.695 164.414 152.852C165.445 154.008 166.227 155.375 166.758 156.953C167.289 158.516 167.555 160.227 167.555 162.086V162.578C167.555 164.422 167.289 166.133 166.758 167.711C166.227 169.273 165.445 170.641 164.414 171.812C163.383 172.969 162.109 173.867 160.594 174.508C159.078 175.148 157.328 175.469 155.344 175.469C153.359 175.469 151.602 175.148 150.07 174.508C148.539 173.867 147.258 172.969 146.227 171.812C145.195 170.641 144.414 169.273 143.883 167.711C143.352 166.133 143.086 164.422 143.086 162.578ZM150.984 162.086V162.578C150.984 163.531 151.055 164.422 151.195 165.25C151.336 166.078 151.57 166.805 151.898 167.43C152.227 168.039 152.672 168.516 153.234 168.859C153.797 169.203 154.5 169.375 155.344 169.375C156.172 169.375 156.859 169.203 157.406 168.859C157.969 168.516 158.414 168.039 158.742 167.43C159.07 166.805 159.305 166.078 159.445 165.25C159.586 164.422 159.656 163.531 159.656 162.578V162.086C159.656 161.164 159.586 160.297 159.445 159.484C159.305 158.656 159.07 157.93 158.742 157.305C158.414 156.664 157.969 156.164 157.406 155.805C156.844 155.445 156.141 155.266 155.297 155.266C154.469 155.266 153.773 155.445 153.211 155.805C152.664 156.164 152.227 156.664 151.898 157.305C151.57 157.93 151.336 158.656 151.195 159.484C151.055 160.297 150.984 161.164 150.984 162.086ZM179.039 154.516V184.75H171.141V149.641H178.5L179.039 154.516ZM194.602 162.016V162.508C194.602 164.352 194.391 166.062 193.969 167.641C193.547 169.219 192.922 170.594 192.094 171.766C191.266 172.938 190.234 173.852 189 174.508C187.781 175.148 186.367 175.469 184.758 175.469C183.242 175.469 181.938 175.133 180.844 174.461C179.75 173.789 178.836 172.859 178.102 171.672C177.367 170.484 176.773 169.125 176.32 167.594C175.867 166.062 175.508 164.445 175.242 162.742V162.109C175.508 160.281 175.867 158.586 176.32 157.023C176.773 155.445 177.367 154.07 178.102 152.898C178.836 151.727 179.742 150.812 180.82 150.156C181.914 149.5 183.219 149.172 184.734 149.172C186.344 149.172 187.758 149.477 188.977 150.086C190.211 150.695 191.242 151.57 192.07 152.711C192.914 153.836 193.547 155.188 193.969 156.766C194.391 158.344 194.602 160.094 194.602 162.016ZM186.703 162.508V162.016C186.703 161.031 186.633 160.133 186.492 159.32C186.352 158.492 186.125 157.773 185.812 157.164C185.516 156.555 185.117 156.086 184.617 155.758C184.117 155.43 183.5 155.266 182.766 155.266C181.922 155.266 181.211 155.398 180.633 155.664C180.07 155.914 179.617 156.305 179.273 156.836C178.945 157.352 178.711 158 178.57 158.781C178.445 159.547 178.391 160.445 178.406 161.477V163.398C178.375 164.586 178.492 165.633 178.758 166.539C179.023 167.43 179.484 168.125 180.141 168.625C180.797 169.125 181.688 169.375 182.812 169.375C183.562 169.375 184.188 169.203 184.688 168.859C185.188 168.5 185.586 168.008 185.883 167.383C186.18 166.742 186.391 166.008 186.516 165.18C186.641 164.352 186.703 163.461 186.703 162.508ZM218.039 154.516V184.75H210.141V149.641H217.5L218.039 154.516ZM233.602 162.016V162.508C233.602 164.352 233.391 166.062 232.969 167.641C232.547 169.219 231.922 170.594 231.094 171.766C230.266 172.938 229.234 173.852 228 174.508C226.781 175.148 225.367 175.469 223.758 175.469C222.242 175.469 220.938 175.133 219.844 174.461C218.75 173.789 217.836 172.859 217.102 171.672C216.367 170.484 215.773 169.125 215.32 167.594C214.867 166.062 214.508 164.445 214.242 162.742V162.109C214.508 160.281 214.867 158.586 215.32 157.023C215.773 155.445 216.367 154.07 217.102 152.898C217.836 151.727 218.742 150.812 219.82 150.156C220.914 149.5 222.219 149.172 223.734 149.172C225.344 149.172 226.758 149.477 227.977 150.086C229.211 150.695 230.242 151.57 231.07 152.711C231.914 153.836 232.547 155.188 232.969 156.766C233.391 158.344 233.602 160.094 233.602 162.016ZM225.703 162.508V162.016C225.703 161.031 225.633 160.133 225.492 159.32C225.352 158.492 225.125 157.773 224.812 157.164C224.516 156.555 224.117 156.086 223.617 155.758C223.117 155.43 222.5 155.266 221.766 155.266C220.922 155.266 220.211 155.398 219.633 155.664C219.07 155.914 218.617 156.305 218.273 156.836C217.945 157.352 217.711 158 217.57 158.781C217.445 159.547 217.391 160.445 217.406 161.477V163.398C217.375 164.586 217.492 165.633 217.758 166.539C218.023 167.43 218.484 168.125 219.141 168.625C219.797 169.125 220.688 169.375 221.812 169.375C222.562 169.375 223.188 169.203 223.688 168.859C224.188 168.5 224.586 168.008 224.883 167.383C225.18 166.742 225.391 166.008 225.516 165.18C225.641 164.352 225.703 163.461 225.703 162.508ZM250.289 168.625V158.172C250.289 157.453 250.188 156.836 249.984 156.32C249.781 155.805 249.461 155.406 249.023 155.125C248.586 154.828 248 154.68 247.266 154.68C246.672 154.68 246.164 154.781 245.742 154.984C245.32 155.188 245 155.492 244.781 155.898C244.562 156.305 244.453 156.82 244.453 157.445H236.555C236.555 156.273 236.812 155.188 237.328 154.188C237.859 153.172 238.609 152.289 239.578 151.539C240.562 150.789 241.734 150.211 243.094 149.805C244.469 149.383 246 149.172 247.688 149.172C249.703 149.172 251.5 149.508 253.078 150.18C254.672 150.852 255.93 151.859 256.852 153.203C257.773 154.531 258.234 156.203 258.234 158.219V168.602C258.234 170.258 258.328 171.516 258.516 172.375C258.703 173.219 258.969 173.961 259.312 174.602V175H251.391C251.016 174.219 250.734 173.266 250.547 172.141C250.375 171 250.289 169.828 250.289 168.625ZM251.25 159.508L251.297 163.727H247.805C247.07 163.727 246.445 163.828 245.93 164.031C245.43 164.234 245.023 164.516 244.711 164.875C244.414 165.219 244.195 165.609 244.055 166.047C243.93 166.484 243.867 166.945 243.867 167.43C243.867 167.898 243.977 168.32 244.195 168.695C244.43 169.055 244.742 169.336 245.133 169.539C245.523 169.742 245.961 169.844 246.445 169.844C247.32 169.844 248.062 169.68 248.672 169.352C249.297 169.008 249.773 168.594 250.102 168.109C250.43 167.625 250.594 167.172 250.594 166.75L252.328 169.984C252.016 170.609 251.656 171.242 251.25 171.883C250.859 172.523 250.367 173.117 249.773 173.664C249.195 174.195 248.484 174.633 247.641 174.977C246.797 175.305 245.773 175.469 244.57 175.469C243.008 175.469 241.57 175.148 240.258 174.508C238.961 173.867 237.922 172.977 237.141 171.836C236.359 170.68 235.969 169.352 235.969 167.852C235.969 166.539 236.203 165.367 236.672 164.336C237.156 163.305 237.883 162.43 238.852 161.711C239.82 160.992 241.055 160.445 242.555 160.07C244.055 159.695 245.82 159.508 247.852 159.508H251.25ZM278.555 149.641H285.727V174.016C285.727 176.359 285.188 178.344 284.109 179.969C283.031 181.609 281.523 182.852 279.586 183.695C277.664 184.555 275.414 184.984 272.836 184.984C271.695 184.984 270.531 184.836 269.344 184.539C268.156 184.258 267.047 183.836 266.016 183.273C264.984 182.711 264.117 182.016 263.414 181.188L266.719 176.547C267.359 177.266 268.164 177.875 269.133 178.375C270.102 178.891 271.242 179.148 272.555 179.148C273.695 179.148 274.648 178.945 275.414 178.539C276.195 178.133 276.789 177.539 277.195 176.758C277.602 175.992 277.805 175.062 277.805 173.969V155.641L278.555 149.641ZM261.703 162.625V162.133C261.703 160.211 261.938 158.461 262.406 156.883C262.891 155.289 263.578 153.922 264.469 152.781C265.375 151.625 266.469 150.734 267.75 150.109C269.031 149.484 270.477 149.172 272.086 149.172C273.82 149.172 275.242 149.508 276.352 150.18C277.477 150.836 278.375 151.758 279.047 152.945C279.734 154.133 280.266 155.523 280.641 157.117C281.031 158.695 281.359 160.398 281.625 162.227V162.812C281.359 164.531 280.992 166.156 280.523 167.688C280.07 169.203 279.477 170.547 278.742 171.719C278.008 172.891 277.086 173.812 275.977 174.484C274.883 175.141 273.57 175.469 272.039 175.469C270.445 175.469 269.008 175.148 267.727 174.508C266.461 173.867 265.375 172.969 264.469 171.812C263.578 170.656 262.891 169.297 262.406 167.734C261.938 166.172 261.703 164.469 261.703 162.625ZM269.602 162.133V162.625C269.602 163.578 269.688 164.461 269.859 165.273C270.047 166.086 270.328 166.805 270.703 167.43C271.078 168.039 271.539 168.516 272.086 168.859C272.648 169.203 273.305 169.375 274.055 169.375C275.195 169.375 276.117 169.133 276.82 168.648C277.523 168.164 278.031 167.477 278.344 166.586C278.656 165.695 278.789 164.648 278.742 163.445V161.594C278.773 160.562 278.703 159.656 278.531 158.875C278.359 158.078 278.086 157.414 277.711 156.883C277.352 156.352 276.867 155.953 276.258 155.688C275.664 155.406 274.945 155.266 274.102 155.266C273.367 155.266 272.719 155.438 272.156 155.781C271.594 156.125 271.125 156.609 270.75 157.234C270.375 157.844 270.086 158.57 269.883 159.414C269.695 160.242 269.602 161.148 269.602 162.133ZM302.555 175.469C300.492 175.469 298.648 175.148 297.023 174.508C295.398 173.852 294.023 172.953 292.898 171.812C291.789 170.672 290.938 169.359 290.344 167.875C289.766 166.391 289.477 164.82 289.477 163.164V162.273C289.477 160.414 289.734 158.695 290.25 157.117C290.766 155.523 291.531 154.133 292.547 152.945C293.562 151.758 294.836 150.836 296.367 150.18C297.898 149.508 299.68 149.172 301.711 149.172C303.508 149.172 305.117 149.461 306.539 150.039C307.961 150.617 309.164 151.445 310.148 152.523C311.148 153.602 311.906 154.906 312.422 156.438C312.953 157.969 313.219 159.688 313.219 161.594V164.805H292.5V159.859H305.508V159.25C305.523 158.406 305.375 157.688 305.062 157.094C304.766 156.5 304.328 156.047 303.75 155.734C303.172 155.422 302.469 155.266 301.641 155.266C300.781 155.266 300.07 155.453 299.508 155.828C298.961 156.203 298.531 156.719 298.219 157.375C297.922 158.016 297.711 158.758 297.586 159.602C297.461 160.445 297.398 161.336 297.398 162.273V163.164C297.398 164.102 297.523 164.953 297.773 165.719C298.039 166.484 298.414 167.141 298.898 167.688C299.398 168.219 299.992 168.633 300.68 168.93C301.383 169.227 302.18 169.375 303.07 169.375C304.148 169.375 305.211 169.172 306.258 168.766C307.305 168.359 308.203 167.688 308.953 166.75L312.539 171.016C312.023 171.75 311.289 172.461 310.336 173.148C309.398 173.836 308.273 174.398 306.961 174.836C305.648 175.258 304.18 175.469 302.555 175.469ZM329.719 167.875C329.719 167.438 329.57 167.062 329.273 166.75C328.992 166.422 328.492 166.125 327.773 165.859C327.055 165.578 326.047 165.297 324.75 165.016C323.516 164.75 322.352 164.398 321.258 163.961C320.18 163.523 319.234 162.992 318.422 162.367C317.609 161.742 316.969 161 316.5 160.141C316.047 159.281 315.82 158.297 315.82 157.188C315.82 156.109 316.047 155.094 316.5 154.141C316.969 153.172 317.648 152.32 318.539 151.586C319.445 150.836 320.547 150.25 321.844 149.828C323.141 149.391 324.617 149.172 326.273 149.172C328.555 149.172 330.523 149.523 332.18 150.227C333.836 150.914 335.109 151.883 336 153.133C336.906 154.367 337.359 155.797 337.359 157.422H329.461C329.461 156.781 329.352 156.234 329.133 155.781C328.93 155.328 328.594 154.984 328.125 154.75C327.656 154.5 327.031 154.375 326.25 154.375C325.703 154.375 325.203 154.477 324.75 154.68C324.312 154.883 323.961 155.164 323.695 155.523C323.43 155.883 323.297 156.305 323.297 156.789C323.297 157.133 323.375 157.445 323.531 157.727C323.703 157.992 323.961 158.242 324.305 158.477C324.648 158.695 325.086 158.898 325.617 159.086C326.148 159.258 326.789 159.414 327.539 159.555C329.242 159.867 330.836 160.312 332.32 160.891C333.805 161.469 335.008 162.289 335.93 163.352C336.867 164.414 337.336 165.844 337.336 167.641C337.336 168.766 337.078 169.805 336.562 170.758C336.047 171.695 335.305 172.523 334.336 173.242C333.367 173.945 332.203 174.492 330.844 174.883C329.484 175.273 327.953 175.469 326.25 175.469C323.828 175.469 321.781 175.039 320.109 174.18C318.438 173.305 317.172 172.211 316.312 170.898C315.469 169.57 315.047 168.227 315.047 166.867H322.406C322.438 167.648 322.625 168.289 322.969 168.789C323.328 169.289 323.805 169.656 324.398 169.891C324.992 170.125 325.68 170.242 326.461 170.242C327.18 170.242 327.773 170.141 328.242 169.938C328.727 169.734 329.094 169.461 329.344 169.117C329.594 168.758 329.719 168.344 329.719 167.875ZM360.703 167.453L365.391 149.641H370.336L368.578 158.57L363.938 175H359.977L360.703 167.453ZM358.852 149.641L361.758 167.312L362.086 175H357.281L351.281 149.641H358.852ZM374.508 166.938L377.438 149.641H385.008L379.055 175H374.25L374.508 166.938ZM370.898 149.641L375.633 167.406L376.359 175H372.352L367.805 158.617L366.117 149.641H370.898ZM396.211 149.641V175H388.289V149.641H396.211ZM387.82 143.102C387.82 141.977 388.227 141.055 389.039 140.336C389.852 139.617 390.906 139.258 392.203 139.258C393.5 139.258 394.555 139.617 395.367 140.336C396.18 141.055 396.586 141.977 396.586 143.102C396.586 144.227 396.18 145.148 395.367 145.867C394.555 146.586 393.5 146.945 392.203 146.945C390.906 146.945 389.852 146.586 389.039 145.867C388.227 145.148 387.82 144.227 387.82 143.102ZM414.445 149.641V155.125H399.164V149.641H414.445ZM402.375 143.336H410.273V166.727C410.273 167.398 410.352 167.922 410.508 168.297C410.664 168.656 410.93 168.914 411.305 169.07C411.695 169.211 412.211 169.281 412.852 169.281C413.305 169.281 413.68 169.273 413.977 169.258C414.273 169.227 414.555 169.188 414.82 169.141V174.789C414.148 175.008 413.445 175.172 412.711 175.281C411.977 175.406 411.195 175.469 410.367 175.469C408.68 175.469 407.234 175.203 406.031 174.672C404.844 174.141 403.938 173.305 403.312 172.164C402.688 171.023 402.375 169.539 402.375 167.711V143.336ZM425.32 139V175H417.422V139H425.32ZM424.383 161.453L422.531 161.5C422.531 159.719 422.75 158.078 423.188 156.578C423.625 155.078 424.25 153.773 425.062 152.664C425.875 151.555 426.852 150.695 427.992 150.086C429.133 149.477 430.398 149.172 431.789 149.172C433.039 149.172 434.18 149.352 435.211 149.711C436.258 150.07 437.156 150.648 437.906 151.445C438.672 152.242 439.258 153.281 439.664 154.562C440.086 155.844 440.297 157.406 440.297 159.25V175H432.352V159.203C432.352 158.172 432.203 157.375 431.906 156.812C431.625 156.234 431.219 155.836 430.688 155.617C430.156 155.383 429.508 155.266 428.742 155.266C427.82 155.266 427.07 155.422 426.492 155.734C425.914 156.047 425.469 156.484 425.156 157.047C424.859 157.594 424.656 158.242 424.547 158.992C424.438 159.742 424.383 160.562 424.383 161.453ZM457.008 140.875H470.438C473.062 140.875 475.344 141.266 477.281 142.047C479.219 142.828 480.711 143.984 481.758 145.516C482.82 147.047 483.352 148.938 483.352 151.188C483.352 153.141 483.047 154.773 482.438 156.086C481.828 157.398 480.977 158.484 479.883 159.344C478.805 160.188 477.547 160.883 476.109 161.43L473.414 162.953H462.141L462.094 156.602H470.438C471.484 156.602 472.352 156.414 473.039 156.039C473.727 155.664 474.242 155.133 474.586 154.445C474.945 153.742 475.125 152.906 475.125 151.938C475.125 150.953 474.945 150.109 474.586 149.406C474.227 148.703 473.695 148.164 472.992 147.789C472.305 147.414 471.453 147.227 470.438 147.227H465.234V175H457.008V140.875ZM475.688 175L468.141 159.906L476.859 159.859L484.5 174.648V175H475.688ZM500.227 175.469C498.164 175.469 496.32 175.148 494.695 174.508C493.07 173.852 491.695 172.953 490.57 171.812C489.461 170.672 488.609 169.359 488.016 167.875C487.438 166.391 487.148 164.82 487.148 163.164V162.273C487.148 160.414 487.406 158.695 487.922 157.117C488.438 155.523 489.203 154.133 490.219 152.945C491.234 151.758 492.508 150.836 494.039 150.18C495.57 149.508 497.352 149.172 499.383 149.172C501.18 149.172 502.789 149.461 504.211 150.039C505.633 150.617 506.836 151.445 507.82 152.523C508.82 153.602 509.578 154.906 510.094 156.438C510.625 157.969 510.891 159.688 510.891 161.594V164.805H490.172V159.859H503.18V159.25C503.195 158.406 503.047 157.688 502.734 157.094C502.438 156.5 502 156.047 501.422 155.734C500.844 155.422 500.141 155.266 499.312 155.266C498.453 155.266 497.742 155.453 497.18 155.828C496.633 156.203 496.203 156.719 495.891 157.375C495.594 158.016 495.383 158.758 495.258 159.602C495.133 160.445 495.07 161.336 495.07 162.273V163.164C495.07 164.102 495.195 164.953 495.445 165.719C495.711 166.484 496.086 167.141 496.57 167.688C497.07 168.219 497.664 168.633 498.352 168.93C499.055 169.227 499.852 169.375 500.742 169.375C501.82 169.375 502.883 169.172 503.93 168.766C504.977 168.359 505.875 167.688 506.625 166.75L510.211 171.016C509.695 171.75 508.961 172.461 508.008 173.148C507.07 173.836 505.945 174.398 504.633 174.836C503.32 175.258 501.852 175.469 500.227 175.469ZM527.273 168.625V158.172C527.273 157.453 527.172 156.836 526.969 156.32C526.766 155.805 526.445 155.406 526.008 155.125C525.57 154.828 524.984 154.68 524.25 154.68C523.656 154.68 523.148 154.781 522.727 154.984C522.305 155.188 521.984 155.492 521.766 155.898C521.547 156.305 521.438 156.82 521.438 157.445H513.539C513.539 156.273 513.797 155.188 514.312 154.188C514.844 153.172 515.594 152.289 516.562 151.539C517.547 150.789 518.719 150.211 520.078 149.805C521.453 149.383 522.984 149.172 524.672 149.172C526.688 149.172 528.484 149.508 530.062 150.18C531.656 150.852 532.914 151.859 533.836 153.203C534.758 154.531 535.219 156.203 535.219 158.219V168.602C535.219 170.258 535.312 171.516 535.5 172.375C535.688 173.219 535.953 173.961 536.297 174.602V175H528.375C528 174.219 527.719 173.266 527.531 172.141C527.359 171 527.273 169.828 527.273 168.625ZM528.234 159.508L528.281 163.727H524.789C524.055 163.727 523.43 163.828 522.914 164.031C522.414 164.234 522.008 164.516 521.695 164.875C521.398 165.219 521.18 165.609 521.039 166.047C520.914 166.484 520.852 166.945 520.852 167.43C520.852 167.898 520.961 168.32 521.18 168.695C521.414 169.055 521.727 169.336 522.117 169.539C522.508 169.742 522.945 169.844 523.43 169.844C524.305 169.844 525.047 169.68 525.656 169.352C526.281 169.008 526.758 168.594 527.086 168.109C527.414 167.625 527.578 167.172 527.578 166.75L529.312 169.984C529 170.609 528.641 171.242 528.234 171.883C527.844 172.523 527.352 173.117 526.758 173.664C526.18 174.195 525.469 174.633 524.625 174.977C523.781 175.305 522.758 175.469 521.555 175.469C519.992 175.469 518.555 175.148 517.242 174.508C515.945 173.867 514.906 172.977 514.125 171.836C513.344 170.68 512.953 169.352 512.953 167.852C512.953 166.539 513.188 165.367 513.656 164.336C514.141 163.305 514.867 162.43 515.836 161.711C516.805 160.992 518.039 160.445 519.539 160.07C521.039 159.695 522.805 159.508 524.836 159.508H528.234ZM550.312 169.375C551.047 169.375 551.672 169.242 552.188 168.977C552.719 168.695 553.117 168.305 553.383 167.805C553.664 167.289 553.797 166.672 553.781 165.953H561.211C561.227 167.859 560.758 169.531 559.805 170.969C558.867 172.391 557.586 173.5 555.961 174.297C554.352 175.078 552.531 175.469 550.5 175.469C548.516 175.469 546.781 175.148 545.297 174.508C543.812 173.852 542.57 172.945 541.57 171.789C540.586 170.617 539.844 169.25 539.344 167.688C538.859 166.125 538.617 164.43 538.617 162.602V162.062C538.617 160.234 538.859 158.539 539.344 156.977C539.844 155.398 540.586 154.031 541.57 152.875C542.57 151.703 543.805 150.797 545.273 150.156C546.758 149.5 548.484 149.172 550.453 149.172C552.562 149.172 554.422 149.57 556.031 150.367C557.656 151.164 558.93 152.32 559.852 153.836C560.773 155.352 561.227 157.188 561.211 159.344H553.781C553.797 158.578 553.68 157.891 553.43 157.281C553.18 156.672 552.789 156.188 552.258 155.828C551.742 155.453 551.078 155.266 550.266 155.266C549.453 155.266 548.797 155.445 548.297 155.805C547.797 156.164 547.414 156.664 547.148 157.305C546.898 157.93 546.727 158.648 546.633 159.461C546.555 160.273 546.516 161.141 546.516 162.062V162.602C546.516 163.539 546.555 164.422 546.633 165.25C546.727 166.062 546.906 166.781 547.172 167.406C547.438 168.016 547.82 168.5 548.32 168.859C548.82 169.203 549.484 169.375 550.312 169.375ZM577.945 149.641V155.125H562.664V149.641H577.945ZM565.875 143.336H573.773V166.727C573.773 167.398 573.852 167.922 574.008 168.297C574.164 168.656 574.43 168.914 574.805 169.07C575.195 169.211 575.711 169.281 576.352 169.281C576.805 169.281 577.18 169.273 577.477 169.258C577.773 169.227 578.055 169.188 578.32 169.141V174.789C577.648 175.008 576.945 175.172 576.211 175.281C575.477 175.406 574.695 175.469 573.867 175.469C572.18 175.469 570.734 175.203 569.531 174.672C568.344 174.141 567.438 173.305 566.812 172.164C566.188 171.023 565.875 169.539 565.875 167.711V143.336ZM593.414 140.875H606.844C609.469 140.875 611.75 141.266 613.688 142.047C615.625 142.828 617.117 143.984 618.164 145.516C619.227 147.047 619.758 148.938 619.758 151.188C619.758 153.141 619.453 154.773 618.844 156.086C618.234 157.398 617.383 158.484 616.289 159.344C615.211 160.188 613.953 160.883 612.516 161.43L609.82 162.953H598.547L598.5 156.602H606.844C607.891 156.602 608.758 156.414 609.445 156.039C610.133 155.664 610.648 155.133 610.992 154.445C611.352 153.742 611.531 152.906 611.531 151.938C611.531 150.953 611.352 150.109 610.992 149.406C610.633 148.703 610.102 148.164 609.398 147.789C608.711 147.414 607.859 147.227 606.844 147.227H601.641V175H593.414V140.875ZM612.094 175L604.547 159.906L613.266 159.859L620.906 174.648V175H612.094ZM623.367 162.578V162.086C623.367 160.227 623.633 158.516 624.164 156.953C624.695 155.375 625.477 154.008 626.508 152.852C627.539 151.695 628.812 150.797 630.328 150.156C631.844 149.5 633.594 149.172 635.578 149.172C637.578 149.172 639.336 149.5 640.852 150.156C642.383 150.797 643.664 151.695 644.695 152.852C645.727 154.008 646.508 155.375 647.039 156.953C647.57 158.516 647.836 160.227 647.836 162.086V162.578C647.836 164.422 647.57 166.133 647.039 167.711C646.508 169.273 645.727 170.641 644.695 171.812C643.664 172.969 642.391 173.867 640.875 174.508C639.359 175.148 637.609 175.469 635.625 175.469C633.641 175.469 631.883 175.148 630.352 174.508C628.82 173.867 627.539 172.969 626.508 171.812C625.477 170.641 624.695 169.273 624.164 167.711C623.633 166.133 623.367 164.422 623.367 162.578ZM631.266 162.086V162.578C631.266 163.531 631.336 164.422 631.477 165.25C631.617 166.078 631.852 166.805 632.18 167.43C632.508 168.039 632.953 168.516 633.516 168.859C634.078 169.203 634.781 169.375 635.625 169.375C636.453 169.375 637.141 169.203 637.688 168.859C638.25 168.516 638.695 168.039 639.023 167.43C639.352 166.805 639.586 166.078 639.727 165.25C639.867 164.422 639.938 163.531 639.938 162.578V162.086C639.938 161.164 639.867 160.297 639.727 159.484C639.586 158.656 639.352 157.93 639.023 157.305C638.695 156.664 638.25 156.164 637.688 155.805C637.125 155.445 636.422 155.266 635.578 155.266C634.75 155.266 634.055 155.445 633.492 155.805C632.945 156.164 632.508 156.664 632.18 157.305C631.852 157.93 631.617 158.656 631.477 159.484C631.336 160.297 631.266 161.164 631.266 162.086ZM666.164 168.836V149.641H674.086V175H666.68L666.164 168.836ZM666.914 163.68L668.977 163.633C668.977 165.336 668.773 166.914 668.367 168.367C667.961 169.805 667.359 171.055 666.562 172.117C665.781 173.18 664.812 174.008 663.656 174.602C662.516 175.18 661.195 175.469 659.695 175.469C658.445 175.469 657.297 175.297 656.25 174.953C655.219 174.594 654.328 174.039 653.578 173.289C652.828 172.523 652.242 171.547 651.82 170.359C651.414 169.156 651.211 167.719 651.211 166.047V149.641H659.109V166.094C659.109 166.656 659.18 167.141 659.32 167.547C659.461 167.953 659.664 168.297 659.93 168.578C660.195 168.844 660.523 169.047 660.914 169.188C661.32 169.312 661.781 169.375 662.297 169.375C663.484 169.375 664.414 169.125 665.086 168.625C665.758 168.125 666.227 167.445 666.492 166.586C666.773 165.727 666.914 164.758 666.914 163.68ZM691.805 149.641V155.125H676.523V149.641H691.805ZM679.734 143.336H687.633V166.727C687.633 167.398 687.711 167.922 687.867 168.297C688.023 168.656 688.289 168.914 688.664 169.07C689.055 169.211 689.57 169.281 690.211 169.281C690.664 169.281 691.039 169.273 691.336 169.258C691.633 169.227 691.914 169.188 692.18 169.141V174.789C691.508 175.008 690.805 175.172 690.07 175.281C689.336 175.406 688.555 175.469 687.727 175.469C686.039 175.469 684.594 175.203 683.391 174.672C682.203 174.141 681.297 173.305 680.672 172.164C680.047 171.023 679.734 169.539 679.734 167.711V143.336ZM707.227 175.469C705.164 175.469 703.32 175.148 701.695 174.508C700.07 173.852 698.695 172.953 697.57 171.812C696.461 170.672 695.609 169.359 695.016 167.875C694.438 166.391 694.148 164.82 694.148 163.164V162.273C694.148 160.414 694.406 158.695 694.922 157.117C695.438 155.523 696.203 154.133 697.219 152.945C698.234 151.758 699.508 150.836 701.039 150.18C702.57 149.508 704.352 149.172 706.383 149.172C708.18 149.172 709.789 149.461 711.211 150.039C712.633 150.617 713.836 151.445 714.82 152.523C715.82 153.602 716.578 154.906 717.094 156.438C717.625 157.969 717.891 159.688 717.891 161.594V164.805H697.172V159.859H710.18V159.25C710.195 158.406 710.047 157.688 709.734 157.094C709.438 156.5 709 156.047 708.422 155.734C707.844 155.422 707.141 155.266 706.312 155.266C705.453 155.266 704.742 155.453 704.18 155.828C703.633 156.203 703.203 156.719 702.891 157.375C702.594 158.016 702.383 158.758 702.258 159.602C702.133 160.445 702.07 161.336 702.07 162.273V163.164C702.07 164.102 702.195 164.953 702.445 165.719C702.711 166.484 703.086 167.141 703.57 167.688C704.07 168.219 704.664 168.633 705.352 168.93C706.055 169.227 706.852 169.375 707.742 169.375C708.82 169.375 709.883 169.172 710.93 168.766C711.977 168.359 712.875 167.688 713.625 166.75L717.211 171.016C716.695 171.75 715.961 172.461 715.008 173.148C714.07 173.836 712.945 174.398 711.633 174.836C710.32 175.258 708.852 175.469 707.227 175.469ZM729.07 155.922V175H721.172V149.641H728.555L729.07 155.922ZM736.57 149.453L736.43 156.789C736.117 156.758 735.695 156.719 735.164 156.672C734.633 156.625 734.188 156.602 733.828 156.602C732.906 156.602 732.109 156.711 731.438 156.93C730.781 157.133 730.234 157.445 729.797 157.867C729.375 158.273 729.062 158.789 728.859 159.414C728.672 160.039 728.586 160.766 728.602 161.594L727.172 160.656C727.172 158.953 727.336 157.406 727.664 156.016C728.008 154.609 728.492 153.398 729.117 152.383C729.742 151.352 730.5 150.562 731.391 150.016C732.281 149.453 733.281 149.172 734.391 149.172C734.781 149.172 735.164 149.195 735.539 149.242C735.93 149.289 736.273 149.359 736.57 149.453ZM735.727 171.297C735.727 170.172 736.133 169.234 736.945 168.484C737.758 167.719 738.805 167.336 740.086 167.336C741.383 167.336 742.43 167.719 743.227 168.484C744.039 169.234 744.445 170.172 744.445 171.297C744.445 172.422 744.039 173.367 743.227 174.133C742.43 174.883 741.383 175.258 740.086 175.258C738.805 175.258 737.758 174.883 736.945 174.133C736.133 173.367 735.727 172.422 735.727 171.297Z" fill="black"/>
<path d="M1134 0H1348C1356.28 0 1363 6.71573 1363 15V204C1363 212.284 1356.28 219 1348 219H1134V0Z" fill="#BFDBF7"/>
<path d="M1280.07 75.5H1216.93L1214.5 77.9286V141.071L1216.93 143.5H1280.07L1282.5 141.071V77.9286L1280.07 75.5ZM1277.64 138.643H1233.93V128.929H1245.1C1246.56 131.843 1249.96 133.786 1253.36 133.786C1258.7 133.786 1263.07 129.414 1263.07 124.071C1263.07 118.729 1258.7 114.357 1253.36 114.357C1248.01 114.357 1243.64 118.729 1243.64 124.071H1229.07V138.643H1219.36V80.3571H1229.07V91.5286C1226.16 92.9857 1224.21 96.3857 1224.21 99.7857C1224.21 105.129 1228.59 109.5 1233.93 109.5C1239.27 109.5 1243.64 105.129 1243.64 99.7857H1253.36C1253.36 105.129 1257.73 109.5 1263.07 109.5C1268.41 109.5 1272.79 105.129 1272.79 99.7857C1272.79 94.4429 1268.41 90.0714 1263.07 90.0714C1259.67 90.0714 1256.27 92.0143 1254.81 94.9286H1242.19C1240.73 92.0143 1237.33 90.0714 1233.93 90.0714V80.3571H1277.64V138.643ZM1248.5 124.071C1248.5 121.157 1250.44 119.214 1253.36 119.214C1256.27 119.214 1258.21 121.157 1258.21 124.071C1258.21 126.986 1256.27 128.929 1253.36 128.929C1250.44 128.929 1248.5 126.986 1248.5 124.071ZM1233.93 94.9286C1236.84 94.9286 1238.79 96.8714 1238.79 99.7857C1238.79 102.7 1236.84 104.643 1233.93 104.643C1231.01 104.643 1229.07 102.7 1229.07 99.7857C1229.07 96.8714 1231.01 94.9286 1233.93 94.9286ZM1263.07 94.9286C1265.99 94.9286 1267.93 96.8714 1267.93 99.7857C1267.93 102.7 1265.99 104.643 1263.07 104.643C1260.16 104.643 1258.21 102.7 1258.21 99.7857C1258.21 96.8714 1260.16 94.9286 1263.07 94.9286Z" fill="white"/>
</svg>
