<svg width="1363" height="219" viewBox="0 0 1363 219" fill="none" xmlns="http://www.w3.org/2000/svg">
<path d="M0 15C0 6.71572 6.71573 0 15 0H37V219H15C6.71573 219 0 212.284 0 204V15Z" fill="#1F7A8C"/>
<rect width="1097" height="219" transform="translate(37)" fill="#F0F0F0"/>
<path d="M101.203 53.5117H96.8203L96.7969 51.0977H100.477C101.125 51.0977 101.656 51.0156 102.07 50.8516C102.484 50.6797 102.793 50.4336 102.996 50.1133C103.207 49.7852 103.312 49.3867 103.312 48.918C103.312 48.3867 103.211 47.957 103.008 47.6289C102.812 47.3008 102.504 47.0625 102.082 46.9141C101.668 46.7656 101.133 46.6914 100.477 46.6914H98.0391V61H94.5234V43.9375H100.477C101.469 43.9375 102.355 44.0312 103.137 44.2188C103.926 44.4062 104.594 44.6914 105.141 45.0742C105.688 45.457 106.105 45.9414 106.395 46.5273C106.684 47.1055 106.828 47.793 106.828 48.5898C106.828 49.293 106.668 49.9414 106.348 50.5352C106.035 51.1289 105.539 51.6133 104.859 51.9883C104.188 52.3633 103.309 52.5703 102.223 52.6094L101.203 53.5117ZM101.051 61H95.8594L97.2305 58.2578H101.051C101.668 58.2578 102.172 58.1602 102.562 57.9648C102.953 57.7617 103.242 57.4883 103.43 57.1445C103.617 56.8008 103.711 56.4062 103.711 55.9609C103.711 55.4609 103.625 55.0273 103.453 54.6602C103.289 54.293 103.023 54.0117 102.656 53.8164C102.289 53.6133 101.805 53.5117 101.203 53.5117H97.8164L97.8398 51.0977H102.059L102.867 52.0469C103.906 52.0312 104.742 52.2148 105.375 52.5977C106.016 52.9727 106.48 53.4609 106.77 54.0625C107.066 54.6641 107.215 55.3086 107.215 55.9961C107.215 57.0898 106.977 58.0117 106.5 58.7617C106.023 59.5039 105.324 60.0625 104.402 60.4375C103.488 60.8125 102.371 61 101.051 61ZM113.203 43V61H109.816V43H113.203ZM122.836 58.1406V52.4922C122.836 52.0859 122.77 51.7383 122.637 51.4492C122.504 51.1523 122.297 50.9219 122.016 50.7578C121.742 50.5938 121.387 50.5117 120.949 50.5117C120.574 50.5117 120.25 50.5781 119.977 50.7109C119.703 50.8359 119.492 51.0195 119.344 51.2617C119.195 51.4961 119.121 51.7734 119.121 52.0938H115.746C115.746 51.5547 115.871 51.043 116.121 50.5586C116.371 50.0742 116.734 49.6484 117.211 49.2812C117.688 48.9062 118.254 48.6133 118.91 48.4023C119.574 48.1914 120.316 48.0859 121.137 48.0859C122.121 48.0859 122.996 48.25 123.762 48.5781C124.527 48.9062 125.129 49.3984 125.566 50.0547C126.012 50.7109 126.234 51.5312 126.234 52.5156V57.9414C126.234 58.6367 126.277 59.207 126.363 59.6523C126.449 60.0898 126.574 60.4727 126.738 60.8008V61H123.328C123.164 60.6562 123.039 60.2266 122.953 59.7109C122.875 59.1875 122.836 58.6641 122.836 58.1406ZM123.281 53.2773L123.305 55.1875H121.418C120.973 55.1875 120.586 55.2383 120.258 55.3398C119.93 55.4414 119.66 55.5859 119.449 55.7734C119.238 55.9531 119.082 56.1641 118.98 56.4062C118.887 56.6484 118.84 56.9141 118.84 57.2031C118.84 57.4922 118.906 57.7539 119.039 57.9883C119.172 58.2148 119.363 58.3945 119.613 58.5273C119.863 58.6523 120.156 58.7148 120.492 58.7148C121 58.7148 121.441 58.6133 121.816 58.4102C122.191 58.207 122.48 57.957 122.684 57.6602C122.895 57.3633 123.004 57.082 123.012 56.8164L123.902 58.2461C123.777 58.5664 123.605 58.8984 123.387 59.2422C123.176 59.5859 122.906 59.9102 122.578 60.2148C122.25 60.5117 121.855 60.7578 121.395 60.9531C120.934 61.1406 120.387 61.2344 119.754 61.2344C118.949 61.2344 118.219 61.0742 117.562 60.7539C116.914 60.4258 116.398 59.9766 116.016 59.4062C115.641 58.8281 115.453 58.1719 115.453 57.4375C115.453 56.7734 115.578 56.1836 115.828 55.668C116.078 55.1523 116.445 54.7188 116.93 54.3672C117.422 54.0078 118.035 53.7383 118.77 53.5586C119.504 53.3711 120.355 53.2773 121.324 53.2773H123.281ZM134.074 58.5977C134.488 58.5977 134.855 58.5195 135.176 58.3633C135.496 58.1992 135.746 57.9727 135.926 57.6836C136.113 57.3867 136.211 57.0391 136.219 56.6406H139.395C139.387 57.5312 139.148 58.3242 138.68 59.0195C138.211 59.707 137.582 60.25 136.793 60.6484C136.004 61.0391 135.121 61.2344 134.145 61.2344C133.16 61.2344 132.301 61.0703 131.566 60.7422C130.84 60.4141 130.234 59.9609 129.75 59.3828C129.266 58.7969 128.902 58.1172 128.66 57.3438C128.418 56.5625 128.297 55.7266 128.297 54.8359V54.4961C128.297 53.5977 128.418 52.7617 128.66 51.9883C128.902 51.207 129.266 50.5273 129.75 49.9492C130.234 49.3633 130.84 48.9062 131.566 48.5781C132.293 48.25 133.145 48.0859 134.121 48.0859C135.16 48.0859 136.07 48.2852 136.852 48.6836C137.641 49.082 138.258 49.6523 138.703 50.3945C139.156 51.1289 139.387 52 139.395 53.0078H136.219C136.211 52.5859 136.121 52.2031 135.949 51.8594C135.785 51.5156 135.543 51.2422 135.223 51.0391C134.91 50.8281 134.523 50.7227 134.062 50.7227C133.57 50.7227 133.168 50.8281 132.855 51.0391C132.543 51.2422 132.301 51.5234 132.129 51.8828C131.957 52.2344 131.836 52.6367 131.766 53.0898C131.703 53.5352 131.672 54.0039 131.672 54.4961V54.8359C131.672 55.3281 131.703 55.8008 131.766 56.2539C131.828 56.707 131.945 57.1094 132.117 57.4609C132.297 57.8125 132.543 58.0898 132.855 58.293C133.168 58.4961 133.574 58.5977 134.074 58.5977ZM144.727 42.9883V61H141.352V42.9883H144.727ZM152.719 48.3203L147.211 54.6016L144.258 57.5898L143.027 55.1523L145.371 52.1758L148.664 48.3203H152.719ZM149.215 61L145.465 55.1406L147.797 53.1016L153.105 61H149.215ZM162.832 51.8711L166.113 49.75C166.598 49.4297 166.922 49.1211 167.086 48.8242C167.25 48.5273 167.332 48.1953 167.332 47.8281C167.332 47.4609 167.195 47.1211 166.922 46.8086C166.648 46.4883 166.266 46.3281 165.773 46.3281C165.422 46.3281 165.125 46.4102 164.883 46.5742C164.641 46.7305 164.457 46.9414 164.332 47.207C164.215 47.4727 164.156 47.7695 164.156 48.0977C164.156 48.4492 164.25 48.8086 164.438 49.1758C164.625 49.5352 164.879 49.918 165.199 50.3242C165.52 50.7227 165.875 51.1562 166.266 51.625L174.316 61H170.484L163.922 53.4062C163.367 52.7188 162.883 52.0898 162.469 51.5195C162.055 50.9414 161.73 50.3789 161.496 49.832C161.262 49.2852 161.145 48.7227 161.145 48.1445C161.145 47.2539 161.336 46.4766 161.719 45.8125C162.102 45.1406 162.641 44.6211 163.336 44.2539C164.031 43.8789 164.848 43.6914 165.785 43.6914C166.668 43.6914 167.434 43.875 168.082 44.2422C168.73 44.6016 169.23 45.0781 169.582 45.6719C169.941 46.2656 170.121 46.918 170.121 47.6289C170.121 48.1602 170.023 48.6523 169.828 49.1055C169.633 49.5508 169.363 49.9648 169.02 50.3477C168.676 50.7227 168.281 51.0703 167.836 51.3906L164.098 54.0508C163.809 54.3164 163.59 54.5781 163.441 54.8359C163.293 55.0938 163.191 55.3398 163.137 55.5742C163.082 55.8008 163.055 56.0195 163.055 56.2305C163.055 56.6836 163.152 57.0898 163.348 57.4492C163.543 57.8086 163.816 58.0898 164.168 58.293C164.52 58.4961 164.93 58.5977 165.398 58.5977C166.039 58.5977 166.66 58.457 167.262 58.1758C167.863 57.8945 168.402 57.4922 168.879 56.9688C169.355 56.4375 169.734 55.8086 170.016 55.082C170.297 54.3555 170.438 53.5547 170.438 52.6797H173.297C173.297 53.5547 173.211 54.3867 173.039 55.1758C172.867 55.957 172.59 56.6836 172.207 57.3555C171.824 58.0195 171.316 58.6094 170.684 59.125C170.637 59.1641 170.57 59.2227 170.484 59.3008C170.406 59.3711 170.34 59.4258 170.285 59.4648C169.535 60.0664 168.754 60.5156 167.941 60.8125C167.129 61.1016 166.223 61.2461 165.223 61.2461C164.082 61.2461 163.094 61.0391 162.258 60.625C161.43 60.2109 160.789 59.6406 160.336 58.9141C159.891 58.1875 159.668 57.3555 159.668 56.418C159.668 55.7305 159.801 55.1328 160.066 54.625C160.34 54.1094 160.715 53.6328 161.191 53.1953C161.668 52.7578 162.215 52.3164 162.832 51.8711ZM186.246 58.293L189.645 43.9375H191.543L191.977 46.3281L188.355 61H186.316L186.246 58.293ZM184.5 43.9375L187.312 58.293L187.078 61H184.805L181.02 43.9375H184.5ZM194.965 58.2344L197.742 43.9375H201.223L197.449 61H195.176L194.965 58.2344ZM192.609 43.9375L196.031 58.3516L195.938 61H193.898L190.254 46.3164L190.723 43.9375H192.609ZM206.215 43V61H202.84V43H206.215ZM205.734 54.2148H204.809C204.816 53.332 204.934 52.5195 205.16 51.7773C205.387 51.0273 205.711 50.3789 206.133 49.832C206.555 49.2773 207.059 48.8477 207.645 48.543C208.238 48.2383 208.895 48.0859 209.613 48.0859C210.238 48.0859 210.805 48.1758 211.312 48.3555C211.828 48.5273 212.27 48.8086 212.637 49.1992C213.012 49.582 213.301 50.0859 213.504 50.7109C213.707 51.3359 213.809 52.0938 213.809 52.9844V61H210.41V52.9609C210.41 52.3984 210.328 51.957 210.164 51.6367C210.008 51.3086 209.777 51.0781 209.473 50.9453C209.176 50.8047 208.809 50.7344 208.371 50.7344C207.887 50.7344 207.473 50.8242 207.129 51.0039C206.793 51.1836 206.523 51.4336 206.32 51.7539C206.117 52.0664 205.969 52.4336 205.875 52.8555C205.781 53.2773 205.734 53.7305 205.734 54.2148ZM219.938 48.3203V61H216.551V48.3203H219.938ZM216.34 45.0156C216.34 44.5234 216.512 44.1172 216.855 43.7969C217.199 43.4766 217.66 43.3164 218.238 43.3164C218.809 43.3164 219.266 43.4766 219.609 43.7969C219.961 44.1172 220.137 44.5234 220.137 45.0156C220.137 45.5078 219.961 45.9141 219.609 46.2344C219.266 46.5547 218.809 46.7148 218.238 46.7148C217.66 46.7148 217.199 46.5547 216.855 46.2344C216.512 45.9141 216.34 45.5078 216.34 45.0156ZM228.938 48.3203V50.7109H221.555V48.3203H228.938ZM223.383 45.1914H226.758V57.1797C226.758 57.5469 226.805 57.8281 226.898 58.0234C227 58.2188 227.148 58.3555 227.344 58.4336C227.539 58.5039 227.785 58.5391 228.082 58.5391C228.293 58.5391 228.48 58.5312 228.645 58.5156C228.816 58.4922 228.961 58.4688 229.078 58.4453L229.09 60.9297C228.801 61.0234 228.488 61.0977 228.152 61.1523C227.816 61.207 227.445 61.2344 227.039 61.2344C226.297 61.2344 225.648 61.1133 225.094 60.8711C224.547 60.6211 224.125 60.2227 223.828 59.6758C223.531 59.1289 223.383 58.4102 223.383 57.5195V45.1914ZM236.695 61.2344C235.711 61.2344 234.828 61.0781 234.047 60.7656C233.266 60.4453 232.602 60.0039 232.055 59.4414C231.516 58.8789 231.102 58.2266 230.812 57.4844C230.523 56.7344 230.379 55.9375 230.379 55.0938V54.625C230.379 53.6641 230.516 52.7852 230.789 51.9883C231.062 51.1914 231.453 50.5 231.961 49.9141C232.477 49.3281 233.102 48.8789 233.836 48.5664C234.57 48.2461 235.398 48.0859 236.32 48.0859C237.219 48.0859 238.016 48.2344 238.711 48.5312C239.406 48.8281 239.988 49.25 240.457 49.7969C240.934 50.3438 241.293 51 241.535 51.7656C241.777 52.5234 241.898 53.3672 241.898 54.2969V55.7031H231.82V53.4531H238.582V53.1953C238.582 52.7266 238.496 52.3086 238.324 51.9414C238.16 51.5664 237.91 51.2695 237.574 51.0508C237.238 50.832 236.809 50.7227 236.285 50.7227C235.84 50.7227 235.457 50.8203 235.137 51.0156C234.816 51.2109 234.555 51.4844 234.352 51.8359C234.156 52.1875 234.008 52.6016 233.906 53.0781C233.812 53.5469 233.766 54.0625 233.766 54.625V55.0938C233.766 55.6016 233.836 56.0703 233.977 56.5C234.125 56.9297 234.332 57.3008 234.598 57.6133C234.871 57.9258 235.199 58.168 235.582 58.3398C235.973 58.5117 236.414 58.5977 236.906 58.5977C237.516 58.5977 238.082 58.4805 238.605 58.2461C239.137 58.0039 239.594 57.6406 239.977 57.1562L241.617 58.9375C241.352 59.3203 240.988 59.6875 240.527 60.0391C240.074 60.3906 239.527 60.6797 238.887 60.9062C238.246 61.125 237.516 61.2344 236.695 61.2344ZM253.523 43.9375V61H250.008V43.9375H253.523ZM260.32 51.2266V53.9688H252.562V51.2266H260.32ZM261.141 43.9375V46.6914H252.562V43.9375H261.141ZM266.531 48.3203V61H263.145V48.3203H266.531ZM262.934 45.0156C262.934 44.5234 263.105 44.1172 263.449 43.7969C263.793 43.4766 264.254 43.3164 264.832 43.3164C265.402 43.3164 265.859 43.4766 266.203 43.7969C266.555 44.1172 266.73 44.5234 266.73 45.0156C266.73 45.5078 266.555 45.9141 266.203 46.2344C265.859 46.5547 265.402 46.7148 264.832 46.7148C264.254 46.7148 263.793 46.5547 263.449 46.2344C263.105 45.9141 262.934 45.5078 262.934 45.0156ZM272.883 43V61H269.496V43H272.883ZM281.883 48.3203V50.7109H274.5V48.3203H281.883ZM276.328 45.1914H279.703V57.1797C279.703 57.5469 279.75 57.8281 279.844 58.0234C279.945 58.2188 280.094 58.3555 280.289 58.4336C280.484 58.5039 280.73 58.5391 281.027 58.5391C281.238 58.5391 281.426 58.5312 281.59 58.5156C281.762 58.4922 281.906 58.4688 282.023 58.4453L282.035 60.9297C281.746 61.0234 281.434 61.0977 281.098 61.1523C280.762 61.207 280.391 61.2344 279.984 61.2344C279.242 61.2344 278.594 61.1133 278.039 60.8711C277.492 60.6211 277.07 60.2227 276.773 59.6758C276.477 59.1289 276.328 58.4102 276.328 57.5195V45.1914ZM289.641 61.2344C288.656 61.2344 287.773 61.0781 286.992 60.7656C286.211 60.4453 285.547 60.0039 285 59.4414C284.461 58.8789 284.047 58.2266 283.758 57.4844C283.469 56.7344 283.324 55.9375 283.324 55.0938V54.625C283.324 53.6641 283.461 52.7852 283.734 51.9883C284.008 51.1914 284.398 50.5 284.906 49.9141C285.422 49.3281 286.047 48.8789 286.781 48.5664C287.516 48.2461 288.344 48.0859 289.266 48.0859C290.164 48.0859 290.961 48.2344 291.656 48.5312C292.352 48.8281 292.934 49.25 293.402 49.7969C293.879 50.3438 294.238 51 294.48 51.7656C294.723 52.5234 294.844 53.3672 294.844 54.2969V55.7031H284.766V53.4531H291.527V53.1953C291.527 52.7266 291.441 52.3086 291.27 51.9414C291.105 51.5664 290.855 51.2695 290.52 51.0508C290.184 50.832 289.754 50.7227 289.23 50.7227C288.785 50.7227 288.402 50.8203 288.082 51.0156C287.762 51.2109 287.5 51.4844 287.297 51.8359C287.102 52.1875 286.953 52.6016 286.852 53.0781C286.758 53.5469 286.711 54.0625 286.711 54.625V55.0938C286.711 55.6016 286.781 56.0703 286.922 56.5C287.07 56.9297 287.277 57.3008 287.543 57.6133C287.816 57.9258 288.145 58.168 288.527 58.3398C288.918 58.5117 289.359 58.5977 289.852 58.5977C290.461 58.5977 291.027 58.4805 291.551 58.2461C292.082 58.0039 292.539 57.6406 292.922 57.1562L294.562 58.9375C294.297 59.3203 293.934 59.6875 293.473 60.0391C293.02 60.3906 292.473 60.6797 291.832 60.9062C291.191 61.125 290.461 61.2344 289.641 61.2344ZM300.141 51.0859V61H296.766V48.3203H299.941L300.141 51.0859ZM303.961 48.2383L303.902 51.3672C303.738 51.3438 303.539 51.3242 303.305 51.3086C303.078 51.2852 302.871 51.2734 302.684 51.2734C302.207 51.2734 301.793 51.3359 301.441 51.4609C301.098 51.5781 300.809 51.7539 300.574 51.9883C300.348 52.2227 300.176 52.5078 300.059 52.8438C299.949 53.1797 299.887 53.5625 299.871 53.9922L299.191 53.7812C299.191 52.9609 299.273 52.207 299.438 51.5195C299.602 50.8242 299.84 50.2188 300.152 49.7031C300.473 49.1875 300.863 48.7891 301.324 48.5078C301.785 48.2266 302.312 48.0859 302.906 48.0859C303.094 48.0859 303.285 48.1016 303.48 48.1328C303.676 48.1562 303.836 48.1914 303.961 48.2383Z" fill="#888888"/>
<path d="M105.938 113.375C106.672 113.375 107.297 113.242 107.812 112.977C108.344 112.695 108.742 112.305 109.008 111.805C109.289 111.289 109.422 110.672 109.406 109.953H116.836C116.852 111.859 116.383 113.531 115.43 114.969C114.492 116.391 113.211 117.5 111.586 118.297C109.977 119.078 108.156 119.469 106.125 119.469C104.141 119.469 102.406 119.148 100.922 118.508C99.4375 117.852 98.1953 116.945 97.1953 115.789C96.2109 114.617 95.4688 113.25 94.9688 111.688C94.4844 110.125 94.2422 108.43 94.2422 106.602V106.062C94.2422 104.234 94.4844 102.539 94.9688 100.977C95.4688 99.3984 96.2109 98.0312 97.1953 96.875C98.1953 95.7031 99.4297 94.7969 100.898 94.1562C102.383 93.5 104.109 93.1719 106.078 93.1719C108.188 93.1719 110.047 93.5703 111.656 94.3672C113.281 95.1641 114.555 96.3203 115.477 97.8359C116.398 99.3516 116.852 101.188 116.836 103.344H109.406C109.422 102.578 109.305 101.891 109.055 101.281C108.805 100.672 108.414 100.188 107.883 99.8281C107.367 99.4531 106.703 99.2656 105.891 99.2656C105.078 99.2656 104.422 99.4453 103.922 99.8047C103.422 100.164 103.039 100.664 102.773 101.305C102.523 101.93 102.352 102.648 102.258 103.461C102.18 104.273 102.141 105.141 102.141 106.062V106.602C102.141 107.539 102.18 108.422 102.258 109.25C102.352 110.062 102.531 110.781 102.797 111.406C103.062 112.016 103.445 112.5 103.945 112.859C104.445 113.203 105.109 113.375 105.938 113.375ZM128.18 99.9219V119H120.281V93.6406H127.664L128.18 99.9219ZM135.68 93.4531L135.539 100.789C135.227 100.758 134.805 100.719 134.273 100.672C133.742 100.625 133.297 100.602 132.938 100.602C132.016 100.602 131.219 100.711 130.547 100.93C129.891 101.133 129.344 101.445 128.906 101.867C128.484 102.273 128.172 102.789 127.969 103.414C127.781 104.039 127.695 104.766 127.711 105.594L126.281 104.656C126.281 102.953 126.445 101.406 126.773 100.016C127.117 98.6094 127.602 97.3984 128.227 96.3828C128.852 95.3516 129.609 94.5625 130.5 94.0156C131.391 93.4531 132.391 93.1719 133.5 93.1719C133.891 93.1719 134.273 93.1953 134.648 93.2422C135.039 93.2891 135.383 93.3594 135.68 93.4531ZM136.57 106.578V106.086C136.57 104.227 136.836 102.516 137.367 100.953C137.898 99.375 138.68 98.0078 139.711 96.8516C140.742 95.6953 142.016 94.7969 143.531 94.1562C145.047 93.5 146.797 93.1719 148.781 93.1719C150.781 93.1719 152.539 93.5 154.055 94.1562C155.586 94.7969 156.867 95.6953 157.898 96.8516C158.93 98.0078 159.711 99.375 160.242 100.953C160.773 102.516 161.039 104.227 161.039 106.086V106.578C161.039 108.422 160.773 110.133 160.242 111.711C159.711 113.273 158.93 114.641 157.898 115.812C156.867 116.969 155.594 117.867 154.078 118.508C152.562 119.148 150.812 119.469 148.828 119.469C146.844 119.469 145.086 119.148 143.555 118.508C142.023 117.867 140.742 116.969 139.711 115.812C138.68 114.641 137.898 113.273 137.367 111.711C136.836 110.133 136.57 108.422 136.57 106.578ZM144.469 106.086V106.578C144.469 107.531 144.539 108.422 144.68 109.25C144.82 110.078 145.055 110.805 145.383 111.43C145.711 112.039 146.156 112.516 146.719 112.859C147.281 113.203 147.984 113.375 148.828 113.375C149.656 113.375 150.344 113.203 150.891 112.859C151.453 112.516 151.898 112.039 152.227 111.43C152.555 110.805 152.789 110.078 152.93 109.25C153.07 108.422 153.141 107.531 153.141 106.578V106.086C153.141 105.164 153.07 104.297 152.93 103.484C152.789 102.656 152.555 101.93 152.227 101.305C151.898 100.664 151.453 100.164 150.891 99.8047C150.328 99.4453 149.625 99.2656 148.781 99.2656C147.953 99.2656 147.258 99.4453 146.695 99.8047C146.148 100.164 145.711 100.664 145.383 101.305C145.055 101.93 144.82 102.656 144.68 103.484C144.539 104.297 144.469 105.164 144.469 106.086ZM172.523 98.5156V128.75H164.625V93.6406H171.984L172.523 98.5156ZM188.086 106.016V106.508C188.086 108.352 187.875 110.062 187.453 111.641C187.031 113.219 186.406 114.594 185.578 115.766C184.75 116.938 183.719 117.852 182.484 118.508C181.266 119.148 179.852 119.469 178.242 119.469C176.727 119.469 175.422 119.133 174.328 118.461C173.234 117.789 172.32 116.859 171.586 115.672C170.852 114.484 170.258 113.125 169.805 111.594C169.352 110.062 168.992 108.445 168.727 106.742V106.109C168.992 104.281 169.352 102.586 169.805 101.023C170.258 99.4453 170.852 98.0703 171.586 96.8984C172.32 95.7266 173.227 94.8125 174.305 94.1562C175.398 93.5 176.703 93.1719 178.219 93.1719C179.828 93.1719 181.242 93.4766 182.461 94.0859C183.695 94.6953 184.727 95.5703 185.555 96.7109C186.398 97.8359 187.031 99.1875 187.453 100.766C187.875 102.344 188.086 104.094 188.086 106.016ZM180.188 106.508V106.016C180.188 105.031 180.117 104.133 179.977 103.32C179.836 102.492 179.609 101.773 179.297 101.164C179 100.555 178.602 100.086 178.102 99.7578C177.602 99.4297 176.984 99.2656 176.25 99.2656C175.406 99.2656 174.695 99.3984 174.117 99.6641C173.555 99.9141 173.102 100.305 172.758 100.836C172.43 101.352 172.195 102 172.055 102.781C171.93 103.547 171.875 104.445 171.891 105.477V107.398C171.859 108.586 171.977 109.633 172.242 110.539C172.508 111.43 172.969 112.125 173.625 112.625C174.281 113.125 175.172 113.375 176.297 113.375C177.047 113.375 177.672 113.203 178.172 112.859C178.672 112.5 179.07 112.008 179.367 111.383C179.664 110.742 179.875 110.008 180 109.18C180.125 108.352 180.188 107.461 180.188 106.508ZM211.898 93.6406V119H203.977V93.6406H211.898ZM203.508 87.1016C203.508 85.9766 203.914 85.0547 204.727 84.3359C205.539 83.6172 206.594 83.2578 207.891 83.2578C209.188 83.2578 210.242 83.6172 211.055 84.3359C211.867 85.0547 212.273 85.9766 212.273 87.1016C212.273 88.2266 211.867 89.1484 211.055 89.8672C210.242 90.5859 209.188 90.9453 207.891 90.9453C206.594 90.9453 205.539 90.5859 204.727 89.8672C203.914 89.1484 203.508 88.2266 203.508 87.1016ZM224.742 99.0078V119H216.844V93.6406H224.25L224.742 99.0078ZM223.781 105.453L221.977 105.5C221.977 103.719 222.188 102.078 222.609 100.578C223.031 99.0781 223.656 97.7734 224.484 96.6641C225.312 95.5547 226.328 94.6953 227.531 94.0859C228.75 93.4766 230.156 93.1719 231.75 93.1719C232.859 93.1719 233.867 93.3438 234.773 93.6875C235.68 94.0156 236.461 94.5391 237.117 95.2578C237.773 95.9609 238.273 96.8828 238.617 98.0234C238.977 99.1484 239.156 100.5 239.156 102.078V119H231.258V103.086C231.258 102.008 231.133 101.195 230.883 100.648C230.648 100.102 230.305 99.7344 229.852 99.5469C229.398 99.3594 228.844 99.2656 228.188 99.2656C227.5 99.2656 226.883 99.4219 226.336 99.7344C225.789 100.047 225.32 100.484 224.93 101.047C224.555 101.594 224.266 102.242 224.062 102.992C223.875 103.742 223.781 104.562 223.781 105.453ZM238.266 105.453L236.062 105.5C236.062 103.719 236.258 102.078 236.648 100.578C237.055 99.0781 237.656 97.7734 238.453 96.6641C239.266 95.5547 240.273 94.6953 241.477 94.0859C242.68 93.4766 244.078 93.1719 245.672 93.1719C246.828 93.1719 247.891 93.3438 248.859 93.6875C249.828 94.0312 250.664 94.5859 251.367 95.3516C252.07 96.1172 252.617 97.1328 253.008 98.3984C253.398 99.6484 253.594 101.195 253.594 103.039V119H245.672V103.039C245.672 101.992 245.547 101.203 245.297 100.672C245.062 100.125 244.719 99.7578 244.266 99.5703C243.812 99.3672 243.273 99.2656 242.648 99.2656C241.898 99.2656 241.25 99.4219 240.703 99.7344C240.156 100.047 239.695 100.484 239.32 101.047C238.961 101.594 238.695 102.242 238.523 102.992C238.352 103.742 238.266 104.562 238.266 105.453ZM271.289 112.625V102.172C271.289 101.453 271.188 100.836 270.984 100.32C270.781 99.8047 270.461 99.4062 270.023 99.125C269.586 98.8281 269 98.6797 268.266 98.6797C267.672 98.6797 267.164 98.7812 266.742 98.9844C266.32 99.1875 266 99.4922 265.781 99.8984C265.562 100.305 265.453 100.82 265.453 101.445H257.555C257.555 100.273 257.812 99.1875 258.328 98.1875C258.859 97.1719 259.609 96.2891 260.578 95.5391C261.562 94.7891 262.734 94.2109 264.094 93.8047C265.469 93.3828 267 93.1719 268.688 93.1719C270.703 93.1719 272.5 93.5078 274.078 94.1797C275.672 94.8516 276.93 95.8594 277.852 97.2031C278.773 98.5312 279.234 100.203 279.234 102.219V112.602C279.234 114.258 279.328 115.516 279.516 116.375C279.703 117.219 279.969 117.961 280.312 118.602V119H272.391C272.016 118.219 271.734 117.266 271.547 116.141C271.375 115 271.289 113.828 271.289 112.625ZM272.25 103.508L272.297 107.727H268.805C268.07 107.727 267.445 107.828 266.93 108.031C266.43 108.234 266.023 108.516 265.711 108.875C265.414 109.219 265.195 109.609 265.055 110.047C264.93 110.484 264.867 110.945 264.867 111.43C264.867 111.898 264.977 112.32 265.195 112.695C265.43 113.055 265.742 113.336 266.133 113.539C266.523 113.742 266.961 113.844 267.445 113.844C268.32 113.844 269.062 113.68 269.672 113.352C270.297 113.008 270.773 112.594 271.102 112.109C271.43 111.625 271.594 111.172 271.594 110.75L273.328 113.984C273.016 114.609 272.656 115.242 272.25 115.883C271.859 116.523 271.367 117.117 270.773 117.664C270.195 118.195 269.484 118.633 268.641 118.977C267.797 119.305 266.773 119.469 265.57 119.469C264.008 119.469 262.57 119.148 261.258 118.508C259.961 117.867 258.922 116.977 258.141 115.836C257.359 114.68 256.969 113.352 256.969 111.852C256.969 110.539 257.203 109.367 257.672 108.336C258.156 107.305 258.883 106.43 259.852 105.711C260.82 104.992 262.055 104.445 263.555 104.07C265.055 103.695 266.82 103.508 268.852 103.508H272.25ZM299.555 93.6406H306.727V118.016C306.727 120.359 306.188 122.344 305.109 123.969C304.031 125.609 302.523 126.852 300.586 127.695C298.664 128.555 296.414 128.984 293.836 128.984C292.695 128.984 291.531 128.836 290.344 128.539C289.156 128.258 288.047 127.836 287.016 127.273C285.984 126.711 285.117 126.016 284.414 125.188L287.719 120.547C288.359 121.266 289.164 121.875 290.133 122.375C291.102 122.891 292.242 123.148 293.555 123.148C294.695 123.148 295.648 122.945 296.414 122.539C297.195 122.133 297.789 121.539 298.195 120.758C298.602 119.992 298.805 119.062 298.805 117.969V99.6406L299.555 93.6406ZM282.703 106.625V106.133C282.703 104.211 282.938 102.461 283.406 100.883C283.891 99.2891 284.578 97.9219 285.469 96.7812C286.375 95.625 287.469 94.7344 288.75 94.1094C290.031 93.4844 291.477 93.1719 293.086 93.1719C294.82 93.1719 296.242 93.5078 297.352 94.1797C298.477 94.8359 299.375 95.7578 300.047 96.9453C300.734 98.1328 301.266 99.5234 301.641 101.117C302.031 102.695 302.359 104.398 302.625 106.227V106.812C302.359 108.531 301.992 110.156 301.523 111.688C301.07 113.203 300.477 114.547 299.742 115.719C299.008 116.891 298.086 117.812 296.977 118.484C295.883 119.141 294.57 119.469 293.039 119.469C291.445 119.469 290.008 119.148 288.727 118.508C287.461 117.867 286.375 116.969 285.469 115.812C284.578 114.656 283.891 113.297 283.406 111.734C282.938 110.172 282.703 108.469 282.703 106.625ZM290.602 106.133V106.625C290.602 107.578 290.688 108.461 290.859 109.273C291.047 110.086 291.328 110.805 291.703 111.43C292.078 112.039 292.539 112.516 293.086 112.859C293.648 113.203 294.305 113.375 295.055 113.375C296.195 113.375 297.117 113.133 297.82 112.648C298.523 112.164 299.031 111.477 299.344 110.586C299.656 109.695 299.789 108.648 299.742 107.445V105.594C299.773 104.562 299.703 103.656 299.531 102.875C299.359 102.078 299.086 101.414 298.711 100.883C298.352 100.352 297.867 99.9531 297.258 99.6875C296.664 99.4062 295.945 99.2656 295.102 99.2656C294.367 99.2656 293.719 99.4375 293.156 99.7812C292.594 100.125 292.125 100.609 291.75 101.234C291.375 101.844 291.086 102.57 290.883 103.414C290.695 104.242 290.602 105.148 290.602 106.133ZM323.555 119.469C321.492 119.469 319.648 119.148 318.023 118.508C316.398 117.852 315.023 116.953 313.898 115.812C312.789 114.672 311.938 113.359 311.344 111.875C310.766 110.391 310.477 108.82 310.477 107.164V106.273C310.477 104.414 310.734 102.695 311.25 101.117C311.766 99.5234 312.531 98.1328 313.547 96.9453C314.562 95.7578 315.836 94.8359 317.367 94.1797C318.898 93.5078 320.68 93.1719 322.711 93.1719C324.508 93.1719 326.117 93.4609 327.539 94.0391C328.961 94.6172 330.164 95.4453 331.148 96.5234C332.148 97.6016 332.906 98.9062 333.422 100.438C333.953 101.969 334.219 103.688 334.219 105.594V108.805H313.5V103.859H326.508V103.25C326.523 102.406 326.375 101.688 326.062 101.094C325.766 100.5 325.328 100.047 324.75 99.7344C324.172 99.4219 323.469 99.2656 322.641 99.2656C321.781 99.2656 321.07 99.4531 320.508 99.8281C319.961 100.203 319.531 100.719 319.219 101.375C318.922 102.016 318.711 102.758 318.586 103.602C318.461 104.445 318.398 105.336 318.398 106.273V107.164C318.398 108.102 318.523 108.953 318.773 109.719C319.039 110.484 319.414 111.141 319.898 111.688C320.398 112.219 320.992 112.633 321.68 112.93C322.383 113.227 323.18 113.375 324.07 113.375C325.148 113.375 326.211 113.172 327.258 112.766C328.305 112.359 329.203 111.688 329.953 110.75L333.539 115.016C333.023 115.75 332.289 116.461 331.336 117.148C330.398 117.836 329.273 118.398 327.961 118.836C326.648 119.258 325.18 119.469 323.555 119.469ZM350.719 111.875C350.719 111.438 350.57 111.062 350.273 110.75C349.992 110.422 349.492 110.125 348.773 109.859C348.055 109.578 347.047 109.297 345.75 109.016C344.516 108.75 343.352 108.398 342.258 107.961C341.18 107.523 340.234 106.992 339.422 106.367C338.609 105.742 337.969 105 337.5 104.141C337.047 103.281 336.82 102.297 336.82 101.188C336.82 100.109 337.047 99.0938 337.5 98.1406C337.969 97.1719 338.648 96.3203 339.539 95.5859C340.445 94.8359 341.547 94.25 342.844 93.8281C344.141 93.3906 345.617 93.1719 347.273 93.1719C349.555 93.1719 351.523 93.5234 353.18 94.2266C354.836 94.9141 356.109 95.8828 357 97.1328C357.906 98.3672 358.359 99.7969 358.359 101.422H350.461C350.461 100.781 350.352 100.234 350.133 99.7812C349.93 99.3281 349.594 98.9844 349.125 98.75C348.656 98.5 348.031 98.375 347.25 98.375C346.703 98.375 346.203 98.4766 345.75 98.6797C345.312 98.8828 344.961 99.1641 344.695 99.5234C344.43 99.8828 344.297 100.305 344.297 100.789C344.297 101.133 344.375 101.445 344.531 101.727C344.703 101.992 344.961 102.242 345.305 102.477C345.648 102.695 346.086 102.898 346.617 103.086C347.148 103.258 347.789 103.414 348.539 103.555C350.242 103.867 351.836 104.312 353.32 104.891C354.805 105.469 356.008 106.289 356.93 107.352C357.867 108.414 358.336 109.844 358.336 111.641C358.336 112.766 358.078 113.805 357.562 114.758C357.047 115.695 356.305 116.523 355.336 117.242C354.367 117.945 353.203 118.492 351.844 118.883C350.484 119.273 348.953 119.469 347.25 119.469C344.828 119.469 342.781 119.039 341.109 118.18C339.438 117.305 338.172 116.211 337.312 114.898C336.469 113.57 336.047 112.227 336.047 110.867H343.406C343.438 111.648 343.625 112.289 343.969 112.789C344.328 113.289 344.805 113.656 345.398 113.891C345.992 114.125 346.68 114.242 347.461 114.242C348.18 114.242 348.773 114.141 349.242 113.938C349.727 113.734 350.094 113.461 350.344 113.117C350.594 112.758 350.719 112.344 350.719 111.875ZM388.805 112.836V93.6406H396.727V119H389.32L388.805 112.836ZM389.555 107.68L391.617 107.633C391.617 109.336 391.414 110.914 391.008 112.367C390.602 113.805 390 115.055 389.203 116.117C388.422 117.18 387.453 118.008 386.297 118.602C385.156 119.18 383.836 119.469 382.336 119.469C381.086 119.469 379.938 119.297 378.891 118.953C377.859 118.594 376.969 118.039 376.219 117.289C375.469 116.523 374.883 115.547 374.461 114.359C374.055 113.156 373.852 111.719 373.852 110.047V93.6406H381.75V110.094C381.75 110.656 381.82 111.141 381.961 111.547C382.102 111.953 382.305 112.297 382.57 112.578C382.836 112.844 383.164 113.047 383.555 113.188C383.961 113.312 384.422 113.375 384.938 113.375C386.125 113.375 387.055 113.125 387.727 112.625C388.398 112.125 388.867 111.445 389.133 110.586C389.414 109.727 389.555 108.758 389.555 107.68ZM414.375 111.875C414.375 111.438 414.227 111.062 413.93 110.75C413.648 110.422 413.148 110.125 412.43 109.859C411.711 109.578 410.703 109.297 409.406 109.016C408.172 108.75 407.008 108.398 405.914 107.961C404.836 107.523 403.891 106.992 403.078 106.367C402.266 105.742 401.625 105 401.156 104.141C400.703 103.281 400.477 102.297 400.477 101.188C400.477 100.109 400.703 99.0938 401.156 98.1406C401.625 97.1719 402.305 96.3203 403.195 95.5859C404.102 94.8359 405.203 94.25 406.5 93.8281C407.797 93.3906 409.273 93.1719 410.93 93.1719C413.211 93.1719 415.18 93.5234 416.836 94.2266C418.492 94.9141 419.766 95.8828 420.656 97.1328C421.562 98.3672 422.016 99.7969 422.016 101.422H414.117C414.117 100.781 414.008 100.234 413.789 99.7812C413.586 99.3281 413.25 98.9844 412.781 98.75C412.312 98.5 411.688 98.375 410.906 98.375C410.359 98.375 409.859 98.4766 409.406 98.6797C408.969 98.8828 408.617 99.1641 408.352 99.5234C408.086 99.8828 407.953 100.305 407.953 100.789C407.953 101.133 408.031 101.445 408.188 101.727C408.359 101.992 408.617 102.242 408.961 102.477C409.305 102.695 409.742 102.898 410.273 103.086C410.805 103.258 411.445 103.414 412.195 103.555C413.898 103.867 415.492 104.312 416.977 104.891C418.461 105.469 419.664 106.289 420.586 107.352C421.523 108.414 421.992 109.844 421.992 111.641C421.992 112.766 421.734 113.805 421.219 114.758C420.703 115.695 419.961 116.523 418.992 117.242C418.023 117.945 416.859 118.492 415.5 118.883C414.141 119.273 412.609 119.469 410.906 119.469C408.484 119.469 406.438 119.039 404.766 118.18C403.094 117.305 401.828 116.211 400.969 114.898C400.125 113.57 399.703 112.227 399.703 110.867H407.062C407.094 111.648 407.281 112.289 407.625 112.789C407.984 113.289 408.461 113.656 409.055 113.891C409.648 114.125 410.336 114.242 411.117 114.242C411.836 114.242 412.43 114.141 412.898 113.938C413.383 113.734 413.75 113.461 414 113.117C414.25 112.758 414.375 112.344 414.375 111.875ZM434.039 93.6406V119H426.117V93.6406H434.039ZM425.648 87.1016C425.648 85.9766 426.055 85.0547 426.867 84.3359C427.68 83.6172 428.734 83.2578 430.031 83.2578C431.328 83.2578 432.383 83.6172 433.195 84.3359C434.008 85.0547 434.414 85.9766 434.414 87.1016C434.414 88.2266 434.008 89.1484 433.195 89.8672C432.383 90.5859 431.328 90.9453 430.031 90.9453C428.734 90.9453 427.68 90.5859 426.867 89.8672C426.055 89.1484 425.648 88.2266 425.648 87.1016ZM446.672 99.0547V119H438.773V93.6406H446.18L446.672 99.0547ZM445.734 105.453L443.883 105.5C443.883 103.562 444.117 101.836 444.586 100.32C445.055 98.7891 445.719 97.4922 446.578 96.4297C447.438 95.3672 448.461 94.5625 449.648 94.0156C450.852 93.4531 452.188 93.1719 453.656 93.1719C454.828 93.1719 455.898 93.3438 456.867 93.6875C457.852 94.0312 458.695 94.5859 459.398 95.3516C460.117 96.1172 460.664 97.1328 461.039 98.3984C461.43 99.6484 461.625 101.195 461.625 103.039V119H453.68V103.016C453.68 102 453.539 101.227 453.258 100.695C452.977 100.148 452.57 99.7734 452.039 99.5703C451.508 99.3672 450.859 99.2656 450.094 99.2656C449.281 99.2656 448.594 99.4219 448.031 99.7344C447.469 100.047 447.016 100.484 446.672 101.047C446.344 101.594 446.102 102.242 445.945 102.992C445.805 103.742 445.734 104.562 445.734 105.453ZM481.945 93.6406H489.117V118.016C489.117 120.359 488.578 122.344 487.5 123.969C486.422 125.609 484.914 126.852 482.977 127.695C481.055 128.555 478.805 128.984 476.227 128.984C475.086 128.984 473.922 128.836 472.734 128.539C471.547 128.258 470.438 127.836 469.406 127.273C468.375 126.711 467.508 126.016 466.805 125.188L470.109 120.547C470.75 121.266 471.555 121.875 472.523 122.375C473.492 122.891 474.633 123.148 475.945 123.148C477.086 123.148 478.039 122.945 478.805 122.539C479.586 122.133 480.18 121.539 480.586 120.758C480.992 119.992 481.195 119.062 481.195 117.969V99.6406L481.945 93.6406ZM465.094 106.625V106.133C465.094 104.211 465.328 102.461 465.797 100.883C466.281 99.2891 466.969 97.9219 467.859 96.7812C468.766 95.625 469.859 94.7344 471.141 94.1094C472.422 93.4844 473.867 93.1719 475.477 93.1719C477.211 93.1719 478.633 93.5078 479.742 94.1797C480.867 94.8359 481.766 95.7578 482.438 96.9453C483.125 98.1328 483.656 99.5234 484.031 101.117C484.422 102.695 484.75 104.398 485.016 106.227V106.812C484.75 108.531 484.383 110.156 483.914 111.688C483.461 113.203 482.867 114.547 482.133 115.719C481.398 116.891 480.477 117.812 479.367 118.484C478.273 119.141 476.961 119.469 475.43 119.469C473.836 119.469 472.398 119.148 471.117 118.508C469.852 117.867 468.766 116.969 467.859 115.812C466.969 114.656 466.281 113.297 465.797 111.734C465.328 110.172 465.094 108.469 465.094 106.625ZM472.992 106.133V106.625C472.992 107.578 473.078 108.461 473.25 109.273C473.438 110.086 473.719 110.805 474.094 111.43C474.469 112.039 474.93 112.516 475.477 112.859C476.039 113.203 476.695 113.375 477.445 113.375C478.586 113.375 479.508 113.133 480.211 112.648C480.914 112.164 481.422 111.477 481.734 110.586C482.047 109.695 482.18 108.648 482.133 107.445V105.594C482.164 104.562 482.094 103.656 481.922 102.875C481.75 102.078 481.477 101.414 481.102 100.883C480.742 100.352 480.258 99.9531 479.648 99.6875C479.055 99.4062 478.336 99.2656 477.492 99.2656C476.758 99.2656 476.109 99.4375 475.547 99.7812C474.984 100.125 474.516 100.609 474.141 101.234C473.766 101.844 473.477 102.57 473.273 103.414C473.086 104.242 472.992 105.148 472.992 106.133ZM518.977 93.6406V99.125H503.695V93.6406H518.977ZM506.906 87.3359H514.805V110.727C514.805 111.398 514.883 111.922 515.039 112.297C515.195 112.656 515.461 112.914 515.836 113.07C516.227 113.211 516.742 113.281 517.383 113.281C517.836 113.281 518.211 113.273 518.508 113.258C518.805 113.227 519.086 113.188 519.352 113.141V118.789C518.68 119.008 517.977 119.172 517.242 119.281C516.508 119.406 515.727 119.469 514.898 119.469C513.211 119.469 511.766 119.203 510.562 118.672C509.375 118.141 508.469 117.305 507.844 116.164C507.219 115.023 506.906 113.539 506.906 111.711V87.3359ZM529.852 83V119H521.953V83H529.852ZM528.914 105.453L527.062 105.5C527.062 103.719 527.281 102.078 527.719 100.578C528.156 99.0781 528.781 97.7734 529.594 96.6641C530.406 95.5547 531.383 94.6953 532.523 94.0859C533.664 93.4766 534.93 93.1719 536.32 93.1719C537.57 93.1719 538.711 93.3516 539.742 93.7109C540.789 94.0703 541.688 94.6484 542.438 95.4453C543.203 96.2422 543.789 97.2812 544.195 98.5625C544.617 99.8438 544.828 101.406 544.828 103.25V119H536.883V103.203C536.883 102.172 536.734 101.375 536.438 100.812C536.156 100.234 535.75 99.8359 535.219 99.6172C534.688 99.3828 534.039 99.2656 533.273 99.2656C532.352 99.2656 531.602 99.4219 531.023 99.7344C530.445 100.047 530 100.484 529.688 101.047C529.391 101.594 529.188 102.242 529.078 102.992C528.969 103.742 528.914 104.562 528.914 105.453ZM561.492 119.469C559.43 119.469 557.586 119.148 555.961 118.508C554.336 117.852 552.961 116.953 551.836 115.812C550.727 114.672 549.875 113.359 549.281 111.875C548.703 110.391 548.414 108.82 548.414 107.164V106.273C548.414 104.414 548.672 102.695 549.188 101.117C549.703 99.5234 550.469 98.1328 551.484 96.9453C552.5 95.7578 553.773 94.8359 555.305 94.1797C556.836 93.5078 558.617 93.1719 560.648 93.1719C562.445 93.1719 564.055 93.4609 565.477 94.0391C566.898 94.6172 568.102 95.4453 569.086 96.5234C570.086 97.6016 570.844 98.9062 571.359 100.438C571.891 101.969 572.156 103.688 572.156 105.594V108.805H551.438V103.859H564.445V103.25C564.461 102.406 564.312 101.688 564 101.094C563.703 100.5 563.266 100.047 562.688 99.7344C562.109 99.4219 561.406 99.2656 560.578 99.2656C559.719 99.2656 559.008 99.4531 558.445 99.8281C557.898 100.203 557.469 100.719 557.156 101.375C556.859 102.016 556.648 102.758 556.523 103.602C556.398 104.445 556.336 105.336 556.336 106.273V107.164C556.336 108.102 556.461 108.953 556.711 109.719C556.977 110.484 557.352 111.141 557.836 111.688C558.336 112.219 558.93 112.633 559.617 112.93C560.32 113.227 561.117 113.375 562.008 113.375C563.086 113.375 564.148 113.172 565.195 112.766C566.242 112.359 567.141 111.688 567.891 110.75L571.477 115.016C570.961 115.75 570.227 116.461 569.273 117.148C568.336 117.836 567.211 118.398 565.898 118.836C564.586 119.258 563.117 119.469 561.492 119.469ZM595.289 99.9219V119H587.391V93.6406H594.773L595.289 99.9219ZM602.789 93.4531L602.648 100.789C602.336 100.758 601.914 100.719 601.383 100.672C600.852 100.625 600.406 100.602 600.047 100.602C599.125 100.602 598.328 100.711 597.656 100.93C597 101.133 596.453 101.445 596.016 101.867C595.594 102.273 595.281 102.789 595.078 103.414C594.891 104.039 594.805 104.766 594.82 105.594L593.391 104.656C593.391 102.953 593.555 101.406 593.883 100.016C594.227 98.6094 594.711 97.3984 595.336 96.3828C595.961 95.3516 596.719 94.5625 597.609 94.0156C598.5 93.4531 599.5 93.1719 600.609 93.1719C601 93.1719 601.383 93.1953 601.758 93.2422C602.148 93.2891 602.492 93.3594 602.789 93.4531ZM617.32 119.469C615.258 119.469 613.414 119.148 611.789 118.508C610.164 117.852 608.789 116.953 607.664 115.812C606.555 114.672 605.703 113.359 605.109 111.875C604.531 110.391 604.242 108.82 604.242 107.164V106.273C604.242 104.414 604.5 102.695 605.016 101.117C605.531 99.5234 606.297 98.1328 607.312 96.9453C608.328 95.7578 609.602 94.8359 611.133 94.1797C612.664 93.5078 614.445 93.1719 616.477 93.1719C618.273 93.1719 619.883 93.4609 621.305 94.0391C622.727 94.6172 623.93 95.4453 624.914 96.5234C625.914 97.6016 626.672 98.9062 627.188 100.438C627.719 101.969 627.984 103.688 627.984 105.594V108.805H607.266V103.859H620.273V103.25C620.289 102.406 620.141 101.688 619.828 101.094C619.531 100.5 619.094 100.047 618.516 99.7344C617.938 99.4219 617.234 99.2656 616.406 99.2656C615.547 99.2656 614.836 99.4531 614.273 99.8281C613.727 100.203 613.297 100.719 612.984 101.375C612.688 102.016 612.477 102.758 612.352 103.602C612.227 104.445 612.164 105.336 612.164 106.273V107.164C612.164 108.102 612.289 108.953 612.539 109.719C612.805 110.484 613.18 111.141 613.664 111.688C614.164 112.219 614.758 112.633 615.445 112.93C616.148 113.227 616.945 113.375 617.836 113.375C618.914 113.375 619.977 113.172 621.023 112.766C622.07 112.359 622.969 111.688 623.719 110.75L627.305 115.016C626.789 115.75 626.055 116.461 625.102 117.148C624.164 117.836 623.039 118.398 621.727 118.836C620.414 119.258 618.945 119.469 617.32 119.469ZM644.367 112.625V102.172C644.367 101.453 644.266 100.836 644.062 100.32C643.859 99.8047 643.539 99.4062 643.102 99.125C642.664 98.8281 642.078 98.6797 641.344 98.6797C640.75 98.6797 640.242 98.7812 639.82 98.9844C639.398 99.1875 639.078 99.4922 638.859 99.8984C638.641 100.305 638.531 100.82 638.531 101.445H630.633C630.633 100.273 630.891 99.1875 631.406 98.1875C631.938 97.1719 632.688 96.2891 633.656 95.5391C634.641 94.7891 635.812 94.2109 637.172 93.8047C638.547 93.3828 640.078 93.1719 641.766 93.1719C643.781 93.1719 645.578 93.5078 647.156 94.1797C648.75 94.8516 650.008 95.8594 650.93 97.2031C651.852 98.5312 652.312 100.203 652.312 102.219V112.602C652.312 114.258 652.406 115.516 652.594 116.375C652.781 117.219 653.047 117.961 653.391 118.602V119H645.469C645.094 118.219 644.812 117.266 644.625 116.141C644.453 115 644.367 113.828 644.367 112.625ZM645.328 103.508L645.375 107.727H641.883C641.148 107.727 640.523 107.828 640.008 108.031C639.508 108.234 639.102 108.516 638.789 108.875C638.492 109.219 638.273 109.609 638.133 110.047C638.008 110.484 637.945 110.945 637.945 111.43C637.945 111.898 638.055 112.32 638.273 112.695C638.508 113.055 638.82 113.336 639.211 113.539C639.602 113.742 640.039 113.844 640.523 113.844C641.398 113.844 642.141 113.68 642.75 113.352C643.375 113.008 643.852 112.594 644.18 112.109C644.508 111.625 644.672 111.172 644.672 110.75L646.406 113.984C646.094 114.609 645.734 115.242 645.328 115.883C644.938 116.523 644.445 117.117 643.852 117.664C643.273 118.195 642.562 118.633 641.719 118.977C640.875 119.305 639.852 119.469 638.648 119.469C637.086 119.469 635.648 119.148 634.336 118.508C633.039 117.867 632 116.977 631.219 115.836C630.438 114.68 630.047 113.352 630.047 111.852C630.047 110.539 630.281 109.367 630.75 108.336C631.234 107.305 631.961 106.43 632.93 105.711C633.898 104.992 635.133 104.445 636.633 104.07C638.133 103.695 639.898 103.508 641.93 103.508H645.328ZM667.406 113.375C668.141 113.375 668.766 113.242 669.281 112.977C669.812 112.695 670.211 112.305 670.477 111.805C670.758 111.289 670.891 110.672 670.875 109.953H678.305C678.32 111.859 677.852 113.531 676.898 114.969C675.961 116.391 674.68 117.5 673.055 118.297C671.445 119.078 669.625 119.469 667.594 119.469C665.609 119.469 663.875 119.148 662.391 118.508C660.906 117.852 659.664 116.945 658.664 115.789C657.68 114.617 656.938 113.25 656.438 111.688C655.953 110.125 655.711 108.43 655.711 106.602V106.062C655.711 104.234 655.953 102.539 656.438 100.977C656.938 99.3984 657.68 98.0312 658.664 96.875C659.664 95.7031 660.898 94.7969 662.367 94.1562C663.852 93.5 665.578 93.1719 667.547 93.1719C669.656 93.1719 671.516 93.5703 673.125 94.3672C674.75 95.1641 676.023 96.3203 676.945 97.8359C677.867 99.3516 678.32 101.188 678.305 103.344H670.875C670.891 102.578 670.773 101.891 670.523 101.281C670.273 100.672 669.883 100.188 669.352 99.8281C668.836 99.4531 668.172 99.2656 667.359 99.2656C666.547 99.2656 665.891 99.4453 665.391 99.8047C664.891 100.164 664.508 100.664 664.242 101.305C663.992 101.93 663.82 102.648 663.727 103.461C663.648 104.273 663.609 105.141 663.609 106.062V106.602C663.609 107.539 663.648 108.422 663.727 109.25C663.82 110.062 664 110.781 664.266 111.406C664.531 112.016 664.914 112.5 665.414 112.859C665.914 113.203 666.578 113.375 667.406 113.375ZM695.039 93.6406V99.125H679.758V93.6406H695.039ZM682.969 87.3359H690.867V110.727C690.867 111.398 690.945 111.922 691.102 112.297C691.258 112.656 691.523 112.914 691.898 113.07C692.289 113.211 692.805 113.281 693.445 113.281C693.898 113.281 694.273 113.273 694.57 113.258C694.867 113.227 695.148 113.188 695.414 113.141V118.789C694.742 119.008 694.039 119.172 693.305 119.281C692.57 119.406 691.789 119.469 690.961 119.469C689.273 119.469 687.828 119.203 686.625 118.672C685.438 118.141 684.531 117.305 683.906 116.164C683.281 115.023 682.969 113.539 682.969 111.711V87.3359ZM713.602 101.234V107.352H699.516V101.234H713.602ZM730.5 113.375C731.234 113.375 731.859 113.242 732.375 112.977C732.906 112.695 733.305 112.305 733.57 111.805C733.852 111.289 733.984 110.672 733.969 109.953H741.398C741.414 111.859 740.945 113.531 739.992 114.969C739.055 116.391 737.773 117.5 736.148 118.297C734.539 119.078 732.719 119.469 730.688 119.469C728.703 119.469 726.969 119.148 725.484 118.508C724 117.852 722.758 116.945 721.758 115.789C720.773 114.617 720.031 113.25 719.531 111.688C719.047 110.125 718.805 108.43 718.805 106.602V106.062C718.805 104.234 719.047 102.539 719.531 100.977C720.031 99.3984 720.773 98.0312 721.758 96.875C722.758 95.7031 723.992 94.7969 725.461 94.1562C726.945 93.5 728.672 93.1719 730.641 93.1719C732.75 93.1719 734.609 93.5703 736.219 94.3672C737.844 95.1641 739.117 96.3203 740.039 97.8359C740.961 99.3516 741.414 101.188 741.398 103.344H733.969C733.984 102.578 733.867 101.891 733.617 101.281C733.367 100.672 732.977 100.188 732.445 99.8281C731.93 99.4531 731.266 99.2656 730.453 99.2656C729.641 99.2656 728.984 99.4453 728.484 99.8047C727.984 100.164 727.602 100.664 727.336 101.305C727.086 101.93 726.914 102.648 726.82 103.461C726.742 104.273 726.703 105.141 726.703 106.062V106.602C726.703 107.539 726.742 108.422 726.82 109.25C726.914 110.062 727.094 110.781 727.359 111.406C727.625 112.016 728.008 112.5 728.508 112.859C729.008 113.203 729.672 113.375 730.5 113.375ZM752.742 99.9219V119H744.844V93.6406H752.227L752.742 99.9219ZM760.242 93.4531L760.102 100.789C759.789 100.758 759.367 100.719 758.836 100.672C758.305 100.625 757.859 100.602 757.5 100.602C756.578 100.602 755.781 100.711 755.109 100.93C754.453 101.133 753.906 101.445 753.469 101.867C753.047 102.273 752.734 102.789 752.531 103.414C752.344 104.039 752.258 104.766 752.273 105.594L750.844 104.656C750.844 102.953 751.008 101.406 751.336 100.016C751.68 98.6094 752.164 97.3984 752.789 96.3828C753.414 95.3516 754.172 94.5625 755.062 94.0156C755.953 93.4531 756.953 93.1719 758.062 93.1719C758.453 93.1719 758.836 93.1953 759.211 93.2422C759.602 93.2891 759.945 93.3594 760.242 93.4531ZM761.133 106.578V106.086C761.133 104.227 761.398 102.516 761.93 100.953C762.461 99.375 763.242 98.0078 764.273 96.8516C765.305 95.6953 766.578 94.7969 768.094 94.1562C769.609 93.5 771.359 93.1719 773.344 93.1719C775.344 93.1719 777.102 93.5 778.617 94.1562C780.148 94.7969 781.43 95.6953 782.461 96.8516C783.492 98.0078 784.273 99.375 784.805 100.953C785.336 102.516 785.602 104.227 785.602 106.086V106.578C785.602 108.422 785.336 110.133 784.805 111.711C784.273 113.273 783.492 114.641 782.461 115.812C781.43 116.969 780.156 117.867 778.641 118.508C777.125 119.148 775.375 119.469 773.391 119.469C771.406 119.469 769.648 119.148 768.117 118.508C766.586 117.867 765.305 116.969 764.273 115.812C763.242 114.641 762.461 113.273 761.93 111.711C761.398 110.133 761.133 108.422 761.133 106.578ZM769.031 106.086V106.578C769.031 107.531 769.102 108.422 769.242 109.25C769.383 110.078 769.617 110.805 769.945 111.43C770.273 112.039 770.719 112.516 771.281 112.859C771.844 113.203 772.547 113.375 773.391 113.375C774.219 113.375 774.906 113.203 775.453 112.859C776.016 112.516 776.461 112.039 776.789 111.43C777.117 110.805 777.352 110.078 777.492 109.25C777.633 108.422 777.703 107.531 777.703 106.578V106.086C777.703 105.164 777.633 104.297 777.492 103.484C777.352 102.656 777.117 101.93 776.789 101.305C776.461 100.664 776.016 100.164 775.453 99.8047C774.891 99.4453 774.188 99.2656 773.344 99.2656C772.516 99.2656 771.82 99.4453 771.258 99.8047C770.711 100.164 770.273 100.664 769.945 101.305C769.617 101.93 769.383 102.656 769.242 103.484C769.102 104.297 769.031 105.164 769.031 106.086ZM797.086 98.5156V128.75H789.188V93.6406H796.547L797.086 98.5156ZM812.648 106.016V106.508C812.648 108.352 812.438 110.062 812.016 111.641C811.594 113.219 810.969 114.594 810.141 115.766C809.312 116.938 808.281 117.852 807.047 118.508C805.828 119.148 804.414 119.469 802.805 119.469C801.289 119.469 799.984 119.133 798.891 118.461C797.797 117.789 796.883 116.859 796.148 115.672C795.414 114.484 794.82 113.125 794.367 111.594C793.914 110.062 793.555 108.445 793.289 106.742V106.109C793.555 104.281 793.914 102.586 794.367 101.023C794.82 99.4453 795.414 98.0703 796.148 96.8984C796.883 95.7266 797.789 94.8125 798.867 94.1562C799.961 93.5 801.266 93.1719 802.781 93.1719C804.391 93.1719 805.805 93.4766 807.023 94.0859C808.258 94.6953 809.289 95.5703 810.117 96.7109C810.961 97.8359 811.594 99.1875 812.016 100.766C812.438 102.344 812.648 104.094 812.648 106.016ZM804.75 106.508V106.016C804.75 105.031 804.68 104.133 804.539 103.32C804.398 102.492 804.172 101.773 803.859 101.164C803.562 100.555 803.164 100.086 802.664 99.7578C802.164 99.4297 801.547 99.2656 800.812 99.2656C799.969 99.2656 799.258 99.3984 798.68 99.6641C798.117 99.9141 797.664 100.305 797.32 100.836C796.992 101.352 796.758 102 796.617 102.781C796.492 103.547 796.438 104.445 796.453 105.477V107.398C796.422 108.586 796.539 109.633 796.805 110.539C797.07 111.43 797.531 112.125 798.188 112.625C798.844 113.125 799.734 113.375 800.859 113.375C801.609 113.375 802.234 113.203 802.734 112.859C803.234 112.5 803.633 112.008 803.93 111.383C804.227 110.742 804.438 110.008 804.562 109.18C804.688 108.352 804.75 107.461 804.75 106.508ZM824.133 98.5156V128.75H816.234V93.6406H823.594L824.133 98.5156ZM839.695 106.016V106.508C839.695 108.352 839.484 110.062 839.062 111.641C838.641 113.219 838.016 114.594 837.188 115.766C836.359 116.938 835.328 117.852 834.094 118.508C832.875 119.148 831.461 119.469 829.852 119.469C828.336 119.469 827.031 119.133 825.938 118.461C824.844 117.789 823.93 116.859 823.195 115.672C822.461 114.484 821.867 113.125 821.414 111.594C820.961 110.062 820.602 108.445 820.336 106.742V106.109C820.602 104.281 820.961 102.586 821.414 101.023C821.867 99.4453 822.461 98.0703 823.195 96.8984C823.93 95.7266 824.836 94.8125 825.914 94.1562C827.008 93.5 828.312 93.1719 829.828 93.1719C831.438 93.1719 832.852 93.4766 834.07 94.0859C835.305 94.6953 836.336 95.5703 837.164 96.7109C838.008 97.8359 838.641 99.1875 839.062 100.766C839.484 102.344 839.695 104.094 839.695 106.016ZM831.797 106.508V106.016C831.797 105.031 831.727 104.133 831.586 103.32C831.445 102.492 831.219 101.773 830.906 101.164C830.609 100.555 830.211 100.086 829.711 99.7578C829.211 99.4297 828.594 99.2656 827.859 99.2656C827.016 99.2656 826.305 99.3984 825.727 99.6641C825.164 99.9141 824.711 100.305 824.367 100.836C824.039 101.352 823.805 102 823.664 102.781C823.539 103.547 823.484 104.445 823.5 105.477V107.398C823.469 108.586 823.586 109.633 823.852 110.539C824.117 111.43 824.578 112.125 825.234 112.625C825.891 113.125 826.781 113.375 827.906 113.375C828.656 113.375 829.281 113.203 829.781 112.859C830.281 112.5 830.68 112.008 830.977 111.383C831.273 110.742 831.484 110.008 831.609 109.18C831.734 108.352 831.797 107.461 831.797 106.508ZM855.492 119.469C853.43 119.469 851.586 119.148 849.961 118.508C848.336 117.852 846.961 116.953 845.836 115.812C844.727 114.672 843.875 113.359 843.281 111.875C842.703 110.391 842.414 108.82 842.414 107.164V106.273C842.414 104.414 842.672 102.695 843.188 101.117C843.703 99.5234 844.469 98.1328 845.484 96.9453C846.5 95.7578 847.773 94.8359 849.305 94.1797C850.836 93.5078 852.617 93.1719 854.648 93.1719C856.445 93.1719 858.055 93.4609 859.477 94.0391C860.898 94.6172 862.102 95.4453 863.086 96.5234C864.086 97.6016 864.844 98.9062 865.359 100.438C865.891 101.969 866.156 103.688 866.156 105.594V108.805H845.438V103.859H858.445V103.25C858.461 102.406 858.312 101.688 858 101.094C857.703 100.5 857.266 100.047 856.688 99.7344C856.109 99.4219 855.406 99.2656 854.578 99.2656C853.719 99.2656 853.008 99.4531 852.445 99.8281C851.898 100.203 851.469 100.719 851.156 101.375C850.859 102.016 850.648 102.758 850.523 103.602C850.398 104.445 850.336 105.336 850.336 106.273V107.164C850.336 108.102 850.461 108.953 850.711 109.719C850.977 110.484 851.352 111.141 851.836 111.688C852.336 112.219 852.93 112.633 853.617 112.93C854.32 113.227 855.117 113.375 856.008 113.375C857.086 113.375 858.148 113.172 859.195 112.766C860.242 112.359 861.141 111.688 861.891 110.75L865.477 115.016C864.961 115.75 864.227 116.461 863.273 117.148C862.336 117.836 861.211 118.398 859.898 118.836C858.586 119.258 857.117 119.469 855.492 119.469ZM877.336 99.9219V119H869.438V93.6406H876.82L877.336 99.9219ZM884.836 93.4531L884.695 100.789C884.383 100.758 883.961 100.719 883.43 100.672C882.898 100.625 882.453 100.602 882.094 100.602C881.172 100.602 880.375 100.711 879.703 100.93C879.047 101.133 878.5 101.445 878.062 101.867C877.641 102.273 877.328 102.789 877.125 103.414C876.938 104.039 876.852 104.766 876.867 105.594L875.438 104.656C875.438 102.953 875.602 101.406 875.93 100.016C876.273 98.6094 876.758 97.3984 877.383 96.3828C878.008 95.3516 878.766 94.5625 879.656 94.0156C880.547 93.4531 881.547 93.1719 882.656 93.1719C883.047 93.1719 883.43 93.1953 883.805 93.2422C884.195 93.2891 884.539 93.3594 884.836 93.4531ZM105.938 169.375C106.672 169.375 107.297 169.242 107.812 168.977C108.344 168.695 108.742 168.305 109.008 167.805C109.289 167.289 109.422 166.672 109.406 165.953H116.836C116.852 167.859 116.383 169.531 115.43 170.969C114.492 172.391 113.211 173.5 111.586 174.297C109.977 175.078 108.156 175.469 106.125 175.469C104.141 175.469 102.406 175.148 100.922 174.508C99.4375 173.852 98.1953 172.945 97.1953 171.789C96.2109 170.617 95.4688 169.25 94.9688 167.688C94.4844 166.125 94.2422 164.43 94.2422 162.602V162.062C94.2422 160.234 94.4844 158.539 94.9688 156.977C95.4688 155.398 96.2109 154.031 97.1953 152.875C98.1953 151.703 99.4297 150.797 100.898 150.156C102.383 149.5 104.109 149.172 106.078 149.172C108.188 149.172 110.047 149.57 111.656 150.367C113.281 151.164 114.555 152.32 115.477 153.836C116.398 155.352 116.852 157.188 116.836 159.344H109.406C109.422 158.578 109.305 157.891 109.055 157.281C108.805 156.672 108.414 156.188 107.883 155.828C107.367 155.453 106.703 155.266 105.891 155.266C105.078 155.266 104.422 155.445 103.922 155.805C103.422 156.164 103.039 156.664 102.773 157.305C102.523 157.93 102.352 158.648 102.258 159.461C102.18 160.273 102.141 161.141 102.141 162.062V162.602C102.141 163.539 102.18 164.422 102.258 165.25C102.352 166.062 102.531 166.781 102.797 167.406C103.062 168.016 103.445 168.5 103.945 168.859C104.445 169.203 105.109 169.375 105.938 169.375ZM119.227 162.578V162.086C119.227 160.227 119.492 158.516 120.023 156.953C120.555 155.375 121.336 154.008 122.367 152.852C123.398 151.695 124.672 150.797 126.188 150.156C127.703 149.5 129.453 149.172 131.438 149.172C133.438 149.172 135.195 149.5 136.711 150.156C138.242 150.797 139.523 151.695 140.555 152.852C141.586 154.008 142.367 155.375 142.898 156.953C143.43 158.516 143.695 160.227 143.695 162.086V162.578C143.695 164.422 143.43 166.133 142.898 167.711C142.367 169.273 141.586 170.641 140.555 171.812C139.523 172.969 138.25 173.867 136.734 174.508C135.219 175.148 133.469 175.469 131.484 175.469C129.5 175.469 127.742 175.148 126.211 174.508C124.68 173.867 123.398 172.969 122.367 171.812C121.336 170.641 120.555 169.273 120.023 167.711C119.492 166.133 119.227 164.422 119.227 162.578ZM127.125 162.086V162.578C127.125 163.531 127.195 164.422 127.336 165.25C127.477 166.078 127.711 166.805 128.039 167.43C128.367 168.039 128.812 168.516 129.375 168.859C129.938 169.203 130.641 169.375 131.484 169.375C132.312 169.375 133 169.203 133.547 168.859C134.109 168.516 134.555 168.039 134.883 167.43C135.211 166.805 135.445 166.078 135.586 165.25C135.727 164.422 135.797 163.531 135.797 162.578V162.086C135.797 161.164 135.727 160.297 135.586 159.484C135.445 158.656 135.211 157.93 134.883 157.305C134.555 156.664 134.109 156.164 133.547 155.805C132.984 155.445 132.281 155.266 131.438 155.266C130.609 155.266 129.914 155.445 129.352 155.805C128.805 156.164 128.367 156.664 128.039 157.305C127.711 157.93 127.477 158.656 127.336 159.484C127.195 160.297 127.125 161.164 127.125 162.086ZM155.18 155.008V175H147.281V149.641H154.688L155.18 155.008ZM154.219 161.453L152.414 161.5C152.414 159.719 152.625 158.078 153.047 156.578C153.469 155.078 154.094 153.773 154.922 152.664C155.75 151.555 156.766 150.695 157.969 150.086C159.188 149.477 160.594 149.172 162.188 149.172C163.297 149.172 164.305 149.344 165.211 149.688C166.117 150.016 166.898 150.539 167.555 151.258C168.211 151.961 168.711 152.883 169.055 154.023C169.414 155.148 169.594 156.5 169.594 158.078V175H161.695V159.086C161.695 158.008 161.57 157.195 161.32 156.648C161.086 156.102 160.742 155.734 160.289 155.547C159.836 155.359 159.281 155.266 158.625 155.266C157.938 155.266 157.32 155.422 156.773 155.734C156.227 156.047 155.758 156.484 155.367 157.047C154.992 157.594 154.703 158.242 154.5 158.992C154.312 159.742 154.219 160.562 154.219 161.453ZM168.703 161.453L166.5 161.5C166.5 159.719 166.695 158.078 167.086 156.578C167.492 155.078 168.094 153.773 168.891 152.664C169.703 151.555 170.711 150.695 171.914 150.086C173.117 149.477 174.516 149.172 176.109 149.172C177.266 149.172 178.328 149.344 179.297 149.688C180.266 150.031 181.102 150.586 181.805 151.352C182.508 152.117 183.055 153.133 183.445 154.398C183.836 155.648 184.031 157.195 184.031 159.039V175H176.109V159.039C176.109 157.992 175.984 157.203 175.734 156.672C175.5 156.125 175.156 155.758 174.703 155.57C174.25 155.367 173.711 155.266 173.086 155.266C172.336 155.266 171.688 155.422 171.141 155.734C170.594 156.047 170.133 156.484 169.758 157.047C169.398 157.594 169.133 158.242 168.961 158.992C168.789 159.742 168.703 160.562 168.703 161.453ZM196.523 154.516V184.75H188.625V149.641H195.984L196.523 154.516ZM212.086 162.016V162.508C212.086 164.352 211.875 166.062 211.453 167.641C211.031 169.219 210.406 170.594 209.578 171.766C208.75 172.938 207.719 173.852 206.484 174.508C205.266 175.148 203.852 175.469 202.242 175.469C200.727 175.469 199.422 175.133 198.328 174.461C197.234 173.789 196.32 172.859 195.586 171.672C194.852 170.484 194.258 169.125 193.805 167.594C193.352 166.062 192.992 164.445 192.727 162.742V162.109C192.992 160.281 193.352 158.586 193.805 157.023C194.258 155.445 194.852 154.07 195.586 152.898C196.32 151.727 197.227 150.812 198.305 150.156C199.398 149.5 200.703 149.172 202.219 149.172C203.828 149.172 205.242 149.477 206.461 150.086C207.695 150.695 208.727 151.57 209.555 152.711C210.398 153.836 211.031 155.188 211.453 156.766C211.875 158.344 212.086 160.094 212.086 162.016ZM204.188 162.508V162.016C204.188 161.031 204.117 160.133 203.977 159.32C203.836 158.492 203.609 157.773 203.297 157.164C203 156.555 202.602 156.086 202.102 155.758C201.602 155.43 200.984 155.266 200.25 155.266C199.406 155.266 198.695 155.398 198.117 155.664C197.555 155.914 197.102 156.305 196.758 156.836C196.43 157.352 196.195 158 196.055 158.781C195.93 159.547 195.875 160.445 195.891 161.477V163.398C195.859 164.586 195.977 165.633 196.242 166.539C196.508 167.43 196.969 168.125 197.625 168.625C198.281 169.125 199.172 169.375 200.297 169.375C201.047 169.375 201.672 169.203 202.172 168.859C202.672 168.5 203.07 168.008 203.367 167.383C203.664 166.742 203.875 166.008 204 165.18C204.125 164.352 204.188 163.461 204.188 162.508ZM214.617 162.578V162.086C214.617 160.227 214.883 158.516 215.414 156.953C215.945 155.375 216.727 154.008 217.758 152.852C218.789 151.695 220.062 150.797 221.578 150.156C223.094 149.5 224.844 149.172 226.828 149.172C228.828 149.172 230.586 149.5 232.102 150.156C233.633 150.797 234.914 151.695 235.945 152.852C236.977 154.008 237.758 155.375 238.289 156.953C238.82 158.516 239.086 160.227 239.086 162.086V162.578C239.086 164.422 238.82 166.133 238.289 167.711C237.758 169.273 236.977 170.641 235.945 171.812C234.914 172.969 233.641 173.867 232.125 174.508C230.609 175.148 228.859 175.469 226.875 175.469C224.891 175.469 223.133 175.148 221.602 174.508C220.07 173.867 218.789 172.969 217.758 171.812C216.727 170.641 215.945 169.273 215.414 167.711C214.883 166.133 214.617 164.422 214.617 162.578ZM222.516 162.086V162.578C222.516 163.531 222.586 164.422 222.727 165.25C222.867 166.078 223.102 166.805 223.43 167.43C223.758 168.039 224.203 168.516 224.766 168.859C225.328 169.203 226.031 169.375 226.875 169.375C227.703 169.375 228.391 169.203 228.938 168.859C229.5 168.516 229.945 168.039 230.273 167.43C230.602 166.805 230.836 166.078 230.977 165.25C231.117 164.422 231.188 163.531 231.188 162.578V162.086C231.188 161.164 231.117 160.297 230.977 159.484C230.836 158.656 230.602 157.93 230.273 157.305C229.945 156.664 229.5 156.164 228.938 155.805C228.375 155.445 227.672 155.266 226.828 155.266C226 155.266 225.305 155.445 224.742 155.805C224.195 156.164 223.758 156.664 223.43 157.305C223.102 157.93 222.867 158.656 222.727 159.484C222.586 160.297 222.516 161.164 222.516 162.086ZM250.359 155.055V175H242.461V149.641H249.867L250.359 155.055ZM249.422 161.453L247.57 161.5C247.57 159.562 247.805 157.836 248.273 156.32C248.742 154.789 249.406 153.492 250.266 152.43C251.125 151.367 252.148 150.562 253.336 150.016C254.539 149.453 255.875 149.172 257.344 149.172C258.516 149.172 259.586 149.344 260.555 149.688C261.539 150.031 262.383 150.586 263.086 151.352C263.805 152.117 264.352 153.133 264.727 154.398C265.117 155.648 265.312 157.195 265.312 159.039V175H257.367V159.016C257.367 158 257.227 157.227 256.945 156.695C256.664 156.148 256.258 155.773 255.727 155.57C255.195 155.367 254.547 155.266 253.781 155.266C252.969 155.266 252.281 155.422 251.719 155.734C251.156 156.047 250.703 156.484 250.359 157.047C250.031 157.594 249.789 158.242 249.633 158.992C249.492 159.742 249.422 160.562 249.422 161.453ZM281.977 175.469C279.914 175.469 278.07 175.148 276.445 174.508C274.82 173.852 273.445 172.953 272.32 171.812C271.211 170.672 270.359 169.359 269.766 167.875C269.188 166.391 268.898 164.82 268.898 163.164V162.273C268.898 160.414 269.156 158.695 269.672 157.117C270.188 155.523 270.953 154.133 271.969 152.945C272.984 151.758 274.258 150.836 275.789 150.18C277.32 149.508 279.102 149.172 281.133 149.172C282.93 149.172 284.539 149.461 285.961 150.039C287.383 150.617 288.586 151.445 289.57 152.523C290.57 153.602 291.328 154.906 291.844 156.438C292.375 157.969 292.641 159.688 292.641 161.594V164.805H271.922V159.859H284.93V159.25C284.945 158.406 284.797 157.688 284.484 157.094C284.188 156.5 283.75 156.047 283.172 155.734C282.594 155.422 281.891 155.266 281.062 155.266C280.203 155.266 279.492 155.453 278.93 155.828C278.383 156.203 277.953 156.719 277.641 157.375C277.344 158.016 277.133 158.758 277.008 159.602C276.883 160.445 276.82 161.336 276.82 162.273V163.164C276.82 164.102 276.945 164.953 277.195 165.719C277.461 166.484 277.836 167.141 278.32 167.688C278.82 168.219 279.414 168.633 280.102 168.93C280.805 169.227 281.602 169.375 282.492 169.375C283.57 169.375 284.633 169.172 285.68 168.766C286.727 168.359 287.625 167.688 288.375 166.75L291.961 171.016C291.445 171.75 290.711 172.461 289.758 173.148C288.82 173.836 287.695 174.398 286.383 174.836C285.07 175.258 283.602 175.469 281.977 175.469ZM303.609 155.055V175H295.711V149.641H303.117L303.609 155.055ZM302.672 161.453L300.82 161.5C300.82 159.562 301.055 157.836 301.523 156.32C301.992 154.789 302.656 153.492 303.516 152.43C304.375 151.367 305.398 150.562 306.586 150.016C307.789 149.453 309.125 149.172 310.594 149.172C311.766 149.172 312.836 149.344 313.805 149.688C314.789 150.031 315.633 150.586 316.336 151.352C317.055 152.117 317.602 153.133 317.977 154.398C318.367 155.648 318.562 157.195 318.562 159.039V175H310.617V159.016C310.617 158 310.477 157.227 310.195 156.695C309.914 156.148 309.508 155.773 308.977 155.57C308.445 155.367 307.797 155.266 307.031 155.266C306.219 155.266 305.531 155.422 304.969 155.734C304.406 156.047 303.953 156.484 303.609 157.047C303.281 157.594 303.039 158.242 302.883 158.992C302.742 159.742 302.672 160.562 302.672 161.453ZM336.305 149.641V155.125H321.023V149.641H336.305ZM324.234 143.336H332.133V166.727C332.133 167.398 332.211 167.922 332.367 168.297C332.523 168.656 332.789 168.914 333.164 169.07C333.555 169.211 334.07 169.281 334.711 169.281C335.164 169.281 335.539 169.273 335.836 169.258C336.133 169.227 336.414 169.188 336.68 169.141V174.789C336.008 175.008 335.305 175.172 334.57 175.281C333.836 175.406 333.055 175.469 332.227 175.469C330.539 175.469 329.094 175.203 327.891 174.672C326.703 174.141 325.797 173.305 325.172 172.164C324.547 171.023 324.234 169.539 324.234 167.711V143.336ZM359.109 167.453L363.797 149.641H368.742L366.984 158.57L362.344 175H358.383L359.109 167.453ZM357.258 149.641L360.164 167.312L360.492 175H355.688L349.688 149.641H357.258ZM372.914 166.938L375.844 149.641H383.414L377.461 175H372.656L372.914 166.938ZM369.305 149.641L374.039 167.406L374.766 175H370.758L366.211 158.617L364.523 149.641H369.305ZM394.617 149.641V175H386.695V149.641H394.617ZM386.227 143.102C386.227 141.977 386.633 141.055 387.445 140.336C388.258 139.617 389.312 139.258 390.609 139.258C391.906 139.258 392.961 139.617 393.773 140.336C394.586 141.055 394.992 141.977 394.992 143.102C394.992 144.227 394.586 145.148 393.773 145.867C392.961 146.586 391.906 146.945 390.609 146.945C389.312 146.945 388.258 146.586 387.445 145.867C386.633 145.148 386.227 144.227 386.227 143.102ZM412.852 149.641V155.125H397.57V149.641H412.852ZM400.781 143.336H408.68V166.727C408.68 167.398 408.758 167.922 408.914 168.297C409.07 168.656 409.336 168.914 409.711 169.07C410.102 169.211 410.617 169.281 411.258 169.281C411.711 169.281 412.086 169.273 412.383 169.258C412.68 169.227 412.961 169.188 413.227 169.141V174.789C412.555 175.008 411.852 175.172 411.117 175.281C410.383 175.406 409.602 175.469 408.773 175.469C407.086 175.469 405.641 175.203 404.438 174.672C403.25 174.141 402.344 173.305 401.719 172.164C401.094 171.023 400.781 169.539 400.781 167.711V143.336ZM423.727 139V175H415.828V139H423.727ZM422.789 161.453L420.938 161.5C420.938 159.719 421.156 158.078 421.594 156.578C422.031 155.078 422.656 153.773 423.469 152.664C424.281 151.555 425.258 150.695 426.398 150.086C427.539 149.477 428.805 149.172 430.195 149.172C431.445 149.172 432.586 149.352 433.617 149.711C434.664 150.07 435.562 150.648 436.312 151.445C437.078 152.242 437.664 153.281 438.07 154.562C438.492 155.844 438.703 157.406 438.703 159.25V175H430.758V159.203C430.758 158.172 430.609 157.375 430.312 156.812C430.031 156.234 429.625 155.836 429.094 155.617C428.562 155.383 427.914 155.266 427.148 155.266C426.227 155.266 425.477 155.422 424.898 155.734C424.32 156.047 423.875 156.484 423.562 157.047C423.266 157.594 423.062 158.242 422.953 158.992C422.844 159.742 422.789 160.562 422.789 161.453ZM468.211 168.625V158.172C468.211 157.453 468.109 156.836 467.906 156.32C467.703 155.805 467.383 155.406 466.945 155.125C466.508 154.828 465.922 154.68 465.188 154.68C464.594 154.68 464.086 154.781 463.664 154.984C463.242 155.188 462.922 155.492 462.703 155.898C462.484 156.305 462.375 156.82 462.375 157.445H454.477C454.477 156.273 454.734 155.188 455.25 154.188C455.781 153.172 456.531 152.289 457.5 151.539C458.484 150.789 459.656 150.211 461.016 149.805C462.391 149.383 463.922 149.172 465.609 149.172C467.625 149.172 469.422 149.508 471 150.18C472.594 150.852 473.852 151.859 474.773 153.203C475.695 154.531 476.156 156.203 476.156 158.219V168.602C476.156 170.258 476.25 171.516 476.438 172.375C476.625 173.219 476.891 173.961 477.234 174.602V175H469.312C468.938 174.219 468.656 173.266 468.469 172.141C468.297 171 468.211 169.828 468.211 168.625ZM469.172 159.508L469.219 163.727H465.727C464.992 163.727 464.367 163.828 463.852 164.031C463.352 164.234 462.945 164.516 462.633 164.875C462.336 165.219 462.117 165.609 461.977 166.047C461.852 166.484 461.789 166.945 461.789 167.43C461.789 167.898 461.898 168.32 462.117 168.695C462.352 169.055 462.664 169.336 463.055 169.539C463.445 169.742 463.883 169.844 464.367 169.844C465.242 169.844 465.984 169.68 466.594 169.352C467.219 169.008 467.695 168.594 468.023 168.109C468.352 167.625 468.516 167.172 468.516 166.75L470.25 169.984C469.938 170.609 469.578 171.242 469.172 171.883C468.781 172.523 468.289 173.117 467.695 173.664C467.117 174.195 466.406 174.633 465.562 174.977C464.719 175.305 463.695 175.469 462.492 175.469C460.93 175.469 459.492 175.148 458.18 174.508C456.883 173.867 455.844 172.977 455.062 171.836C454.281 170.68 453.891 169.352 453.891 167.852C453.891 166.539 454.125 165.367 454.594 164.336C455.078 163.305 455.805 162.43 456.773 161.711C457.742 160.992 458.977 160.445 460.477 160.07C461.977 159.695 463.742 159.508 465.773 159.508H469.172ZM495.117 169.188V139H503.062V175H495.938L495.117 169.188ZM479.555 162.625V162.133C479.555 160.211 479.766 158.461 480.188 156.883C480.609 155.289 481.234 153.922 482.062 152.781C482.891 151.625 483.922 150.734 485.156 150.109C486.391 149.484 487.812 149.172 489.422 149.172C490.859 149.172 492.117 149.508 493.195 150.18C494.273 150.836 495.195 151.758 495.961 152.945C496.727 154.133 497.352 155.523 497.836 157.117C498.32 158.695 498.688 160.398 498.938 162.227V162.812C498.688 164.531 498.32 166.156 497.836 167.688C497.352 169.203 496.727 170.547 495.961 171.719C495.195 172.891 494.266 173.812 493.172 174.484C492.094 175.141 490.828 175.469 489.375 175.469C487.766 175.469 486.344 175.148 485.109 174.508C483.891 173.867 482.867 172.969 482.039 171.812C481.227 170.656 480.609 169.297 480.188 167.734C479.766 166.172 479.555 164.469 479.555 162.625ZM487.453 162.133V162.625C487.453 163.578 487.516 164.461 487.641 165.273C487.766 166.086 487.977 166.805 488.273 167.43C488.586 168.039 488.992 168.516 489.492 168.859C490.008 169.203 490.641 169.375 491.391 169.375C492.406 169.375 493.242 169.133 493.898 168.648C494.57 168.164 495.062 167.477 495.375 166.586C495.703 165.695 495.844 164.648 495.797 163.445V161.594C495.828 160.562 495.758 159.656 495.586 158.875C495.414 158.078 495.141 157.414 494.766 156.883C494.406 156.352 493.945 155.953 493.383 155.688C492.836 155.406 492.188 155.266 491.438 155.266C490.703 155.266 490.078 155.438 489.562 155.781C489.062 156.125 488.656 156.609 488.344 157.234C488.031 157.844 487.805 158.57 487.664 159.414C487.523 160.242 487.453 161.148 487.453 162.133ZM508.125 149.641H516.047V175.82C516.047 177.852 515.656 179.562 514.875 180.953C514.094 182.359 512.977 183.422 511.523 184.141C510.07 184.875 508.336 185.242 506.32 185.242C505.648 185.242 505.031 185.211 504.469 185.148C503.891 185.102 503.258 185 502.57 184.844V178.867C502.977 178.93 503.352 178.977 503.695 179.008C504.039 179.055 504.414 179.078 504.82 179.078C505.539 179.078 506.141 178.961 506.625 178.727C507.109 178.492 507.477 178.133 507.727 177.648C507.992 177.164 508.125 176.555 508.125 175.82V149.641ZM507.539 143.102C507.539 141.977 507.945 141.055 508.758 140.336C509.57 139.617 510.625 139.258 511.922 139.258C513.219 139.258 514.273 139.617 515.086 140.336C515.898 141.055 516.305 141.977 516.305 143.102C516.305 144.227 515.898 145.148 515.086 145.867C514.273 146.586 513.219 146.945 511.922 146.945C510.625 146.945 509.57 146.586 508.758 145.867C507.945 145.148 507.539 144.227 507.539 143.102ZM535.336 168.836V149.641H543.258V175H535.852L535.336 168.836ZM536.086 163.68L538.148 163.633C538.148 165.336 537.945 166.914 537.539 168.367C537.133 169.805 536.531 171.055 535.734 172.117C534.953 173.18 533.984 174.008 532.828 174.602C531.688 175.18 530.367 175.469 528.867 175.469C527.617 175.469 526.469 175.297 525.422 174.953C524.391 174.594 523.5 174.039 522.75 173.289C522 172.523 521.414 171.547 520.992 170.359C520.586 169.156 520.383 167.719 520.383 166.047V149.641H528.281V166.094C528.281 166.656 528.352 167.141 528.492 167.547C528.633 167.953 528.836 168.297 529.102 168.578C529.367 168.844 529.695 169.047 530.086 169.188C530.492 169.312 530.953 169.375 531.469 169.375C532.656 169.375 533.586 169.125 534.258 168.625C534.93 168.125 535.398 167.445 535.664 166.586C535.945 165.727 536.086 164.758 536.086 163.68ZM560.906 167.875C560.906 167.438 560.758 167.062 560.461 166.75C560.18 166.422 559.68 166.125 558.961 165.859C558.242 165.578 557.234 165.297 555.938 165.016C554.703 164.75 553.539 164.398 552.445 163.961C551.367 163.523 550.422 162.992 549.609 162.367C548.797 161.742 548.156 161 547.688 160.141C547.234 159.281 547.008 158.297 547.008 157.188C547.008 156.109 547.234 155.094 547.688 154.141C548.156 153.172 548.836 152.32 549.727 151.586C550.633 150.836 551.734 150.25 553.031 149.828C554.328 149.391 555.805 149.172 557.461 149.172C559.742 149.172 561.711 149.523 563.367 150.227C565.023 150.914 566.297 151.883 567.188 153.133C568.094 154.367 568.547 155.797 568.547 157.422H560.648C560.648 156.781 560.539 156.234 560.32 155.781C560.117 155.328 559.781 154.984 559.312 154.75C558.844 154.5 558.219 154.375 557.438 154.375C556.891 154.375 556.391 154.477 555.938 154.68C555.5 154.883 555.148 155.164 554.883 155.523C554.617 155.883 554.484 156.305 554.484 156.789C554.484 157.133 554.562 157.445 554.719 157.727C554.891 157.992 555.148 158.242 555.492 158.477C555.836 158.695 556.273 158.898 556.805 159.086C557.336 159.258 557.977 159.414 558.727 159.555C560.43 159.867 562.023 160.312 563.508 160.891C564.992 161.469 566.195 162.289 567.117 163.352C568.055 164.414 568.523 165.844 568.523 167.641C568.523 168.766 568.266 169.805 567.75 170.758C567.234 171.695 566.492 172.523 565.523 173.242C564.555 173.945 563.391 174.492 562.031 174.883C560.672 175.273 559.141 175.469 557.438 175.469C555.016 175.469 552.969 175.039 551.297 174.18C549.625 173.305 548.359 172.211 547.5 170.898C546.656 169.57 546.234 168.227 546.234 166.867H553.594C553.625 167.648 553.812 168.289 554.156 168.789C554.516 169.289 554.992 169.656 555.586 169.891C556.18 170.125 556.867 170.242 557.648 170.242C558.367 170.242 558.961 170.141 559.43 169.938C559.914 169.734 560.281 169.461 560.531 169.117C560.781 168.758 560.906 168.344 560.906 167.875ZM585.586 149.641V155.125H570.305V149.641H585.586ZM573.516 143.336H581.414V166.727C581.414 167.398 581.492 167.922 581.648 168.297C581.805 168.656 582.07 168.914 582.445 169.07C582.836 169.211 583.352 169.281 583.992 169.281C584.445 169.281 584.82 169.273 585.117 169.258C585.414 169.227 585.695 169.188 585.961 169.141V174.789C585.289 175.008 584.586 175.172 583.852 175.281C583.117 175.406 582.336 175.469 581.508 175.469C579.82 175.469 578.375 175.203 577.172 174.672C575.984 174.141 575.078 173.305 574.453 172.164C573.828 171.023 573.516 169.539 573.516 167.711V143.336ZM601.898 168.625V158.172C601.898 157.453 601.797 156.836 601.594 156.32C601.391 155.805 601.07 155.406 600.633 155.125C600.195 154.828 599.609 154.68 598.875 154.68C598.281 154.68 597.773 154.781 597.352 154.984C596.93 155.188 596.609 155.492 596.391 155.898C596.172 156.305 596.062 156.82 596.062 157.445H588.164C588.164 156.273 588.422 155.188 588.938 154.188C589.469 153.172 590.219 152.289 591.188 151.539C592.172 150.789 593.344 150.211 594.703 149.805C596.078 149.383 597.609 149.172 599.297 149.172C601.312 149.172 603.109 149.508 604.688 150.18C606.281 150.852 607.539 151.859 608.461 153.203C609.383 154.531 609.844 156.203 609.844 158.219V168.602C609.844 170.258 609.938 171.516 610.125 172.375C610.312 173.219 610.578 173.961 610.922 174.602V175H603C602.625 174.219 602.344 173.266 602.156 172.141C601.984 171 601.898 169.828 601.898 168.625ZM602.859 159.508L602.906 163.727H599.414C598.68 163.727 598.055 163.828 597.539 164.031C597.039 164.234 596.633 164.516 596.32 164.875C596.023 165.219 595.805 165.609 595.664 166.047C595.539 166.484 595.477 166.945 595.477 167.43C595.477 167.898 595.586 168.32 595.805 168.695C596.039 169.055 596.352 169.336 596.742 169.539C597.133 169.742 597.57 169.844 598.055 169.844C598.93 169.844 599.672 169.68 600.281 169.352C600.906 169.008 601.383 168.594 601.711 168.109C602.039 167.625 602.203 167.172 602.203 166.75L603.938 169.984C603.625 170.609 603.266 171.242 602.859 171.883C602.469 172.523 601.977 173.117 601.383 173.664C600.805 174.195 600.094 174.633 599.25 174.977C598.406 175.305 597.383 175.469 596.18 175.469C594.617 175.469 593.18 175.148 591.867 174.508C590.57 173.867 589.531 172.977 588.75 171.836C587.969 170.68 587.578 169.352 587.578 167.852C587.578 166.539 587.812 165.367 588.281 164.336C588.766 163.305 589.492 162.43 590.461 161.711C591.43 160.992 592.664 160.445 594.164 160.07C595.664 159.695 597.43 159.508 599.461 159.508H602.859ZM614.297 139H622.195V168.766L621.375 175H614.297V139ZM637.758 162.039V162.531C637.758 164.453 637.562 166.203 637.172 167.781C636.781 169.359 636.18 170.727 635.367 171.883C634.555 173.023 633.531 173.906 632.297 174.531C631.062 175.156 629.602 175.469 627.914 175.469C626.383 175.469 625.07 175.141 623.977 174.484C622.883 173.812 621.969 172.891 621.234 171.719C620.5 170.531 619.906 169.164 619.453 167.617C619 166.055 618.641 164.383 618.375 162.602V162.016C618.641 160.25 619 158.594 619.453 157.047C619.906 155.484 620.5 154.117 621.234 152.945C621.969 151.758 622.875 150.836 623.953 150.18C625.047 149.508 626.352 149.172 627.867 149.172C629.57 149.172 631.039 149.492 632.273 150.133C633.523 150.773 634.555 151.672 635.367 152.828C636.18 153.984 636.781 155.344 637.172 156.906C637.562 158.469 637.758 160.18 637.758 162.039ZM629.859 162.531V162.039C629.859 161.117 629.805 160.25 629.695 159.438C629.586 158.625 629.391 157.906 629.109 157.281C628.828 156.656 628.43 156.164 627.914 155.805C627.398 155.445 626.727 155.266 625.898 155.266C625.055 155.266 624.344 155.406 623.766 155.688C623.203 155.969 622.75 156.375 622.406 156.906C622.078 157.422 621.844 158.062 621.703 158.828C621.562 159.578 621.5 160.43 621.516 161.383V163.234C621.484 164.531 621.602 165.641 621.867 166.562C622.133 167.484 622.594 168.188 623.25 168.672C623.906 169.156 624.805 169.398 625.945 169.398C626.789 169.398 627.469 169.234 627.984 168.906C628.516 168.578 628.914 168.109 629.18 167.5C629.445 166.891 629.625 166.164 629.719 165.32C629.812 164.477 629.859 163.547 629.859 162.531ZM649.617 139V175H641.695V139H649.617ZM666.773 175.469C664.711 175.469 662.867 175.148 661.242 174.508C659.617 173.852 658.242 172.953 657.117 171.812C656.008 170.672 655.156 169.359 654.562 167.875C653.984 166.391 653.695 164.82 653.695 163.164V162.273C653.695 160.414 653.953 158.695 654.469 157.117C654.984 155.523 655.75 154.133 656.766 152.945C657.781 151.758 659.055 150.836 660.586 150.18C662.117 149.508 663.898 149.172 665.93 149.172C667.727 149.172 669.336 149.461 670.758 150.039C672.18 150.617 673.383 151.445 674.367 152.523C675.367 153.602 676.125 154.906 676.641 156.438C677.172 157.969 677.438 159.688 677.438 161.594V164.805H656.719V159.859H669.727V159.25C669.742 158.406 669.594 157.688 669.281 157.094C668.984 156.5 668.547 156.047 667.969 155.734C667.391 155.422 666.688 155.266 665.859 155.266C665 155.266 664.289 155.453 663.727 155.828C663.18 156.203 662.75 156.719 662.438 157.375C662.141 158.016 661.93 158.758 661.805 159.602C661.68 160.445 661.617 161.336 661.617 162.273V163.164C661.617 164.102 661.742 164.953 661.992 165.719C662.258 166.484 662.633 167.141 663.117 167.688C663.617 168.219 664.211 168.633 664.898 168.93C665.602 169.227 666.398 169.375 667.289 169.375C668.367 169.375 669.43 169.172 670.477 168.766C671.523 168.359 672.422 167.688 673.172 166.75L676.758 171.016C676.242 171.75 675.508 172.461 674.555 173.148C673.617 173.836 672.492 174.398 671.18 174.836C669.867 175.258 668.398 175.469 666.773 175.469ZM705.773 168.625V158.172C705.773 157.453 705.672 156.836 705.469 156.32C705.266 155.805 704.945 155.406 704.508 155.125C704.07 154.828 703.484 154.68 702.75 154.68C702.156 154.68 701.648 154.781 701.227 154.984C700.805 155.188 700.484 155.492 700.266 155.898C700.047 156.305 699.938 156.82 699.938 157.445H692.039C692.039 156.273 692.297 155.188 692.812 154.188C693.344 153.172 694.094 152.289 695.062 151.539C696.047 150.789 697.219 150.211 698.578 149.805C699.953 149.383 701.484 149.172 703.172 149.172C705.188 149.172 706.984 149.508 708.562 150.18C710.156 150.852 711.414 151.859 712.336 153.203C713.258 154.531 713.719 156.203 713.719 158.219V168.602C713.719 170.258 713.812 171.516 714 172.375C714.188 173.219 714.453 173.961 714.797 174.602V175H706.875C706.5 174.219 706.219 173.266 706.031 172.141C705.859 171 705.773 169.828 705.773 168.625ZM706.734 159.508L706.781 163.727H703.289C702.555 163.727 701.93 163.828 701.414 164.031C700.914 164.234 700.508 164.516 700.195 164.875C699.898 165.219 699.68 165.609 699.539 166.047C699.414 166.484 699.352 166.945 699.352 167.43C699.352 167.898 699.461 168.32 699.68 168.695C699.914 169.055 700.227 169.336 700.617 169.539C701.008 169.742 701.445 169.844 701.93 169.844C702.805 169.844 703.547 169.68 704.156 169.352C704.781 169.008 705.258 168.594 705.586 168.109C705.914 167.625 706.078 167.172 706.078 166.75L707.812 169.984C707.5 170.609 707.141 171.242 706.734 171.883C706.344 172.523 705.852 173.117 705.258 173.664C704.68 174.195 703.969 174.633 703.125 174.977C702.281 175.305 701.258 175.469 700.055 175.469C698.492 175.469 697.055 175.148 695.742 174.508C694.445 173.867 693.406 172.977 692.625 171.836C691.844 170.68 691.453 169.352 691.453 167.852C691.453 166.539 691.688 165.367 692.156 164.336C692.641 163.305 693.367 162.43 694.336 161.711C695.305 160.992 696.539 160.445 698.039 160.07C699.539 159.695 701.305 159.508 703.336 159.508H706.734ZM731.391 167.875C731.391 167.438 731.242 167.062 730.945 166.75C730.664 166.422 730.164 166.125 729.445 165.859C728.727 165.578 727.719 165.297 726.422 165.016C725.188 164.75 724.023 164.398 722.93 163.961C721.852 163.523 720.906 162.992 720.094 162.367C719.281 161.742 718.641 161 718.172 160.141C717.719 159.281 717.492 158.297 717.492 157.188C717.492 156.109 717.719 155.094 718.172 154.141C718.641 153.172 719.32 152.32 720.211 151.586C721.117 150.836 722.219 150.25 723.516 149.828C724.812 149.391 726.289 149.172 727.945 149.172C730.227 149.172 732.195 149.523 733.852 150.227C735.508 150.914 736.781 151.883 737.672 153.133C738.578 154.367 739.031 155.797 739.031 157.422H731.133C731.133 156.781 731.023 156.234 730.805 155.781C730.602 155.328 730.266 154.984 729.797 154.75C729.328 154.5 728.703 154.375 727.922 154.375C727.375 154.375 726.875 154.477 726.422 154.68C725.984 154.883 725.633 155.164 725.367 155.523C725.102 155.883 724.969 156.305 724.969 156.789C724.969 157.133 725.047 157.445 725.203 157.727C725.375 157.992 725.633 158.242 725.977 158.477C726.32 158.695 726.758 158.898 727.289 159.086C727.82 159.258 728.461 159.414 729.211 159.555C730.914 159.867 732.508 160.312 733.992 160.891C735.477 161.469 736.68 162.289 737.602 163.352C738.539 164.414 739.008 165.844 739.008 167.641C739.008 168.766 738.75 169.805 738.234 170.758C737.719 171.695 736.977 172.523 736.008 173.242C735.039 173.945 733.875 174.492 732.516 174.883C731.156 175.273 729.625 175.469 727.922 175.469C725.5 175.469 723.453 175.039 721.781 174.18C720.109 173.305 718.844 172.211 717.984 170.898C717.141 169.57 716.719 168.227 716.719 166.867H724.078C724.109 167.648 724.297 168.289 724.641 168.789C725 169.289 725.477 169.656 726.07 169.891C726.664 170.125 727.352 170.242 728.133 170.242C728.852 170.242 729.445 170.141 729.914 169.938C730.398 169.734 730.766 169.461 731.016 169.117C731.266 168.758 731.391 168.344 731.391 167.875ZM750.68 154.516V184.75H742.781V149.641H750.141L750.68 154.516ZM766.242 162.016V162.508C766.242 164.352 766.031 166.062 765.609 167.641C765.188 169.219 764.562 170.594 763.734 171.766C762.906 172.938 761.875 173.852 760.641 174.508C759.422 175.148 758.008 175.469 756.398 175.469C754.883 175.469 753.578 175.133 752.484 174.461C751.391 173.789 750.477 172.859 749.742 171.672C749.008 170.484 748.414 169.125 747.961 167.594C747.508 166.062 747.148 164.445 746.883 162.742V162.109C747.148 160.281 747.508 158.586 747.961 157.023C748.414 155.445 749.008 154.07 749.742 152.898C750.477 151.727 751.383 150.812 752.461 150.156C753.555 149.5 754.859 149.172 756.375 149.172C757.984 149.172 759.398 149.477 760.617 150.086C761.852 150.695 762.883 151.57 763.711 152.711C764.555 153.836 765.188 155.188 765.609 156.766C766.031 158.344 766.242 160.094 766.242 162.016ZM758.344 162.508V162.016C758.344 161.031 758.273 160.133 758.133 159.32C757.992 158.492 757.766 157.773 757.453 157.164C757.156 156.555 756.758 156.086 756.258 155.758C755.758 155.43 755.141 155.266 754.406 155.266C753.562 155.266 752.852 155.398 752.273 155.664C751.711 155.914 751.258 156.305 750.914 156.836C750.586 157.352 750.352 158 750.211 158.781C750.086 159.547 750.031 160.445 750.047 161.477V163.398C750.016 164.586 750.133 165.633 750.398 166.539C750.664 167.43 751.125 168.125 751.781 168.625C752.438 169.125 753.328 169.375 754.453 169.375C755.203 169.375 755.828 169.203 756.328 168.859C756.828 168.5 757.227 168.008 757.523 167.383C757.82 166.742 758.031 166.008 758.156 165.18C758.281 164.352 758.344 163.461 758.344 162.508ZM782.039 175.469C779.977 175.469 778.133 175.148 776.508 174.508C774.883 173.852 773.508 172.953 772.383 171.812C771.273 170.672 770.422 169.359 769.828 167.875C769.25 166.391 768.961 164.82 768.961 163.164V162.273C768.961 160.414 769.219 158.695 769.734 157.117C770.25 155.523 771.016 154.133 772.031 152.945C773.047 151.758 774.32 150.836 775.852 150.18C777.383 149.508 779.164 149.172 781.195 149.172C782.992 149.172 784.602 149.461 786.023 150.039C787.445 150.617 788.648 151.445 789.633 152.523C790.633 153.602 791.391 154.906 791.906 156.438C792.438 157.969 792.703 159.688 792.703 161.594V164.805H771.984V159.859H784.992V159.25C785.008 158.406 784.859 157.688 784.547 157.094C784.25 156.5 783.812 156.047 783.234 155.734C782.656 155.422 781.953 155.266 781.125 155.266C780.266 155.266 779.555 155.453 778.992 155.828C778.445 156.203 778.016 156.719 777.703 157.375C777.406 158.016 777.195 158.758 777.07 159.602C776.945 160.445 776.883 161.336 776.883 162.273V163.164C776.883 164.102 777.008 164.953 777.258 165.719C777.523 166.484 777.898 167.141 778.383 167.688C778.883 168.219 779.477 168.633 780.164 168.93C780.867 169.227 781.664 169.375 782.555 169.375C783.633 169.375 784.695 169.172 785.742 168.766C786.789 168.359 787.688 167.688 788.438 166.75L792.023 171.016C791.508 171.75 790.773 172.461 789.82 173.148C788.883 173.836 787.758 174.398 786.445 174.836C785.133 175.258 783.664 175.469 782.039 175.469ZM806.625 169.375C807.359 169.375 807.984 169.242 808.5 168.977C809.031 168.695 809.43 168.305 809.695 167.805C809.977 167.289 810.109 166.672 810.094 165.953H817.523C817.539 167.859 817.07 169.531 816.117 170.969C815.18 172.391 813.898 173.5 812.273 174.297C810.664 175.078 808.844 175.469 806.812 175.469C804.828 175.469 803.094 175.148 801.609 174.508C800.125 173.852 798.883 172.945 797.883 171.789C796.898 170.617 796.156 169.25 795.656 167.688C795.172 166.125 794.93 164.43 794.93 162.602V162.062C794.93 160.234 795.172 158.539 795.656 156.977C796.156 155.398 796.898 154.031 797.883 152.875C798.883 151.703 800.117 150.797 801.586 150.156C803.07 149.5 804.797 149.172 806.766 149.172C808.875 149.172 810.734 149.57 812.344 150.367C813.969 151.164 815.242 152.32 816.164 153.836C817.086 155.352 817.539 157.188 817.523 159.344H810.094C810.109 158.578 809.992 157.891 809.742 157.281C809.492 156.672 809.102 156.188 808.57 155.828C808.055 155.453 807.391 155.266 806.578 155.266C805.766 155.266 805.109 155.445 804.609 155.805C804.109 156.164 803.727 156.664 803.461 157.305C803.211 157.93 803.039 158.648 802.945 159.461C802.867 160.273 802.828 161.141 802.828 162.062V162.602C802.828 163.539 802.867 164.422 802.945 165.25C803.039 166.062 803.219 166.781 803.484 167.406C803.75 168.016 804.133 168.5 804.633 168.859C805.133 169.203 805.797 169.375 806.625 169.375ZM834.258 149.641V155.125H818.977V149.641H834.258ZM822.188 143.336H830.086V166.727C830.086 167.398 830.164 167.922 830.32 168.297C830.477 168.656 830.742 168.914 831.117 169.07C831.508 169.211 832.023 169.281 832.664 169.281C833.117 169.281 833.492 169.273 833.789 169.258C834.086 169.227 834.367 169.188 834.633 169.141V174.789C833.961 175.008 833.258 175.172 832.523 175.281C831.789 175.406 831.008 175.469 830.18 175.469C828.492 175.469 827.047 175.203 825.844 174.672C824.656 174.141 823.75 173.305 823.125 172.164C822.5 171.023 822.188 169.539 822.188 167.711V143.336ZM857.32 155.922V175H849.422V149.641H856.805L857.32 155.922ZM864.82 149.453L864.68 156.789C864.367 156.758 863.945 156.719 863.414 156.672C862.883 156.625 862.438 156.602 862.078 156.602C861.156 156.602 860.359 156.711 859.688 156.93C859.031 157.133 858.484 157.445 858.047 157.867C857.625 158.273 857.312 158.789 857.109 159.414C856.922 160.039 856.836 160.766 856.852 161.594L855.422 160.656C855.422 158.953 855.586 157.406 855.914 156.016C856.258 154.609 856.742 153.398 857.367 152.383C857.992 151.352 858.75 150.562 859.641 150.016C860.531 149.453 861.531 149.172 862.641 149.172C863.031 149.172 863.414 149.195 863.789 149.242C864.18 149.289 864.523 149.359 864.82 149.453ZM880.008 168.625V158.172C880.008 157.453 879.906 156.836 879.703 156.32C879.5 155.805 879.18 155.406 878.742 155.125C878.305 154.828 877.719 154.68 876.984 154.68C876.391 154.68 875.883 154.781 875.461 154.984C875.039 155.188 874.719 155.492 874.5 155.898C874.281 156.305 874.172 156.82 874.172 157.445H866.273C866.273 156.273 866.531 155.188 867.047 154.188C867.578 153.172 868.328 152.289 869.297 151.539C870.281 150.789 871.453 150.211 872.812 149.805C874.188 149.383 875.719 149.172 877.406 149.172C879.422 149.172 881.219 149.508 882.797 150.18C884.391 150.852 885.648 151.859 886.57 153.203C887.492 154.531 887.953 156.203 887.953 158.219V168.602C887.953 170.258 888.047 171.516 888.234 172.375C888.422 173.219 888.688 173.961 889.031 174.602V175H881.109C880.734 174.219 880.453 173.266 880.266 172.141C880.094 171 880.008 169.828 880.008 168.625ZM880.969 159.508L881.016 163.727H877.523C876.789 163.727 876.164 163.828 875.648 164.031C875.148 164.234 874.742 164.516 874.43 164.875C874.133 165.219 873.914 165.609 873.773 166.047C873.648 166.484 873.586 166.945 873.586 167.43C873.586 167.898 873.695 168.32 873.914 168.695C874.148 169.055 874.461 169.336 874.852 169.539C875.242 169.742 875.68 169.844 876.164 169.844C877.039 169.844 877.781 169.68 878.391 169.352C879.016 169.008 879.492 168.594 879.82 168.109C880.148 167.625 880.312 167.172 880.312 166.75L882.047 169.984C881.734 170.609 881.375 171.242 880.969 171.883C880.578 172.523 880.086 173.117 879.492 173.664C878.914 174.195 878.203 174.633 877.359 174.977C876.516 175.305 875.492 175.469 874.289 175.469C872.727 175.469 871.289 175.148 869.977 174.508C868.68 173.867 867.641 172.977 866.859 171.836C866.078 170.68 865.688 169.352 865.688 167.852C865.688 166.539 865.922 165.367 866.391 164.336C866.875 163.305 867.602 162.43 868.57 161.711C869.539 160.992 870.773 160.445 872.273 160.07C873.773 159.695 875.539 159.508 877.57 159.508H880.969ZM905.695 149.641V155.125H890.414V149.641H905.695ZM893.625 143.336H901.523V166.727C901.523 167.398 901.602 167.922 901.758 168.297C901.914 168.656 902.18 168.914 902.555 169.07C902.945 169.211 903.461 169.281 904.102 169.281C904.555 169.281 904.93 169.273 905.227 169.258C905.523 169.227 905.805 169.188 906.07 169.141V174.789C905.398 175.008 904.695 175.172 903.961 175.281C903.227 175.406 902.445 175.469 901.617 175.469C899.93 175.469 898.484 175.203 897.281 174.672C896.094 174.141 895.188 173.305 894.562 172.164C893.938 171.023 893.625 169.539 893.625 167.711V143.336ZM917.18 149.641V175H909.258V149.641H917.18ZM908.789 143.102C908.789 141.977 909.195 141.055 910.008 140.336C910.82 139.617 911.875 139.258 913.172 139.258C914.469 139.258 915.523 139.617 916.336 140.336C917.148 141.055 917.555 141.977 917.555 143.102C917.555 144.227 917.148 145.148 916.336 145.867C915.523 146.586 914.469 146.945 913.172 146.945C911.875 146.945 910.82 146.586 910.008 145.867C909.195 145.148 908.789 144.227 908.789 143.102ZM921.07 162.578V162.086C921.07 160.227 921.336 158.516 921.867 156.953C922.398 155.375 923.18 154.008 924.211 152.852C925.242 151.695 926.516 150.797 928.031 150.156C929.547 149.5 931.297 149.172 933.281 149.172C935.281 149.172 937.039 149.5 938.555 150.156C940.086 150.797 941.367 151.695 942.398 152.852C943.43 154.008 944.211 155.375 944.742 156.953C945.273 158.516 945.539 160.227 945.539 162.086V162.578C945.539 164.422 945.273 166.133 944.742 167.711C944.211 169.273 943.43 170.641 942.398 171.812C941.367 172.969 940.094 173.867 938.578 174.508C937.062 175.148 935.312 175.469 933.328 175.469C931.344 175.469 929.586 175.148 928.055 174.508C926.523 173.867 925.242 172.969 924.211 171.812C923.18 170.641 922.398 169.273 921.867 167.711C921.336 166.133 921.07 164.422 921.07 162.578ZM928.969 162.086V162.578C928.969 163.531 929.039 164.422 929.18 165.25C929.32 166.078 929.555 166.805 929.883 167.43C930.211 168.039 930.656 168.516 931.219 168.859C931.781 169.203 932.484 169.375 933.328 169.375C934.156 169.375 934.844 169.203 935.391 168.859C935.953 168.516 936.398 168.039 936.727 167.43C937.055 166.805 937.289 166.078 937.43 165.25C937.57 164.422 937.641 163.531 937.641 162.578V162.086C937.641 161.164 937.57 160.297 937.43 159.484C937.289 158.656 937.055 157.93 936.727 157.305C936.398 156.664 935.953 156.164 935.391 155.805C934.828 155.445 934.125 155.266 933.281 155.266C932.453 155.266 931.758 155.445 931.195 155.805C930.648 156.164 930.211 156.664 929.883 157.305C929.555 157.93 929.32 158.656 929.18 159.484C929.039 160.297 928.969 161.164 928.969 162.086ZM962.344 167.875C962.344 167.438 962.195 167.062 961.898 166.75C961.617 166.422 961.117 166.125 960.398 165.859C959.68 165.578 958.672 165.297 957.375 165.016C956.141 164.75 954.977 164.398 953.883 163.961C952.805 163.523 951.859 162.992 951.047 162.367C950.234 161.742 949.594 161 949.125 160.141C948.672 159.281 948.445 158.297 948.445 157.188C948.445 156.109 948.672 155.094 949.125 154.141C949.594 153.172 950.273 152.32 951.164 151.586C952.07 150.836 953.172 150.25 954.469 149.828C955.766 149.391 957.242 149.172 958.898 149.172C961.18 149.172 963.148 149.523 964.805 150.227C966.461 150.914 967.734 151.883 968.625 153.133C969.531 154.367 969.984 155.797 969.984 157.422H962.086C962.086 156.781 961.977 156.234 961.758 155.781C961.555 155.328 961.219 154.984 960.75 154.75C960.281 154.5 959.656 154.375 958.875 154.375C958.328 154.375 957.828 154.477 957.375 154.68C956.938 154.883 956.586 155.164 956.32 155.523C956.055 155.883 955.922 156.305 955.922 156.789C955.922 157.133 956 157.445 956.156 157.727C956.328 157.992 956.586 158.242 956.93 158.477C957.273 158.695 957.711 158.898 958.242 159.086C958.773 159.258 959.414 159.414 960.164 159.555C961.867 159.867 963.461 160.312 964.945 160.891C966.43 161.469 967.633 162.289 968.555 163.352C969.492 164.414 969.961 165.844 969.961 167.641C969.961 168.766 969.703 169.805 969.188 170.758C968.672 171.695 967.93 172.523 966.961 173.242C965.992 173.945 964.828 174.492 963.469 174.883C962.109 175.273 960.578 175.469 958.875 175.469C956.453 175.469 954.406 175.039 952.734 174.18C951.062 173.305 949.797 172.211 948.938 170.898C948.094 169.57 947.672 168.227 947.672 166.867H955.031C955.062 167.648 955.25 168.289 955.594 168.789C955.953 169.289 956.43 169.656 957.023 169.891C957.617 170.125 958.305 170.242 959.086 170.242C959.805 170.242 960.398 170.141 960.867 169.938C961.352 169.734 961.719 169.461 961.969 169.117C962.219 168.758 962.344 168.344 962.344 167.875ZM974.18 171.297C974.18 170.172 974.586 169.234 975.398 168.484C976.211 167.719 977.258 167.336 978.539 167.336C979.836 167.336 980.883 167.719 981.68 168.484C982.492 169.234 982.898 170.172 982.898 171.297C982.898 172.422 982.492 173.367 981.68 174.133C980.883 174.883 979.836 175.258 978.539 175.258C977.258 175.258 976.211 174.883 975.398 174.133C974.586 173.367 974.18 172.422 974.18 171.297Z" fill="black"/>
<path d="M1134 0H1348C1356.28 0 1363 6.71573 1363 15V204C1363 212.284 1356.28 219 1348 219H1134V0Z" fill="#BFDBF7"/>
<path d="M1248.5 139.917C1244.51 139.917 1240.55 139.13 1236.86 137.601C1233.17 136.073 1229.82 133.832 1226.99 131.008C1221.29 125.304 1218.08 117.567 1218.08 109.5C1218.08 101.433 1221.29 93.6964 1226.99 87.9922C1232.7 82.2879 1240.43 79.0833 1248.5 79.0833C1265.23 79.0833 1278.92 91.25 1278.92 106.458C1278.92 111.299 1276.99 115.94 1273.57 119.363C1270.15 122.786 1265.51 124.708 1260.67 124.708H1255.19C1254.28 124.708 1253.67 125.317 1253.67 126.229C1253.67 126.533 1253.97 126.837 1253.97 127.142C1255.19 128.662 1255.8 130.487 1255.8 132.312C1256.1 136.571 1252.76 139.917 1248.5 139.917ZM1248.5 85.1667C1242.05 85.1667 1235.86 87.7303 1231.29 92.2937C1226.73 96.8571 1224.17 103.046 1224.17 109.5C1224.17 115.954 1226.73 122.143 1231.29 126.706C1235.86 131.27 1242.05 133.833 1248.5 133.833C1249.41 133.833 1250.02 133.225 1250.02 132.312C1250.02 131.704 1249.72 131.4 1249.72 131.096C1248.5 129.575 1247.89 128.054 1247.89 126.229C1247.89 121.971 1251.24 118.625 1255.5 118.625H1260.67C1263.89 118.625 1266.99 117.343 1269.27 115.061C1271.55 112.78 1272.83 109.685 1272.83 106.458C1272.83 94.5958 1261.88 85.1667 1248.5 85.1667ZM1231.77 103.417C1234.2 103.417 1236.33 105.546 1236.33 107.979C1236.33 110.412 1234.2 112.542 1231.77 112.542C1229.34 112.542 1227.21 110.412 1227.21 107.979C1227.21 105.546 1229.34 103.417 1231.77 103.417ZM1240.9 91.25C1243.33 91.25 1245.46 93.3792 1245.46 95.8125C1245.46 98.2458 1243.33 100.375 1240.9 100.375C1238.46 100.375 1236.33 98.2458 1236.33 95.8125C1236.33 93.3792 1238.46 91.25 1240.9 91.25ZM1256.1 91.25C1258.54 91.25 1260.67 93.3792 1260.67 95.8125C1260.67 98.2458 1258.54 100.375 1256.1 100.375C1253.67 100.375 1251.54 98.2458 1251.54 95.8125C1251.54 93.3792 1253.67 91.25 1256.1 91.25ZM1265.23 103.417C1267.66 103.417 1269.79 105.546 1269.79 107.979C1269.79 110.412 1267.66 112.542 1265.23 112.542C1262.8 112.542 1260.67 110.412 1260.67 107.979C1260.67 105.546 1262.8 103.417 1265.23 103.417Z" fill="white"/>
</svg>
